<svg xmlns="http://www.w3.org/2000/svg" width="51.48" height="61.56" viewBox="0 0 51.48 61.56">
  <g id="certifications" transform="translate(0 -5)">
    <g id="CN-AboutUs_300620" transform="translate(-866 -2803)">
      <g id="Block-3-Copy" transform="translate(0 2357)">
        <g id="Text" transform="translate(366 73)">
          <g id="Group-30">
            <g id="Group-37" transform="translate(0 113)">
              <g id="Group-26-Copy" transform="translate(471 232)">
                <g id="Group-50" transform="translate(29 28)">
                  <g id="experience">
                    <g id="Group" transform="translate(0 5)">
                      <g id="Group_159" data-name="Group 159">
                        <path id="Shape" d="M40.623,0H8.32V30.4a9.092,9.092,0,0,0-5.2,15.915V61.56H5.263L9.1,57.723l3.837,3.837H15.08V54.8h36.4V10.857Zm.457,2.663L48.817,10.4H41.08ZM13.52,59.937,9.1,55.517l-4.42,4.42V47.411a9.073,9.073,0,0,0,8.84,0ZM9.1,47a7.54,7.54,0,1,1,7.54-7.54A7.549,7.549,0,0,1,9.1,47Zm40.82,6.24H15.08v-6.93A9.092,9.092,0,0,0,9.88,30.4V1.56H39.52v10.4h10.4Z" fill="#fff"/>
                        <path id="Path" d="M15.34,9.32H27.82v1.56H15.34Z" fill="#fff"/>
                        <path id="Path-2" data-name="Path" d="M15.34,17.88H44.46v1.56H15.34Z" fill="#fff"/>
                        <path id="Path-3" data-name="Path" d="M15.34,26.2H44.46v1.56H15.34Z" fill="#fff"/>
                        <path id="Path-4" data-name="Path" d="M19.5,30.36H40.3v1.56H19.5Z" fill="#fff"/>
                        <path id="Path-5" data-name="Path" d="M15.34,22.04H44.46V23.6H15.34Z" fill="#fff"/>
                        <path id="Path-6" data-name="Path" d="M31.98,36.6H44.46v1.56H31.98Z" fill="#fff"/>
                        <path id="Path-7" data-name="Path" d="M36.14,40.76h8.32v1.56H36.14Z" fill="#fff"/>
                        <path id="Shape-2" data-name="Shape" d="M9.1,34.52a4.94,4.94,0,1,0,4.94,4.94A4.946,4.946,0,0,0,9.1,34.52Zm0,8.32a3.38,3.38,0,1,1,3.38-3.38A3.384,3.384,0,0,1,9.1,42.84Z" fill="#fff"/>
                      </g>
                    </g>
                  </g>
                </g>
              </g>
            </g>
          </g>
        </g>
      </g>
    </g>
  </g>
</svg>
