<svg xmlns="http://www.w3.org/2000/svg" width="74" height="41.396" viewBox="0 0 74 41.396">
  <g id="gdelivery" transform="translate(0 -0.061)">
    <g id="CN-AboutUs_300620" transform="translate(0 0.061)">
      <g id="Block-3-Copy" transform="translate(0 0)">
        <g id="Text" transform="translate(0 0)">
          <g id="Group-30">
            <g id="Group-37">
              <g id="Group-26-Copy-5" transform="translate(0 0)">
                <g id="Group-51" transform="translate(0 0)">
                  <g id="customer" transform="translate(0 0)">
                    <path id="Shape" d="M35.5.06A7.1,7.1,0,0,0,28.4,7.152v4.138a7.092,7.092,0,0,0,14.184,0V7.152A7.1,7.1,0,0,0,35.5.06Zm5.323,11.23a5.323,5.323,0,0,1-10.646,0V7.152a5.323,5.323,0,0,1,10.646,0Z" transform="translate(1.503 -0.06)"/>
                    <path id="Shape-2" data-name="Shape" d="M56.37,3.391a6.535,6.535,0,0,0-6.527,6.527V13.68a6.527,6.527,0,1,0,13.055,0V9.919A6.535,6.535,0,0,0,56.37,3.391ZM61.129,13.68a4.759,4.759,0,1,1-9.517,0V9.918a4.759,4.759,0,1,1,9.517,0Z" transform="translate(2.638 0.116)"/>
                    <path id="Shape-3" data-name="Shape" d="M66.532,21.8H64.154a.8.8,0,0,1-.8-.8.884.884,0,0,0-1.717-.3l-.946,2.635a1.771,1.771,0,0,1-3.341-.021l-.9-2.624a.885.885,0,0,0-1.462-.337l-.021.021a.884.884,0,0,0-.259.625.8.8,0,0,1-.8.8H51.484a7.548,7.548,0,0,0-1.141.087,8.086,8.086,0,0,0-5.067-1.78H42.661a.973.973,0,0,1-.973-.973.884.884,0,0,0-1.717-.3l-1.04,2.9a2.037,2.037,0,0,1-3.842-.025l-.995-2.887a.884.884,0,0,0-1.462-.336l-.023.023a.884.884,0,0,0-.258.624.973.973,0,0,1-.973.973H28.724a8.086,8.086,0,0,0-5.068,1.781,7.521,7.521,0,0,0-1.14-.088H20.138a.8.8,0,0,1-.8-.8.884.884,0,0,0-1.717-.3l-.945,2.635a1.771,1.771,0,0,1-3.341-.021l-.9-2.624a.884.884,0,0,0-1.462-.337l-.021.021a.884.884,0,0,0-.259.625.8.8,0,0,1-.8.8H7.468A7.477,7.477,0,0,0,0,29.265V39.611a.884.884,0,0,0,.884.884H73.116A.884.884,0,0,0,74,39.611V29.265A7.477,7.477,0,0,0,66.532,21.8ZM20.6,28.231v10.5H1.769V29.265a5.706,5.706,0,0,1,5.7-5.7H9.88a2.559,2.559,0,0,0,1.5-.484l.277.8a3.54,3.54,0,0,0,6.679.042l.3-.844a2.56,2.56,0,0,0,1.415.481h2.02A8.078,8.078,0,0,0,20.6,28.231Zm31.037,10.5H22.366v-10.5a6.365,6.365,0,0,1,6.357-6.357h2.653a2.728,2.728,0,0,0,1.7-.588l.344,1a3.806,3.806,0,0,0,7.18.046l.374-1.041a2.727,2.727,0,0,0,1.6.584h2.7a6.365,6.365,0,0,1,6.357,6.357Zm20.6,0H53.4v-10.5a8.078,8.078,0,0,0-1.478-4.665H53.9a2.558,2.558,0,0,0,1.5-.484l.277.8a3.54,3.54,0,0,0,6.679.042l.3-.844a2.56,2.56,0,0,0,1.415.481h2.461a5.706,5.706,0,0,1,5.7,5.7Z" transform="translate(0 0.901)"/>
                    <path id="Shape-4" data-name="Shape" d="M8.039,9.919V13.68a6.527,6.527,0,0,0,13.055,0V9.919a6.527,6.527,0,0,0-13.055,0Zm11.286,0V13.68a4.759,4.759,0,0,1-9.517,0V9.919a4.759,4.759,0,0,1,9.517,0Z" transform="translate(0.426 0.116)"/>
                  </g>
                </g>
              </g>
            </g>
          </g>
        </g>
      </g>
    </g>
  </g>
</svg>
