<svg id="revenue" xmlns="http://www.w3.org/2000/svg" width="57.666" height="57.667" viewBox="0 0 57.666 57.667">
  <g id="CN-AboutUs_300620">
    <g id="Block-3-Copy">
      <g id="Text" transform="translate(0 0)">
        <g id="Group-30" transform="translate(0)">
          <g id="Group-37">
            <g id="Group-26">
              <g id="Group-51" transform="translate(0 0)">
                <g id="growth" transform="translate(0)">
                  <g id="Group">
                    <path id="Path" d="M40.771,19.741v-1.86a2.79,2.79,0,1,0,0-5.581H38.91a.93.93,0,0,1,0-1.86H41.7v.93h1.86V8.58h-2.79V6.72H38.91V8.58a2.79,2.79,0,0,0,0,5.581h1.86a.93.93,0,1,1,0,1.86H37.98v-.93H36.12v2.79h2.79v1.86Z" transform="translate(3.874 0.721)" fill="#fff"/>
                    <path id="Shape" d="M50.7,13.591A10.231,10.231,0,1,0,40.471,23.822,10.243,10.243,0,0,0,50.7,13.591Zm-18.6,0a8.371,8.371,0,1,1,8.371,8.371A8.38,8.38,0,0,1,32.1,13.591Z" transform="translate(3.244 0.36)" fill="#fff"/>
                    <path id="Shape-2" data-name="Shape" d="M57.666,13.952a13.952,13.952,0,1,0-18.969,13l-1.879,1.879H29.341L22.83,36.274H11.685L.247,48.664l1.366,1.262L12.5,38.134H23.676l6.511-7.441h7.4l3.124-3.124a13.884,13.884,0,0,0,2.635.315l-4.67,4.669H30.228l-5.581,7.441H13.529L0,55.457v2.21H53.946V23.405A13.885,13.885,0,0,0,57.666,13.952Zm-26.043,0A12.091,12.091,0,1,1,43.715,26.043,12.105,12.105,0,0,1,31.624,13.952ZM46.505,27.622V55.806h-3.72V31.079l3.409-3.409C46.3,27.651,46.4,27.643,46.505,27.622Zm-7.056,6.792,1.475-1.475V55.806H37.2V34.414ZM13.021,55.806H9.3V47.652l3.72-4.251Zm1.86-13.952H18.6V55.806h-3.72Zm5.581,0h3.72V55.806h-3.72Zm5.581-.62,3.72-4.96V55.806h-3.72Zm5.581-6.82h3.72V55.806h-3.72ZM7.441,49.778v6.028H2.166Zm40.925,6.028V27.089a13.925,13.925,0,0,0,3.72-2V55.806Z" fill="#fff"/>
                  </g>
                </g>
              </g>
            </g>
          </g>
        </g>
      </g>
    </g>
  </g>
</svg>
