<svg id="revenue-growth" xmlns="http://www.w3.org/2000/svg" width="54.609" height="54.608" viewBox="0 0 54.609 54.608">
  <g id="CN-AboutUs_300620">
    <g id="Block-3-Copy">
      <g id="Text" transform="translate(0 0)">
        <g id="Group-30" transform="translate(0 0)">
          <g id="Group-37">
            <g id="Group-58" transform="translate(0 0)">
              <g id="Group-6">
                <g id="revenue" transform="translate(0)">
                  <path id="Path" d="M8.624,14.393v.964a3.44,3.44,0,0,0,2.642,3.337v1.864h1.762V18.693a3.434,3.434,0,0,0,.291-6.6l-1.784-.6a1.678,1.678,0,0,1,.53-3.27h.166A1.68,1.68,0,0,1,13.909,9.9v.084L15.67,9.9a3.44,3.44,0,0,0-2.642-3.337V4.7H11.266V6.569a3.434,3.434,0,0,0-.291,6.6l1.784.6a1.678,1.678,0,0,1-.53,3.27h-.166a1.68,1.68,0,0,1-1.679-1.678v-.964Z" transform="translate(1.065 0.581)" fill="#fff"/>
                  <path id="Path-2" data-name="Path" d="M6.719,22.563a13.108,13.108,0,0,0,1.9.727l.5-1.689a11.349,11.349,0,0,1-1.64-.629Z" transform="translate(0.829 2.589)" fill="#fff"/>
                  <path id="Path-3" data-name="Path" d="M5.661,24.055l1.008-1.445A11.447,11.447,0,1,1,24.493,11.323L22.548,9.865l-1.057,1.409,4.052,3.039,4.052-3.039L28.537,9.865l-2.232,1.673A13.206,13.206,0,1,0,5.661,24.055Z" fill="#fff"/>
                  <path id="Shape" d="M37.312,13.662,26.667,24.307,20.5,18.141,5.163,33.479l3.888,3.888L20.5,25.917l6.165,6.165L41.2,17.55,42.36,18.71a2.308,2.308,0,0,0,3.9-1.178l1.5-7.505a2.452,2.452,0,0,0,.048-.488,2.486,2.486,0,0,0-2.484-2.483,2.523,2.523,0,0,0-.487.048l-7.5,1.5a2.314,2.314,0,0,0-1.856,2.264,2.291,2.291,0,0,0,.676,1.632Zm.364-3.329,7.5-1.5a.732.732,0,0,1,.864.707.693.693,0,0,1-.014.142l-1.5,7.505a.568.568,0,0,1-.923.279L41.2,15.059,26.667,29.591,20.5,23.426,9.051,34.876l-1.4-1.4L20.5,20.632,26.667,26.8,39.8,13.662,37.4,11.256a.547.547,0,0,1,.279-.923Z" transform="translate(0.637 0.871)" fill="#fff"/>
                  <path id="Shape-2" data-name="Shape" d="M44.039,38.106V35.464h2.642a7.936,7.936,0,0,0,7.927-7.927v-.881H50.2a7.933,7.933,0,0,0-7.812,6.632,7.913,7.913,0,0,0-6.281-3.109h-4.4v.881a7.945,7.945,0,0,0,.469,2.642H20.258a2.646,2.646,0,0,0-2.642,2.642v1.762a2.608,2.608,0,0,0,.281,1.162,2.608,2.608,0,0,0-1.162-.281H2.642A2.646,2.646,0,0,0,0,41.629v1.762a2.625,2.625,0,0,0,.687,1.762A2.625,2.625,0,0,0,0,46.914v1.762a2.646,2.646,0,0,0,2.642,2.642H16.735a2.625,2.625,0,0,0,1.762-.687,2.621,2.621,0,0,0,1.762.687H34.35a2.646,2.646,0,0,0,2.642-2.642V46.914a2.625,2.625,0,0,0-.687-1.762,2.621,2.621,0,0,0,.687-1.762V41.629a2.625,2.625,0,0,0-.687-1.762,2.621,2.621,0,0,0,.647-1.365,7.933,7.933,0,0,0,2.683.484h2.642V51.318h4.4a7.936,7.936,0,0,0,7.927-7.927V42.51h-4.4a7.912,7.912,0,0,0-6.165,2.956v-7.36ZM50.2,44.271h2.58a6.175,6.175,0,0,1-6.1,5.285H44.1A6.175,6.175,0,0,1,50.2,44.271Zm0-15.854h2.58a6.175,6.175,0,0,1-6.1,5.285H44.1A6.175,6.175,0,0,1,50.2,28.418ZM19.377,36.345a.882.882,0,0,1,.881-.881h.881v1.762H22.9V35.464h1.762v1.762h1.762V35.464h1.762v1.762h1.762V35.464h1.762v1.762h1.762V35.464h.881a.882.882,0,0,1,.881.881v1.762a.882.882,0,0,1-.881.881H20.258a.882.882,0,0,1-.881-.881Zm15.854,5.285v1.762a.882.882,0,0,1-.881.881H20.258a.882.882,0,0,1-.881-.881V41.629a.882.882,0,0,1,.881-.881h.881V42.51H22.9V40.748h1.762V42.51h1.762V40.748h1.762V42.51h1.762V40.748h1.762V42.51h1.762V40.748h.881A.882.882,0,0,1,35.231,41.629Zm-33.469,0a.882.882,0,0,1,.881-.881h.881V42.51H5.285V40.748H7.046V42.51H8.808V40.748h1.762V42.51h1.762V40.748h1.762V42.51h1.762V40.748h.881a.882.882,0,0,1,.881.881v1.762a.882.882,0,0,1-.881.881H2.642a.882.882,0,0,1-.881-.881Zm14.973,7.927H2.642a.882.882,0,0,1-.881-.881V46.914a.882.882,0,0,1,.881-.881h.881v1.762H5.285V46.033H7.046v1.762H8.808V46.033h1.762v1.762h1.762V46.033h1.762v1.762h1.762V46.033h.881a.882.882,0,0,1,.881.881v1.762A.882.882,0,0,1,16.735,49.556Zm18.5-.881a.882.882,0,0,1-.881.881H20.258a.882.882,0,0,1-.881-.881V46.914a.882.882,0,0,1,.881-.881h.881v1.762H22.9V46.033h1.762v1.762h1.762V46.033h1.762v1.762h1.762V46.033h1.762v1.762h1.762V46.033h.881a.882.882,0,0,1,.881.881Zm4.4-11.45a6.158,6.158,0,0,1-2.642-.607v-.274A2.646,2.646,0,0,0,34.35,33.7h-.283a6.16,6.16,0,0,1-.535-1.762h2.579a6.175,6.175,0,0,1,6.1,5.285Z" transform="translate(0 3.29)" fill="#fff"/>
                </g>
              </g>
            </g>
          </g>
        </g>
      </g>
    </g>
  </g>
</svg>
