<?xml version="1.0" encoding="utf-8"?>
<!-- Generator: Adobe Illustrator 25.0.1, SVG Export Plug-In . SVG Version: 6.00 Build 0)  -->
<svg version="1.1" id="Layer_1" xmlns="http://www.w3.org/2000/svg" xmlns:xlink="http://www.w3.org/1999/xlink" x="0px" y="0px"
	 viewBox="0 0 70.1 70.1" style="enable-background:new 0 0 70.1 70.1;" xml:space="preserve">
<style type="text/css">
	.st0{fill:#FFFFFF;}
</style>
<g id="mobilephone_路_ecommerce_路_shopping_路_buy_路_cart" transform="translate(-2 -2)">
	<path id="Path_716" class="st0" d="M19.5,7.8h1.2c0.6,0,1.2-0.5,1.2-1.1s-0.5-1.2-1.1-1.2c0,0,0,0-0.1,0h-1.2
		c-0.6,0-1.2,0.5-1.2,1.1C18.3,7.3,18.8,7.8,19.5,7.8L19.5,7.8z"/>
	<path id="Path_717" class="st0" d="M25.4,7.8h1.2c0.6,0,1.2-0.5,1.2-1.1s-0.5-1.2-1.1-1.2c0,0,0,0-0.1,0h-1.2
		c-0.6,0-1.2,0.5-1.2,1.1S24.7,7.8,25.4,7.8C25.3,7.8,25.3,7.8,25.4,7.8z"/>
	<path id="Path_718" class="st0" d="M70.9,13.7H44.1V7.8c0-3.2-2.6-5.8-5.8-5.8l0,0H7.8C4.6,2,2,4.6,2,7.8l0,0v52.6
		c0,3.2,2.6,5.8,5.8,5.8H30v4.7c0,0.6,0.5,1.2,1.2,1.2h23.4c0.6,0,1.2-0.5,1.2-1.2v-7c0-0.6-0.5-1.2-1.2-1.2h-1.2v-0.5
		c0-0.2,0.1-0.5,0.2-0.7l0.8-1.1c0.9-1.3,1.4-2.9,1.4-4.5V44.1H71c0.6,0,1.2-0.5,1.2-1.2v-28C72.1,14.2,71.6,13.7,70.9,13.7z
		 M4.3,7.8c0-1.9,1.6-3.5,3.5-3.5h30.4c1.9,0,3.5,1.6,3.5,3.5V9H4.3V7.8z M4.3,11.3h37.4v2.3h-3.5c-0.6,0-1.2,0.5-1.2,1.2v13.1
		c-1.4,0.5-2.3,1.9-2.3,3.4v10.4h-1.2c-1.9,0-3.5,1.6-3.5,3.5v9.3H4.3V11.3z M30,63.9H7.8c-1.9,0-3.5-1.6-3.5-3.5v-3.5h25.8
		c0.1,1.3,0.6,2.5,1.3,3.6l0.8,1.1c0.1,0.2,0.2,0.4,0.2,0.7v0.5h-1.2C30.6,62.8,30,63.3,30,63.9L30,63.9z M53.4,69.8h-21v-4.7h21
		V69.8z M53.4,56c0,1.2-0.3,2.3-1,3.2l-0.8,1.1c-0.4,0.6-0.6,1.3-0.6,2v0.5H34.7v-0.5c0-0.7-0.2-1.4-0.6-2l-0.8-1.1
		c-0.6-1-1-2.1-1-3.2V45.2c0-0.6,0.5-1.2,1.2-1.2h1.2v5.8c0,0.6,0.5,1.2,1.1,1.2s1.2-0.5,1.2-1.1c0,0,0,0,0-0.1V31.3
		c0-0.6,0.4-1.2,1.1-1.3c0.4,0,0.7,0.1,0.9,0.4c0.2,0.2,0.3,0.5,0.3,0.8v14c0,0.6,0.6,1.2,1.2,1.1c0.6,0,1.1-0.5,1.1-1.1v-5.8
		c0-0.6,0.5-1.2,1.2-1.2c0.3,0,0.6,0.1,0.8,0.4c0.2,0.2,0.3,0.5,0.3,0.8v5.8c0,0.6,0.5,1.2,1.1,1.2s1.2-0.5,1.2-1.1c0,0,0,0,0-0.1
		v-4.7c0-0.6,0.5-1.2,1.2-1.2c0.3,0,0.6,0.1,0.8,0.4c0.2,0.2,0.3,0.5,0.3,0.8v4.7c0,0.6,0.6,1.2,1.2,1.1c0.6,0,1.1-0.5,1.1-1.1v-2.3
		c0-0.6,0.5-1.2,1.2-1.2c0.3,0,0.6,0.1,0.8,0.4c0.2,0.2,0.3,0.5,0.3,0.8L53.4,56z M69.8,41.7H55.5c-0.2-0.5-0.4-0.9-0.8-1.3
		c-1-1-2.5-1.3-3.8-0.8c-0.2-0.6-0.5-1.1-0.9-1.5c-1.1-1.1-2.8-1.3-4.2-0.6c-0.1-0.2-0.3-0.4-0.5-0.6c-1-0.9-2.4-1.3-3.7-0.8v-4.9
		c0-0.9-0.4-1.8-1-2.5c-0.4-0.4-0.8-0.7-1.3-0.8V16h30.4v25.7H69.8z"/>
	<path id="Path_719" class="st0" d="M11.3,38.2h-1.2c-0.6,0-1.2,0.5-1.2,1.1s0.5,1.2,1.1,1.2c0,0,0,0,0.1,0h1.2
		c0.6,0,1.2-0.6,1.1-1.2C12.5,38.7,12,38.2,11.3,38.2L11.3,38.2z"/>
	<path id="Path_720" class="st0" d="M27.7,38.2H16c-0.6,0-1.2,0.5-1.2,1.1s0.5,1.2,1.1,1.2c0,0,0,0,0.1,0h11.7
		c0.6,0,1.2-0.5,1.2-1.1C28.9,38.8,28.4,38.2,27.7,38.2C27.8,38.2,27.7,38.2,27.7,38.2z"/>
	<path id="Path_721" class="st0" d="M11.3,42.9h-1.2C9.5,42.9,9,43.4,9,44s0.5,1.2,1.1,1.2c0,0,0,0,0.1,0h1.2c0.6,0,1.2-0.6,1.1-1.2
		C12.5,43.4,12,42.9,11.3,42.9L11.3,42.9z"/>
	<path id="Path_722" class="st0" d="M25.4,42.9H16c-0.6,0-1.2,0.5-1.2,1.1s0.5,1.2,1.1,1.2c0,0,0,0,0.1,0h9.3c0.6,0,1.2-0.5,1.2-1.1
		C26.6,43.5,26.1,42.9,25.4,42.9L25.4,42.9z"/>
	<path id="Path_723" class="st0" d="M11.3,47.6h-1.2c-0.6,0-1.2,0.5-1.2,1.1s0.5,1.2,1.1,1.2c0,0,0,0,0.1,0h1.2
		c0.6,0,1.2-0.6,1.1-1.2C12.5,48.1,12,47.6,11.3,47.6L11.3,47.6z"/>
	<path id="Path_724" class="st0" d="M25.4,47.6H16c-0.6,0-1.2,0.5-1.2,1.1s0.5,1.2,1.1,1.2c0,0,0,0,0.1,0h9.3c0.6,0,1.2-0.5,1.2-1.1
		C26.6,48.1,26.1,47.6,25.4,47.6L25.4,47.6z"/>
	<circle id="Ellipse_45" class="st0" cx="52" cy="33.8" r="2.1"/>
	<circle id="Ellipse_46" class="st0" cx="58.4" cy="33.8" r="2.1"/>
	<path id="Path_725" class="st0" d="M47.6,21.9h1.3l0.2,1.3l0,0l0.9,7c0.1,0.6,0.6,1,1.2,1h8.2c0.5,0,1-0.3,1.1-0.8l2.3-7
		c0.2-0.6-0.1-1.3-0.7-1.5c-0.1,0-0.2-0.1-0.4-0.1H51.2L51,20.5c-0.1-0.6-0.6-1-1.2-1h-2.3c-0.6,0-1.2,0.6-1.1,1.2
		C46.5,21.3,47,21.8,47.6,21.9z M60,24.2l-1.6,4.7h-6.3l-0.6-4.7H60z"/>
	<path id="Path_726" class="st0" d="M25.4,59.3h-4.7c-0.6,0-1.2,0.6-1.1,1.2c0,0.6,0.5,1.1,1.1,1.1h4.7c0.6,0,1.2-0.5,1.2-1.1
		C26.6,59.8,26.1,59.3,25.4,59.3L25.4,59.3z"/>
	<path id="Path_727" class="st0" d="M33.8,17.2L29.1,16c-0.1,0-0.2,0-0.3,0h-2.4c-0.6,0-1.2,0.5-1.2,1.2l0,0c0,1.3-1,2.3-2.3,2.3
		s-2.3-1-2.3-2.3c0-0.6-0.5-1.2-1.2-1.2H17c-0.1,0-0.2,0-0.3,0l-4.6,1.2c-0.5,0.1-0.9,0.6-0.9,1.1V23c0,0.6,0.5,1.2,1.2,1.2
		c0.1,0,0.2,0,0.3,0l3.2-0.8v10.2c0,0.6,0.5,1.2,1.2,1.2l0,0h11.7c0.6,0,1.2-0.5,1.2-1.2l0,0V23.4l3.2,0.8c0.6,0.2,1.3-0.2,1.4-0.9
		c0-0.1,0-0.2,0-0.3v-4.7C34.7,17.8,34.4,17.4,33.8,17.2L33.8,17.2z M32.4,21.5l-3.2-0.8c-0.6-0.2-1.3,0.2-1.4,0.9
		c0,0.1,0,0.2,0,0.3v10.5h-9.3V21.9c0-0.6-0.5-1.2-1.2-1.2c-0.1,0-0.2,0-0.3,0l-3.2,0.8v-2.3l3.6-0.9h1.2c0.6,2.5,3.2,4,5.7,3.4
		c1.7-0.4,2.9-1.7,3.4-3.4h1.2l3.6,0.9L32.4,21.5L32.4,21.5z"/>
</g>
</svg>
