<?xml version="1.0" encoding="utf-8"?>
<!-- Generator: Adobe Illustrator 25.0.1, SVG Export Plug-In . SVG Version: 6.00 Build 0)  -->
<svg version="1.1" id="Layer_1" xmlns="http://www.w3.org/2000/svg" xmlns:xlink="http://www.w3.org/1999/xlink" x="0px" y="0px"
	 viewBox="0 0 512 512" style="enable-background:new 0 0 512 512;" xml:space="preserve">
<style type="text/css">
	.st0{fill:#FFFFFF;}
</style>
<g id="Icons">
	<path class="st0" d="M394.4,232c-3.8,0-6.9-3.1-6.9-6.9v-20.5c0-3.8,3.1-6.9,6.9-6.9s6.9,3.1,6.9,6.9v20.5
		C401.3,228.9,398.2,232,394.4,232z"/>
	<path class="st0" d="M373.6,498.2H138.4c-15.3,0-27.7-12.4-27.7-27.7v-429c0-15.3,12.4-27.7,27.7-27.7h235.2
		c15.3,0,27.7,12.4,27.7,27.7v114.6c0,3.8-3.1,6.9-6.9,6.9s-6.9-3.1-6.9-6.9V41.5c0-7.6-6.2-13.8-13.8-13.8H138.4
		c-7.6,0-13.8,6.2-13.8,13.8v429c0,7.6,6.2,13.8,13.8,13.8h235.2c7.6,0,13.8-6.2,13.8-13.8V342.1c0-3.8,3.1-6.9,6.9-6.9
		s6.9,3.1,6.9,6.9v128.4C401.3,485.8,388.9,498.2,373.6,498.2z"/>
	<path class="st0" d="M394.4,300.6c-3.8,0-6.9-3.1-6.9-6.9v-20.1c0-3.8,3.1-6.9,6.9-6.9s6.9,3.1,6.9,6.9v20.1
		C401.3,297.5,398.2,300.6,394.4,300.6z"/>
	<path class="st0" d="M394.4,94.6H117.6c-3.8,0-6.9-3.1-6.9-6.9c0-3.8,3.1-6.9,6.9-6.9h276.8c3.8,0,6.9,3.1,6.9,6.9
		C401.3,91.5,398.2,94.6,394.4,94.6z"/>
	<path class="st0" d="M394.4,416.2H117.6c-3.8,0-6.9-3.1-6.9-6.9s3.1-6.9,6.9-6.9h276.8c3.8,0,6.9,3.1,6.9,6.9
		S398.2,416.2,394.4,416.2z"/>
	<path class="st0" d="M286.5,62.3h-61c-3.8,0-6.9-3.1-6.9-6.9s3.1-6.9,6.9-6.9h61c3.8,0,6.9,3.1,6.9,6.9S290.3,62.3,286.5,62.3z"/>
	<path class="st0" d="M268.5,471.6h-25.1c-11.8,0-21.3-9.5-21.3-21.3c0-11.8,9.5-21.3,21.3-21.3c0,0,0,0,0,0h25.1
		c11.8,0,21.3,9.6,21.3,21.3C289.8,462,280.3,471.6,268.5,471.6z M243.5,442.8c-4.1,0-7.5,3.3-7.5,7.4c0,4.1,3.3,7.5,7.4,7.5
		c0,0,0,0,0,0h25.1c4.1,0,7.5-3.3,7.4-7.5c0-4.1-3.3-7.4-7.4-7.4H243.5z"/>
	<path class="st0" d="M268.1,354h-24.3c-4.7,0-8.8-3.3-9.8-7.9l-2.8-12.7c-6.2-1.8-12.2-4.3-17.9-7.4l-10.9,6.9
		c-4,2.5-9.2,1.9-12.5-1.4l-17.2-17.2c-3.3-3.3-3.9-8.5-1.4-12.5l6.9-10.9c-3.1-5.7-5.6-11.7-7.4-17.9l-12.7-2.8
		c-4.6-1-7.9-5.1-7.9-9.8v-24.3c0-4.7,3.3-8.8,7.9-9.8l12.7-2.8c1.8-6.2,4.3-12.2,7.4-17.9l-7-10.9c-2.5-4-2-9.2,1.4-12.5l17.2-17.2
		c3.3-3.3,8.5-3.9,12.5-1.4l10.9,7c5.7-3.1,11.7-5.6,17.9-7.4l2.8-12.7c1-4.6,5.1-7.9,9.8-7.9h24.3c4.7,0,8.8,3.3,9.8,7.9l2.8,12.7
		c6.2,1.8,12.2,4.3,17.9,7.4l10.9-7c4-2.5,9.2-1.9,12.5,1.4l17.2,17.2c3.4,3.3,3.9,8.5,1.4,12.5l-7,10.9c3.1,5.7,5.6,11.7,7.4,17.9
		l12.7,2.8c4.6,1,7.9,5.1,7.9,9.8v24.3c0,4.7-3.3,8.8-7.9,9.8l-12.7,2.8c-1.8,6.2-4.3,12.2-7.4,17.9l7,10.9c2.5,4,1.9,9.2-1.4,12.5
		L322,331.7c-3.3,3.3-8.5,3.9-12.5,1.4l-10.9-6.9c-5.7,3.1-11.7,5.6-17.9,7.4l-2.8,12.7C276.9,350.8,272.9,354.1,268.1,354
		L268.1,354z M246.9,340.2h18.2l3.1-13.8c0.6-2.6,2.6-4.6,5.1-5.2c7.7-1.8,15.1-4.9,21.9-9.1c2.3-1.4,5.1-1.4,7.4,0.1l11.9,7.6
		l12.9-12.9l-7.6-11.9c-1.4-2.2-1.4-5.1-0.1-7.4c4.2-6.8,7.2-14.1,9-21.8c0.6-2.6,2.6-4.6,5.2-5.2l13.8-3.1v-18.2l-13.8-3.1
		c-2.6-0.6-4.6-2.6-5.2-5.2c-1.8-7.7-4.9-15.1-9-21.9c-1.4-2.3-1.4-5.1,0.1-7.4l7.6-11.9l-12.9-12.9l-11.9,7.6
		c-2.2,1.4-5.1,1.4-7.4,0.1c-6.8-4.2-14.1-7.2-21.9-9.1c-2.6-0.6-4.6-2.6-5.2-5.2l-3.1-13.8h-18.2l-3.1,13.8
		c-0.6,2.6-2.6,4.6-5.2,5.2c-7.7,1.8-15.1,4.9-21.8,9c-2.3,1.4-5.1,1.4-7.4-0.1l-11.9-7.6l-12.9,12.9l7.6,11.9
		c1.4,2.2,1.4,5.1,0.1,7.4c-4.2,6.8-7.2,14.1-9,21.8c-0.6,2.6-2.6,4.6-5.2,5.2l-13.8,3.1v18.2l13.8,3.1c2.6,0.6,4.6,2.6,5.2,5.2
		c1.8,7.7,4.9,15.1,9,21.8c1.4,2.3,1.4,5.1-0.1,7.4l-7.6,11.9l12.9,12.9l11.9-7.6c2.2-1.4,5.1-1.4,7.4-0.1
		c6.8,4.2,14.2,7.2,21.9,9.1c2.6,0.6,4.6,2.7,5.1,5.2L246.9,340.2z"/>
	<path class="st0" d="M256,306c-31.8,0-57.5-25.8-57.5-57.5c0-31.8,25.8-57.5,57.5-57.5s57.5,25.8,57.5,57.5
		C313.5,280.2,287.8,306,256,306L256,306z M256,204.8c-24.1,0-43.7,19.6-43.7,43.7c0,24.1,19.6,43.7,43.7,43.7
		c24.1,0,43.7-19.6,43.7-43.7C299.7,224.4,280.1,204.8,256,204.8z"/>
</g>
</svg>
