<?xml version="1.0" encoding="utf-8"?>
<!-- Generator: Adobe Illustrator 25.0.1, SVG Export Plug-In . SVG Version: 6.00 Build 0)  -->
<svg version="1.1" id="Capa_1" xmlns="http://www.w3.org/2000/svg" xmlns:xlink="http://www.w3.org/1999/xlink" x="0px" y="0px"
	 viewBox="0 0 512 512" style="enable-background:new 0 0 512 512;" xml:space="preserve">
<style type="text/css">
	.st0{fill:#FFFFFF;}
</style>
<g>
	<path class="st0" d="M163.5,370.2l45.3-45.8c32.1,27.4,73.8,44,119.2,44c101.4,0,183.9-82.5,183.9-183.9
		C512,83.1,429.5,0.6,328.1,0.6c-57.1,0-108.3,26.2-142,67.2L149.2,31h40.1V0h-93l0,93h31l0-40.1l40.8,40.8
		C131.2,158.6,136.4,242,187,302.4l-45.4,45.9l-26.6-26.6L0,436.8l75.1,75.1l115.1-115.1L163.5,370.2z M191.1,116.7l30.1,30.1
		c-4.2,12-6.4,24.7-6.4,37.8c0,62.5,50.8,113.4,113.4,113.4c62.6,0,113.4-50.7,113.4-113.4c0-62.6-50.7-113.4-113.4-113.4
		c-37.2,0-70.7,17.8-91.8,46.9l-28.2-28.2c28-35.5,71.4-58.3,120-58.3c84.3,0,152.9,68.6,152.9,152.9c0,84.3-68.6,152.9-152.9,152.9
		c-84.3,0-152.9-68.6-152.9-152.9C175.1,160.2,180.9,137.1,191.1,116.7L191.1,116.7z M409.6,196.3l-58-58L304,185.8l-45.5-45.5
		c28.5-44.6,90.6-51.2,127.8-14.1C405.4,145.4,413.2,171.3,409.6,196.3L409.6,196.3z M304,229.6l47.5-47.5l46.2,46.2
		c-14.9,23.5-40.6,38.5-69.7,38.5c-45.4,0-82.4-36.9-82.4-82.4c0-4.2,0.3-8.3,0.9-12.3L304,229.6z M75.1,468.1l-31.3-31.3l71.2-71.2
		l31.3,31.3L75.1,468.1z"/>
	<path class="st0" d="M263.5,419h247.9v31H263.5V419z"/>
	<path class="st0" d="M170.6,481h185.9v31H170.6L170.6,481z"/>
</g>
</svg>
