<?xml version="1.0" encoding="utf-8"?>
<!-- Generator: Adobe Illustrator 25.0.1, SVG Export Plug-In . SVG Version: 6.00 Build 0)  -->
<svg version="1.1" id="Line_expand" xmlns="http://www.w3.org/2000/svg" xmlns:xlink="http://www.w3.org/1999/xlink" x="0px"
	 y="0px" viewBox="0 0 512 512" style="enable-background:new 0 0 512 512;" xml:space="preserve">
<style type="text/css">
	.st0{fill:#FFFFFF;}
</style>
<g>
	<path class="st0" d="M256,56c15.5,0,31,1.8,46.2,5.4l3.7-15.6c-38.5-9.1-78.7-7.4-116.3,4.6l4.9,15.2C214.3,59.2,235.1,56,256,56z"
		/>
	<path class="st0" d="M50.4,189.5c-13.9,43.2-13.9,89.7,0,132.9l15.2-4.9c-12.9-40-12.9-83.1,0-123.1L50.4,189.5z"/>
	<path class="st0" d="M256,456c-20.9,0-41.7-3.2-61.5-9.6l-4.9,15.2c40.4,13,83.7,13.9,124.6,2.5l-4.3-15.4
		C292.3,453.5,274.2,456,256,456z"/>
	<path class="st0" d="M463.7,315.5c5.5-19.4,8.3-39.4,8.3-59.5c0.1-31.6-6.8-62.8-20.2-91.4l-14.5,6.8
		c12.4,26.5,18.8,55.4,18.7,84.6c0,18.6-2.6,37.2-7.7,55.1L463.7,315.5z"/>
	<path class="st0" d="M78.9,205.8c-10.9,38.6-8.9,79.7,5.6,117.1l14.9-5.8c-13.3-34.1-15.1-71.7-5.1-106.9L78.9,205.8z"/>
	<path class="st0" d="M306.2,433.1l-4.4-15.4c-35.3,9.9-72.8,8.1-106.9-5.1l-5.8,14.9C226.5,442,267.6,443.9,306.2,433.1
		L306.2,433.1z"/>
	<path class="st0" d="M408.7,185.9c10.1,22,15.3,45.9,15.3,70.1c0,15.5-2.1,30.9-6.3,45.8l15.4,4.4c4.6-16.3,6.9-33.2,6.9-50.2
		c0.1-26.5-5.6-52.7-16.7-76.8L408.7,185.9z"/>
	<path class="st0" d="M205.8,78.9l4.4,15.4c30-8.4,61.7-8.4,91.6,0l4.4-15.4C273.4,69.7,238.6,69.7,205.8,78.9z"/>
	<path class="st0" d="M352,228c0-11.6-7.2-22-18.1-26.2c-2.5-1.2-5.2-1.8-7.9-1.8h-30v-18c0-21-17-38-38-38h-18c-4.4,0-8,3.6-8,8
		v51.7L213.6,216H168c-4.4,0-8,3.6-8,8v96c0,4.4,3.6,8,8,8h48c3.3,0,6.3-2,7.5-5.1l14,4.7c0.8,0.3,1.7,0.4,2.5,0.4h86
		c2.7,0,5.4-0.6,7.9-1.8C344.8,322,352,311.6,352,300c0-5.7-1.7-11.3-5-16c7.7-11,6.4-26-3-35.6v-0.8C349.1,242.4,352,235.3,352,228
		z M176,312v-80h32v80H176z M331.2,258.4c5.3,3.9,6.4,11.4,2.4,16.7c-0.7,0.9-1.5,1.8-2.4,2.4c-2,1.5-3.2,3.9-3.2,6.4
		c0,2.5,1.2,4.9,3.2,6.4c5.3,4,6.4,11.4,2.4,16.7c-1.4,1.9-3.4,3.3-5.6,4.1c-0.4,0.1-0.7,0.3-1.1,0.5c-0.3,0.2-0.6,0.2-0.9,0.2
		h-84.7l-17.3-5.8v-78l20.4-13.6c2.2-1.5,3.6-4,3.6-6.7v-48h10c12.1,0,22,9.9,22,22v26c0,4.4,3.6,8,8,8h38c0.3,0,0.6,0.1,0.9,0.2
		c0.3,0.2,0.7,0.3,1.1,0.5c6.2,2.2,9.5,9,7.3,15.3c-0.8,2.2-2.2,4.2-4.1,5.6c-2,1.5-3.2,3.9-3.2,6.4v8.1
		C328,254.5,329.2,256.9,331.2,258.4z"/>
	<rect x="184" y="280" class="st0" width="16" height="16"/>
	<path class="st0" d="M104,192c48.6,0,88-39.4,88-88s-39.4-88-88-88s-88,39.4-88,88C16.1,152.6,55.4,191.9,104,192z M104,32
		c39.8,0,72,32.2,72,72s-32.2,72-72,72s-72-32.2-72-72C32,64.3,64.3,32,104,32z"/>
	<path class="st0" d="M496,40V24c0-4.4-3.6-8-8-8H328c-4.4,0-8,3.6-8,8v120c0,4.4,3.6,8,8,8h32v32c0,4.4,3.6,8,8,8h16
		c2.4,0,4.7-1.1,6.2-3l29.6-37H472c2.1,0,4.2-0.8,5.7-2.3l16-16c1.5-1.5,2.3-3.5,2.3-5.7V56h-16v68.7L468.7,136H416
		c-2.4,0-4.7,1.1-6.2,3l-29.6,37H376v-32c0-4.4-3.6-8-8-8h-32V32h144v8H496z"/>
	<rect x="384" y="64" class="st0" width="16" height="40"/>
	<rect x="416" y="64" class="st0" width="16" height="40"/>
	<path class="st0" d="M88,152h16v-48h16V88h-16v-4c0-6.6,5.4-12,12-12h12V56h-12c-15.5,0-28,12.5-28,28v4h-8v16h8V152z"/>
	<path class="st0" d="M138,336H54c-21,0-38,17-38,38v34h16v-34c0-12.1,9.9-22,22-22h84c12.1,0,22,9.9,22,22v84c0,12.1-9.9,22-22,22
		H54c-12.1,0-22-9.9-22-22v-34H16v34c0,21,17,38,38,38h84c21,0,38-17,38-38v-84C176,353,159,336,138,336z"/>
	<path class="st0" d="M96,376c-22.1,0-40,17.9-40,40s17.9,40,40,40s40-17.9,40-40C136,393.9,118.1,376,96,376z M96,440
		c-13.3,0-24-10.7-24-24s10.7-24,24-24s24,10.7,24,24C120,429.2,109.2,440,96,440z"/>
	<rect x="128" y="368" class="st0" width="16" height="16"/>
	<path class="st0" d="M408,320c-48.6,0-88,39.4-88,88s39.4,88,88,88s88-39.4,88-88C495.9,359.4,456.6,320.1,408,320z M408,480
		c-39.8,0-72-32.2-72-72s32.2-72,72-72s72,32.2,72,72C480,447.7,447.7,480,408,480z"/>
	<path class="st0" d="M451.6,400.8l-64-32c-4-2-8.8-0.4-10.7,3.6c-0.6,1.1-0.8,2.3-0.8,3.6v64c0,4.4,3.6,8,8,8
		c1.2,0,2.5-0.3,3.6-0.8l64-32c4-2,5.6-6.8,3.6-10.7C454.4,402.9,453.1,401.6,451.6,400.8z M392,427.1v-38.1l38.1,19.1L392,427.1z"
		/>
</g>
</svg>
