<?xml version="1.0" encoding="utf-8"?>
<!-- Generator: Adobe Illustrator 25.0.1, SVG Export Plug-In . SVG Version: 6.00 Build 0)  -->
<svg version="1.1" id="Capa_1" xmlns="http://www.w3.org/2000/svg" xmlns:xlink="http://www.w3.org/1999/xlink" x="0px" y="0px"
	 viewBox="0 0 512 512" style="enable-background:new 0 0 512 512;" xml:space="preserve">
<style type="text/css">
	.st0{fill:#FFFFFF;}
</style>
<path class="st0" d="M356.6,60.5h-71.4C280.4,26.3,250.9,0,215.4,0h-13c-35.5,0-64.9,26.3-69.8,60.5H61.2
	c-16.7,0-30.3,13.6-30.3,30.3v390.9c0,16.7,13.6,30.3,30.3,30.3h295.4c16.7,0,30.3-13.6,30.3-30.3V90.8
	C386.9,74.1,373.3,60.5,356.6,60.5L356.6,60.5z M202.4,20.2h13c24.3,0,44.7,17.3,49.4,40.3H153.1C157.8,37.5,178.1,20.2,202.4,20.2
	L202.4,20.2z M356.6,80.7c5.6,0,10.1,4.5,10.1,10.1v390.9c0,5.6-4.5,10.1-10.1,10.1H61.2c-5.6,0-10.1-4.5-10.1-10.1V90.8
	c0-5.6,4.5-10.1,10.1-10.1H356.6z"/>
<path class="st0" d="M320.7,107.3H97.1c-5.6,0-10.1,4.5-10.1,10.1v90.5c0,5.6,4.5,10.1,10.1,10.1h223.6c5.6,0,10.1-4.5,10.1-10.1
	v-90.5C330.8,111.8,326.3,107.3,320.7,107.3z M310.6,197.7H107.2v-70.3h203.4V197.7z"/>
<path class="st0" d="M100.2,267.3h108.8c13,0,13-20.2,0-20.2H100.2C87.2,247.1,87.2,267.3,100.2,267.3z"/>
<path class="st0" d="M320.7,441.7H262c-13,0-13,20.2,0,20.2h58.8C333.7,461.9,333.7,441.7,320.7,441.7z"/>
<path class="st0" d="M320.7,295.8H100.2c-13,0-13,20.2,0,20.2h220.6C333.7,316,333.7,295.8,320.7,295.8z"/>
<path class="st0" d="M320.7,344.4H100.2c-13,0-13,20.2,0,20.2h220.6C333.7,364.6,333.7,344.4,320.7,344.4z"/>
<path class="st0" d="M320.7,393.1H100.2c-13,0-13,20.2,0,20.2h220.6C333.7,413.3,333.7,393.1,320.7,393.1z"/>
<path class="st0" d="M481.1,190.9c0-20.6-16.8-37.4-37.4-37.4s-37.4,16.8-37.4,37.4V261c0,13,20.2,13,20.2,0v-16.7h34.5V428h-34.5
	v-85.2c0-13-20.2-13-20.2,0v95.3c0,1.4,0.8,2.7,0.8,4l27.3,63.7c3.4,7.9,15.1,8,18.6,0l27.3-63.7c0-1.3,0.8-2.6,0.8-4V190.9z
	 M426.4,224.1v-33.2c0-9.5,7.7-17.2,17.2-17.2s17.2,7.7,17.2,17.2v33.2H426.4z M443.6,476.2l-12-28h24L443.6,476.2z"/>
<path class="st0" d="M407,305.7c1.7,4,5.8,6.5,10.1,6.2c4.4-0.3,8.1-3.6,9.1-7.9c2-8.8-8.3-15.7-15.7-10.5
	C406.7,296.2,405.2,301.3,407,305.7L407,305.7z"/>
<path class="st0" d="M230.6,448c-2.1-5.1-8.1-7.6-13.2-5.5c-5.1,2.1-7.6,8.1-5.5,13.2c2.1,5.1,8.1,7.6,13.2,5.5
	C230.2,459,232.8,453,230.6,448z"/>
</svg>
