<?xml version="1.0" encoding="utf-8"?>
<!-- Generator: Adobe Illustrator 25.0.1, SVG Export Plug-In . SVG Version: 6.00 Build 0)  -->
<svg version="1.1" id="Layer_5" xmlns="http://www.w3.org/2000/svg" xmlns:xlink="http://www.w3.org/1999/xlink" x="0px" y="0px"
	 viewBox="0 0 512 512" style="enable-background:new 0 0 512 512;" xml:space="preserve">
<g>
	<path d="M435.1,108.1h-38.9V53.6c0-21.5-17.5-38.9-38.9-38.9H92.5c-21.5,0-38.9,17.5-38.9,38.9v38.9h62.3v15.6H76.9
		C55.5,108.1,38,125.5,38,147v233.6c0,21.5,17.5,38.9,38.9,38.9h112l-15.6,31.1H147c-12.9,0-23.4,10.5-23.4,23.4
		s10.5,23.4,23.4,23.4h218c12.9,0,23.4-10.5,23.4-23.4s-10.5-23.4-23.4-23.4h-26.3l-15.6-31.1h34.1h46.7h31.1
		c21.5,0,38.9-17.5,38.9-38.9V147C474,125.5,456.5,108.1,435.1,108.1z M380.6,320.7v21h-21C367.7,335.9,374.8,328.8,380.6,320.7z
		 M310.5,341.6c-38.6,0-70.1-31.4-70.1-70.1s31.4-70.1,70.1-70.1s70.1,31.4,70.1,70.1S349.1,341.6,310.5,341.6z M396.1,154.8h31.1
		v186.9h-31.1V154.8z M380.6,53.6v168.9c-15.5-22.1-41.1-36.6-70.1-36.6c-47.2,0-85.6,38.4-85.6,85.6c0,29,14.5,54.6,36.6,70.1h-130
		V53.6c0-8.8-3-16.8-8-23.4h233.8C370.1,30.2,380.6,40.7,380.6,53.6z M115.9,341.6H84.7V154.8h31.1V341.6z M69.1,76.9V53.6
		c0-12.9,10.5-23.4,23.4-23.4s23.4,10.5,23.4,23.4v23.4H69.1z M372.8,474c0,4.3-3.5,7.8-7.8,7.8H147c-4.3,0-7.8-3.5-7.8-7.8
		s3.5-7.8,7.8-7.8h218C369.3,466.2,372.8,469.7,372.8,474z M321.3,450.6H190.7l15.6-31.1h99.4L321.3,450.6z M357.2,403.9
		c-4.3,0-7.8-3.5-7.8-7.8s3.5-7.8,7.8-7.8h46.7c4.3,0,7.8,3.5,7.8,7.8s-3.5,7.8-7.8,7.8H357.2z M458.4,380.6
		c0,12.9-10.5,23.4-23.4,23.4h-9.2c0.9-2.4,1.4-5,1.4-7.8c0-12.9-10.5-23.4-23.4-23.4h-46.7c-12.9,0-23.4,10.5-23.4,23.4
		c0,2.7,0.6,5.3,1.4,7.8H76.9c-12.9,0-23.4-10.5-23.4-23.4V147c0-12.9,10.5-23.4,23.4-23.4h38.9v15.6H84.7c-8.6,0-15.6,7-15.6,15.6
		v186.9c0,8.6,7,15.6,15.6,15.6h342.6c8.6,0,15.6-7,15.6-15.6V154.8c0-8.6-7-15.6-15.6-15.6h-31.1v-15.6h38.9
		c12.9,0,23.4,10.5,23.4,23.4V380.6z"/>
	<path d="M84.7,372.8h15.6v15.6H84.7V372.8z"/>
	<path d="M115.9,372.8h15.6v15.6h-15.6V372.8z"/>
	<path d="M147,372.8h15.6v15.6H147V372.8z"/>
	<path d="M310.5,248.2c4.3,0,7.8,3.5,7.8,7.8h15.6c0-10.1-6.5-18.7-15.6-21.9v-17h-15.6v15.6h-15.6V256c0,12.9,10.5,23.4,23.4,23.4
		c4.3,0,7.8,3.5,7.8,7.8v7.8h-7.8c-4.3,0-7.8-3.5-7.8-7.8h-15.6c0,10.1,6.5,18.7,15.6,21.9v17h15.6v-15.6h15.6v-23.4
		c0-12.9-10.5-23.4-23.4-23.4c-4.3,0-7.8-3.5-7.8-7.8v-7.8H310.5z"/>
	<circle cx="263.8" cy="271.6" r="7.8"/>
	<circle cx="357.2" cy="271.6" r="7.8"/>
	<path d="M365,45.8h-46.7v109h-15.6V76.9H256v77.9h-15.6v-46.7h-46.7v62.3H365V45.8z M224.9,154.8h-15.6v-31.1h15.6V154.8z
		 M271.6,92.5h15.6v62.3h-15.6V92.5z M349.4,154.8h-15.6V61.4h15.6V154.8z"/>
	<path d="M147,310.5h62.3v15.6H147V310.5z"/>
	<path d="M147,279.4h62.3v15.6H147V279.4z"/>
	<path d="M147,248.2h62.3v15.6H147V248.2z"/>
	<path d="M147,217.1h62.3v15.6H147V217.1z"/>
	<path d="M147,185.9h62.3v15.6H147V185.9z"/>
	<path d="M147,45.8h15.6v15.6H147V45.8z"/>
	<path d="M147,76.9h15.6v15.6H147V76.9z"/>
	<path d="M147,108.1h15.6v15.6H147V108.1z"/>
</g>
</svg>
