<?xml version="1.0" encoding="utf-8"?>
<!-- Generator: Adobe Illustrator 25.0.1, SVG Export Plug-In . SVG Version: 6.00 Build 0)  -->
<svg version="1.1" id="Layer_1" xmlns="http://www.w3.org/2000/svg" xmlns:xlink="http://www.w3.org/1999/xlink" x="0px" y="0px"
	 viewBox="0 0 494 494" style="enable-background:new 0 0 494 494;" xml:space="preserve">
<path d="M53.8,61.8c-1.2-2.8-3.9-4.6-7-4.5c-3,0.1-5.7,2-6.7,4.9c-1,2.9-0.1,6.2,2.3,8.1c2.5,2,6.1,2.2,8.7,0.4
	C54,68.8,55.1,65,53.8,61.8z"/>
<path d="M111.6,61.8c-2.4-6.1-11.5-5.8-13.7,0.3c-1.1,3,0,6.4,2.5,8.3c2.4,1.8,5.8,2,8.3,0.4C111.7,69,112.9,65.1,111.6,61.8z"/>
<path d="M82.7,61.8c-2.5-5.8-11.1-6-13.5,0c-1.2,3-0.3,6.4,2.1,8.5c2.4,1.9,5.8,2.2,8.4,0.6C82.7,69.1,84.1,65.1,82.7,61.8z"/>
<path d="M494,95.2C494,95.2,494,95.2,494,95.2l0-35.8c0-20.6-16.7-37.3-37.3-37.3H37.3C16.7,22.2,0,38.9,0,59.5v374.1
	c0,20.6,16.7,37.3,37.3,37.3h7.3c4.1,0,7.3-3.3,7.3-7.3c0-4.1-3.3-7.3-7.3-7.3h-7.3c-12.5,0-22.6-10.1-22.6-22.6v-331h464.7v331
	c0,12.5-10.1,22.6-22.6,22.6H73.9c-4.1,0-7.3,3.3-7.3,7.3c0,4.1,3.3,7.3,7.3,7.3h382.8c20.6,0,37.3-16.7,37.3-37.3L494,95.2
	C494,95.3,494,95.3,494,95.2z M14.7,87.9V59.5c0-12.5,10.1-22.6,22.6-22.6h419.4c12.5,0,22.6,10.1,22.6,22.6v28.4H14.7z"/>
<path d="M167.7,416.9V133.2c0-4.1-3.3-7.3-7.3-7.3H43.5c-4.1,0-7.3,3.3-7.3,7.3v283.7c0,4.1,3.3,7.3,7.3,7.3h116.8
	C164.4,424.2,167.7,420.9,167.7,416.9z M153,409.5H50.9v-269H153V409.5z"/>
<path d="M305.4,424.2c4.1,0,7.3-3.3,7.3-7.3V133.2c0-4.1-3.3-7.3-7.3-7.3H188.6c-4.1,0-7.3,3.3-7.3,7.3v283.7c0,4.1,3.3,7.3,7.3,7.3
	H305.4z M195.9,140.5h102.1v269H195.9V140.5z"/>
<path d="M450.5,229.2c4.1,0,7.3-3.3,7.3-7.3v-88.6c0-4.1-3.3-7.3-7.3-7.3H333.7c-4.1,0-7.3,3.3-7.3,7.3v283.7c0,4.1,3.3,7.3,7.3,7.3
	h116.8c4.1,0,7.3-3.3,7.3-7.3V251.2c0-4.1-3.3-7.3-7.3-7.3c-4.1,0-7.3,3.3-7.3,7.3v158.4H341v-269h102.1v81.3
	C443.1,225.9,446.4,229.2,450.5,229.2z"/>
<path d="M77.2,313.9c0,2.9,2.5,5.9,6.2,5.9c2.2,0,4.3-1.1,5-2.8l38.5-78.8c0.4-0.7,0.5-1.6,0.5-2.1c0-3.5-3.4-5.9-6.6-5.9
	c-2.1,0-3.9,1-4.7,2.8l-38.4,78.8C77.4,312.5,77.2,313.3,77.2,313.9z"/>
<path d="M77,280c5,0,8.9-1.1,11.7-3.3c3.2-2.5,4.8-6.4,4.8-11.5v-15.5c0-5.1-1.6-9-4.8-11.5c-2.8-2.2-6.7-3.3-11.7-3.3
	c-13.6,0-16.5,8.1-16.5,14.9v15.5C60.5,271.9,63.3,280,77,280z M82.3,265.1c0,3.4-1.8,5.1-5.3,5.1c-3.5,0-5.2-1.7-5.2-5.1v-15.5
	c0-3.4,1.8-5.1,5.2-5.1c3.5,0,5.3,1.8,5.3,5.1V265.1z"/>
<path d="M110.6,284.7v15.5c0,6.8,2.9,14.9,16.5,14.9c5,0,8.9-1.1,11.7-3.3c3.2-2.5,4.8-6.4,4.8-11.5v-15.5c0-5.1-1.6-9-4.8-11.5
	c-2.8-2.2-6.7-3.3-11.7-3.3C113.5,269.9,110.6,278,110.6,284.7z M121.9,284.7c0-3.4,1.8-5.1,5.2-5.1c3.5,0,5.3,1.8,5.3,5.1v15.5
	c0,3.4-1.8,5.1-5.3,5.1c-3.5,0-5.2-1.7-5.2-5.1V284.7z"/>
<path d="M372.3,319.8c2.2,0,4.3-1.1,5-2.8l38.5-78.8c0.4-0.7,0.4-1.6,0.4-2.1c0-3.5-3.4-5.9-6.6-5.9c-2.1,0-3.9,1-4.7,2.8
	l-38.3,78.8c-0.4,0.7-0.6,1.5-0.6,2.1C366,316.8,368.6,319.8,372.3,319.8z"/>
<path d="M416,315.1c5,0,8.9-1.1,11.7-3.3c3.2-2.5,4.8-6.4,4.8-11.5v-15.5c0-5.1-1.6-9-4.8-11.5c-2.8-2.2-6.7-3.3-11.7-3.3
	c-13.6,0-16.5,8.1-16.5,14.9v15.5C399.5,307,402.3,315.1,416,315.1z M421.3,300.3c0,3.4-1.8,5.1-5.3,5.1c-3.5,0-5.2-1.7-5.2-5.1
	v-15.5c0-3.4,1.8-5.1,5.2-5.1c3.5,0,5.3,1.8,5.3,5.1V300.3z"/>
<path d="M382.4,265.1v-15.5c0-5.1-1.6-9-4.8-11.5c-2.8-2.2-6.7-3.3-11.7-3.3c-13.6,0-16.5,8.1-16.5,14.9v15.5
	c0,6.8,2.9,14.9,16.5,14.9c5,0,8.9-1.1,11.7-3.3C380.7,274.1,382.4,270.2,382.4,265.1z M360.6,249.6c0-3.4,1.8-5.1,5.2-5.1
	c3.5,0,5.3,1.8,5.3,5.1v15.5c0,3.4-1.8,5.1-5.3,5.1c-3.5,0-5.2-1.7-5.2-5.1V249.6z"/>
<path d="M262.1,333.2c-6.9,0-12.4,2.3-16.7,7.1c-3.8,4.1-6.1,9.4-8.1,14.1c-2.6,5.8-4.6,10.5-8.4,10.5c-2.8,0-5.9-2.6-5.9-9.9
	c0-4.9,1.4-7.5,2.5-9.6c0.7-1.4,1.3-2.6,1.3-4c0-4.4-5.5-6.3-8.3-6.3c-3.4,0-5.9,2.7-7.4,8c-1.4,4.8-1.5,10.4-1.5,12
	c0,6.8,1.7,13.1,4.7,17.5c3.6,5.3,9.2,8.2,16.1,8.2c13.7,0,18.8-10.9,22.8-19.7c3-6.4,5.5-11.9,10.5-11.9c4.8,0,6.5,5.2,6.5,9.6
	c0,5.4-2.5,8.7-4.6,11.4c-1.5,1.9-2.8,3.6-2.8,5.6c0,3.9,5.2,6.9,8.5,6.9c6.9,0,13.1-11.5,13.1-24.2c0-7.3-2-13.6-5.7-18
	C274.8,335.7,269,333.2,262.1,333.2z"/>
<path d="M214.9,311l60.9,18.6c0.4,0.1,0.8,0.2,1.1,0.2c3.6,0,6.5-5.5,6.5-10.1c0-2.9-1-4.7-3-5.2l-12.4-3.4v-20.9l12.4-3.4
	c2-0.6,3-2.4,3-5.2c0-4.6-2.9-10.1-6.5-10.1c-0.3,0-0.7,0.1-1.1,0.2l-60.9,18.7c-3.9,1.2-5.3,6.3-5.3,10.3S211,309.8,214.9,311z
	 M229.6,300.7l26.2-7.1v14.3L229.6,300.7z"/>
<path d="M215,265h63.5c2.4,0,4.9-2.2,4.9-6.9v-31.6c0-2.2-2.2-4.6-6.9-4.6s-6.9,2.4-6.9,4.6v22.6H215c-2.2,0-4.8,2.1-4.8,7.9
	C210.2,262.9,212.8,265,215,265z"/>
<path d="M215.1,214.8h63.4c2.4,0,4.9-2.2,4.9-6.9v-35.5c0-2.4-2.1-4.8-6.8-4.8c-4.1,0-7,2-7,4.8V199h-16.7v-14.9
	c0-1.5-0.7-2.8-2-3.7c-1.1-0.7-2.5-1.1-4-1.1c-3.1,0-6.2,1.7-6.2,4.8V199H224v-26.6c0-2.8-2.9-4.8-7-4.8c-4.7,0-6.8,2.4-6.8,4.8
	v35.5C210.2,212.7,212.7,214.8,215.1,214.8z"/>
</svg>
