<svg id="Layer_1" height="512" viewBox="0 0 512 512" width="512" xmlns="http://www.w3.org/2000/svg" data-name="Layer 1"><path d="m488.48 453.5h-20.65v-223.55a6 6 0 0 0 -6-6h-62.92a6 6 0 0 0 -6 6v223.55h-31.08v-253.55a6 6 0 0 0 -6-6h-62.92a6 6 0 0 0 -6 6v253.55h-31.08v-163.55a6 6 0 0 0 -6-6h-62.92a6 6 0 0 0 -6 6v163.55h-31.08v-133.55a6 6 0 0 0 -6-6h-62.92a6 6 0 0 0 -6 6v133.55h-20.65a6 6 0 0 0 -6 6v30a6 6 0 0 0 6 6h434.22a6 6 0 0 0 6-6v-30a6 6 0 0 0 -6-6zm-83.57-217.55h50.92v37.55h-50.92zm0 49.55h50.92v168h-50.92zm-106-79.55h50.92v57.55h-50.92zm0 69.55h50.92v178h-50.92zm-106 20.45h50.92v27.55h-50.92zm0 39.55h50.92v118h-50.92zm-106-9.55h50.92v37.55h-50.92zm0 49.55h50.92v78h-50.92zm395.57 108h-422.22v-18h422.22z"/><path d="m332.053 29.067a42.631 42.631 0 0 0 -30.343-12.567h-171.6a42.788 42.788 0 0 0 -42.74 42.74v7.39l-17.332 6.08h-29.388a23.156 23.156 0 0 0 -23.13 23.13v18.43a23.167 23.167 0 0 0 17.73 22.487v46.3a6 6 0 0 0 3.087 5.245l29.38 16.32a6 6 0 0 0 8.913-5.245v-59.666l10.74 3.766v121.083a6 6 0 0 0 6 6h171.44a6 6 0 0 0 6-6v-101.044l67.714 1.083h.1a6 6 0 0 0 6-6v-99.189a42.634 42.634 0 0 0 -12.571-30.343zm-267.423 160.117-17.38-9.655v-42.129h17.38zm.43-63.784h-24.41a11.143 11.143 0 0 1 -11.13-11.13v-18.43a11.143 11.143 0 0 1 11.13-11.13h24.41zm12 1.745v-44.182l69.991-24.552a143.2 143.2 0 0 1 6.906 30.865 142.945 142.945 0 0 1 0 31.548v.012a143.064 143.064 0 0 1 -6.9 30.854zm255.56 25.355-61.81-.988v-38.47a6 6 0 0 0 -12 0v145.518h-159.44v-110.875l49.295 17.287a5.992 5.992 0 0 0 7.576-3.485 155.008 155.008 0 0 0 8.957-34h.452a22.44 22.44 0 0 0 0-44.88h-.45a155.375 155.375 0 0 0 -8.956-33.995 6 6 0 0 0 -7.578-3.487l-49.296 17.295v-3.18a30.775 30.775 0 0 1 30.74-30.74h141.913a42.793 42.793 0 0 0 -13.213 30.91v22.95a6 6 0 1 0 12 0v-22.95a30.964 30.964 0 0 1 30.74-30.91h.16a30.909 30.909 0 0 1 30.91 30.91zm-166.153-57.849a10.43 10.43 0 0 1 0 20.8c.232-3.454.363-6.931.363-10.4s-.13-6.951-.363-10.4z"/><path d="m222.3 107.43h13.26a6 6 0 0 0 0-12h-13.26a6 6 0 0 0 0 12z"/><path d="m222.3 66.66h13.26a6 6 0 0 0 0-12h-13.26a6 6 0 0 0 0 12z"/><path d="m222.3 148.2h13.26a6 6 0 0 0 0-12h-13.26a6 6 0 0 0 0 12z"/><path d="m222.3 188.96h13.26a6 6 0 0 0 0-12h-13.26a6 6 0 0 0 0 12z"/><path d="m114.25 182.96a6 6 0 0 0 6 6h73.7a6 6 0 0 0 0-12h-73.7a6 6 0 0 0 -6 6z"/><path d="m222.3 229.73h13.26a6 6 0 0 0 0-12h-13.26a6 6 0 0 0 0 12z"/><path d="m193.95 217.73h-73.7a6 6 0 0 0 0 12h73.7a6 6 0 0 0 0-12z"/><path d="m314.24 84.21a6 6 0 0 0 6-6v-5.34a6 6 0 0 0 -12 0v5.34a6 6 0 0 0 6 6z"/><path d="m314.24 143.71a6 6 0 0 0 6-6v-40.35a6 6 0 0 0 -12 0v40.35a6 6 0 0 0 6 6z"/></svg>