<?xml version="1.0" encoding="utf-8"?>
<!-- Generator: Adobe Illustrator 25.0.1, SVG Export Plug-In . SVG Version: 6.00 Build 0)  -->
<svg version="1.1" id="Layer_1" xmlns="http://www.w3.org/2000/svg" xmlns:xlink="http://www.w3.org/1999/xlink" x="0px" y="0px"
	 viewBox="0 0 76.4 86.1" style="enable-background:new 0 0 76.4 86.1;" xml:space="preserve">
<style type="text/css">
	.st0{fill:none;stroke:#000000;stroke-width:3;stroke-miterlimit:10;}
</style>
<path id="android" class="st0" d="M53.6,2.9L49.2,9c6.8,3.2,11.7,9.3,12.3,16.3H15c0.6-7,5.4-13.1,12.2-16.3l-4.4-6.1
	c-0.2-0.4-0.1-0.9,0.2-1.1c0.4-0.2,0.8-0.1,1.1,0.2l4.5,6.5c3.1-1.2,6.3-1.8,9.6-1.8c3.3,0,6.5,0.6,9.6,1.8L52.3,2
	c0.2-0.3,0.7-0.4,1-0.2C53.7,2,53.8,2.5,53.6,2.9L53.6,2.9z M28.4,18.8c1.4,0,2.5-1.1,2.6-2.5c0,0,0-0.1,0-0.1
	c0-1.4-1.2-2.6-2.6-2.6c-1.4,0.1-2.5,1.2-2.6,2.6C25.9,17.7,27,18.8,28.4,18.8z M48.3,18.8c1.4,0,2.5-1.1,2.6-2.5c0,0,0-0.1,0-0.1
	c0-1.4-1.2-2.6-2.6-2.6c-1.4,0.1-2.5,1.2-2.6,2.6C45.8,17.7,46.9,18.8,48.3,18.8L48.3,18.8z M1.5,51.5V30.8
	c-0.1-2.9,2.3-5.3,5.2-5.4c0,0,0.1,0,0.1,0c2.9,0.1,5.2,2.5,5.1,5.4c0,0,0,0,0,0v20.7c0.1,2.9-2.1,5.3-5,5.4s-5.3-2.1-5.4-5
	C1.5,51.7,1.5,51.6,1.5,51.5z M64.4,51.5V30.8c-0.1-2.9,2.2-5.3,5.1-5.4c2.9-0.1,5.3,2.2,5.4,5.1c0,0.1,0,0.2,0,0.3v20.7
	c0.1,2.9-2.2,5.3-5.1,5.4s-5.3-2.2-5.4-5.1C64.4,51.7,64.4,51.6,64.4,51.5z M15.1,63.4V25.6h46.5v37.9c0,2.3-1.9,4.1-4.1,4.1h-4.6
	v11.7c-0.1,2.9-2.5,5.2-5.4,5.1c-2.8-0.1-5.1-2.3-5.1-5.1V67.6h-8.2v11.7c0.1,2.9-2.1,5.3-5,5.4s-5.3-2.1-5.4-5c0-0.1,0-0.3,0-0.4
	V67.6h-4.7C16.9,67.5,15.2,65.7,15.1,63.4z"/>
</svg>
