<?xml version="1.0" encoding="utf-8"?>
<!-- Generator: Adobe Illustrator 25.0.1, SVG Export Plug-In . SVG Version: 6.00 Build 0)  -->
<svg version="1.1" id="Layer_1" xmlns="http://www.w3.org/2000/svg" xmlns:xlink="http://www.w3.org/1999/xlink" x="0px" y="0px"
	 viewBox="0 0 512 512" style="enable-background:new 0 0 512 512;" xml:space="preserve">
<g id="API" transform="translate(-2 -2)">
	<path id="Path_728" d="M424.7,58.5H92.3C73.9,58.5,59,73.4,59,91.8v332.5c0,18.4,14.9,33.2,33.3,33.3h332.5
		c18.4,0,33.2-14.9,33.3-33.3V91.8C458,73.4,443.1,58.5,424.7,58.5z M92.3,71.8h332.5c11,0,19.9,8.9,19.9,19.9V125H72.3V91.8
		C72.3,80.7,81.2,71.8,92.3,71.8z M72.3,424.2v-286h372.4V269c-3.8,0.7-7.3,2.6-10,5.3l-13.5,13.4c-3.2-1.5-6.4-2.9-9.7-4.1v-19
		c0-11-8.9-19.9-19.9-19.9h-26.6c-11,0-19.9,8.9-19.9,19.9v19c-3.3,1.2-6.6,2.5-9.8,4.1l-13.5-13.5c-7.9-7.5-20.3-7.5-28.2,0
		L274.8,293c-7.8,7.8-7.8,20.4,0,28.1c0,0,0,0,0,0l13.5,13.5c-1.5,3.2-2.9,6.4-4.1,9.8h-19c-11,0-19.9,8.9-19.9,19.9V391
		c0,11,8.9,19.9,19.9,19.9h19c1.2,3.3,2.5,6.6,4.1,9.8l-13.5,13.5c-2.7,2.8-4.5,6.2-5.3,10H92.3C81.2,444.2,72.3,435.3,72.3,424.2
		C72.3,424.3,72.3,424.3,72.3,424.2z M424.7,444.2H283.7c0.1-0.2,0.3-0.4,0.5-0.6l16.9-16.9c2.1-2.1,2.6-5.3,1.2-7.9
		c-2.8-5.2-5.2-10.7-6.9-16.4c-0.8-2.8-3.4-4.7-6.4-4.7h-23.8c-3.7,0-6.7-3-6.7-6.7v-26.6c0-3.7,3-6.7,6.7-6.7H289
		c2.9,0,5.5-1.9,6.4-4.7c1.7-5.7,4-11.2,6.8-16.4c1.4-2.6,0.9-5.8-1.2-7.9l-16.9-16.9c-2.6-2.6-2.6-6.7,0-9.3c0,0,0,0,0,0l18.8-18.8
		c2.6-2.5,6.7-2.5,9.3,0l16.9,16.9c2.1,2.1,5.3,2.6,7.9,1.2c5.2-2.8,10.7-5.1,16.4-6.8c2.8-0.8,4.7-3.4,4.7-6.4v-23.8
		c0-3.7,3-6.7,6.7-6.7h26.6c3.7,0,6.7,3,6.7,6.7v23.8c0,2.9,1.9,5.5,4.7,6.4c5.7,1.7,11.2,4,16.5,6.8c2.6,1.4,5.8,0.9,7.8-1.2
		l16.9-16.8c0.2-0.2,0.4-0.3,0.6-0.5v141.1C444.7,435.3,435.8,444.2,424.7,444.2z"/>
	<path id="Path_729" d="M105.5,118.3c11,0,19.9-8.9,19.9-19.9s-8.9-19.9-19.9-19.9s-19.9,8.9-19.9,19.9l0,0
		C85.6,109.4,94.5,118.3,105.5,118.3z M105.5,91.7c3.7,0,6.7,3,6.7,6.6c0,3.7-3,6.7-6.6,6.7c-3.7,0-6.7-3-6.7-6.6c0,0,0,0,0,0
		C98.9,94.7,101.9,91.8,105.5,91.7L105.5,91.7z"/>
	<path id="Path_730" d="M152.1,118.3c11,0,19.9-8.9,19.9-19.9s-8.9-19.9-19.9-19.9c-11,0-19.9,8.9-19.9,19.9v0
		C132.1,109.4,141.1,118.3,152.1,118.3z M152.1,91.7c3.7,0,6.7,3,6.7,6.6s-3,6.7-6.6,6.7c-3.7,0-6.7-3-6.7-6.6c0,0,0,0,0,0
		C145.5,94.7,148.4,91.8,152.1,91.7L152.1,91.7z"/>
	<path id="Path_731" d="M198.6,118.3c11,0,19.9-8.9,19.9-19.9s-8.9-19.9-19.9-19.9c-11,0-19.9,8.9-19.9,19.9v0
		C178.7,109.4,187.6,118.3,198.6,118.3z M198.6,91.7c3.7,0,6.7,3,6.7,6.6s-3,6.7-6.6,6.7c-3.7,0-6.7-3-6.7-6.6c0,0,0,0,0,0
		C192,94.7,195,91.8,198.6,91.7L198.6,91.7z"/>
	<path id="Path_732" d="M378.2,324.5c-29.4,0-53.2,23.8-53.2,53.2c0,29.4,23.8,53.2,53.2,53.2c29.4,0,53.2-23.8,53.2-53.2l0,0
		C431.4,348.3,407.6,324.5,378.2,324.5z M378.2,417.6c-22,0-39.9-17.9-39.9-39.9s17.9-39.9,39.9-39.9c22,0,39.9,17.9,39.9,39.9l0,0
		C418.1,399.7,400.2,417.6,378.2,417.6z"/>
	<path id="Path_733" d="M105.5,258c3.7,0,6.7-3,6.7-6.6c0,0,0,0,0,0v-33.2h26.6v33.3c0,3.7,3,6.7,6.7,6.7s6.7-3,6.7-6.7v-59.9
		c0-14.7-11.9-26.6-26.6-26.6c-14.7,0-26.6,11.9-26.6,26.6c0,0,0,0,0,0v59.8C98.9,255,101.9,258,105.5,258z M125.5,178.2
		c7.4,0,13.3,6,13.3,13.3v13.3h-26.6v-13.3C112.2,184.2,118.2,178.2,125.5,178.2z"/>
	<path id="Path_734" d="M172.1,258c3.7,0,6.7-3,6.7-6.6c0,0,0,0,0,0v-33.2h19.9c11,0,19.9-8.9,19.9-19.9v-13.3
		c0-11-8.9-19.9-20-19.9h-26.6c-3.7,0-6.7,3-6.7,6.7l0,0v79.8C165.4,255,168.4,258,172.1,258L172.1,258z M178.7,178.2h19.9
		c3.7,0,6.7,3,6.7,6.7l0,0v13.3c0,3.7-3,6.7-6.7,6.7l0,0h-19.9V178.2z"/>
	<path id="Path_735" d="M238.6,258c3.7,0,6.7-3,6.7-6.6c0,0,0,0,0,0v-79.8c0-3.7-3-6.7-6.7-6.7c-3.7,0-6.7,3-6.7,6.7v79.8
		C231.9,255,234.9,258,238.6,258L238.6,258z"/>
	<path id="Path_736" d="M105.5,297.9h133c3.7,0,6.7-3,6.7-6.7c0-3.7-3-6.7-6.7-6.7h-133c-3.7,0-6.7,3-6.7,6.7
		C98.9,294.9,101.9,297.9,105.5,297.9z"/>
	<path id="Path_737" d="M238.5,324.5h-133c-3.7,0-6.7,3-6.7,6.7c0,3.7,3,6.7,6.7,6.7h133c3.7,0,6.7-3,6.7-6.7
		C245.2,327.5,242.2,324.5,238.5,324.5z"/>
	<path id="Path_738" d="M218.6,364.4h-113c-3.7,0-6.7,3-6.7,6.7c0,3.7,3,6.7,6.7,6.7h113c3.7,0,6.7-3,6.7-6.7
		C225.3,367.4,222.3,364.4,218.6,364.4z"/>
</g>
</svg>
