<?xml version="1.0" encoding="utf-8"?>
<!-- Generator: Adobe Illustrator 25.0.1, SVG Export Plug-In . SVG Version: 6.00 Build 0)  -->
<svg version="1.1" id="Layer_1" xmlns="http://www.w3.org/2000/svg" xmlns:xlink="http://www.w3.org/1999/xlink" x="0px" y="0px"
	 viewBox="0 0 73.1 85.4" style="enable-background:new 0 0 73.1 85.4;" xml:space="preserve">
<style type="text/css">
	.st0{fill:none;stroke:#000000;stroke-width:3;stroke-miterlimit:10;}
</style>
<path id="apple" class="st0" d="M70.3,61.7c-1.4,4.4-3.5,8.5-6.1,12.3c-4.2,6.4-8.5,9.7-12.7,9.7c-2.4-0.2-4.7-0.7-6.9-1.6
	c-2.4-1-4.9-1.5-7.5-1.6c-2.4,0.1-4.8,0.6-7,1.6c-2,1-4.3,1.5-6.5,1.7c-5,0-10-4.3-14.9-12.8c-4.8-8.6-7.3-16.9-7.3-24.8
	c0-7.5,1.9-13.7,5.6-18.5c3.7-4.7,8.4-7.1,14-7.1c3,0.1,5.9,0.6,8.7,1.5c2.2,0.7,4.5,1.2,6.8,1.5c2.4-0.2,4.8-0.8,7.1-1.7
	c2.7-1,5.6-1.6,8.5-1.7c3.8,0,7.4,1.1,10.5,3.2c1.9,1.4,3.7,3.1,5.1,4.9c-2.1,1.7-4,3.7-5.6,5.8c-2.1,3-3.2,6.6-3.2,10.2
	c0,3.9,1.1,7.8,3.4,11C64.7,58.8,67.3,60.9,70.3,61.7L70.3,61.7z M51.7,3.8c-0.1,2.3-0.5,4.6-1.4,6.7c-1,2.6-2.6,4.9-4.6,6.8
	c-1.5,1.6-3.3,2.8-5.3,3.6c-1.7,0.4-3.4,0.7-5.1,0.8c0-4.5,1.3-8.9,3.9-12.7c2.4-3.5,6.5-6,12.3-7.3c0.1,0.2,0.1,0.4,0.1,0.5
	c0,0.2,0.1,0.4,0.1,0.5c0,0.1,0,0.3,0,0.5S51.7,3.7,51.7,3.8L51.7,3.8z"/>
</svg>
