<?xml version="1.0" encoding="utf-8"?>
<!-- Generator: Adobe Illustrator 25.0.1, SVG Export Plug-In . SVG Version: 6.00 Build 0)  -->
<svg version="1.1" id="Capa_1" xmlns="http://www.w3.org/2000/svg" xmlns:xlink="http://www.w3.org/1999/xlink" x="0px" y="0px"
	 viewBox="0 0 512 512" style="enable-background:new 0 0 512 512;" xml:space="preserve">
<style type="text/css">
	.st0{fill:#FFFFFF;}
</style>
<g>
	<path class="st0" d="M479,0H169.1c-18.2,0-33,14.8-33,33v309.9c0,18.2,14.8,33,33,33H479c18.2,0,33-14.8,33-33V33
		C512,14.8,497.2,0,479,0z M490,342.9c0,6.1-4.9,11-11,11H169.1c-6.1,0-11-4.9-11-11V110.2H490V342.9z M490,88.1H158V33
		c0-6.1,4.9-11,11-11H479c6.1,0,11,4.9,11,11V88.1z"/>
	<path class="st0" d="M206.5,44.1h-14.7c-6.1,0-11,4.9-11,11s4.9,11,11,11h14.7c6.1,0,11-4.9,11-11S212.6,44.1,206.5,44.1z"/>
	<path class="st0" d="M265.3,44.1h-14.7c-6.1,0-11,4.9-11,11s4.9,11,11,11h14.7c6.1,0,11-4.9,11-11S271.3,44.1,265.3,44.1z"/>
	<path class="st0" d="M324,44.1h-14.7c-6.1,0-11,4.9-11,11s4.9,11,11,11H324c6.1,0,11-4.9,11-11S330.1,44.1,324,44.1z"/>
	<path class="st0" d="M254,276.9c0.5,0.1,18.7,0,27,0c4.1,0,7.3-3.3,7.3-7.4c0-4-3.3-7.3-7.3-7.3c0,0,0,0,0,0c-6.4,0-13.4,0-18.3,0
		v-66.1c0-4.1-3.3-7.3-7.3-7.3c-4.1,0-7.3,3.3-7.3,7.3v73.4C247.9,273,250.5,276.3,254,276.9z"/>
	<path class="st0" d="M181.1,276.9h25.1c14.9,0,27.1-12.2,27.1-27.2c0-9.1-4.5-17.2-11.5-22.1c3.1-4.1,4.9-9.1,4.9-14.6
		c0-13.4-10.9-24.2-24.2-24.2h-21.3c-4.1,0-7.3,3.3-7.3,7.3v73.4c0,2,0.8,3.8,2.2,5.2C177.3,276.1,179.1,276.9,181.1,276.9
		L181.1,276.9z M188.4,203.4h14c5.3,0,9.6,4.3,9.6,9.6s-4.3,9.6-9.6,9.6c-1.6,0-14,0-14,0V203.4z M188.4,237.3c2,0,17.7,0,17.7,0
		c6.9,0,12.4,5.6,12.4,12.4s-5.6,12.4-12.4,12.4c-3.2,0-11.5,0-17.7,0.1V237.3z"/>
	<path class="st0" d="M435.2,276.9c23,0,39-18.1,39-44.1c0-4.1-3.3-7.3-7.3-7.3h-22c-4.1,0-7.3,3.3-7.3,7.3s3.3,7.3,7.3,7.3h14
		c-2,11.3-8.9,22-23.7,22c-16.2,0-29.4-13.2-29.4-29.4s13.2-29.4,29.4-29.4c5.9,0,11.6,1.7,16.4,5c3.4,2.3,7.9,1.4,10.2-2
		c2.3-3.4,1.4-7.9-2-10.2c-7.3-4.9-15.8-7.5-24.6-7.5c-24.3,0-44.1,19.8-44.1,44.1S410.9,276.9,435.2,276.9L435.2,276.9z"/>
	<path class="st0" d="M332.4,276.9c24.3,0,44.1-19.8,44.1-44.1s-19.8-44.1-44.1-44.1c-24.3,0-44.1,19.8-44.1,44.1
		S308.1,276.9,332.4,276.9z M332.4,203.4c16.2,0,29.4,13.2,29.4,29.4s-13.2,29.4-29.4,29.4c-16.2,0-29.4-13.2-29.4-29.4
		S316.2,203.4,332.4,203.4z"/>
</g>
</svg>
