<?xml version="1.0" encoding="utf-8"?>
<!-- Generator: Adobe Illustrator 25.0.1, SVG Export Plug-In . SVG Version: 6.00 Build 0)  -->
<svg version="1.1" id="Capa_1" xmlns="http://www.w3.org/2000/svg" xmlns:xlink="http://www.w3.org/1999/xlink" x="0px" y="0px"
	 viewBox="0 0 512 512" style="enable-background:new 0 0 512 512;" xml:space="preserve">
<style type="text/css">
	.st0{fill:#FFFFFF;}
</style>
<g>
	<g>
		<path class="st0" d="M481.9,152.8l-167.8-81c-1.5-0.7-3.2-0.7-4.7,0l-167.8,81c-1.9,0.9-3.1,2.8-3.1,4.9v196.7
			c0,2.1,1.2,4,3.1,4.9l167.8,81c0.7,0.4,1.5,0.5,2.4,0.5s1.6-0.2,2.4-0.5l167.8-81c1.9-0.9,3.1-2.8,3.1-4.9V157.6
			C485,155.6,483.8,153.7,481.9,152.8z M311.8,82.6l155.4,75l-45,21.7c-0.3-0.2-0.6-0.4-0.9-0.6l-154.3-74.5L311.8,82.6z
			 M254.7,110.4l155.1,74.9L378,200.7L223,125.8L254.7,110.4z M413.4,195.6v56.7l-29.7,14.3v-56.7L413.4,195.6z M474.2,351
			l-157,75.8V242l37.4-18.1c2.7-1.3,3.8-4.5,2.5-7.2c-1.3-2.7-4.5-3.8-7.2-2.5l-38.1,18.4l-15-7.2c-2.7-1.3-5.9-0.2-7.2,2.5
			c-1.3,2.7-0.2,5.9,2.5,7.2l14.3,6.9v184.7l-157-75.8V166.3L268.9,224c0.8,0.4,1.6,0.5,2.3,0.5c2,0,3.9-1.1,4.9-3.1
			c1.3-2.7,0.2-5.9-2.5-7.2l-117.2-56.6l53.8-26l162.6,78.5c0,0,0.1,0.1,0.1,0.1v65c0,1.9,1,3.6,2.5,4.6c0.9,0.6,1.9,0.8,2.9,0.8
			c0.8,0,1.6-0.2,2.4-0.5l40.5-19.6c1.9-0.9,3.1-2.8,3.1-4.9v-65.3l49.9-24.1L474.2,351L474.2,351z"/>
	</g>
</g>
<g>
	<g>
		<path class="st0" d="M194.1,330l-24.6-11.9c-2.7-1.3-5.9-0.2-7.2,2.5c-1.3,2.7-0.2,5.9,2.5,7.2l24.6,11.9c0.8,0.4,1.6,0.5,2.3,0.5
			c2,0,3.9-1.1,4.9-3.1C197.9,334.5,196.8,331.3,194.1,330z"/>
	</g>
</g>
<g>
	<g>
		<path class="st0" d="M216.7,315.2l-47.3-22.8c-2.7-1.3-5.9-0.2-7.2,2.5c-1.3,2.7-0.2,5.9,2.5,7.2L212,325c0.8,0.4,1.6,0.5,2.3,0.5
			c2,0,3.9-1.1,4.9-3.1C220.6,319.8,219.4,316.5,216.7,315.2z"/>
	</g>
</g>
</svg>
