<?xml version="1.0" encoding="utf-8"?>
<!-- Generator: Adobe Illustrator 25.0.1, SVG Export Plug-In . SVG Version: 6.00 Build 0)  -->
<svg version="1.1" id="Layer_1" xmlns="http://www.w3.org/2000/svg" xmlns:xlink="http://www.w3.org/1999/xlink" x="0px" y="0px"
	 viewBox="0 0 74.5 74.5" style="enable-background:new 0 0 74.5 74.5;" xml:space="preserve">
<g id="automation" transform="translate(-1.991 -2)">
	<path id="Path_1016" d="M36.7,69h5v2.5h-5V69z"/>
	<path id="Path_1017" d="M36.7,33h5v2.5h-5V33z"/>
	<path id="Path_1018" d="M72.7,20.6h-1.2v-2.5H69v2.5h-3.5c-3-4.2-6.9-7.6-11.4-10.1V5.7c0-2-1.6-3.7-3.6-3.7c0,0-0.1,0-0.1,0H28.1
		c-2,0-3.7,1.6-3.7,3.6c0,0,0,0.1,0,0.1v4.8c-5.4,2.9-10,7.2-13,12.5C5.8,23.4,1.7,28.2,2,33.6c0.2,3.4,2.1,6.4,5.1,8.1
		c0.2,3,0.9,5.9,1.9,8.7c-3.4,2.3-4.3,6.8-2,10.2c0,0,0,0,0,0.1c0.2,0.4,0.6,0.7,0.9,1.1l5.3,5.3l4.1-4.1c2.1,2,4.5,3.6,7.1,5v4.7
		c0,2,1.6,3.7,3.6,3.7c0,0,0.1,0,0.1,0h22.3c2,0,3.7-1.6,3.7-3.6c0,0,0-0.1,0-0.1v-4.8c1.8-0.9,3.5-2,5.1-3.3
		c3.6,4.1,9.9,4.5,14,0.8s4.5-9.9,0.8-14c-0.1-0.1-0.1-0.1-0.2-0.2c-1.1-1.1-2.3-2-3.7-2.6c0.8-2.6,1.2-5.3,1.4-8.1h1.2
		c2,0,3.7-1.6,3.7-3.6c0,0,0-0.1,0-0.1V24.3c0-2-1.6-3.7-3.6-3.7C72.8,20.6,72.8,20.6,72.7,20.6z M74,24.3v1.2H59.1v-1.2
		c0-0.6,0.5-1.2,1.1-1.2c0,0,0.1,0,0.1,0h12.4c0.6,0,1.2,0.5,1.2,1.1C74,24.2,74,24.3,74,24.3z M26.8,5.7c0-0.6,0.5-1.2,1.1-1.2
		c0,0,0.1,0,0.1,0h22.3c0.6,0,1.2,0.5,1.2,1.1c0,0,0,0.1,0,0.1v12.4c0,0.6-0.5,1.2-1.1,1.2c0,0-0.1,0-0.1,0h-7.9l-3.2,3.2L36,19.4
		h-7.9c-0.6,0-1.2-0.5-1.2-1.1c0,0,0-0.1,0-0.1V5.7z M4.5,33c0-4.1,3.3-7.4,7.4-7.4s7.4,3.3,7.4,7.4s-3.3,7.4-7.4,7.4l0,0
		C7.8,40.5,4.5,37.1,4.5,33z M13.2,63.5l-3.5-3.5c-1.9-2-1.9-5.1,0.1-7c0.9-0.9,2.1-1.4,3.4-1.4h0.1c2.7,0,4.8,2.2,4.8,4.8
		c0,1.3-0.5,2.6-1.5,3.5L13.2,63.5z M51.6,64H26.8V31.8c0-0.6,0.5-1.2,1.1-1.2c0,0,0.1,0,0.1,0h22.3c0.6,0,1.2,0.5,1.2,1.1
		c0,0,0,0.1,0,0.1L51.6,64z M50.4,74H28.1c-0.6,0-1.2-0.5-1.2-1.1c0,0,0-0.1,0-0.1v-6.2h24.8v6.2c0,0.6-0.5,1.2-1.1,1.2
		C50.5,74,50.4,74,50.4,74z M74,57.8c0,4.1-3.3,7.4-7.4,7.4s-7.4-3.3-7.4-7.4s3.3-7.4,7.4-7.4l0,0C70.6,50.4,74,53.7,74,57.8z
		 M67.6,48c-5.4-0.7-10.4,3.2-11,8.7c0,0,0,0,0,0c-0.3,2,0.1,4.1,1.1,5.8c-1.1,0.9-2.4,1.7-3.6,2.5V31.8c0-2-1.6-3.7-3.6-3.7
		c0,0-0.1,0-0.1,0H28.1c-2,0-3.7,1.6-3.7,3.6c0,0,0,0.1,0,0.1V65c-1.9-1.1-3.7-2.5-5.3-4c2.5-3.2,1.9-7.9-1.3-10.4
		c-1.3-1-2.9-1.5-4.5-1.5H13c-0.6,0-1.3,0.1-1.9,0.2c-0.8-2.2-1.3-4.4-1.6-6.7c5.3,1.3,10.7-2,12-7.4s-2-10.7-7.4-12
		c0,0-0.1,0-0.1,0h-0.1c2.6-4.1,6.1-7.5,10.3-9.9v4.7c0,2,1.6,3.7,3.6,3.7c0,0,0.1,0,0.1,0h6.9l4.2,4.2l4.2-4.2h7.1
		c2,0,3.7-1.6,3.7-3.6c0,0,0-0.1,0-0.1v-4.7c3.2,1.8,6,4.3,8.3,7.2h-2.1c-2,0-3.7,1.6-3.7,3.6c0,0,0,0.1,0,0.1v12.4
		c0,2,1.6,3.7,3.6,3.7c0,0,0.1,0,0.1,0H69C68.9,43,68.4,45.6,67.6,48L67.6,48z M72.7,38H60.3c-0.6,0-1.2-0.5-1.2-1.1
		c0,0,0-0.1,0-0.1v-8.7H74v8.7c0,0.6-0.5,1.2-1.1,1.2C72.8,38,72.8,38,72.7,38L72.7,38z"/>
	<path id="Path_1019" d="M16.4,34.5l-3.2-2.1v-4.3h-2.5v5.6l4.2,2.9L16.4,34.5z"/>
	<path id="Path_1020" d="M62.8,30.5h2.5v5h-2.5V30.5z"/>
	<path id="Path_1021" d="M67.8,30.5h2.5v5h-2.5V30.5z"/>
	<path id="Path_1022" d="M8.2,69h9.9v2.5H8.2V69z"/>
	<path id="Path_1023" d="M34.3,8.2h14.9v2.5H34.3V8.2z"/>
	<path id="Path_1024" d="M34.3,14.4h14.9v2.5H34.3V14.4z"/>
	<path id="Path_1025" d="M65.3,52.9h2.5v5h-2.5V52.9z"/>
	<path id="Path_1026" d="M65.3,60.3h2.5v2.5h-2.5V60.3z"/>
	<path id="Path_1027" d="M29.3,8.2h2.5v2.5h-2.5V8.2z"/>
	<path id="Path_1028" d="M29.3,14.4h2.5v2.5h-2.5V14.4z"/>
</g>
</svg>
