<?xml version="1.0" encoding="utf-8"?>
<!-- Generator: Adobe Illustrator 25.0.1, SVG Export Plug-In . SVG Version: 6.00 Build 0)  -->
<svg version="1.1" id="Layer_1" xmlns="http://www.w3.org/2000/svg" xmlns:xlink="http://www.w3.org/1999/xlink" x="0px" y="0px"
	 viewBox="0 0 67.5 67.5" style="enable-background:new 0 0 67.5 67.5;" xml:space="preserve">
<g>
	<path d="M26.8,47.7c-0.2,0-0.5-0.1-0.7-0.3l-7.1-6c-0.2-0.2-0.4-0.5-0.4-0.8c0-0.3,0.1-0.6,0.4-0.8l7.1-6c0.5-0.4,1.1-0.3,1.5,0.1
		c0.4,0.5,0.3,1.1-0.1,1.5l-6.1,5.2l6.1,5.2c0.5,0.4,0.5,1.1,0.1,1.5C27.4,47.6,27.1,47.7,26.8,47.7z"/>
	<path d="M40.7,47.7c-0.3,0-0.6-0.1-0.8-0.4c-0.4-0.5-0.3-1.1,0.1-1.5l6.1-5.2L40,35.5c-0.5-0.4-0.5-1.1-0.1-1.5
		c0.4-0.5,1.1-0.5,1.5-0.1l7.1,6c0.2,0.2,0.4,0.5,0.4,0.8c0,0.3-0.1,0.6-0.4,0.8l-7.1,6C41.2,47.7,41,47.7,40.7,47.7z"/>
	<path d="M31.3,52.2c-0.1,0-0.2,0-0.2,0c-0.6-0.1-1-0.7-0.8-1.3l4.4-20.9c0.1-0.6,0.7-1,1.3-0.8c0.6,0.1,1,0.7,0.8,1.3l-4.4,20.9
		C32.2,51.9,31.8,52.2,31.3,52.2z"/>
	<path d="M59.4,63.6H8.1c-4,0-7.3-3.3-7.3-7.3V12.7c0-4,3.3-7.3,7.3-7.3h51.4c4,0,7.3,3.3,7.3,7.3v43.6
		C66.8,60.3,63.5,63.6,59.4,63.6z M8.1,7.6c-2.8,0-5.1,2.3-5.1,5.1v43.6c0,2.8,2.3,5.1,5.1,5.1h51.4c2.8,0,5.1-2.3,5.1-5.1V12.7
		c0-2.8-2.3-5.1-5.1-5.1H8.1z"/>
	<path d="M65.7,22.8H1.8c-0.6,0-1.1-0.5-1.1-1.1c0-0.6,0.5-1.1,1.1-1.1h63.8c0.6,0,1.1,0.5,1.1,1.1C66.8,22.3,66.3,22.8,65.7,22.8z"
		/>
	<path d="M19.4,17.6c-1.9,0-3.4-1.5-3.4-3.4c0-1.9,1.5-3.4,3.4-3.4c1.9,0,3.4,1.5,3.4,3.4C22.8,16.1,21.3,17.6,19.4,17.6z
		 M19.4,12.9c-0.7,0-1.3,0.6-1.3,1.3s0.6,1.3,1.3,1.3c0.7,0,1.3-0.6,1.3-1.3S20.1,12.9,19.4,12.9z"/>
	<path d="M8.8,17.6c-1.9,0-3.4-1.5-3.4-3.4s1.5-3.4,3.4-3.4s3.4,1.5,3.4,3.4S10.7,17.6,8.8,17.6z M8.8,12.9c-0.7,0-1.3,0.6-1.3,1.3
		c0,0.7,0.6,1.3,1.3,1.3c0.7,0,1.3-0.6,1.3-1.3C10,13.4,9.5,12.9,8.8,12.9z"/>
	<path d="M30,17.7c-1.9,0-3.4-1.5-3.4-3.4c0-1.9,1.5-3.4,3.4-3.4c1.9,0,3.4,1.5,3.4,3.4C33.4,16.1,31.9,17.7,30,17.7z M30,12.9
		c-0.7,0-1.3,0.6-1.3,1.3s0.6,1.3,1.3,1.3c0.7,0,1.3-0.6,1.3-1.3S30.7,12.9,30,12.9z"/>
</g>
</svg>
