<svg id="_x31_px" enable-background="new 0 0 24 24" height="512" viewBox="0 0 24 24" width="512" xmlns="http://www.w3.org/2000/svg"><path d="m22.5 24h-10c-.827 0-1.5-.673-1.5-1.5v-4c0-.827.673-1.5 1.5-1.5h10c.827 0 1.5.673 1.5 1.5v4c0 .827-.673 1.5-1.5 1.5zm-10-6c-.275 0-.5.225-.5.5v4c0 .275.225.5.5.5h10c.275 0 .5-.225.5-.5v-4c0-.275-.225-.5-.5-.5z"/><path d="m19.5 20h-4c-.276 0-.5-.224-.5-.5s.224-.5.5-.5h4c.276 0 .5.224.5.5s-.224.5-.5.5z"/><path d="m21.5 22h-8c-.276 0-.5-.224-.5-.5s.224-.5.5-.5h8c.276 0 .5.224.5.5s-.224.5-.5.5z"/><path d="m17.5 18c-.276 0-.5-.224-.5-.5v-2c0-.827-.673-1.5-1.5-1.5h-8c-1.379 0-2.5-1.121-2.5-2.5v-1.25c0-.276.224-.5.5-.5s.5.224.5.5v1.25c0 .827.673 1.5 1.5 1.5h8c1.379 0 2.5 1.121 2.5 2.5v2c0 .276-.224.5-.5.5z"/><path d="m5.5 10.5c-.276 0-.5-.224-.5-.5v-8.25c0-.276.224-.5.5-.5s.5.224.5.5v8.25c0 .276-.224.5-.5.5z"/><path d="m5.5 11c-.11 0-.221-.036-.313-.109-1.254-1.004-2.464-1.154-3.698-.462-.314.178-.688.176-1-.006-.306-.18-.489-.499-.489-.856v-7.56c0-.502.235-.959.631-1.223 1.596-1.068 3.273-1.035 4.869.091 1.597-1.126 3.273-1.156 4.87-.091.395.264.63.721.63 1.223v7.561c0 .356-.183.676-.489.855-.311.182-.686.184-1 .006-1.234-.692-2.444-.542-3.698.462-.092.073-.203.109-.313.109zm-2.489-2.002c.834 0 1.665.292 2.489.876 1.485-1.053 2.999-1.161 4.501-.316l-.001-7.551c0-.164-.071-.314-.186-.391-1.342-.898-2.651-.806-4.001.275-.184.146-.441.146-.625 0-1.352-1.081-2.662-1.17-4.001-.275-.116.076-.187.227-.187.391v7.561c.669-.38 1.341-.57 2.011-.57z"/></svg>