<?xml version="1.0" encoding="utf-8"?>
<!-- Generator: Adobe Illustrator 25.2.1, SVG Export Plug-In . SVG Version: 6.00 Build 0)  -->
<svg version="1.1" id="Layer_1" xmlns="http://www.w3.org/2000/svg" xmlns:xlink="http://www.w3.org/1999/xlink" x="0px" y="0px"
	 viewBox="0 0 512 512" style="enable-background:new 0 0 512 512;" xml:space="preserve">
<style type="text/css">
	.st0{fill:#17A2B8;}
</style>
<g id="Outline">
	<path class="st0" d="M56,208c0-13.2,10.8-24,24-24h88v-16H80c-22.1,0-40,17.9-40,40v48h16V208z"/>
	<path class="st0" d="M244,88c-15.5,0-28,12.5-28,28s12.5,28,28,28s28-12.5,28-28C272,100.5,259.5,88,244,88z M244,128
		c-6.6,0-12-5.4-12-12s5.4-12,12-12s12,5.4,12,12C256,122.6,250.6,128,244,128z"/>
	<path class="st0" d="M488,16H318.6c-16.8,0-32.5,8.9-41.2,23.3l-10,16.7H208c-13.2,0-24,10.8-24,24v144c0,13.2,10.8,24,24,24h48v32
		c0,4.4,3.6,8,8,8c1.9,0,3.7-0.7,5.1-1.9l45.8-38.1H424c13.2,0,24-10.8,24-24V110.4c16.9-3.2,32.4-11.5,44.5-23.7l1.1-1.1
		c1.5-1.5,2.3-3.5,2.3-5.7V24C496,19.6,492.4,16,488,16L488,16z M432,224c0,4.4-3.6,8-8,8H312c-1.9,0-3.7,0.7-5.1,1.9L272,262.9V240
		c0-4.4-3.6-8-8-8h-56c-4.4,0-8-3.6-8-8v-11.5l71.8-43.1l67.8,45.2c2.4,1.6,5.4,1.8,8,0.5l43.8-21.9l40.6,27V224z M432,201.1
		l-35.6-23.7c-2.4-1.6-5.4-1.8-8-0.5l-43.8,21.9l-68.1-45.4c-2.6-1.7-5.9-1.8-8.6-0.2L200,193.9V80c0-4.4,3.6-8,8-8h124.7
		l-26.2,26.2c-10.8,10.9-10.6,28.5,0.3,39.3c10.8,10.7,28.2,10.7,39,0L385,98.3c13.9,9,30.1,13.7,46.6,13.7c0.1,0,0.2,0,0.4,0
		L432,201.1z M480,76.7c-23.7,22.6-60,25.7-87.2,7.6l-4.3-2.9c-3.2-2.1-7.4-1.7-10.1,1l-43.9,43.9c-4.2,4.1-10.7,4.6-15.4,1.1
		c-5.2-3.9-6.3-11.3-2.4-16.5c0.3-0.4,0.7-0.9,1.1-1.3l39.9-39.9l16-16l-11.3-11.3L348.7,56h-62.6l5.1-8.5
		C297,37.9,307.4,32,318.6,32H480L480,76.7z"/>
	<path class="st0" d="M472,272H328c-13.2,0-24,10.8-24,24v44.7l-29.7,29.7c-3.1,3.1-3.1,8.2,0,11.3c1.5,1.5,3.5,2.3,5.7,2.3h24v8
		c0,13.2,10.8,24,24,24h144c13.2,0,24-10.8,24-24v-96C496,282.8,485.2,272,472,272L472,272z M480,392c0,4.4-3.6,8-8,8H328
		c-4.4,0-8-3.6-8-8v-16c0-4.4-3.6-8-8-8h-12.7l18.3-18.3c1.5-1.5,2.3-3.5,2.3-5.7v-48c0-4.4,3.6-8,8-8h144c4.4,0,8,3.6,8,8L480,392z
		"/>
	<path class="st0" d="M336,304h80v16h-80V304z"/>
	<path class="st0" d="M432,304h32v16h-32V304z"/>
	<path class="st0" d="M336,368h128v16H336V368z"/>
	<path class="st0" d="M336,336h128v16H336V336z"/>
	<path class="st0" d="M72,200h16v16H72V200z"/>
	<path class="st0" d="M104,200h16v16h-16V200z"/>
	<path class="st0" d="M136,200h16v16h-16V200z"/>
	<path class="st0" d="M72,232h96v16H72V232z"/>
	<path class="st0" d="M40,416h144c13.2,0,24-10.8,24-24v-32h24c4.4,0,8-3.6,8-8c0-2.1-0.8-4.2-2.3-5.7L208,316.7V296
		c0-13.2-10.8-24-24-24H40c-13.2,0-24,10.8-24,24v96C16,405.2,26.8,416,40,416L40,416z M32,296c0-4.4,3.6-8,8-8h144c4.4,0,8,3.6,8,8
		v24c0,2.1,0.8,4.2,2.3,5.7l18.3,18.3H200c-4.4,0-8,3.6-8,8v40c0,4.4-3.6,8-8,8H40c-4.4,0-8-3.6-8-8V296z"/>
	<path class="st0" d="M48,304h16v16H48V304z"/>
	<path class="st0" d="M48,336h16v16H48V336z"/>
	<path class="st0" d="M48,368h16v16H48V368z"/>
	<path class="st0" d="M80,304h96v16H80V304z"/>
	<path class="st0" d="M80,336h96v16H80V336z"/>
	<path class="st0" d="M80,368h96v16H80V368z"/>
	<path class="st0" d="M424,432H283.3c-9.4,0-18.4,3.7-25,10.3c-3.6,3.6-8.5,5.7-13.7,5.7h-41.4c-5.1,0-10-2-13.7-5.7
		c-6.6-6.6-15.6-10.4-25-10.3H24c-4.4,0-8,3.6-8,8v24c0,17.7,14.3,32,32,32h352c17.7,0,32-14.3,32-32v-24
		C432,435.6,428.4,432,424,432z M416,464c0,8.8-7.2,16-16,16H48c-8.8,0-16-7.2-16-16v-16h132.7c5.1,0,10,2,13.7,5.7
		c6.6,6.6,15.6,10.4,25,10.3h41.4c9.4,0,18.4-3.7,25-10.3c3.6-3.6,8.5-5.7,13.7-5.7H416V464z"/>
</g>
</svg>
