<?xml version="1.0" encoding="utf-8"?>
<!-- Generator: Adobe Illustrator 25.2.1, SVG Export Plug-In . SVG Version: 6.00 Build 0)  -->
<svg version="1.1" id="Capa_1" xmlns="http://www.w3.org/2000/svg" xmlns:xlink="http://www.w3.org/1999/xlink" x="0px" y="0px"
	 viewBox="0 0 512 512" style="enable-background:new 0 0 512 512;" xml:space="preserve">
<style type="text/css">
	.st0{fill:#71D803;}
</style>
<g>
	<g>
		<path class="st0" d="M490.5,267.5c4.1,0,7.5-3.4,7.5-7.5v-37.6c0-5.5-4.3-10.1-9.7-10.5v-60.2c0-1.9-0.2-3.8-0.7-5.6
			c-2.5-9.6-11.2-16.8-21.7-16.8h-79.7v-47c0-4.1-3.4-7.5-7.5-7.5s-7.5,3.4-7.5,7.5v47h-42.7V106c0-4.1-3.4-7.5-7.5-7.5
			s-7.5,3.4-7.5,7.5v56.8h-115V37l22-22h93v56c0,4.1,3.4,7.5,7.5,7.5s7.5-3.4,7.5-7.5V10.5C328.5,4.7,323.8,0,318,0h-99.4
			c-2.8,0-5.4,1.1-7.4,3.1l-24.6,24.6c-2,2-3.1,4.6-3.1,7.4v94.2h-40.3v-47c0-4.1-3.4-7.5-7.5-7.5s-7.5,3.4-7.5,7.5v47H46.1
			c-10.4,0-19.2,7.1-21.7,16.8c-0.5,1.8-0.7,3.7-0.7,5.6v74.4l-6.7,6.7c-2,2-3.1,4.6-3.1,7.4v97.2c0,5.5,4.3,10.1,9.7,10.5v60.8
			c0,9.6,7.9,17.5,17.5,17.5h148.9v38.2h-40c-12.4,0-22.5,10.1-22.5,22.5v7.6c0,9.6,7.9,17.5,17.5,17.5h221.7
			c9.6,0,17.5-7.9,17.5-17.5v-7.6c0-12.4-10.1-22.5-22.5-22.5h-40v-38.2h148.9c9.6,0,17.5-7.9,17.5-17.5v-60.8
			c5.4-0.4,9.7-4.9,9.7-10.5V295c0-4.1-3.4-7.5-7.5-7.5s-7.5,3.4-7.5,7.5v37.9h-81.6v-90.8l15.2-15.2H483V260
			C483,264.1,486.4,267.5,490.5,267.5L490.5,267.5z M256,321.8c1.9,0,3.8-0.7,5.3-2.2l17.7-17.7c2.9-2.9,2.9-7.7,0-10.6
			c-2.9-2.9-7.7-2.9-10.6,0l-4.9,4.9v-45.9h69v89.6h-153v-89.6h69v45.9l-4.9-4.9c-2.9-2.9-7.7-2.9-10.6,0c-2.9,2.9-2.9,7.7,0,10.6
			l17.7,17.7C252.2,321,254.1,321.8,256,321.8L256,321.8z M179.5,235.2v-10.1h46l4.2,10.1H179.5z M29,242.1l15.2-15.2h66.4v106H29
			V242.1z M361.8,479.4c4.1,0,7.5,3.4,7.5,7.5v7.6c0,1.4-1.1,2.5-2.5,2.5H145.2c-1.4,0-2.5-1.1-2.5-2.5v-7.6c0-4.1,3.4-7.5,7.5-7.5
			H258c4.1,0,7.5-3.4,7.5-7.5s-3.4-7.5-7.5-7.5h-52.9v-38.2h101.7v38.2H293c-4.1,0-7.5,3.4-7.5,7.5s3.4,7.5,7.5,7.5H361.8z
			 M473.3,408.7c0,1.4-1.1,2.5-2.5,2.5H41.2c-1.4,0-2.5-1.1-2.5-2.5v-22h434.5L473.3,408.7L473.3,408.7z M473.3,211.9h-58.5
			c-2.8,0-5.4,1.1-7.4,3.1l-17.9,17.9c-2,2-3.1,4.6-3.1,7.4v97.2c0,5.8,4.7,10.5,10.5,10.5h76.4v23.8H38.7v-23.8h76.4
			c5.8,0,10.5-4.7,10.5-10.5v-115c0-5.8-4.7-10.5-10.5-10.5H42.4c-1.3,0-2.5,0.2-3.6,0.7v-60.8c0-4.1,3.3-7.4,7.4-7.4h82.1v33.1
			l-4.9-4.9c-2.9-2.9-7.7-2.9-10.6,0c-2.9,2.9-2.9,7.7,0,10.6l17.7,17.7c1.5,1.5,3.4,2.2,5.3,2.2s3.8-0.7,5.3-2.2l17.7-17.7
			c2.9-2.9,2.9-7.7,0-10.6c-2.9-2.9-7.7-2.9-10.6,0l-4.9,4.9v-33.1h40.3v23c0,5.8,4.7,10.5,10.5,10.5h54.5v57.4H246l-7.6-18
			c-1.8-4.3-6-7-10.6-7H176c-6.3,0-11.5,5.2-11.5,11.5v122.7c0,5.8,4.7,10.5,10.5,10.5h162c5.8,0,10.5-4.7,10.5-10.5v-98.6
			c0-5.8-4.7-10.5-10.5-10.5h-73.5v-57.4H318c5.8,0,10.5-4.7,10.5-10.5v-23h42.7v33.1l-4.9-4.9c-2.9-2.9-7.7-2.9-10.6,0
			s-2.9,7.7,0,10.6l17.7,17.7c1.5,1.5,3.4,2.2,5.3,2.2s3.8-0.7,5.3-2.2l17.7-17.7c2.9-2.9,2.9-7.7,0-10.6c-2.9-2.9-7.7-2.9-10.6,0
			l-4.9,4.9v-33.1h79.7c4.1,0,7.4,3.3,7.4,7.4L473.3,211.9L473.3,211.9z"/>
		<path class="st0" d="M462.4,239.8h-40.5c-4.1,0-7.5,3.4-7.5,7.5s3.4,7.5,7.5,7.5h40.5c4.1,0,7.5-3.4,7.5-7.5
			S466.6,239.8,462.4,239.8z"/>
		<path class="st0" d="M462.4,261.4h-40.5c-4.1,0-7.5,3.4-7.5,7.5s3.4,7.5,7.5,7.5h40.5c4.1,0,7.5-3.4,7.5-7.5
			S466.6,261.4,462.4,261.4z"/>
		<path class="st0" d="M469.9,290.7c0-4.1-3.4-7.5-7.5-7.5h-40.5c-4.1,0-7.5,3.4-7.5,7.5s3.4,7.5,7.5,7.5h40.5
			C466.6,298.2,469.9,294.9,469.9,290.7z"/>
		<path class="st0" d="M421.9,304.9c-4.1,0-7.5,3.4-7.5,7.5s3.4,7.5,7.5,7.5h18.1c4.1,0,7.5-3.4,7.5-7.5s-3.4-7.5-7.5-7.5H421.9z"/>
		<path class="st0" d="M90.1,239.8H49.6c-4.1,0-7.5,3.4-7.5,7.5s3.4,7.5,7.5,7.5h40.5c4.1,0,7.5-3.4,7.5-7.5S94.2,239.8,90.1,239.8z
			"/>
		<path class="st0" d="M90.1,261.4H49.6c-4.1,0-7.5,3.4-7.5,7.5s3.4,7.5,7.5,7.5h40.5c4.1,0,7.5-3.4,7.5-7.5S94.2,261.4,90.1,261.4z
			"/>
		<path class="st0" d="M90.1,283.2H49.6c-4.1,0-7.5,3.4-7.5,7.5s3.4,7.5,7.5,7.5h40.5c4.1,0,7.5-3.4,7.5-7.5S94.2,283.2,90.1,283.2z
			"/>
		<path class="st0" d="M67.7,304.9H49.6c-4.1,0-7.5,3.4-7.5,7.5s3.4,7.5,7.5,7.5h18.1c4.1,0,7.5-3.4,7.5-7.5S71.9,304.9,67.7,304.9z
			"/>
		<path class="st0" d="M294,66.5h-2V31c0-4.1-3.4-7.5-7.5-7.5S277,26.9,277,31v35.5h-4V43.9c0-4.1-3.4-7.5-7.5-7.5s-7.5,3.4-7.5,7.5
			v22.6h-4V36.2c0-4.1-3.4-7.5-7.5-7.5S239,32,239,36.2v30.3h-4V51.6c0-4.1-3.4-7.5-7.5-7.5s-7.5,3.4-7.5,7.5v14.8h-2
			c-4.1,0-7.5,3.4-7.5,7.5s3.4,7.5,7.5,7.5h76c4.1,0,7.5-3.4,7.5-7.5S298.1,66.5,294,66.5z"/>
		<path class="st0" d="M222.1,91.5H218c-4.1,0-7.5,3.4-7.5,7.5s3.4,7.5,7.5,7.5h4.1c4.1,0,7.5-3.4,7.5-7.5S226.3,91.5,222.1,91.5z"
			/>
		<path class="st0" d="M222.1,113H218c-4.1,0-7.5,3.4-7.5,7.5s3.4,7.5,7.5,7.5h4.1c4.1,0,7.5-3.4,7.5-7.5S226.3,113,222.1,113z"/>
		<path class="st0" d="M222.1,134.5H218c-4.1,0-7.5,3.4-7.5,7.5s3.4,7.5,7.5,7.5h4.1c4.1,0,7.5-3.4,7.5-7.5S226.3,134.5,222.1,134.5
			z"/>
		<path class="st0" d="M294,91.5h-53.7c-4.1,0-7.5,3.4-7.5,7.5s3.4,7.5,7.5,7.5H294c4.1,0,7.5-3.4,7.5-7.5S298.1,91.5,294,91.5z"/>
		<path class="st0" d="M294,113h-53.7c-4.1,0-7.5,3.4-7.5,7.5s3.4,7.5,7.5,7.5H294c4.1,0,7.5-3.4,7.5-7.5S298.1,113,294,113z"/>
		<path class="st0" d="M294,134.5h-53.7c-4.1,0-7.5,3.4-7.5,7.5s3.4,7.5,7.5,7.5H294c4.1,0,7.5-3.4,7.5-7.5S298.1,134.5,294,134.5z"
			/>
	</g>
</g>
</svg>
