<?xml version="1.0" encoding="utf-8"?>
<!-- Generator: Adobe Illustrator 25.0.1, SVG Export Plug-In . SVG Version: 6.00 Build 0)  -->
<svg version="1.1" id="Layer_1" xmlns="http://www.w3.org/2000/svg" xmlns:xlink="http://www.w3.org/1999/xlink" x="0px" y="0px"
	 viewBox="0 0 67.5 67.5" style="enable-background:new 0 0 67.5 67.5;" xml:space="preserve">
<g id="Outline">
	<path d="M62.5,21.5c0-1.8-1.4-3.2-3.2-3.2h-9.5c0-0.6,0-1.2-0.1-1.9c0-0.2-0.1-0.4-0.1-0.7c-0.1-0.4-0.1-0.7-0.2-1.1
		c-0.1-0.3-0.1-0.5-0.2-0.8c-0.1-0.3-0.2-0.6-0.3-0.9c-0.1-0.3-0.2-0.6-0.3-0.9c-0.1-0.3-0.2-0.5-0.3-0.8c-0.1-0.3-0.3-0.6-0.4-0.8
		c-0.1-0.3-0.3-0.5-0.5-0.8c-0.1-0.2-0.3-0.5-0.4-0.7c-0.3-0.4-0.6-0.8-0.9-1.2c-0.1-0.1-0.1-0.1-0.2-0.2C45.5,7,45,6.6,44.6,6.2
		C44.5,6.1,44.5,6,44.4,6c-0.4-0.4-0.8-0.7-1.3-1.1c0,0-0.1-0.1-0.1-0.1l-0.6-0.5l0,0C34.7-1,24.2,0.9,18.9,8.6
		c-0.5,0.7-0.9,1.4-1.3,2.2l0,0l-0.2,0.4c0,0,0,0.1,0,0.1c-0.2,0.5-0.4,1-0.6,1.5c0,0.1,0,0.1-0.1,0.2c-0.2,0.5-0.3,1-0.4,1.5
		c0,0.1-0.1,0.2-0.1,0.3c-0.1,0.5-0.2,1-0.2,1.4c0,0.1,0,0.2-0.1,0.3c-0.1,0.6-0.1,1.2-0.1,1.8H6.3c-1.8,0-3.2,1.4-3.2,3.2v37.1H1
		v3.2c0,1.8,1.4,3.2,3.2,3.2h57.2c1.8,0,3.2-1.4,3.2-3.2v-3.2h-2.1V21.5z M18,16.8c0.1-1.5,0.5-2.9,1.1-4.3c2.5-0.5,5.1,0.5,6.6,2.6
		l0.5,0.7c0.8,1.1,1.2,2.5,1.2,3.8c0,3.4,2,6.6,5.2,8l0,0c2.1,0.9,3.7,2.7,4.4,4.8c-0.3,0.1-0.7,0.2-1,0.3c0,0-0.1,0-0.1,0
		c-0.2,0.1-0.5,0.1-0.7,0.1c-0.2,0-0.5,0.1-0.7,0.1c-0.2,0-0.4,0-0.5,0.1c-0.4,0-0.9,0.1-1.3,0.1c-8.2,0-14.8-6.6-14.8-14.8
		C18,17.8,18,17.3,18,16.8z M32.8,35.2c0.5,0,1.1,0,1.6-0.1c0.3,0,0.6-0.1,0.9-0.1c0.2,0,0.4-0.1,0.6-0.1c0.4-0.1,0.8-0.2,1.2-0.3
		c0.1,0,0.2,0,0.3-0.1c0.4-0.1,0.8-0.3,1.3-0.4c0,0,0.1,0,0.1,0l0.5-0.2c0,0,0.1,0,0.1,0l0.2-0.1l0,0c3.7-1.6,6.7-4.5,8.4-8.2l0,0
		l0.2-0.3c0,0,0,0,0-0.1c0.1-0.2,0.2-0.4,0.2-0.5h7.6v29.7H9.5V24.6h7.6C19.7,31,25.9,35.2,32.8,35.2z M46.4,24L45,24.8
		c-1,0.5-2.1,0.5-3.1-0.1l-0.5-0.3c-1.6-0.9-2.1-2.9-1.2-4.5c0.1-0.3,0.3-0.5,0.5-0.7c1.7-1.7,2.1-4.4,0.9-6.5l-0.7-1.1
		c-0.8-1.5-0.4-3.3,0.9-4.3L42.4,7c0.4,0.3,0.8,0.7,1.1,1c0.1,0.1,0.2,0.2,0.3,0.3c0.2,0.3,0.5,0.5,0.7,0.8c0.1,0.2,0.3,0.3,0.4,0.5
		c0.2,0.2,0.3,0.5,0.5,0.7c0.1,0.2,0.3,0.4,0.4,0.6s0.2,0.4,0.3,0.6c0.1,0.2,0.2,0.5,0.4,0.7c0.1,0.2,0.2,0.4,0.3,0.6
		c0.1,0.3,0.2,0.5,0.3,0.8c0.1,0.2,0.1,0.5,0.2,0.7c0.1,0.2,0.1,0.5,0.2,0.7c0.1,0.3,0.1,0.6,0.2,0.9c0,0.2,0.1,0.4,0.1,0.6
		c0.1,0.5,0.1,1,0.1,1.6c0,0.5,0,1-0.1,1.5C47.4,21.2,47,22.7,46.4,24z M32.8,3.5c2.8,0,5.4,0.8,7.8,2.2c-2.2,1.6-2.8,4.6-1.5,7
		l0.7,1.1c0.7,1.3,0.5,2.9-0.5,3.9c-2.1,2.1-2.1,5.5,0,7.6c0.3,0.3,0.7,0.6,1.1,0.9l0.5,0.3c1.2,0.7,2.5,0.9,3.8,0.6
		c-1.5,2-3.4,3.5-5.6,4.6c-1-2.7-3-4.8-5.6-6l0,0c-2.4-1.1-3.9-3.4-3.9-6c0-1.8-0.6-3.6-1.6-5.1l-0.5-0.7c-1.7-2.3-4.4-3.6-7.2-3.6
		C23,6.1,27.7,3.5,32.8,3.5z M5.2,21.5c0-0.6,0.5-1.1,1.1-1.1H16c0.1,0.7,0.2,1.4,0.4,2.1h-9v33.9h50.9V22.5h-9
		c0-0.2,0.1-0.3,0.1-0.5c0-0.1,0-0.1,0.1-0.2c0.1-0.5,0.2-0.9,0.2-1.4h9.7c0.6,0,1.1,0.5,1.1,1.1v37.1H5.2V21.5z M62.5,61.7
		c0,0.6-0.5,1.1-1.1,1.1H4.2c-0.6,0-1.1-0.5-1.1-1.1v-1.1h59.3V61.7z"/>
	<path d="M28.6,52.2H37V48h4.4l-8.7-10.1L24.1,48h4.4V52.2z M32.8,41.1l4.1,4.7h-1.9v4.2h-4.2v-4.2h-1.9L32.8,41.1z"/>
</g>
</svg>
