<?xml version="1.0" encoding="utf-8"?>
<!-- Generator: Adobe Illustrator 25.0.1, SVG Export Plug-In . SVG Version: 6.00 Build 0)  -->
<svg version="1.1" id="Layer_1" xmlns="http://www.w3.org/2000/svg" xmlns:xlink="http://www.w3.org/1999/xlink" x="0px" y="0px"
	 viewBox="0 0 512 512" style="enable-background:new 0 0 512 512;" xml:space="preserve">
<style type="text/css">
	.st0{fill:#FFFFFF;}
</style>
<g>
	<path class="st0" d="M422.1,336.2c0.3-0.3,0.7-0.5,1-0.8c5.2-4.1,12.7-3.2,16.8,2c4.1,5.2,3.2,12.7-2,16.8
		C423.1,366,409.9,345.5,422.1,336.2z"/>
</g>
<g>
	<path class="st0" d="M129.8,178.3C143.4,73.1,239.5-1.1,344.7,12.5c74.9,9.7,135.2,61.7,157.8,130.7
		c20.1,61.3,8.1,130.6-34.6,182.1c-4.2,5.1-11.8,5.8-16.9,1.6c-5.1-4.2-5.8-11.8-1.6-16.9c37.3-45,47.9-105.7,30.3-159.3
		C459.7,89.5,405.5,44.6,341.6,36.3c-91.8-11.9-176.2,53.2-188,145C136.5,313.4,272.1,410,390.3,355.4c6-2.8,13.1-0.1,15.9,5.9
		s0.1,13.1-5.9,15.9C264.7,439.8,110.3,328.8,129.8,178.3L129.8,178.3z"/>
</g>
<g>
	<path class="st0" d="M317.9,228.4l-17.4-41.9c-9-21.6-33.9-30-53.1-21c-6,2.8-13.1,0.2-16-5.8c-2.8-6-0.2-13.1,5.8-16
		c31.4-14.8,71.2-0.9,85.4,33.5l17.4,41.9c8.9,21.6,33.9,30.1,53.2,20.9c6-2.8,13.1-0.3,16,5.7c2.8,6,0.3,13.1-5.7,16
		C372,276.8,332.1,262.8,317.9,228.4L317.9,228.4z"/>
</g>
<path class="st0" d="M285.8,240.1c-22.6,11.8-51,0.7-59.2-23.8c3.4,3.5,6,7,11.8,7c10.5,0,16-12.7,8.6-20.3l-23.6-24.3
	c-4.6-4.7-12.2-4.9-17-0.3l-24.3,23.6c-4.8,4.6-4.9,12.2-0.3,17c4.6,4.8,12.2,4.9,17,0.3l3-2.9c8.9,43.3,56.7,65.2,95.1,45.1
	c5.9-3.1,8.1-10.3,5.1-16.2C298.9,239.3,291.6,237,285.8,240.1L285.8,240.1z"/>
<path class="st0" d="M459,186.9c-4.6-4.8-12.2-4.9-17-0.3l-3,2.9c-8.9-43.3-56.7-65.2-95.1-45.1c-5.9,3.1-8.1,10.3-5.1,16.2
	c3.1,5.9,10.3,8.1,16.2,5.1c22.6-11.8,51-0.7,59.2,23.8l-3.2-3.3c-4.6-4.8-12.2-4.9-17-0.3c-4.8,4.6-4.9,12.2-0.3,17l23.6,24.3
	c4.6,4.8,12.2,4.9,17,0.3l24.3-23.6C463.5,199.2,463.6,191.6,459,186.9L459,186.9z"/>
</svg>
