<?xml version="1.0" encoding="utf-8"?>
<!-- Generator: Adobe Illustrator 25.0.1, SVG Export Plug-In . SVG Version: 6.00 Build 0)  -->
<svg version="1.1" id="bug" xmlns="http://www.w3.org/2000/svg" xmlns:xlink="http://www.w3.org/1999/xlink" x="0px" y="0px"
	 viewBox="0 0 67.1 67.1" style="enable-background:new 0 0 67.1 67.1;" xml:space="preserve">
<path id="Path_1004" d="M42.8,22.6c-2.8-0.7-5.3-2-7.6-3.7l-1-0.7c-0.4-0.3-1-0.3-1.4,0l-1,0.7c-5.4,4.2-12.6,5.5-19.2,3.6h-0.1
	c-0.6-0.2-1.2,0.2-1.4,0.8c0,0.1,0,0.2,0,0.3v8.6c0,6.4,2.1,12.7,5.9,17.9c0.4,0.5,1,0.6,1.6,0.3c0.5-0.4,0.6-1,0.3-1.6
	c0,0,0,0,0-0.1c-3.6-4.8-5.5-10.6-5.5-16.6V25c6.9,1.6,14.2,0.1,19.9-4.3l0.3-0.2l0.3,0.2c2.5,1.9,5.3,3.3,8.4,4.1
	c0.6,0.2,1.2-0.2,1.4-0.8C43.8,23.4,43.4,22.8,42.8,22.6L42.8,22.6z"/>
<path id="Path_1005" d="M54.5,22.4h-0.1c-2.4,0.7-4.8,1-7.3,0.9c-0.6,0-1.1,0.5-1.2,1.1c0,0.6,0.4,1.1,1,1.2c2.3,0.2,4.6,0,6.8-0.5
	v7.1c0,9.6-4.9,18.5-13,23.6l-7.1,4.5l-7.1-4.5c-1.7-1.1-3.3-2.4-4.7-3.8c-0.4-0.4-1.1-0.4-1.6,0c-0.4,0.4-0.4,1.1,0,1.6
	c1.6,1.6,3.3,2.9,5.1,4.1l7.7,4.9c0.4,0.2,0.8,0.2,1.2,0l7.7-4.9c8.8-5.5,14.1-15.2,14.1-25.5v-8.6c0-0.7-0.6-1.2-1.2-1.1
	C54.7,22.3,54.6,22.4,54.5,22.4L54.5,22.4z"/>
<path id="Path_1006" d="M61.5,53.7c0.6,0,1.1-0.5,1.1-1.2c0-0.6-0.5-1.1-1.1-1.1h-8.9c-0.6,0-1.1,0.5-1.1,1.1v4.5
	c0,0.6,0.5,1.1,1.1,1.1h8.9c0.6,0,1.1-0.5,1.1-1.2c0-0.6-0.5-1.1-1.1-1.1h-7.8v-2.2L61.5,53.7z"/>
<path id="Path_1007" d="M4.5,57.1c0,3.1,2.5,5.6,5.6,5.6s5.6-2.5,5.6-5.6s-2.5-5.6-5.6-5.6c0,0,0,0,0,0C7,51.5,4.5,54,4.5,57.1z
	 M10.1,60.4c-1.9,0-3.3-1.5-3.3-3.4c0-1.4,0.9-2.6,2.2-3.1v3.2c0,0.6,0.5,1.1,1.1,1.1h3.2C12.7,59.5,11.5,60.4,10.1,60.4L10.1,60.4z
	 M13.2,55.9h-2v-2C12.1,54.2,12.9,55,13.2,55.9L13.2,55.9z"/>
<path id="Path_1008" d="M52.6,60.4c-0.6,0-1.1,0.5-1.2,1.1c0,0.6,0.5,1.1,1.1,1.2c0,0,0,0,0.1,0h5.6c0.6,0,1.1-0.5,1.2-1.1
	c0-0.6-0.5-1.1-1.1-1.2c0,0,0,0-0.1,0H52.6z"/>
<path id="Path_1009" d="M44.7,36.9c0.6,0,1.1-0.5,1.1-1.1l0,0v-4.5c0-0.6-0.5-1.1-1.2-1.1c-0.6,0-1.1,0.5-1.1,1.1v3.4h-2.9
	c-0.6-1-1.6-1.8-2.7-2.1v-3.5c0-1.9-1.5-3.4-3.4-3.4h-2.2c-1.9,0-3.4,1.5-3.4,3.4l0,0v3.5c-1.2,0.3-2.1,1.1-2.7,2.1h-2.9v-3.4
	c0-0.6-0.5-1.1-1.2-1.1c-0.6,0-1.1,0.5-1.1,1.1v4.5c0,0.6,0.5,1.1,1.1,1.1l0,0h3.4v2.2h-4.5c-0.6,0-1.1,0.5-1.1,1.2
	c0,0.6,0.5,1.1,1.1,1.1h4.5v1.1c0,0.4,0,0.7,0.1,1.1h-2.3c-0.6,0-1.1,0.5-1.1,1.1l0,0v4.5c0,0.6,0.5,1.1,1.2,1.1
	c0.6,0,1.1-0.5,1.1-1.1v-3.4h1.9c1.3,2.7,4,4.5,7.1,4.5c0.6,0,1.1-0.5,1.1-1.1l0,0V38c0-0.6-0.5-1.1-1.2-1.1c-0.6,0-1.1,0.5-1.1,1.1
	v10c-2.6-0.5-4.5-2.8-4.5-5.5v-5.6c0-1.2,1-2.2,2.2-2.2h6.7c1.2,0,2.2,1,2.2,2.2v5.6c0,0.6-0.1,1.2-0.3,1.8c-0.4,1.1-1,2-1.9,2.7
	c-0.5,0.4-0.6,1.1-0.2,1.6c0.4,0.5,1.1,0.6,1.6,0.2c0,0,0,0,0,0c1-0.8,1.8-1.8,2.4-2.9h1.9v3.4c0,0.6,0.5,1.1,1.2,1.1
	c0.6,0,1.1-0.5,1.1-1.1v-4.5c0-0.6-0.5-1.1-1.1-1.1l0,0h-2.3c0.1-0.4,0.1-0.7,0.1-1.1v-1.1h4.5c0.6,0,1.1-0.5,1.1-1.2
	c0-0.6-0.5-1.1-1.1-1.1h-4.5v-2.2L44.7,36.9z M31.3,32.4v-3.4c0-0.6,0.5-1.1,1.1-1.1l0,0h2.2c0.6,0,1.1,0.5,1.1,1.1l0,0v3.4H31.3z"
	/>
<path id="Path_1010" d="M66,39.2c-0.6,0-1.1,0.5-1.1,1.1v24.6H2.2V48.1c0-0.6-0.5-1.1-1.2-1.1C0.5,47,0,47.5,0,48.1V66
	c0,0.6,0.5,1.1,1.1,1.1H66c0.6,0,1.1-0.5,1.1-1.1V40.3C67.1,39.7,66.6,39.2,66,39.2z"/>
<path id="Path_1011" d="M66,0H1.1C0.5,0,0,0.5,0,1.1v42.5c0,0.6,0.5,1.1,1.2,1.1c0.6,0,1.1-0.5,1.1-1.1v-28h62.6v20.1
	c0,0.6,0.5,1.1,1.2,1.1c0.6,0,1.1-0.5,1.1-1.1V1.1C67.1,0.5,66.6,0,66,0C66,0,66,0,66,0z M2.2,2.2h62.6v11.2H2.2V2.2z"/>
<path id="Path_1012" d="M61.5,6.7c0.6,0,1.1-0.5,1.2-1.1c0-0.6-0.5-1.1-1.1-1.2c0,0,0,0-0.1,0h-28c-0.6,0-1.1,0.5-1.1,1.1
	c0,0,0,0,0,0v4.5c0,0.6,0.5,1.1,1.1,1.1l0,0h28c0.6,0,1.1-0.5,1.1-1.2c0-0.6-0.5-1.1-1.1-1.1H34.7V6.7H61.5z"/>
<path id="Path_1013" d="M7.8,4.5C6,4.5,4.5,6,4.5,7.8s1.5,3.4,3.4,3.4c1.9,0,3.4-1.5,3.4-3.4l0,0C11.2,6,9.7,4.5,7.8,4.5z M7.8,8.9
	c-0.6,0-1.1-0.5-1.1-1.1s0.5-1.1,1.1-1.1c0.6,0,1.1,0.5,1.1,1.1l0,0C8.9,8.4,8.4,8.9,7.8,8.9z"/>
<path id="Path_1014" d="M16.8,4.5c-1.9,0-3.4,1.5-3.4,3.4s1.5,3.4,3.4,3.4c0,0,0,0,0,0c0.6,0,1.1-0.5,1.1-1.2c0-0.6-0.5-1.1-1.1-1.1
	c-0.6,0-1.1-0.5-1.1-1.1s0.5-1.1,1.1-1.1c0.6,0,1.1,0.5,1.1,1.1C17.9,8.4,18.4,9,19,9c0.6,0,1.1-0.5,1.2-1.1c0,0,0,0,0-0.1
	C20.1,6,18.6,4.5,16.8,4.5L16.8,4.5z"/>
<path id="Path_1015" d="M25.7,4.5c-1.9,0-3.4,1.5-3.4,3.4s1.5,3.4,3.4,3.4c1.9,0,3.4-1.5,3.4-3.4S27.6,4.5,25.7,4.5L25.7,4.5z
	 M25.7,8.9c-0.6,0-1.1-0.5-1.1-1.1c0-0.6,0.5-1.1,1.1-1.1c0.6,0,1.1,0.5,1.1,1.1C26.8,8.4,26.3,8.9,25.7,8.9L25.7,8.9z"/>
</svg>
