<?xml version="1.0" encoding="utf-8"?>
<!-- Generator: Adobe Illustrator 25.0.1, SVG Export Plug-In . SVG Version: 6.00 Build 0)  -->
<svg version="1.1" id="Layer_1" xmlns="http://www.w3.org/2000/svg" xmlns:xlink="http://www.w3.org/1999/xlink" x="0px" y="0px"
	 viewBox="0 0 512 512" style="enable-background:new 0 0 512 512;" xml:space="preserve">
<g id="_x30_18---Laser-Cutting">
	<path id="Shape" d="M382.7,2.6H129.3c-9.3,0-16.9,7.6-16.9,16.9v59.1c0,9.3,7.6,16.9,16.9,16.9h25.3v42.2c0,3.3-2.7-2.2,50.7,86.8
		v29.1c0,6.3,0,5.3,24.1,44.9c3,5.2,8.5,8.4,14.5,8.4h3.6v36.5L70.2,413.2c-4.9,1.9-8.1,6.5-8.1,11.7c0,5.2,3.2,9.9,8.1,11.7
		C258,512.2,246.6,509.4,256,509.4s-1.9,2.8,185.8-72.7c4.8-1.9,8-6.6,8-11.8s-3.2-9.9-8-11.8l-177.4-69.9v-36.5h3.6
		c6,0,11.5-3.3,14.5-8.4c23.3-38.9,24.1-38.6,24.1-44.9v-28.8c53.1-88.6,50.7-83.5,50.7-86.8V95.5h25.3c9.3,0,16.9-7.6,16.9-16.9
		V19.5C399.6,10.2,392,2.6,382.7,2.6z M247.6,361.3v58.2l-81.9,37.8l-79.9-32.4L247.6,361.3z M426.2,424.9l-164,66.4
		c-4,1.6-8.5,1.6-12.5,0L187.2,466l72.4-33.8c2.9-1.3,4.7-4.1,4.9-7.3v-63.6L426.2,424.9z M289.8,253.6l-21.7,36.2h-24.2l-21.7-36.2
		v-23h67.6V253.6z M340.5,129.3h-92.9c-4.7,0-8.4,3.8-8.4,8.4s3.8,8.4,8.4,8.4H334l-40.5,67.6h-74.8L178,146.2h27.3
		c4.7,0,8.4-3.8,8.4-8.4c0-4.7-3.8-8.4-8.4-8.4h-33.8V95.5h168.9V129.3z M382.7,78.6H129.3V19.5h16.9v16.9c0,4.7,3.8,8.4,8.4,8.4
		s8.4-3.8,8.4-8.4V19.5H180v16.9c0,4.7,3.8,8.4,8.4,8.4c4.7,0,8.4-3.8,8.4-8.4V19.5h16.9v16.9c0,4.7,3.8,8.4,8.4,8.4
		c4.7,0,8.4-3.8,8.4-8.4V19.5h16.9v16.9c0,4.7,3.8,8.4,8.4,8.4c4.7,0,8.4-3.8,8.4-8.4V19.5h16.9v16.9c0,4.7,3.8,8.4,8.4,8.4
		c4.7,0,8.4-3.8,8.4-8.4V19.5h16.9v16.9c0,4.7,3.8,8.4,8.4,8.4c4.7,0,8.4-3.8,8.4-8.4V19.5h16.9v16.9c0,4.7,3.8,8.4,8.4,8.4
		s8.4-3.8,8.4-8.4V19.5h16.9V78.6z"/>
	<path id="Shape_1_" d="M376.2,216c2.9-1,5-3.4,5.6-6.3s-0.4-6-2.7-8c-2.3-2-5.4-2.7-8.3-1.7c-33.3,11-46.7,41.6-31.8,73.7
		c10.6,22.7,1.9,42.2-21.8,50.7c-4.3,1.6-6.5,6.2-5.1,10.5c1.4,4.3,6,6.7,10.3,5.5c15.2-3.9,27.8-14.6,34-29
		c6.2-14.4,5.4-30.9-2.2-44.7C343.8,243.6,352.5,223.8,376.2,216L376.2,216z"/>
	<path id="Shape_2_" d="M439.6,133c2.1-0.7,3.9-2.2,4.9-4.2c1-2,1.2-4.4,0.5-6.5c-1.5-4.4-6.2-6.8-10.6-5.3
		c-15.2,3.9-27.7,14.6-34,29c-6.2,14.4-5.4,30.9,2.1,44.6c10.6,22.8,1.9,42.7-21.8,50.7c-4.4,1.5-6.8,6.3-5.4,10.7
		c1.5,4.4,6.3,6.8,10.7,5.4c33.3-11,46.7-41.6,31.8-73.6C407.3,160.6,415.9,140.9,439.6,133L439.6,133z"/>
</g>
</svg>
