<?xml version="1.0" encoding="utf-8"?>
<!-- Generator: Adobe Illustrator 25.0.1, SVG Export Plug-In . SVG Version: 6.00 Build 0)  -->
<svg version="1.1" id="Layer_1" xmlns="http://www.w3.org/2000/svg" xmlns:xlink="http://www.w3.org/1999/xlink" x="0px" y="0px"
	 viewBox="0 0 99.5 88.8" style="enable-background:new 0 0 99.5 88.8;" xml:space="preserve">
<path id="react" d="M49.8,35.7c-4.8,0-8.7,3.9-8.7,8.7s3.9,8.7,8.7,8.7s8.7-3.9,8.7-8.7S54.6,35.7,49.8,35.7
	C49.8,35.7,49.8,35.7,49.8,35.7z M25.4,61.7l-1.9-0.5C9.2,57.6,1,51.5,1,44.4s8.2-13.2,22.5-16.8l1.9-0.5L26,29
	c1.4,5,3.3,9.9,5.5,14.5l0.4,0.9l-0.4,0.9c-2.2,4.7-4.1,9.6-5.5,14.5L25.4,61.7L25.4,61.7z M22.6,32C11.7,35.1,5.1,39.7,5.1,44.4
	s6.7,9.3,17.5,12.4c1.3-4.2,2.9-8.4,4.8-12.4C25.5,40.4,23.9,36.2,22.6,32z M74.1,61.7l-0.5-1.9c-1.4-5-3.3-9.8-5.5-14.5l-0.4-0.9
	l0.4-0.9c2.2-4.7,4.1-9.6,5.5-14.5l0.5-1.9l1.9,0.5c14.3,3.6,22.5,9.7,22.5,16.8S90.3,57.6,76,61.2L74.1,61.7L74.1,61.7z M72.1,44.4
	c1.9,4,3.5,8.2,4.8,12.4c10.9-3.1,17.5-7.7,17.5-12.4S87.8,35.1,76.9,32C75.6,36.2,74,40.4,72.1,44.4z M22.6,32L22,30.1
	c-4-14.2-2.8-24.3,3.3-27.9c6-3.5,15.7,0.6,25.8,11l1.4,1.4l-1.4,1.4c-3.6,3.7-6.9,7.8-9.8,12.1l-0.5,0.8l-1,0.1
	c-5.2,0.4-10.3,1.2-15.4,2.5L22.6,32L22.6,32z M30.3,5.1c-1,0-2,0.2-2.9,0.7c-4,2.3-4.8,10.4-2,21.3c4.3-1,8.7-1.6,13.1-2
	c2.5-3.6,5.3-7.1,8.3-10.3C40.6,8.6,34.6,5.1,30.3,5.1L30.3,5.1z M69.3,87.8L69.3,87.8c-5.8,0-13.2-4.4-20.9-12.3l-1.4-1.4l1.4-1.4
	c3.6-3.7,6.9-7.8,9.8-12.1l0.5-0.8l1-0.1c5.2-0.4,10.3-1.2,15.4-2.5l1.9-0.5l0.5,1.9c4,14.2,2.8,24.3-3.3,27.9
	C72.7,87.4,71,87.8,69.3,87.8L69.3,87.8z M52.6,74.1c6.3,6.2,12.3,9.7,16.6,9.7h0c1,0,2-0.2,2.9-0.7c4-2.3,4.8-10.4,2-21.4
	c-4.3,1-8.7,1.6-13.1,2C58.4,67.4,55.6,70.8,52.6,74.1L52.6,74.1z M77,32L75,31.5C70,30.3,64.8,29.4,59.6,29l-1-0.1l-0.5-0.8
	c-2.9-4.3-6.2-8.3-9.8-12.1l-1.4-1.4l1.4-1.4C58.4,2.9,68.1-1.2,74.2,2.2c6.1,3.5,7.4,13.7,3.3,27.9L77,32L77,32z M60.9,25.1
	c4.4,0.4,8.8,1.1,13.1,2c2.8-10.9,2.1-19-2-21.3c-4-2.3-11.6,1.2-19.5,9C55.6,18,58.4,21.4,60.9,25.1z M30.3,87.8
	c-1.7,0-3.4-0.4-4.9-1.3C19.2,83,18,72.9,22,58.7l0.5-1.9l1.9,0.5c5.1,1.2,10.2,2.1,15.4,2.5l1,0.1l0.5,0.8
	c2.9,4.3,6.2,8.3,9.8,12.1l1.4,1.4l-1.4,1.4C43.5,83.4,36.1,87.8,30.3,87.8L30.3,87.8z M25.4,61.7c-2.8,10.9-2.1,19,2,21.4
	c4,2.3,11.6-1.2,19.5-9c-3-3.3-5.8-6.7-8.3-10.3C34.2,63.3,29.8,62.7,25.4,61.7L25.4,61.7z M49.8,64.2c-3.3,0-6.8-0.1-10.2-0.4
	l-1-0.1L38,62.9c-1.9-2.8-3.8-5.7-5.5-8.6s-3.3-6-4.7-9.1l-0.4-0.9l0.4-0.9c1.5-3.1,3-6.1,4.7-9.1c1.7-2.9,3.5-5.8,5.5-8.6l0.5-0.8
	l1-0.1c6.8-0.6,13.6-0.6,20.5,0l1,0.1l0.5,0.8c3.9,5.6,7.3,11.5,10.2,17.7l0.4,0.9l-0.4,0.9c-2.9,6.2-6.3,12.1-10.2,17.7l-0.5,0.8
	L60,63.8C56.6,64.1,53.1,64.2,49.8,64.2z M40.8,59.8c5.9,0.5,11.9,0.5,17.9,0c3.4-4.9,6.3-10.1,8.9-15.4C65,39,62.1,33.9,58.7,29
	c-5.9-0.5-11.9-0.5-17.9,0c-3.4,4.9-6.4,10.1-8.9,15.4C34.5,49.8,37.5,54.9,40.8,59.8L40.8,59.8z"/>
</svg>
