<?xml version="1.0"?>
<svg xmlns="http://www.w3.org/2000/svg" id="outline" viewBox="0 0 512 512" width="512" height="512"><rect x="336" y="480" width="16" height="16"/><path d="M438.02051,330.73242a7.984,7.984,0,0,0-1.02295-.97949L280.2915,204.38818a71.04325,71.04325,0,0,0-5.54-73.49951l-16.27685-22.78906A48.09462,48.09462,0,0,0,219.41553,88H198.98737A31.94765,31.94765,0,0,0,200,80V57.88867l5.78857-11.57715A20.94437,20.94437,0,0,0,187.05566,16H168a32.03635,32.03635,0,0,0-32,32V80a31.94765,31.94765,0,0,0,1.01263,8h-1.58392v.49805L76.99756,41.75293A8.00033,8.00033,0,0,0,72,40H48a8.00008,8.00008,0,0,0-8,8V72a7.998,7.998,0,0,0,1.75293,4.99707l22.25421,27.81787A55.502,55.502,0,0,0,48,144v24a40.068,40.068,0,0,0,32,39.19507v32.49731L72.13525,341.93555,16.75049,460.61719A7.99955,7.99955,0,0,0,16,464v24a8.00008,8.00008,0,0,0,8,8h80a8.00008,8.00008,0,0,0,8-8V472a8.0009,8.0009,0,0,0-3.2002-6.40039L82.99365,446.24512l47.55567-67.93653a55.96225,55.96225,0,0,0,7.24853-14.40429l17.69824-53.09473,44.96143,44.96191L216,464.56836V488a8.00008,8.00008,0,0,0,8,8h80a8.00008,8.00008,0,0,0,8-8V472a8.00091,8.00091,0,0,0-3.88428-6.86035L272,443.4707v-78.665l57.75293,72.19141a7.95222,7.95222,0,0,0,.979,1.02344A234.26859,234.26859,0,0,0,399.96484,480H368v16H488a8.00008,8.00008,0,0,0,8-8v-2.959A234.2651,234.2651,0,0,0,438.02051,330.73242Zm41.91992,149.208a218.25263,218.25263,0,0,1-132.10962-48.45728L384,395.314l10.34534,10.34522a24.00858,24.00858,0,1,0,11.314-11.314L395.314,384l36.16919-36.16919A218.25662,218.25662,0,0,1,479.94043,479.94043ZM416,408a8,8,0,1,1-8,8A8.00917,8.00917,0,0,1,416,408ZM245.45508,117.39941l16.27685,22.78907a55.12689,55.12689,0,0,1-7.60839,72.67871l-32.31751,29.625L203.314,224l38.78711-38.78711a8.00034,8.00034,0,0,0-.65918-11.9043L164.5741,111.81421A32.21419,32.21419,0,0,0,168,112a31.85948,31.85948,0,0,0,21.13214-8h30.28339A32.06594,32.06594,0,0,1,245.45508,117.39941ZM189.8877,271.751a7.98484,7.98484,0,0,1-11.06348-.24024L171.31348,264l10.34326-10.34277A8.0001,8.0001,0,0,0,176,240h-7.01514a.98491.98491,0,0,1-.23877-1.94043l20.79944-5.20019,20.45471,20.45483ZM153.51532,232H96V208h50.55511l13.33844,16.67358A16.95732,16.95732,0,0,0,153.51532,232ZM160,163.314l8-7.99951V160a8.00008,8.00008,0,0,0,8,8h16v16a8.00917,8.00917,0,0,1-8,8H160Zm27.91016,53.46241-11.53681,2.88452L167.045,208H184a24.02718,24.02718,0,0,0,24-24V167.04492l16.46729,13.17383Zm-4.06354-69.0542L189.19385,152H184v-2.34277A13.6456,13.6456,0,0,0,183.84662,147.72217ZM152,80V75.31348L163.31348,64H184V80a16,16,0,0,1-32,0Zm16-48h19.05566a4.94417,4.94417,0,0,1,4.42237,7.15527L187.05566,48H160a8.00035,8.00035,0,0,0-5.65674,2.34277L152,52.686V48A16.01833,16.01833,0,0,1,168,32ZM56,56H69.19385l100.066,80.05273A13.543,13.543,0,0,0,160.68652,140l-12,12H122.24463L56,69.19336Zm8,112V144a39.654,39.654,0,0,1,10.1001-26.56885L101.75519,152H88v16h56v24H88A24.02718,24.02718,0,0,1,64,168ZM96,476v4H32V469.76636l38.55347-12.85108Zm200,.5293V480H232V469.41626l31.2865-12.51465Zm-40-33.94556-25.52,10.208L215.91943,350.86816a8.00181,8.00181,0,0,0-2.26269-4.52539l-56-56a8.00012,8.00012,0,0,0-13.2461,3.127l-21.792,65.375a39.96466,39.96466,0,0,1-5.17724,10.28906l-50.47889,72.1123-27.84783,9.28272,48.13482-103.146a7.99973,7.99973,0,0,0,.72705-2.76953L95.40833,248h59.16851a17.11658,17.11658,0,0,0,4.97541,5.13379l-5.209,5.209a8.00078,8.00078,0,0,0,0,11.31446l13.16748,13.168a23.95422,23.95422,0,0,0,33.188.7207l3.631-3.32837L256,344.80566ZM216.15051,269.38159l48.78455-44.71948a70.71088,70.71088,0,0,0,6.51147-6.85962l148.5763,118.8606L336.66321,420.023Z"/></svg>
