<?xml version="1.0" encoding="utf-8"?>
<!-- Generator: Adobe Illustrator 25.0.1, SVG Export Plug-In . SVG Version: 6.00 Build 0)  -->
<svg version="1.1" id="Capa_1" xmlns="http://www.w3.org/2000/svg" xmlns:xlink="http://www.w3.org/1999/xlink" x="0px" y="0px"
	 viewBox="0 0 512 512" style="enable-background:new 0 0 512 512;" xml:space="preserve">
<g>
	<path d="M479.5,0H144.7c-4.1,0-7.5,3.4-7.5,7.5s3.4,7.5,7.5,7.5h334.8c9.6,0,17.5,7.9,17.5,17.5v408.3c0,9.7-7.9,17.5-17.5,17.5
		H241c-4.1,0-7.5,3.4-7.5,7.5s3.4,7.5,7.5,7.5h107.5v21.2c0,9.6,7.9,17.5,17.5,17.5h56.6c9.6,0,17.5-7.9,17.5-17.5v-21.2h39.4
		c17.9,0,32.5-14.6,32.5-32.5V32.5C512,14.6,497.4,0,479.5,0L479.5,0z M425.1,494.5c0,1.4-1.1,2.5-2.5,2.5H366
		c-1.4,0-2.5-1.1-2.5-2.5v-21.2h61.6V494.5z"/>
	<path d="M206,458.3H32.5c-9.6,0-17.5-7.9-17.5-17.5V32.5C15,22.9,22.9,15,32.5,15h76c4.1,0,7.5-3.4,7.5-7.5S112.6,0,108.5,0h-76
		C14.6,0,0,14.6,0,32.5v408.3c0,17.9,14.6,32.5,32.5,32.5h39.4v21.2c0,9.6,7.9,17.5,17.5,17.5H146c9.6,0,17.5-7.9,17.5-17.5v-21.2
		H206c4.1,0,7.5-3.4,7.5-7.5S210.1,458.3,206,458.3L206,458.3z M148.5,494.5c0,1.4-1.1,2.5-2.5,2.5H89.4c-1.4,0-2.5-1.1-2.5-2.5
		v-21.2h61.6V494.5z"/>
	<path d="M474.5,344.5c4.1,0,7.5-3.4,7.5-7.5V52.5c0-12.4-10.1-22.5-22.5-22.5h-407C40.1,30,30,40.1,30,52.5v265.1
		c0,8.3,4.1,16,11.1,20.5l154.7,101.1c4,2.6,8.6,4,13.4,4h250.3c12.4,0,22.5-10.1,22.5-22.5V372c0-4.1-3.4-7.5-7.5-7.5
		s-7.5,3.4-7.5,7.5v25.3H354.5v-14.8c0-8-6.5-14.5-14.5-14.5H212.7v-11.8h38.2l2.2,4.5c1.3,2.7,4,4.2,6.8,4.2c1.1,0,2.2-0.2,3.3-0.7
		c3.1-1.5,4.7-4.8,4.1-8h14.4l2.2,4.5c1.3,2.7,4,4.2,6.8,4.2c1.1,0,2.2-0.2,3.3-0.7c3.1-1.5,4.7-4.8,4.1-8h14.4l2.2,4.5
		c1.3,2.7,4,4.2,6.8,4.2c1.1,0,2.2-0.2,3.3-0.7c3.1-1.5,4.7-4.8,4.1-8h9.1c3.7,0,7.2-1.1,10.2-3.2l20.9-14.6
		c3.6-2.6,5.8-6.7,5.8-11.2s-2.2-8.6-5.8-11.2L348,301.4c-3-2.1-6.5-3.2-10.2-3.2h-36.8l-1.7-3.5c-1.8-3.7-6.3-5.3-10-3.5
		c-2.7,1.3-4.3,4.1-4.2,6.9h-14.8l-1.7-3.5c-1.8-3.7-6.3-5.3-10-3.5c-2.7,1.3-4.3,4.1-4.2,6.9h-14.8l-1.7-3.5
		c-1.8-3.7-6.3-5.3-10-3.5c-2.7,1.3-4.3,4.1-4.2,6.9h-10.9c0-0.6,0-9.1,0-9.6l14.1-5.1c20.6-7.5,34.8-26.7,36.1-48.4
		c1.7-0.9,3.4-2.2,4.8-3.7l20.6-22.6c5.5-6.1,8.7-14.7,8.7-23.7v-21.8h31.5c9.6,0,17.5-7.9,17.5-17.5v-0.5h79.1
		c0.5,7.8,6.2,14.4,14,15.9l28,5.7V337C467,341.1,470.4,344.5,474.5,344.5L474.5,344.5z M337.8,313.2c0.6,0,1.1,0.2,1.6,0.5
		l19.3,13.5l-19.3,13.5c-0.5,0.3-1,0.5-1.6,0.5h-16l-13.5-28.1L337.8,313.2L337.8,313.2z M291.7,313.2l13.5,28.1h-14.1l-13.5-28.1
		H291.7z M260.9,313.2l13.5,28.1h-14.1l-13.5-28.1H260.9z M212.7,313.2h17.4l13.5,28.1h-31V313.2z M45,93.7l25,5.1
		c1.2,0.2,2,1.3,2,2.5v42.6c0,1.2-0.8,2.2-2,2.5l-25,5.1V93.7z M467,420.8c0,4.1-3.4,7.5-7.5,7.5H209.2c-1.9,0-3.6-0.5-5.2-1.5
		l-22.1-14.5H467V420.8z M197.7,289v76.4c0,1.4-1.1,2.5-2.5,2.5h-14.9c-1.4,0-2.5-1.1-2.5-2.5c0-4.1,0-72.9,0-76.4
		c0-1.4,1.1-2.5,2.5-2.5h14.9C196.6,286.5,197.7,287.6,197.7,289z M339.5,397h-167v-14h167V397z M221.6,269.3l-15.8,5.8
		c-2.9-2.2-6.6-3.6-10.6-3.6h-14.9c-8,0-14.8,5.4-16.8,12.8h-2.8c-13,0-23.5,10.5-23.5,23.5v37.7c0,13,10.5,23.5,23.5,23.5h2.5
		c0.1,0.5,0.3,1.1,0.4,1.6c-3.7,2.6-6.2,7-6.2,11.9v13.8L49.3,325.6c-2.7-1.8-4.3-4.7-4.3-8V166.7l28-5.7c7.7-1.6,13.4-8.2,14-15.9
		H165v0.5c0,9.7,7.9,17.5,17.5,17.5H214v21.8c0,9,3.2,17.6,8.7,23.7l20.6,22.7c1.3,1.5,2.9,2.7,4.5,3.6
		C246.6,250.3,236.4,263.9,221.6,269.3L221.6,269.3z M160.7,354c-4.7,0-8.5-3.8-8.5-8.5v-37.7c0-4.7,3.8-8.5,8.5-8.5h2.1V354H160.7z
		 M165,115.1v15H87v-15H165z M282,184.9c0,5.3-1.8,10.3-4.8,13.6l-20.6,22.6c-0.4,0.4-0.8,0.7-1.1,0.7s-0.7-0.2-1.1-0.7l-20.6-22.7
		c-3.1-3.4-4.8-8.3-4.8-13.6v-21.8h53L282,184.9L282,184.9z M346,115.1h79v15h-79V115.1z M425.1,100.1H346v-0.5
		c0-9.7-7.9-17.5-17.5-17.5H311c-4.1,0-7.5,3.4-7.5,7.5s3.4,7.5,7.5,7.5h17.5c1.4,0,2.5,1.1,2.5,2.5v46c0,1.4-1.1,2.5-2.5,2.5
		c-24.3,0-146,0-146,0c-1.4,0-2.5-1.1-2.5-2.5v-46c0-1.4,1.1-2.5,2.5-2.5H276c4.1,0,7.5-3.4,7.5-7.5s-3.4-7.5-7.5-7.5h-93.5
		c-9.6,0-17.5,7.9-17.5,17.5v0.5H86.9c-0.5-7.8-6.2-14.4-14-15.9l-28-5.7V52.5c0-4.1,3.4-7.5,7.5-7.5h407c4.1,0,7.5,3.4,7.5,7.5
		v25.9l-28,5.7C431.3,85.7,425.6,92.3,425.1,100.1L425.1,100.1z M442,146.3c-1.2-0.2-2-1.3-2-2.5v-42.6c0-1.2,0.8-2.2,2-2.5l25-5.1
		v57.7L442,146.3z"/>
	<path d="M52,396.3c-12.1,0-22,9.9-22,22s9.9,22,22,22h42c12.1,0,22-9.9,22-22s-9.9-22-22-22H52z M101,418.3c0,3.9-3.1,7-7,7H52
		c-3.9,0-7-3.1-7-7s3.1-7,7-7h42C97.9,411.3,101,414.4,101,418.3z"/>
	<path d="M240,108.6c-4.1,0-7.5,3.4-7.5,7.5v13c0,4.1,3.4,7.5,7.5,7.5s7.5-3.4,7.5-7.5v-13C247.5,111.9,244.1,108.6,240,108.6z"/>
	<path d="M271,108.6c-4.1,0-7.5,3.4-7.5,7.5v13c0,4.1,3.4,7.5,7.5,7.5s7.5-3.4,7.5-7.5v-13C278.5,111.9,275.1,108.6,271,108.6z"/>
</g>
</svg>
