<?xml version="1.0" encoding="utf-8"?>
<!-- Generator: Adobe Illustrator 25.0.1, SVG Export Plug-In . SVG Version: 6.00 Build 0)  -->
<svg version="1.1" id="Layer_1" xmlns="http://www.w3.org/2000/svg" xmlns:xlink="http://www.w3.org/1999/xlink" x="0px" y="0px"
	 viewBox="0 0 512 512" style="enable-background:new 0 0 512 512;" xml:space="preserve">
<path d="M366.3,303.3H357c-3.3-9.4-12.3-15.7-22.3-15.8h-17.1c-3.3-9.4-12.3-15.7-22.3-15.8h-15.8v-74.8c0-15.2-12.3-27.6-27.6-27.6
	s-27.6,12.3-27.6,27.6v138l-7.3-12c-8.2-13.7-25.7-18.5-39.8-10.9c-14,7.6-19.6,24.9-12.6,39.3l35.2,82.9
	c5.7,13.5,17.8,23.2,32.2,25.8v48h15.8v-47.3h23.6V445h-31.5c-11.2,0-21.3-6.7-25.6-16.9l-35.4-83.4c-3.3-6.7-0.8-14.9,5.8-18.5
	c6.6-3.6,14.8-1.4,18.8,4.9l21.3,35.2h15.2V196.9c0-6.5,5.3-11.8,11.8-11.8s11.8,5.3,11.8,11.8V319h15.8v-31.5h15.8
	c4.3,0,7.9,3.5,7.9,7.9v39.4H319v-31.5h15.8c4.3,0,7.9,3.5,7.9,7.9v39.4h15.8V319h7.9c4.3,0,7.9,3.5,7.9,7.9v91.9l-23.6,31.5V508
	h15.8v-52.5l23.6-31.5v-97.1C389.9,313.8,379.3,303.3,366.3,303.3z"/>
<path d="M252.1,114.3c44.3-0.1,80.8,34.8,82.6,79.1l15.8-0.7c-2.2-52.7-45.6-94.3-98.4-94.3s-96.1,41.6-98.3,94.3l15.8,0.7
	C171.3,149.1,207.8,114.1,252.1,114.3z"/>
<path d="M252.1,145.8c26.9,0,49.2,20.9,51,47.7l15.8-1c-2.3-35.1-31.5-62.5-66.7-62.5s-64.4,27.3-66.7,62.5l15.8,1
	C202.9,166.6,225.2,145.8,252.1,145.8z"/>
<path d="M397.8,4v31.5h-39.4v15.8h39.4v31.5h39.4v31.5h15.8V82.8h39.4V4H397.8z M476.5,67h-63V19.8h63V67z"/>
<path d="M114.3,4H19.8v78.8h39.4v31.5h15.8V82.8h39.4V51.3h39.4V35.5h-39.4V4z M98.5,67h-63V19.8h63V67z"/>
<path d="M114.3,208.8H74.9v-31.5H59.1v31.5H19.8v78.8h94.5V256h39.4v-15.8h-39.4V208.8z M98.5,271.8h-63v-47.3h63V271.8z"/>
<path d="M59.1,130h15.8v31.5H59.1V130z"/>
<path d="M452.9,177.3h-15.8v31.5h-39.4v31.5h-39.4V256h39.4v31.5h94.5v-78.8h-39.4V177.3z M476.5,224.5v47.3h-63v-47.3H476.5z"/>
<path d="M437.1,130h15.8v31.5h-15.8V130z"/>
<path d="M169.4,35.5h31.5v15.8h-31.5V35.5z"/>
<path d="M263.9,35.5h31.5v15.8h-31.5V35.5z"/>
<path d="M216.6,35.5h31.5v15.8h-31.5V35.5z"/>
<path d="M311.1,35.5h31.5v15.8h-31.5V35.5z"/>
<path d="M169.4,240.3h31.5V256h-31.5V240.3z"/>
<path d="M311.1,240.3h31.5V256h-31.5V240.3z"/>
</svg>
