<?xml version="1.0" encoding="utf-8"?>
<!-- Generator: Adobe Illustrator 25.0.1, SVG Export Plug-In . SVG Version: 6.00 Build 0)  -->
<svg version="1.1" id="Layer_1" xmlns="http://www.w3.org/2000/svg" xmlns:xlink="http://www.w3.org/1999/xlink" x="0px" y="0px"
	 viewBox="0 0 512 512" style="enable-background:new 0 0 512 512;" xml:space="preserve">
<g id="Outline">
	<path d="M478.8,240.1c-3.7-12.4-16.8-19.4-29.2-15.7l-209.5,62.7c-1.2,0.3-2.2,1-3.1,1.8l-25.5,23.9c-3.1,3-3.3,7.9-0.3,11
		c1.2,1.2,2.7,2.1,4.3,2.3l34.4,6c1.2,0.2,2.4,0.1,3.6-0.2l170-50.9l0.7,16.1l-54,16.2l4.5,15l59.9-17.9c3.4-1,5.7-4.3,5.6-7.8
		l-1.2-26.1l24.1-7.2C475.5,265.6,482.5,252.5,478.8,240.1L478.8,240.1z M250.9,316.5l-17.2-3l12.7-12l35.6-10.7l4.5,15L250.9,316.5
		z M301.5,301.3l-4.5-15l125.1-37.4l0.7,16.1L301.5,301.3z M463.2,250.5c-1,1.8-2.6,3.2-4.6,3.8l-20.3,6.1l-0.7-16.1l16.6-5
		c4.1-1.2,8.5,1.1,9.7,5.2C464.4,246.6,464.2,248.7,463.2,250.5z"/>
	<path d="M318.5,349.7H185.7V232.6c0-4.3-3.5-7.8-7.8-7.8H37.3c-4.3,0-7.8,3.5-7.8,7.8v249.9c0,4.3,3.5,7.8,7.8,7.8h281.2
		c4.3,0,7.8-3.5,7.8-7.8v-125C326.3,353.2,322.8,349.7,318.5,349.7z M232.5,365.4h31.2v31.2h-31.2V365.4z M91.9,240.4h31.2v31.2
		H91.9V240.4z M45.1,240.4h31.2v39.1c0,4.3,3.5,7.8,7.8,7.8H131c4.3,0,7.8-3.5,7.8-7.8v-39.1H170v109.4h-125V240.4z M91.9,365.4
		h31.2v31.2H91.9V365.4z M45.1,365.4h31.2v39.1c0,4.3,3.5,7.8,7.8,7.8H131c4.3,0,7.8-3.5,7.8-7.8v-39.1H170v109.4h-125V365.4z
		 M310.6,474.7h-125V365.4h31.2v39.1c0,4.3,3.5,7.8,7.8,7.8h46.9c4.3,0,7.8-3.5,7.8-7.8v-39.1h31.2V474.7z"/>
	<path d="M279.4,443.5H295v15.6h-15.6V443.5z"/>
	<path d="M138.8,443.5h15.6v15.6h-15.6V443.5z"/>
	<path d="M138.8,318.5h15.6v15.6h-15.6V318.5z"/>
	<path d="M154.4,84.2c0-8.6,7-15.6,15.6-15.6h46.9v15.6h-39.1c-4.3,0-7.8,3.5-7.8,7.8v117.2h15.6V99.8h187.5v125h15.6V92
		c0-4.3-3.5-7.8-7.8-7.8h-39.1V68.5h46.9c8.6,0,15.6,7,15.6,15.6v132.8H420V84.2c0-17.2-14-31.2-31.2-31.2h-75.9l5.4-21.5
		c1-4.2-1.5-8.4-5.7-9.5c-0.6-0.2-1.3-0.2-1.9-0.2h-62.5c-4.3,0-7.8,3.5-7.8,7.8c0,0.6,0.1,1.3,0.2,1.9l5.4,21.5H170
		c-17.2,0-31.2,14-31.2,31.2v125h15.6L154.4,84.2z M232.5,68.5H256c4.3,0,7.8-3.5,7.8-7.8c0-0.6-0.1-1.3-0.2-1.9l-5.4-21.5h42.5
		l-5.4,21.5c-1,4.2,1.5,8.4,5.7,9.5c0.6,0.2,1.3,0.2,1.9,0.2h23.4v15.6h-93.7L232.5,68.5z"/>
	<path d="M404.4,404.4c0,8.6-7,15.6-15.6,15.6h-46.9v15.6h46.9c17.2,0,31.2-14,31.2-31.2v-70.3h-15.6V404.4z"/>
	<path d="M388.8,396.6v-54.7h-15.6v46.9h-31.2v15.6h39.1C385.3,404.4,388.8,400.9,388.8,396.6z"/>
	<path d="M248.2,123.2c0-4.3-3.5-7.8-7.8-7.8h-31.2c-4.3,0-7.8,3.5-7.8,7.8v31.2c0,4.3,3.5,7.8,7.8,7.8h31.2c4.3,0,7.8-3.5,7.8-7.8
		V123.2z M232.5,146.6h-15.6V131h15.6V146.6z"/>
	<path d="M240.3,185.7h-31.2c-4.3,0-7.8,3.5-7.8,7.8v31.2c0,4.3,3.5,7.8,7.8,7.8h31.2c4.3,0,7.8-3.5,7.8-7.8v-31.2
		C248.2,189.2,244.7,185.7,240.3,185.7z M232.5,216.9h-15.6v-15.6h15.6V216.9z"/>
	<path d="M263.8,115.4h15.6V131h-15.6V115.4z"/>
	<path d="M263.8,146.6h93.7v15.6h-93.7V146.6z"/>
	<path d="M295,115.4h62.5V131H295V115.4z"/>
	<path d="M263.8,185.7h15.6v15.6h-15.6V185.7z"/>
	<path d="M263.8,216.9h93.7v15.6h-93.7V216.9z"/>
	<path d="M295,185.7h62.5v15.6H295V185.7z"/>
</g>
</svg>
