<?xml version="1.0" encoding="utf-8"?>
<!-- Generator: Adobe Illustrator 25.0.1, SVG Export Plug-In . SVG Version: 6.00 Build 0)  -->
<svg version="1.1" id="Capa_1" xmlns="http://www.w3.org/2000/svg" xmlns:xlink="http://www.w3.org/1999/xlink" x="0px" y="0px"
	 viewBox="0 0 512 512" style="enable-background:new 0 0 512 512;" xml:space="preserve">
<g>
	<path d="M482.3,169.1h-28.5V72.9c0-22-17.9-40-40-40H69.3c-22,0-40,17.9-40,40v244.1c0,9.2,3.2,17.8,8.7,24.7h-23
		c-7.1,0-12.9,5.8-12.9,12.9v18.9c0,18.1,14.6,32.9,32.7,32.9h184.5c4.1,0,7.4-3.3,7.4-7.4s-3.3-7.4-7.4-7.4H34.7
		c-9.8,0-17.8-8.1-17.8-18v-16.9h313.4v34.9h-76.4c-4.1,0-7.4,3.3-7.4,7.4s3.3,7.4,7.4,7.4h76.4v44.9c0,15.3,12.4,27.7,27.7,27.7
		h124.2c15.3,0,27.7-12.4,27.7-27.7c0-11.4,0-246.4,0-254.6C509.9,181.5,497.5,169.1,482.3,169.1L482.3,169.1z M330.4,341.8H64.8
		c-11.8-2.2-20.6-12.7-20.6-24.7V72.9c0-13.8,11.3-25.1,25.1-25.1h344.5c13.8,0,25.1,11.3,25.1,25.1v96.2h-14.4
		c0-10.4,0-82.5,0-93.9c0-7.3-6-13.3-13.3-13.3c-2,0-329.1,0-339.5,0c-7.3,0-13.3,6-13.3,13.3v239.1c0,7.3,6,13.3,13.3,13.3h258.6
		L330.4,341.8L330.4,341.8z M409.7,76.8v19.8H111.4V76.8H409.7z M96.5,76.8v19.8H73.4V76.8H96.5z M330.4,196.8v116h-257V111.5h336.3
		v57.6H358C342.8,169.1,330.4,181.5,330.4,196.8L330.4,196.8z M345.2,226h15v14.9h-15V226z M495.1,451.4c0,7.1-5.7,12.8-12.8,12.8
		H358c-7.1,0-12.8-5.7-12.8-12.8v-21.3h149.8V451.4z M495.1,415.2H345.2c0-60.7,0-98.7,0-159.4h149.8V415.2z M495.1,240.9h-120V226
		h120V240.9z M495.1,211.1c-7.6,0-143.1,0-149.8,0v-14.3c0-7.1,5.7-12.8,12.8-12.8h124.2c7.1,0,12.8,5.7,12.8,12.8L495.1,211.1
		L495.1,211.1z"/>
	<path d="M412.2,453h15.8c4.1,0,7.4-3.3,7.4-7.4c0-4.1-3.3-7.4-7.4-7.4h-15.8c-4.1,0-7.4,3.3-7.4,7.4
		C404.8,449.7,408.1,453,412.2,453z"/>
	<path d="M266.1,199.5l-31.9-21.8c-10.1-6.9-23.8,0.4-23.8,12.6v43.5c0,12.2,13.7,19.5,23.8,12.6l31.9-21.8
		C275,218.7,275,205.6,266.1,199.5z M257.7,212.4l-31.9,21.8c-0.1,0.1-0.2,0.1-0.4,0c-0.2-0.1-0.2-0.2-0.2-0.3v-43.5
		c0-0.1,0-0.2,0.2-0.3c0.1,0,0.1-0.1,0.2-0.1c0.1,0,0.1,0,0.2,0.1l31.9,21.8c0.1,0,0.2,0.1,0.2,0.3
		C257.9,212.3,257.8,212.4,257.7,212.4L257.7,212.4z"/>
	<path d="M236.6,142.5c-38.4,0-69.7,31.2-69.7,69.7s31.2,69.7,69.7,69.7s69.7-31.2,69.7-69.7S275,142.5,236.6,142.5L236.6,142.5z
		 M236.6,266.9c-30.2,0-54.8-24.6-54.8-54.8s24.6-54.8,54.8-54.8c30.2,0,54.8,24.6,54.8,54.8S266.8,266.9,236.6,266.9z"/>
	<path d="M418.6,303.8c-9.5-6.4-22.2,0.4-22.2,11.8v37.9c0,11.5,12.9,18.1,22.2,11.8l27.8-18.9c8.3-5.6,8.3-17.9,0-23.5L418.6,303.8
		z M411.2,352.2v-35.4l26,17.7L411.2,352.2z"/>
	<path d="M420.1,396.1c25.9,0,49.2-16.4,57.9-40.7c1.4-3.9-0.6-8.1-4.5-9.5c-3.9-1.4-8.1,0.6-9.5,4.5c-6.7,18.5-24.3,30.9-44,30.9
		c-25.8,0-46.7-21-46.7-46.7c0-25.8,21-46.7,46.7-46.7c20.5,0,38.4,13.1,44.5,32.6c1.2,3.9,5.4,6.1,9.3,4.8c3.9-1.2,6.1-5.4,4.8-9.3
		c-8.1-25.7-31.7-43-58.7-43c-34,0-61.6,27.6-61.6,61.6S386.2,396.1,420.1,396.1L420.1,396.1z"/>
</g>
</svg>
