<?xml version="1.0" encoding="iso-8859-1"?>
<!-- Generator: Adobe Illustrator 19.0.0, SVG Export Plug-In . SVG Version: 6.00 Build 0)  -->
<svg version="1.1" id="Capa_1" xmlns="http://www.w3.org/2000/svg" xmlns:xlink="http://www.w3.org/1999/xlink" x="0px" y="0px"
	 viewBox="0 0 480 480" style="enable-background:new 0 0 480 480;" xml:space="preserve">
<g>
	<g>
		<g>
			<path d="M472,0H8C3.582,0,0,3.582,0,8v464c0,4.418,3.582,8,8,8h464c4.418,0,8-3.582,8-8V8C480,3.582,476.418,0,472,0z M464,464
				H16V96h448V464z M464,80H16V16h448V80z"/>
			<circle cx="384" cy="48" r="16"/>
			<circle cx="432" cy="48" r="16"/>
			<circle cx="336" cy="48" r="16"/>
			<path d="M71.12,277.6c5.682,22.552,24.69,39.259,47.784,42c2.167,0.28,4.351,0.413,6.536,0.4h74.128l-31.2,93.472
				c-1.396,4.192,0.87,8.722,5.062,10.118c0.829,0.276,1.697,0.414,2.57,0.41h27.2c15.612,0.023,29.803-9.061,36.32-23.248
				L282.992,320h118.32c13.255-0.002,23.999-10.748,23.997-24.003c-0.001-4.949-1.531-9.776-4.381-13.821L416,275.2
				c-22.473-32.068-59.162-51.173-98.32-51.2H282.4l-34.6-64.232c-6.46-14.434-20.786-23.737-36.6-23.768H184
				c-4.418-0.001-8.001,3.58-8.002,7.998c0,0.86,0.138,1.714,0.41,2.53L202.184,224h-60.968c-2.855-0.003-5.492-1.527-6.92-4
				l-13.96-24.088c-7.182-12.308-20.35-19.886-34.6-19.912H76.48c-13.255-0.003-24.002,10.74-24.005,23.995
				c0,1.976,0.243,3.945,0.725,5.861L71.12,277.6z M271.072,308.432l-45.904,85.248c-3.863,8.683-12.464,14.29-21.968,14.32h-16.104
				l42.672-128h53.92L271.072,308.432z M195.096,152H211.2c9.698,0.091,18.423,5.912,22.232,14.832L264.208,224h-45.16L195.096,152z
				 M70.216,195.04c1.508-1.925,3.819-3.047,6.264-3.04h9.256c8.56,0.028,16.463,4.596,20.76,12l13.96,24.08
				c4.3,7.421,12.224,11.992,20.8,12H317.68c33.939,0.017,65.739,16.574,85.216,44.368l4.952,7.024
				c2.501,3.642,1.575,8.622-2.067,11.123c-1.316,0.904-2.873,1.393-4.469,1.405H290.544l10.552-23.768l2.216-4.984
				c1.794-4.038-0.025-8.765-4.063-10.559c-1.023-0.454-2.13-0.689-3.249-0.689h-72c-3.44,0.001-6.494,2.202-7.584,5.464
				L204.872,304H125.44c-1.517,0.018-3.032-0.073-4.536-0.272c-16.54-1.91-30.177-13.844-34.264-29.984l-17.904-71.72
				C68.126,199.592,68.672,197.015,70.216,195.04z"/>
		</g>
	</g>
</g>
<g>
</g>
<g>
</g>
<g>
</g>
<g>
</g>
<g>
</g>
<g>
</g>
<g>
</g>
<g>
</g>
<g>
</g>
<g>
</g>
<g>
</g>
<g>
</g>
<g>
</g>
<g>
</g>
<g>
</g>
</svg>
