<?xml version="1.0" encoding="utf-8"?>
<!-- Generator: Adobe Illustrator 25.2.1, SVG Export Plug-In . SVG Version: 6.00 Build 0)  -->
<svg version="1.1" id="Capa_1" xmlns="http://www.w3.org/2000/svg" xmlns:xlink="http://www.w3.org/1999/xlink" x="0px" y="0px"
	 viewBox="0 0 512 512" style="enable-background:new 0 0 512 512;" xml:space="preserve">
<style type="text/css">
	.st0{fill:#0078EF;}
</style>
<g>
	<path class="st0" d="M457,108.5V80.8c0-3.3-1.4-6.3-3.6-8.5c-2.2-2.2-5.2-3.6-8.5-3.6H420c-3.3,0-6.4,1.4-8.6,3.6
		c-2.2,2.2-3.5,5.2-3.5,8.5v27.7L457,108.5L457,108.5z M143.5,243.3c-2.9-2.9-2.9-7.7,0-10.6c2.9-2.9,7.7-2.9,10.6,0l6.8,6.8l19-19
		c2.9-2.9,7.7-2.9,10.6,0c2.9,2.9,2.9,7.7,0,10.6l-24.3,24.3c-2.9,2.9-7.7,2.9-10.6,0L143.5,243.3z M424.9,156.8
		c0-4.1,3.3-7.5,7.5-7.5c4.1,0,7.5,3.4,7.5,7.5v157.4c0,4.1-3.3,7.5-7.5,7.5c-4.2,0-7.5-3.4-7.5-7.5V156.8z M306.7,410.5h46.1v-32.2
		h-46.1V410.5z M360.3,425.5c-81.5,0-163.1,0-244.6,0c-4.1,0-7.5-3.4-7.5-7.5v-47.2c0-4.1,3.4-7.5,7.5-7.5h53.7v-42.7
		c0-4.1,3.3-7.5,7.5-7.5H238c4.1,0,7.5,3.3,7.5,7.5v13.3h53.7c4.1,0,7.5,3.4,7.5,7.5v21.9h53.6c4.1,0,7.5,3.3,7.5,7.5V418
		C367.8,422.2,364.5,425.5,360.3,425.5L360.3,425.5z M245.5,410.5h46.1V349h-46.1V410.5z M184.4,410.5h46.1v-69.1v-13.3h-46.1V410.5
		z M123.2,410.5h46.2v-32.2h-46.2L123.2,410.5z M91.6,149.3h301.3V116V80.8c0-7.5,3.1-14.2,8-19.1c4.9-4.9,11.7-8,19.2-8h24.9
		c7.5,0,14.2,3.1,19.1,8s8,11.7,8,19.1V116v33.3h32.5c4.1,0,7.5,3.4,7.5,7.5v294c0,4.1-3.3,7.5-7.5,7.5H296.9
		c-4.1,0-7.5-3.3-7.5-7.5s3.3-7.5,7.5-7.5H497v-279h-25v54.2c0,4.1-3.4,7.5-7.5,7.5c-4.1,0-7.5-3.4-7.5-7.5v-61.7v-33.2h-49.1v33.2
		v190.7H457v-95c0-4.1,3.3-7.5,7.5-7.5c4.1,0,7.5,3.4,7.5,7.5v102.4c0,1.8-0.5,2.7-1.3,4.3l-31.6,62.2c-0.7,1.4-1.8,2.6-3.3,3.3
		c-3.7,1.9-8.2,0.4-10-3.3L394,359c-0.7-1.5-1.2-2.4-1.2-4.1V164.3H91.6V221c0,4.1-3.3,7.5-7.5,7.5s-7.5-3.4-7.5-7.5v-64.2v-82
		c-6.4-4-13.7-6.1-21.3-6.1c-11.1,0-21.2,4.5-28.5,11.8C19.5,87.8,15,97.9,15,109v256.2c0.4-0.4,0.8-0.9,1.2-1.2
		c10-10,23.8-16.2,39.1-16.2c6.1,0,12,1,17.6,2.9c1.2,0.4,2.5,0.9,3.7,1.4v-97c0-4.1,3.4-7.5,7.5-7.5s7.5,3.4,7.5,7.5v109.9
		c0,1.6-0.5,3.1-1.5,4.5c-2.5,3.3-7.2,3.9-10.5,1.4c-3.4-2.6-7.3-4.7-11.5-6c-4-1.3-8.3-2.1-12.8-2.1c-11.1,0-21.2,4.5-28.5,11.8
		C19.5,381.8,15,391.9,15,403c0,11.1,4.5,21.2,11.8,28.5c7.3,7.3,17.4,11.8,28.5,11.8h207.6c4.1,0,7.5,3.4,7.5,7.5
		c0,4.1-3.3,7.5-7.5,7.5H55.3c-15.3,0-29.1-6.2-39.1-16.2C6.2,432.1,0,418.3,0,403V109c0-15.3,6.2-29.1,16.2-39.1
		c10-10,23.8-16.2,39.1-16.2c11.8,0,23.4,3.9,32.9,10.9c2,1.4,3.3,3.7,3.3,6.3L91.6,149.3L91.6,149.3z M452.3,362.4h-39.7l19.9,39.1
		L452.3,362.4z M352,194.7c4.1,0,7.5,3.4,7.5,7.5s-3.3,7.5-7.5,7.5H250.5c-4.1,0-7.5-3.3-7.5-7.5c0-4.1,3.3-7.5,7.5-7.5H352z
		 M309.8,266.3c4.2,0,7.5,3.3,7.5,7.5s-3.3,7.5-7.5,7.5h-59.3c-4.1,0-7.5-3.4-7.5-7.5s3.3-7.5,7.5-7.5H309.8z M352,230.5
		c4.1,0,7.5,3.3,7.5,7.5c0,4.1-3.3,7.5-7.5,7.5H250.5c-4.1,0-7.5-3.3-7.5-7.5c0-4.2,3.3-7.5,7.5-7.5H352z M124,187.5h85.9
		c4.1,0,7.5,3.4,7.5,7.5V281c0,4.1-3.3,7.5-7.5,7.5H124c-4.2,0-7.5-3.4-7.5-7.5V195C116.5,190.9,119.9,187.5,124,187.5z
		 M202.4,202.6h-70.9v70.9h70.9V202.6z"/>
</g>
</svg>
