<?xml version="1.0" encoding="utf-8"?>
<!-- Generator: Adobe Illustrator 25.0.1, SVG Export Plug-In . SVG Version: 6.00 Build 0)  -->
<svg version="1.1" id="Layer_1" xmlns="http://www.w3.org/2000/svg" xmlns:xlink="http://www.w3.org/1999/xlink" x="0px" y="0px"
	 viewBox="0 0 81.1 91.8" style="enable-background:new 0 0 81.1 91.8;" xml:space="preserve">
<style type="text/css">
	.st0{fill:none;stroke:#000000;stroke-width:3;stroke-linecap:round;stroke-linejoin:round;stroke-miterlimit:10;}
</style>
<path id="shopify" class="st0" d="M53,90.6l26.9-5.8c0,0-9.7-65.8-9.8-66.2c-0.1-0.4-0.4-0.7-0.8-0.7c-0.4,0-7.2-0.5-7.2-0.5
	s-4.8-4.8-5.4-5.3c-0.1-0.1-0.3-0.2-0.5-0.3L53,90.6L53,90.6z M39.4,43.2c-2.1-1-4.3-1.5-6.6-1.6c-5.4,0-5.6,3.4-5.6,4.3
	c0,4.6,12.1,6.4,12.1,17.3c0,8.6-5.4,14-12.7,14c-5,0.1-9.8-1.8-13.2-5.5l2.4-7.8c0,0,4.7,4,8.5,4c1.9,0.1,3.6-1.5,3.6-3.4
	c0,0,0,0,0-0.1c0-6-9.9-6.3-9.9-16.3c-0.1-8.4,5.9-16.5,18-16.5c4.7,0,7,1.3,7,1.3L39.4,43.2L39.4,43.2L39.4,43.2z M37.4,4.1
	c0.5,0,1.1,0.2,1.5,0.5c-3.7,1.7-7.7,6.1-9.4,14.9c-2.3,0.8-4.7,1.5-7.1,2.2C24.5,15,29.1,4.1,37.4,4.1L37.4,4.1z M42,15.1v0.5
	c-2.8,0.9-5.9,1.8-8.9,2.7c1.7-6.6,5-9.9,7.8-11.1C41.7,9.8,42.1,12.5,42,15.1z M44.1,6.8c2.6,0.3,4.3,3.2,5.3,6.6
	c-1.3,0.4-2.7,0.9-4.3,1.4v-0.9C45.1,11.4,44.8,9,44.1,6.8L44.1,6.8L44.1,6.8z M55.2,11.6c-0.1,0-0.2,0.1-0.3,0.1s-1.1,0.3-2.7,0.8
	c-1.6-4.6-4.4-8.9-9.4-8.9h-0.4c-1.1-1.5-2.8-2.5-4.7-2.6C26.2,1,20.6,15.5,18.9,22.8c-4.5,1.4-7.7,2.4-8.1,2.5
	c-2.5,0.8-2.6,0.9-2.9,3.3c-0.3,1.7-6.8,52.5-6.8,52.5l50.7,9.5L55.2,11.6L55.2,11.6z"/>
</svg>
