<?xml version="1.0" encoding="utf-8"?>
<!-- Generator: Adobe Illustrator 25.0.1, SVG Export Plug-In . SVG Version: 6.00 Build 0)  -->
<svg version="1.1" id="Capa_1" xmlns="http://www.w3.org/2000/svg" xmlns:xlink="http://www.w3.org/1999/xlink" x="0px" y="0px"
	 viewBox="0 0 664 664" style="enable-background:new 0 0 664 664;" xml:space="preserve">
<g>
	<g>
		<g>
			<rect x="224.3" y="62.8" width="215.3" height="21.5"/>
		</g>
	</g>
	<g>
		<g>
			<path d="M542,412.8c0-20.8-16.9-37.7-37.7-37.7h-21.5V224.3h-21.5v150.7h-26.9c-20.8,0-37.7,16.9-37.7,37.7
				c0,10.5,4.4,20.1,11.4,26.9c-7,6.8-11.4,16.4-11.4,26.9c0,7.3,2.2,14,5.7,19.7c-12.9,6-21.9,19-21.9,34.1
				c0,5.8,1.4,11.2,3.8,16.1h-84.5c0-32.9-16.5-62.1-41.7-79.6c24.3-9.3,41.7-32.8,41.7-60.4c0-5.9-4.8-10.8-10.8-10.8h-86.1V278.2
				h-21.5v107.7c-17.8,0-32.3,14.5-32.3,32.3V655h21.5V418.1c0-5.9,4.8-10.8,10.8-10.8h95.5c-4.8,18.6-21.7,32.3-41.7,32.3h-32.3
				c-6,0-10.8,4.8-10.8,10.8c0,5.9,4.8,10.8,10.8,10.8c41.6,0,75.4,33.8,75.4,75.4v10.8c0,5.9,4.8,10.8,10.8,10.8h63
				c-2.4,4.9-3.8,10.3-3.8,16.2c0,20.8,16.9,37.7,37.7,37.7V655h21.5v-43.1h43.1h5.4c20.8,0,37.7-16.9,37.7-37.7
				c0-5.9-1.5-11.3-3.9-16.3c20.1-0.8,36.2-17.3,36.2-37.5c0-7.3-2.2-14-5.7-19.7c12.9-6,21.9-19,21.9-34.1
				c0-10.5-4.4-20.1-11.4-26.9C537.6,432.8,542,423.3,542,412.8z M455.8,590.4h-5.4h-53.8h-10.8c-8.9,0-16.2-7.2-16.2-16.2
				s7.2-16.2,16.2-16.2h32.3h37.7c8.9,0,16.1,7.2,16.1,16.2S464.7,590.4,455.8,590.4z M488.1,536.6h-32.3h-37.7
				c-8.9,0-16.1-7.2-16.1-16.1c0-8.9,7.2-16.2,16.1-16.2h16.1h53.8c8.9,0,16.1,7.2,16.1,16.2C504.3,529.3,497,536.6,488.1,536.6z
				 M504.3,482.7h-16.1h-53.8c-8.9,0-16.1-7.2-16.1-16.1c0-8.9,7.2-16.2,16.1-16.2h70c8.9,0,16.2,7.2,16.2,16.2
				C520.4,475.5,513.2,482.7,504.3,482.7z M504.3,428.9h-70c-8.9,0-16.1-7.2-16.1-16.1s7.2-16.1,16.1-16.1h70
				c8.9,0,16.2,7.2,16.2,16.1S513.2,428.9,504.3,428.9z"/>
		</g>
	</g>
	<g>
		<g>
			<path d="M170.5,146c-0.2-3.1-1.8-5.9-4.2-7.8l-11.2-8.5c-2.7-13.6-14.6-23.8-28.8-23.8c-16.1,0-29.2,13.1-29.4,29.2
				c-8.6-1.5-16.8-4.8-24.2-9.8l-3.8-2.5c-3.3-2.2-7.6-2.5-11.1-0.6c-3.5,1.9-5.7,5.5-5.7,9.5v8.8c0,13,3.9,25.4,11.2,35.7l-8.1,8.1
				c-3.1,3.1-4,7.7-2.3,11.7c1.7,4,5.6,6.6,9.9,6.6H115c20.8,0,38-15.9,40.3-36.2l12.1-12.2C169.6,152.2,170.7,149.1,170.5,146z
				 M137.2,154.3c-2,2-3.1,4.7-3.1,7.6c0,10.7-8.5,19.4-19.1,19.4H87.6c1.7-3.9,1-8.7-2.2-11.9c-5-5.1-8.6-11.5-10.4-18.4
				c10.3,4.3,21.3,6.6,32.6,6.6c6,0,10.8-4.8,10.8-10.8v-11.3c0-4.5,3.5-8.1,7.9-8.1s7.9,3.6,7.9,8.1c0,3.4,1.6,6.5,4.3,8.6l5.1,3.9
				L137.2,154.3z"/>
		</g>
	</g>
	<g>
		<g>
			<path d="M364.3,192v-21.5H332c-6,0-10.8,4.8-10.8,10.8v32.3h-21.5v21.5h21.5v43.1h21.5v-43.1h21.5v-21.5h-21.5V192H364.3z"/>
		</g>
	</g>
	<g>
		<g>
			<path d="M396.6,127.4H267.4c-17.8,0-32.3,14.5-32.3,32.3v129.2c0,17.8,14.5,32.3,32.3,32.3h129.2c17.8,0,32.3-14.5,32.3-32.3
				V159.7C428.9,141.9,414.4,127.4,396.6,127.4z M407.4,288.9c0,5.9-4.8,10.8-10.8,10.8H267.4c-5.9,0-10.8-4.8-10.8-10.8V159.7
				c0-5.9,4.8-10.8,10.8-10.8h129.2c5.9,0,10.8,4.8,10.8,10.8V288.9z"/>
		</g>
	</g>
	<g>
		<g>
			<path d="M170.5,62.8H41.3C23.5,62.8,9,77.3,9,95.1v129.2c0,17.8,14.5,32.3,32.3,32.3h129.2c17.8,0,32.3-14.5,32.3-32.3V95.1
				C202.8,77.3,188.3,62.8,170.5,62.8z M181.3,224.3c0,5.9-4.8,10.8-10.8,10.8H41.3c-5.9,0-10.8-4.8-10.8-10.8V95.1
				c0-5.9,4.8-10.8,10.8-10.8h129.2c5.9,0,10.8,4.8,10.8,10.8V224.3z"/>
		</g>
	</g>
	<g>
		<g>
			<path d="M622.7,9H493.5c-17.8,0-32.3,14.5-32.3,32.3v129.2c0,17.8,14.5,32.3,32.3,32.3h129.2c17.8,0,32.3-14.5,32.3-32.3V41.3
				C655,23.5,640.5,9,622.7,9z M633.5,170.5c0,5.9-4.8,10.8-10.8,10.8H493.5c-5.9,0-10.8-4.8-10.8-10.8v-53.8h22.6
				c5,24.5,26.7,43.1,52.7,43.1c26,0,47.7-18.5,52.7-43.1h22.6V170.5z M525.8,105.9c0-17.8,14.5-32.3,32.3-32.3
				c17.8,0,32.3,14.5,32.3,32.3s-14.5,32.3-32.3,32.3C540.3,138.2,525.8,123.7,525.8,105.9z M633.5,95.1h-22.6
				c-5-24.5-26.7-43.1-52.7-43.1c-26,0-47.7,18.5-52.7,43.1h-22.6V41.3c0-5.9,4.8-10.8,10.8-10.8h129.2c5.9,0,10.8,4.8,10.8,10.8
				V95.1z"/>
		</g>
	</g>
	<g>
		<g>
			<rect x="321.2" y="450.4" width="21.5" height="21.5"/>
		</g>
	</g>
</g>
</svg>
