<?xml version="1.0" encoding="utf-8"?>
<!-- Generator: Adobe Illustrator 25.0.1, SVG Export Plug-In . SVG Version: 6.00 Build 0)  -->
<svg version="1.1" id="Capa_1" xmlns="http://www.w3.org/2000/svg" xmlns:xlink="http://www.w3.org/1999/xlink" x="0px" y="0px"
	 viewBox="0 0 512 512" style="enable-background:new 0 0 512 512;" xml:space="preserve">
<style type="text/css">
	.st0{fill:#FFFFFF;}
</style>
<g>
	<g>
		<path class="st0" d="M348.7,290.3c46.2-21,76.1-67.3,76.1-118c0-27.4-8.4-53.5-24.4-75.7c-2-2.7-5.8-3.4-8.5-1.4
			c-2.7,2-3.4,5.8-1.4,8.5c14.5,20,22.1,43.7,22.1,68.5c0,45.9-27,87.9-68.9,106.9c-8.1,3.7-13.4,11.8-13.4,20.6v27.7h-70v-27.7
			c0-8.8-5.2-16.9-13.2-20.5c-42.2-19-69.3-61.2-69.1-107.5C178.3,107.4,230.9,55,295.3,55c28.3,0,55.6,10.2,76.9,28.8
			c2.5,2.2,6.4,1.9,8.6-0.6c2.2-2.5,1.9-6.4-0.6-8.6c-23.5-20.5-53.7-31.8-85-31.8c-34.5,0-67,13.4-91.4,37.7
			c-24.4,24.3-37.9,56.7-38.1,91.2c-0.2,51.1,29.7,97.6,76.2,118.6c3.7,1.7,6,5.3,6,9.4v27.7h-2.1c-7.9,0-14.3,6.4-14.3,14.3v9.9
			c0,7.5,5.8,13.7,13.2,14.3L250,398c1.8,11,11.1,19,22.3,19h8.8c3.4,0,6.1-2.7,6.1-6.1c0-3.4-2.7-6.1-6.1-6.1h-8.8
			c-5.1,0-9.4-3.7-10.2-8.7l-4.9-30.1h9.6c3.4,0,6.1-2.7,6.1-6.1s-2.7-6.1-6.1-6.1h-20.9c-1.2,0-2.1-1-2.1-2.1v-9.9
			c0-1.2,1-2.1,2.1-2.1h98.7c1.2,0,2.1,1,2.1,2.1v9.9c0,1.2-1,2.1-2.1,2.1h-49.4c-3.4,0-6.1,2.7-6.1,6.1s2.7,6.1,6.1,6.1h38.1
			l-4.9,30.1c-0.8,5-5.1,8.7-10.2,8.7h-8.8c-3.4,0-6.1,2.7-6.1,6.1c0,3.4,2.7,6.1,6.1,6.1h8.8c11.1,0,20.5-8,22.3-19l5.2-32.1
			c7.4-0.6,13.2-6.7,13.2-14.3v-9.9c0-7.9-6.4-14.3-14.3-14.3h-2.1v-27.7C342.5,295.7,345,292,348.7,290.3L348.7,290.3z"/>
		<path class="st0" d="M220.1,205.2v36.2c0,3.4,2.7,6.1,6.1,6.1h138.2c3.4,0,6.1-2.7,6.1-6.1v-36.2c0-21.5-17.5-39-39-39h-4.5
			c9.6-8.6,15.6-21.1,15.6-35c0-26-21.2-47.2-47.2-47.2c-26,0-47.2,21.2-47.2,47.2c0,13.9,6,26.4,15.6,35h-4.5
			C237.6,166.2,220.1,183.7,220.1,205.2L220.1,205.2z M260.3,131.1c0-19.3,15.7-35,35-35c19.3,0,35,15.7,35,35c0,19.3-15.7,35-35,35
			C276,166.2,260.3,150.5,260.3,131.1z M331.5,178.4c14.8,0,26.8,12,26.8,26.8v30.1h-22.3v-10.3c0-3.4-2.7-6.1-6.1-6.1
			c-3.4,0-6.1,2.7-6.1,6.1v10.3h-56.9v-10.3c0-3.4-2.7-6.1-6.1-6.1c-3.4,0-6.1,2.7-6.1,6.1v10.3h-22.3v-30.1
			c0-14.8,12-26.8,26.8-26.8H331.5z"/>
		<path class="st0" d="M295.3,28.7c3.4,0,6.1-2.7,6.1-6.1V6.1c0-3.4-2.7-6.1-6.1-6.1c-3.4,0-6.1,2.7-6.1,6.1v16.5
			C289.2,25.9,291.9,28.7,295.3,28.7z"/>
		<path class="st0" d="M215.1,45.7c1.1,2,3.2,3.1,5.3,3.1c1,0,2.1-0.3,3-0.8c2.9-1.7,3.9-5.4,2.2-8.3l-8.2-14.2
			c-1.7-2.9-5.4-3.9-8.3-2.2c-2.9,1.7-3.9,5.4-2.2,8.3L215.1,45.7z"/>
		<path class="st0" d="M148.3,94.5l14.2,8.2c1,0.6,2,0.8,3,0.8c2.1,0,4.2-1.1,5.3-3.1c1.7-2.9,0.7-6.7-2.2-8.3l-14.2-8.2
			c-2.9-1.7-6.7-0.7-8.3,2.2C144.4,89.1,145.4,92.8,148.3,94.5z"/>
		<path class="st0" d="M151.7,172.3c0-3.4-2.7-6.1-6.1-6.1h-16.5c-3.4,0-6.1,2.7-6.1,6.1c0,3.4,2.7,6.1,6.1,6.1h16.5
			C148.9,178.4,151.7,175.6,151.7,172.3z"/>
		<path class="st0" d="M162.6,241.8l-14.2,8.2c-2.9,1.7-3.9,5.4-2.2,8.3c1.1,2,3.2,3.1,5.3,3.1c1,0,2.1-0.3,3-0.8l14.2-8.2
			c2.9-1.7,3.9-5.4,2.2-8.3C169.2,241.2,165.5,240.2,162.6,241.8z"/>
		<path class="st0" d="M367.1,47.9c1,0.6,2,0.8,3,0.8c2.1,0,4.2-1.1,5.3-3.1l8.2-14.2c1.7-2.9,0.7-6.7-2.2-8.3
			c-2.9-1.7-6.7-0.7-8.3,2.2l-8.2,14.2C363.2,42.5,364.2,46.2,367.1,47.9L367.1,47.9z"/>
		<path class="st0" d="M424.9,103.5c1,0,2.1-0.3,3-0.8l14.2-8.2c2.9-1.7,3.9-5.4,2.2-8.3c-1.7-2.9-5.4-3.9-8.3-2.2l-14.2,8.2
			c-2.9,1.7-3.9,5.4-2.2,8.3C420.8,102.4,422.8,103.5,424.9,103.5L424.9,103.5z"/>
		<path class="st0" d="M461.4,166.2H445c-3.4,0-6.1,2.7-6.1,6.1c0,3.4,2.7,6.1,6.1,6.1h16.5c3.4,0,6.1-2.7,6.1-6.1
			C467.6,168.9,464.8,166.2,461.4,166.2z"/>
		<path class="st0" d="M442.2,250.1l-14.2-8.2c-2.9-1.7-6.7-0.7-8.3,2.2c-1.7,2.9-0.7,6.7,2.2,8.3l14.2,8.2c1,0.6,2,0.8,3,0.8
			c2.1,0,4.2-1.1,5.3-3.1C446.2,255.5,445.2,251.8,442.2,250.1L442.2,250.1z"/>
	</g>
</g>
</svg>
