<?xml version="1.0" encoding="utf-8"?>
<!-- Generator: Adobe Illustrator 25.0.1, SVG Export Plug-In . SVG Version: 6.00 Build 0)  -->
<svg version="1.1" id="Layer_1" xmlns="http://www.w3.org/2000/svg" xmlns:xlink="http://www.w3.org/1999/xlink" x="0px" y="0px"
	 viewBox="0 0 73.7 73.7" style="enable-background:new 0 0 73.7 73.7;" xml:space="preserve">
<g id="software-development" transform="translate(-16 -16)">
	<path id="Path_986" d="M88.4,63.9H65.1c-0.5,0-1,0.3-1.1,0.8L54.3,55c-1.4-1.4-3.3-2.2-5.2-2.2h-6.2C43,52.4,43,52,43,51.6v-5.4
		l0.5-0.3c1.7-0.9,2.4-3,1.6-4.7c-0.6-1.2-1.8-2-3.2-2h-5.1c-3.4,0-6.1,2.8-6.1,6.1v6.1c0,0.4,0,0.8,0.1,1.2h-6.3
		c-4.7,0-8.6,3.8-8.6,8.6v28.2h2.5V73l8.5,8.5c2.1,2.1,4.9,3.2,7.8,3.2h9.4V86c0,2,1.7,3.7,3.7,3.7h40.5c0.7,0,1.2-0.5,1.2-1.2V65.1
		C89.7,64.4,89.1,63.9,88.4,63.9z M63.9,76.9L57,70l4.4-4.4l2.5,2.5L63.9,76.9z M56,72.5c-0.8,0.1-1.6,0.3-2.4,0.7l-2,1v-6.1
		L56,72.5z M33.2,56.5c1.4,1.1,3.2,1.5,4.9,1.1v0.1c0,1.4-1,2.5-2.4,2.5c-1.4,0-2.5-1-2.5-2.4c0,0,0-0.1,0-0.1V56.5z M33.2,51.6
		v-1.9l3-3h4.4v4.9c0,2-1.6,3.7-3.7,3.7C34.8,55.3,33.2,53.6,33.2,51.6L33.2,51.6L33.2,51.6z M36.9,41.8H42c0.6,0,1,0.5,1,1
		c0,0.4-0.2,0.8-0.6,0.9l-0.9,0.5h-5.8c-0.3,0-0.6,0.1-0.9,0.4l-1.6,1.6v-0.7C33.2,43.4,34.8,41.8,36.9,41.8z M18.5,61.4
		c0-3.4,2.8-6.1,6.1-6.1h6.1v2.5c0,2.7,2.2,4.9,4.9,4.9c2.7,0,4.9-2.2,4.9-4.9v-1.2c0.5-0.3,0.9-0.8,1.2-1.2h7.3
		c1.3,0,2.6,0.5,3.5,1.4l7.2,7.2l-4.4,4.4l-4-4c-0.5-0.5-1.3-0.5-1.7,0c-0.2,0.2-0.4,0.5-0.4,0.9v9.8H37.4L25.5,63l-1.7,1.7l5.9,5.9
		l-5,5l-6.1-6.1L18.5,61.4z M28.7,79.8l-2.4-2.4l5-5L36,77c0.2,0.2,0.5,0.4,0.9,0.4h13.5c0.2,0,0.4,0,0.5-0.1l3.8-1.9
		c1.7-0.8,3.7-0.4,4.9,1l4.2,5c0.2,0.2,0.2,0.6-0.1,0.8c-0.1,0.1-0.2,0.1-0.4,0.1c-0.2,0-0.3-0.1-0.4-0.1l-4.4-3.3
		c-0.4-0.3-1-0.3-1.5,0l-4.6,3.4H34.8C32.5,82.3,30.3,81.4,28.7,79.8L28.7,79.8z M59,82.3h-2.5l1.2-0.9L59,82.3z M46.7,86v-1.2h17.2
		v2.5h-16C47.2,87.2,46.7,86.7,46.7,86L46.7,86z M87.2,87.2H66.3V66.3h20.9L87.2,87.2z"/>
	<path id="Path_987" d="M77.4,81.1c2.7,0,4.9-2.2,4.9-4.9s-2.2-4.9-4.9-4.9c-2.7,0-4.9,2.2-4.9,4.9l0,0
		C72.5,78.9,74.7,81.1,77.4,81.1z M77.4,73.7c1.4,0,2.5,1.1,2.5,2.5c0,1.4-1.1,2.5-2.5,2.5c-1.4,0-2.5-1.1-2.5-2.5l0,0
		C74.9,74.8,76,73.7,77.4,73.7L77.4,73.7z"/>
	<path id="Path_988" d="M86,16H51.6c-2,0-3.7,1.7-3.7,3.7v30.7h2.5V19.7c0-0.7,0.6-1.2,1.2-1.2H86c0.7,0,1.2,0.6,1.2,1.2v31.9
		c0,0.7-0.6,1.2-1.2,1.2h-9.8c-0.7,0-1.2,0.5-1.2,1.2v3.8l-6.7-4.8c-0.2-0.1-0.5-0.2-0.7-0.2H56.5v2.5h10.7l8.3,5.9
		c0.6,0.4,1.3,0.3,1.7-0.3c0.1-0.2,0.2-0.5,0.2-0.7v-4.9H86c2,0,3.7-1.6,3.7-3.7V19.7C89.7,17.6,88,16,86,16z"/>
	<circle id="Ellipse_50" cx="53.2" cy="20.6" r="1"/>
	<ellipse id="Ellipse_51" cx="56.8" cy="20.6" rx="1.5" ry="1"/>
	<circle id="Ellipse_52" cx="60.4" cy="20.6" r="1"/>
	<path id="Path_989" d="M54.1,25.8h2.5v2.5h-2.5V25.8z"/>
	<path id="Path_990" d="M60.2,25.8h7.4v2.5h-7.4V25.8z"/>
	<path id="Path_991" d="M70,25.8h2.5v2.5H70V25.8z"/>
	<path id="Path_992" d="M54.1,30.7h2.5v2.5h-2.5V30.7z"/>
	<path id="Path_993" d="M60.2,30.7h3.7v2.5h-3.7V30.7z"/>
	<path id="Path_994" d="M66.3,30.7h13.5v2.5H66.3V30.7z"/>
	<path id="Path_995" d="M54.1,35.6h2.5v2.5h-2.5V35.6z"/>
	<path id="Path_996" d="M60.2,35.6H70v2.5h-9.8V35.6z"/>
	<path id="Path_997" d="M72.5,35.6h2.5v2.5h-2.5V35.6z"/>
	<path id="Path_998" d="M54.1,40.6h2.5V43h-2.5V40.6z"/>
	<path id="Path_999" d="M60.2,40.6h17.2V43H60.2V40.6z"/>
	<path id="Path_1000" d="M79.8,40.6h2.5V43h-2.5V40.6z"/>
	<path id="Path_1001" d="M54.1,45.5h2.5v2.5h-2.5V45.5z"/>
	<path id="Path_1002" d="M60.2,45.5h11v2.5h-11V45.5z"/>
	<path id="Path_1003" d="M73.7,45.5h2.5v2.5h-2.5V45.5z"/>
</g>
</svg>
