<?xml version="1.0" encoding="utf-8"?>
<!-- Generator: Adobe Illustrator 25.0.1, SVG Export Plug-In . SVG Version: 6.00 Build 0)  -->
<svg version="1.1" id="Capa_1" xmlns="http://www.w3.org/2000/svg" xmlns:xlink="http://www.w3.org/1999/xlink" x="0px" y="0px"
	 viewBox="0 0 512 512" style="enable-background:new 0 0 512 512;" xml:space="preserve">
<g>
	<path d="M143.3,325.3l109,62.9c1.1,0.7,2.4,1,3.7,1c1.3,0,2.5-0.3,3.7-1l109-62.9c2.3-1.3,3.7-3.7,3.7-6.4V193.1
		c0-2.6-1.4-5-3.7-6.4l-109-62.9c-2.3-1.3-5.1-1.3-7.3,0l-109,62.9c-2.3,1.3-3.7,3.7-3.7,6.4v125.8
		C139.7,321.5,141.1,324,143.3,325.3z M154.4,205.8l94.3,54.4v108.9l-94.3-54.4V205.8z M256,247.5l-94.3-54.4l39.8-23l94.3,54.4
		L256,247.5z M263.3,369.1V260.2l94.3-54.4v108.9L263.3,369.1z M256,138.6l94.3,54.4l-39.8,23l-94.3-54.4L256,138.6z"/>
	<path d="M339.3,261.7c-2.3-1.3-5.1-1.3-7.3,0l-50.2,29c-2.3,1.3-3.7,3.7-3.7,6.4V331c0,2.6,1.4,5,3.7,6.4c1.1,0.7,2.4,1,3.7,1
		s2.5-0.3,3.7-1l50.2-29c2.3-1.3,3.7-3.7,3.7-6.4V268C342.9,265.4,341.5,263,339.3,261.7z M328.3,297.7l-35.5,20.5v-17l35.5-20.5
		V297.7z"/>
	<path d="M450.6,309.2V202.8c17.4-8.3,29.4-26,29.4-46.4c0-28.3-23.1-51.4-51.4-51.4c-10.8,0-20.9,3.4-29.2,9.1l-92.2-53.2
		c0.1-1.4,0.2-2.7,0.2-4.1c0-28.4-23.1-51.4-51.4-51.4s-51.4,23.1-51.4,51.4c0,1.4,0.1,2.8,0.2,4.1l-92.2,53.2
		c-8.3-5.7-18.4-9.1-29.2-9.1C55.1,104.9,32,128,32,156.4c0,20.5,12,38.2,29.4,46.4v106.4C44,317.5,32,335.2,32,355.6
		c0,28.3,23.1,51.4,51.4,51.4c10.8,0,20.9-3.4,29.2-9.1l92.2,53.2c-0.1,1.4-0.2,2.7-0.2,4.1c0,28.3,23.1,51.4,51.4,51.4
		s51.4-23.1,51.4-51.4c0-1.4-0.1-2.8-0.2-4.1l92.2-53.2c8.3,5.7,18.4,9.1,29.2,9.1c28.3,0,51.4-23.1,51.4-51.4
		C480,335.2,468,317.5,450.6,309.2z M435.9,304.8c-2.4-0.3-4.9-0.5-7.3-0.5s-4.9,0.2-7.3,0.5v-97.5c2.4,0.3,4.9,0.5,7.3,0.5
		s4.9-0.2,7.3-0.5V304.8z M465.3,156.4c0,20.2-16.5,36.7-36.7,36.7c-20.2,0-36.7-16.5-36.7-36.7s16.5-36.7,36.7-36.7
		C448.8,119.6,465.3,136.1,465.3,156.4z M388.2,124.6c-3,3.8-5.5,8.1-7.4,12.7l-84.5-48.8c3-3.8,5.5-8.1,7.4-12.7L388.2,124.6z
		 M256,20c20.2,0,36.7,16.5,36.7,36.7S276.2,93.4,256,93.4S219.3,77,219.3,56.7S235.8,20,256,20z M215.6,88.5l-84.5,48.8
		c-1.8-4.6-4.3-8.9-7.4-12.7l84.5-48.8C210.1,80.4,212.6,84.7,215.6,88.5L215.6,88.5z M46.7,156.4c0-20.2,16.5-36.7,36.7-36.7
		s36.7,16.5,36.7,36.7s-16.5,36.7-36.7,36.7S46.7,176.6,46.7,156.4z M76.1,207.2c2.4,0.3,4.9,0.5,7.3,0.5c2.5,0,4.9-0.2,7.3-0.5
		v34.1c0,4.1,3.3,7.3,7.3,7.3s7.3-3.3,7.3-7.3v-38.5c17.4-8.3,29.4-26,29.4-46.4c0-1.4-0.1-2.8-0.2-4.1L226.8,99
		c8.3,5.7,18.3,9.1,29.2,9.1c10.8,0,20.9-3.4,29.2-9.1l92.2,53.2c-0.1,1.4-0.2,2.7-0.2,4.1c0,20.5,12,38.2,29.4,46.4v106.4
		c-17.4,8.3-29.4,26-29.4,46.4c0,1.4,0.1,2.8,0.2,4.1L285.2,413c-8.3-5.7-18.4-9.1-29.2-9.1s-20.9,3.4-29.2,9.1l-92.2-53.2
		c0.1-1.4,0.2-2.7,0.2-4.1c0-20.5-12-38.2-29.4-46.4v-38.5c0-4.1-3.3-7.3-7.3-7.3s-7.3,3.3-7.3,7.3v34.1c-2.4-0.3-4.9-0.5-7.3-0.5
		c-2.5,0-4.9,0.2-7.3,0.5V207.2z M46.7,355.6c0-20.2,16.5-36.7,36.7-36.7s36.7,16.5,36.7,36.7c0,20.2-16.5,36.7-36.7,36.7
		S46.7,375.9,46.7,355.6z M123.8,387.4c3-3.8,5.5-8.1,7.4-12.7l84.5,48.8c-3,3.8-5.5,8.1-7.4,12.7L123.8,387.4z M256,492
		c-20.2,0-36.7-16.5-36.7-36.7s16.5-36.7,36.7-36.7s36.7,16.5,36.7,36.7S276.2,492,256,492z M296.4,423.5l84.5-48.8
		c1.8,4.6,4.3,8.9,7.4,12.7l-84.5,48.8C301.9,431.6,299.4,427.3,296.4,423.5z M428.6,392.4c-20.2,0-36.7-16.5-36.7-36.7
		c0-20.2,16.5-36.7,36.7-36.7c20.2,0,36.7,16.5,36.7,36.7C465.3,375.9,448.8,392.4,428.6,392.4z"/>
</g>
</svg>
