<?xml version="1.0" encoding="utf-8"?>
<!-- Generator: Adobe Illustrator 25.0.1, SVG Export Plug-In . SVG Version: 6.00 Build 0)  -->
<svg version="1.1" id="Capa_1" xmlns="http://www.w3.org/2000/svg" xmlns:xlink="http://www.w3.org/1999/xlink" x="0px" y="0px"
	 viewBox="0 0 482.1 482.1" style="enable-background:new 0 0 482.1 482.1;" xml:space="preserve">
<style type="text/css">
	.st0{fill:#FFFFFF;}
</style>
<g>
	<g>
		<path class="st0" d="M476.5,103C476.5,103,476.5,103,476.5,103L476.5,103l-25.3-3.6c-3.6-0.5-6-3.8-5.5-7.4
			c0.2-1.7,1.2-3.3,2.5-4.3l20.5-15.3c2.9-2.2,3.5-6.2,1.3-9.1L446.6,32c-2.2-2.9-6.2-3.5-9.1-1.3L417,46.1
			c-2.9,2.2-6.9,1.6-9.1-1.3c-1.1-1.4-1.5-3.1-1.3-4.9l3.6-25.3c0.5-3.6-2-6.9-5.5-7.4c0,0,0,0,0,0l-38.6-5.5
			c-3.6-0.5-6.9,2-7.4,5.5c0,0,0,0,0,0l-3.6,25.3c-0.5,3.6-3.8,6-7.4,5.5c-1.7-0.2-3.3-1.2-4.3-2.5l-15.3-20.5
			c-2.2-2.9-6.2-3.5-9.1-1.3l-19.6,14.7c-8.8-0.9-17.8-0.9-26.6,0c-57.9,6.6-103.4,52.8-109,110.9c-0.2,1.8-0.2,3.7-0.3,5.5h-2
			c-3.1,0-5.7,2.2-6.4,5.2l-4.5,21.4l-18-12.4c-2.6-1.8-6.1-1.5-8.3,0.8l-19.5,19.5c-2.2,2.2-2.5,5.7-0.8,8.3l12.4,18L95.1,210
			c-3,0.7-5.1,3.3-5.1,6.4v26c0,3.1,2.2,5.7,5.2,6.4l21.4,4.5l-12.4,18c-1.8,2.6-1.5,6.1,0.8,8.3l19.5,19.5c2.2,2.2,5.7,2.5,8.3,0.8
			l18-12.4l4.5,21.4c0.6,3,3.3,5.2,6.4,5.2h26c3.1,0,5.7-2.2,6.4-5.2l4.5-21.4l18,12.4c2.6,1.8,6.1,1.5,8.3-0.8l10.1-10.1v18.5
			c0,9.3,5,17.8,13,22.4v36.2c0,14.4,11.7,26,26,26h26c14.4,0,26-11.7,26-26v-36.2c8-4.6,13-13.2,13-22.4v-25.8
			c0.2-10.8,5.8-20.8,15-26.6c5.4-3.5,10.5-7.4,15.3-11.7l-8.7-9.7c-4.3,3.8-8.9,7.3-13.7,10.5c-12.9,8.1-20.8,22.2-21,37.5v25.8
			c0,7.2-5.8,13-13,13h-52.1c-7.2,0-13-5.8-13-13v-26.3c-0.2-15-7.9-28.8-20.6-36.7c-51.6-32.4-67.1-100.5-34.7-152
			c20.1-32,55.2-51.5,93-51.6c-0.1,0.2-0.2,0.5-0.3,0.7c-0.2,1.7,0.2,3.4,1.2,4.8l15.3,20.5c1.6,2.1,1.8,5,0.4,7.2
			c-1.3,2.3-3.9,3.5-6.5,3.1l-25.3-3.6c-3.6-0.5-6.9,2-7.4,5.5c0,0,0,0,0,0l-5.5,38.6c-0.5,3.6,2,6.9,5.5,7.4c0,0,0,0,0,0l25.3,3.6
			c3.6,0.5,6,3.8,5.5,7.4c-0.2,1.7-1.2,3.3-2.5,4.3l-20.5,15.3c-2.9,2.2-3.5,6.2-1.3,9.1L293,196c2.2,2.9,6.2,3.5,9.1,1.3l20.5-15.3
			c2.9-2.2,7-1.6,9.1,1.3c1,1.4,1.5,3.1,1.2,4.8l-3.6,25.3c-0.5,3.6,2,6.9,5.5,7.4c0,0,0,0,0,0l38.6,5.5c0.3,0,0.6,0.1,0.9,0.1
			c3.2,0,6-2.4,6.4-5.6l3.6-25.3c0.5-3.6,3.8-6,7.4-5.5c1.7,0.2,3.3,1.2,4.3,2.5l15.3,20.5c2.2,2.9,6.2,3.5,9.1,1.3l31.2-23.4
			c2.9-2.2,3.5-6.2,1.3-9.1l-15.3-20.5c-1.6-2.1-1.8-5-0.4-7.2c1.3-2.3,3.9-3.5,6.5-3.1l25.3,3.6c3.6,0.5,6.9-2,7.4-5.5c0,0,0,0,0,0
			l5.5-38.6C482.6,106.8,480.1,103.5,476.5,103z M260.9,333.5h52.1v13h-52.1V333.5z M260.9,359.5h52.1v6.5c0,7.2-5.8,13-13,13h-26
			c-7.2,0-13-5.8-13-13V359.5z M209.1,247.3c3.6,2.9,7.3,5.6,11.1,8.1c6.1,3.9,10.8,9.8,13.1,16.7l-14,13.9l-13.5-9.3
			c-5.9-4.1-14-2.6-18.1,3.3c-1,1.4-1.7,3-2,4.7l-3.4,16.2h-15.5l-3.4-16.2c-1.5-7-8.4-11.5-15.4-10.1c-1.7,0.4-3.3,1-4.7,2
			l-13.5,9.3L118,274.2l9.3-13.5c4.1-5.9,2.6-14-3.3-18.1c-1.4-1-3-1.7-4.7-2l-16.2-3.4v-15.5l16.2-3.4c7-1.5,11.5-8.4,10-15.4
			c-0.4-1.7-1-3.3-2-4.7l-9.3-13.5l11.9-11.8l13.5,9.3c5.9,4.1,14,2.6,18.1-3.3c1-1.4,1.7-3,2-4.7l1.1-5.4c1,7.5,2.8,14.9,5.2,22.1
			c-21.4,2.6-36.7,22-34.1,43.4c2.6,21.4,22,36.7,43.4,34.1C191.9,266.7,203.2,258.9,209.1,247.3z M199,238.2
			c-4.9,13.5-19.7,20.5-33.3,15.7c-13.5-4.9-20.5-19.7-15.7-33.3c3.7-10.3,13.5-17.2,24.5-17.2c0.1,0,0.2,0,0.2,0
			C180.8,216.3,189,228.1,199,238.2z M464.5,140.7l-18.9-2.7c-10.7-1.5-20.6,5.9-22.1,16.6c-0.7,5.1,0.6,10.3,3.7,14.5l11.4,15.2
			l-20.8,15.6l-11.4-15.2c-6.5-8.6-18.7-10.4-27.3-3.9c-4.1,3.1-6.9,7.7-7.6,12.9l-2.6,18.9l-25.8-3.7l2.7-18.9
			c1.5-10.7-5.9-20.6-16.6-22.1c-5.1-0.7-10.3,0.6-14.5,3.7L299.6,183l-15.6-20.8l15.2-11.4c8.6-6.5,10.4-18.7,3.9-27.3
			c-3.1-4.1-7.7-6.9-12.9-7.6l-18.9-2.7l3.7-25.8l18.9,2.7c10.7,1.5,20.6-5.9,22.1-16.6c0.7-5.1-0.6-10.3-3.7-14.5l-11.5-15.3
			l20.8-15.6l11.4,15.2c6.5,8.6,18.7,10.4,27.3,3.9c4.1-3.1,6.9-7.7,7.6-12.9l2.7-18.9l25.8,3.7l-2.7,18.9
			c-1.5,10.7,5.9,20.6,16.6,22.1c5.1,0.7,10.3-0.6,14.5-3.7L440.1,45l15.6,20.8l-15.2,11.4c-8.6,6.5-10.4,18.7-3.9,27.3
			c3.1,4.1,7.7,6.9,12.9,7.6l18.9,2.7L464.5,140.7z"/>
	</g>
</g>
<g>
	<g>
		<path class="st0" d="M369.8,62c-28.7,0-52.1,23.3-52.1,52.1s23.3,52.1,52.1,52.1c28.7,0,52.1-23.3,52.1-52.1
			C421.8,85.3,398.5,62,369.8,62z M369.8,153.1c-21.6,0-39-17.5-39-39s17.5-39,39-39s39,17.5,39,39
			C408.8,135.6,391.3,153,369.8,153.1z"/>
	</g>
</g>
<g>
	<g>
		<rect x="280.4" y="288" class="st0" width="13" height="19.5"/>
	</g>
</g>
<g>
	<g>
		<path class="st0" d="M258.5,224.1c-40.2-15.7-60-61-44.3-101.1c6.1-15.6,17-28.8,31.1-37.7l-7-11c-42.6,26.8-55.3,83.1-28.5,125.6
			c10.4,16.5,25.8,29.2,43.9,36.3c16.1,6.2,26.7,21.6,26.7,38.8h13C293.4,252.4,279.5,232.1,258.5,224.1z"/>
	</g>
</g>
<g>
	<g>
		<rect x="410.5" y="242.4" class="st0" width="45.5" height="13"/>
	</g>
</g>
<g>
	<g>
		
			<rect x="417.1" y="272.3" transform="matrix(0.6401 -0.7683 0.7683 0.6401 -76.3035 432.5721)" class="st0" width="13" height="50.8"/>
	</g>
</g>
<g>
	<g>
		<rect x="371.5" y="294.5" class="st0" width="13" height="45.5"/>
	</g>
</g>
<g>
	<g>
		
			<rect x="97.4" y="105.8" transform="matrix(0.9701 -0.2425 0.2425 0.9701 -23.5229 33.4839)" class="st0" width="53.7" height="13"/>
	</g>
</g>
<g>
	<g>
		<rect x="127.5" y="29" transform="matrix(0.5812 -0.8137 0.8137 0.5812 9.7374 132.915)" class="st0" width="13" height="56"/>
	</g>
</g>
<g>
	<g>
		<rect x="169.7" y="0.8" transform="matrix(0.9688 -0.2477 0.2477 0.9688 -1.372 44.5002)" class="st0" width="13" height="53.7"/>
	</g>
</g>
</svg>
