<?xml version="1.0" encoding="utf-8"?>
<!-- Generator: Adobe Illustrator 25.0.1, SVG Export Plug-In . SVG Version: 6.00 Build 0)  -->
<svg version="1.1" id="Capa_1" xmlns="http://www.w3.org/2000/svg" xmlns:xlink="http://www.w3.org/1999/xlink" x="0px" y="0px"
	 viewBox="0 0 512 512" style="enable-background:new 0 0 512 512;" xml:space="preserve">
<path d="M501.1,19.5H318.7c-4.1,0-7.4,3.3-7.4,7.4s3.3,7.4,7.4,7.4h107.2v14.1H148.4c-4.1,0-7.4,3.3-7.4,7.4s3.3,7.4,7.4,7.4h277.5
	v14.1H138.1l-25.9-21.5l25.9-21.5h146c4.1,0,7.4-3.3,7.4-7.4s-3.3-7.4-7.4-7.4H135.5c-1.7,0-3.4,0.6-4.7,1.7L95.9,50.1
	c-1.7,1.4-2.7,3.5-2.7,5.7c0,2.2,1,4.3,2.7,5.7l34.9,28.9c1.3,1.1,3,1.7,4.7,1.7h365.6c4.1,0,7.4-3.3,7.4-7.4V26.9
	C508.5,22.8,505.1,19.5,501.1,19.5z M493.7,77.3h-52.9v-43h52.9V77.3z"/>
<path d="M126.4,477.7H60.7c-23.4,0-42.4-19-42.4-42.4s19-42.4,42.4-42.4c4.1,0,7.4-3.3,7.4-7.4V131.9h334.3c4.1,0,7.4-3.3,7.4-7.4
	s-3.3-7.4-7.4-7.4H68.1V68.7c0-4.1-3.3-7.4-7.4-7.4C29.2,61.3,3.5,87,3.5,118.5v316.8c0,31.5,25.7,57.2,57.2,57.2h65.7
	c4.1,0,7.4-3.3,7.4-7.4S130.5,477.7,126.4,477.7z M18.3,118.5c0-20.9,15.1-38.3,35-41.8v301.8c-13.8,1.8-26.1,8.5-35,18.4V118.5z"/>
<path d="M501.1,117.1H437c-4.1,0-7.4,3.3-7.4,7.4c0,4.1,3.3,7.4,7.4,7.4h56.7v345.8H161c-4.1,0-7.4,3.3-7.4,7.4s3.3,7.4,7.4,7.4
	h340.1c4.1,0,7.4-3.3,7.4-7.4V124.5C508.5,120.4,505.1,117.1,501.1,117.1z"/>
<path d="M395.1,365c29.5-27.7,47.6-55,48.4-56.1c1.6-2.5,1.6-5.7,0-8.1c-0.8-1.1-18.9-28.4-48.4-56.1
	c-39.6-37.2-80.8-56.8-119.2-56.8s-79.6,19.6-119.2,56.8c-29.5,27.7-47.6,55-48.4,56.1c-1.6,2.5-1.6,5.7,0,8.1
	c0.8,1.1,18.9,28.4,48.4,56.1c39.6,37.2,80.8,56.8,119.2,56.8S355.5,402.1,395.1,365z M123.6,304.8c14-19.5,77.7-102.2,152.4-102.2
	c74.5,0,138.4,82.7,152.4,102.2c-14,19.5-77.7,102.2-152.4,102.2C201.4,407,137.6,324.3,123.6,304.8z"/>
<path d="M308.2,304.8c0-17.8-14.5-32.3-32.3-32.3c-17.8,0-32.3,14.5-32.3,32.3s14.5,32.3,32.3,32.3
	C293.7,337.1,308.2,322.6,308.2,304.8z M258.4,304.8c0-9.7,7.9-17.5,17.5-17.5c9.7,0,17.5,7.9,17.5,17.5c0,9.7-7.9,17.5-17.5,17.5
	C266.3,322.3,258.4,314.5,258.4,304.8z"/>
<path d="M345.1,304.8c0-38.1-31-69.2-69.2-69.2s-69.2,31-69.2,69.2s31,69.2,69.2,69.2S345.1,342.9,345.1,304.8z M221.6,304.8
	c0-30,24.4-54.4,54.4-54.4c30,0,54.4,24.4,54.4,54.4c0,30-24.4,54.4-54.4,54.4C245.9,359.2,221.6,334.8,221.6,304.8z"/>
<path d="M439.3,151h-87.7c-4.1,0-7.4,3.3-7.4,7.4c0,4.1,3.3,7.4,7.4,7.4h87.7c4.1,0,7.4-3.3,7.4-7.4
	C446.7,154.3,443.4,151,439.3,151z"/>
<path d="M439.3,180.9h-37.9c-4.1,0-7.4,3.3-7.4,7.4c0,4.1,3.3,7.4,7.4,7.4h37.9c4.1,0,7.4-3.3,7.4-7.4
	C446.7,184.2,443.4,180.9,439.3,180.9z"/>
<path d="M70.7,446.7h87.7c4.1,0,7.4-3.3,7.4-7.4c0-4.1-3.3-7.4-7.4-7.4H70.7c-4.1,0-7.4,3.3-7.4,7.4
	C63.3,443.4,66.6,446.7,70.7,446.7z"/>
<path d="M70.7,416.8h37.9c4.1,0,7.4-3.3,7.4-7.4c0-4.1-3.3-7.4-7.4-7.4H70.7c-4.1,0-7.4,3.3-7.4,7.4
	C63.3,413.5,66.6,416.8,70.7,416.8z"/>
</svg>
