<?xml version="1.0" encoding="utf-8"?>
<!-- Generator: Adobe Illustrator 25.0.1, SVG Export Plug-In . SVG Version: 6.00 Build 0)  -->
<svg version="1.1" id="Capa_1" xmlns="http://www.w3.org/2000/svg" xmlns:xlink="http://www.w3.org/1999/xlink" x="0px" y="0px"
	 viewBox="0 0 512 512" style="enable-background:new 0 0 512 512;" xml:space="preserve">
<style type="text/css">
	.st0{fill:#FFFFFF;}
</style>
<g>
	<path class="st0" d="M451.8,58.9h-5.4c10.2-16.7,6.5-39.1-10-51.2c-17.7-13.1-42.9-8.9-55.2,9.6l-27.9,41.7H113.7
		C94,58.9,78,74.9,78,94.6V323c0,19.7,16,35.7,35.7,35.7h138.8l-10.5,44h-22.6c-14.7,0-26.7,12-26.7,26.7v5.6h-27.9
		c-4.9,0-8.8,4-8.8,8.8c0,4.9,4,8.8,8.8,8.8h236.1c4.9,0,8.8-4,8.8-8.8c0-4.9-4-8.8-8.8-8.8h-27.9v-5.6c0-14.7-12-26.7-26.7-26.7
		h-22.6l-10.5-44h138.8c19.7,0,35.7-16,35.7-35.7v-50.3V94.6C487.6,74.9,471.5,58.9,451.8,58.9L451.8,58.9z M325.1,214.3
		c-13.8,9.7-39.7-3.5-64.5,9.7c-6-31.4-2.2-60.8,29.2-67.3c4.1-0.8,8.4-1.2,12.2-1.2c10.6,7.9,21.4,15.9,32,23.7
		C338.6,192.8,336.9,206.1,325.1,214.3L325.1,214.3z M334.1,119.6l25,18.6l-19.3,23.5c-7.9-5.9-14.7-10.9-22.7-16.8
		C318.8,142.3,332.5,121.8,334.1,119.6z M396,27c6.7-10,20.4-12.3,30-5.2c9.6,7.2,11.4,20.9,3.7,30.2
		c-13.6,16.5-45.8,55.8-59.4,72.4l-26.4-19.6L396,27z M355.3,429.5v5.6H210.3v-5.6c0-5,4.1-9.1,9.1-9.1h126.8
		C351.2,420.4,355.3,424.5,355.3,429.5L355.3,429.5z M305.4,402.8h-45.2l10.5-44h24.2L305.4,402.8z M469.9,323c0,9.9-8.1,18-18,18
		c-14,0-322.3,0-338.1,0c-9.9,0-18-8.1-18-18v-41.4H121c4.9,0,8.8-4,8.8-8.8c0-4.9-4-8.8-8.8-8.8H95.7V94.6c0-9.9,8.1-18,18-18
		h227.8c-8.5,12.7-33.2,49.6-41,61.3c-17.3,0.2-34.6,6.2-46,19.4c-15.4,18-18.1,46.3-8,84c1.7,6.5,9.8,8.8,14.7,4.1
		c22.9-21.8,51.3,2,76.8-18.7c15.6-12.6,19.3-32.6,13.4-51.4c7.9-9.7,73.1-89.1,81.1-98.8h19.4c9.9,0,18,8.1,18,18v169.3H191.7
		c-4.9,0-8.8,4-8.8,8.8s4,8.8,8.8,8.8h278.2L469.9,323z"/>
	<path class="st0" d="M154.6,264.1c-4.3,0.9-7.1,4.5-7.1,8.7c0,5.5,5.1,9.8,10.6,8.7c4.9-1,7.9-5.7,6.9-10.4
		C164,266.2,159.3,263.1,154.6,264.1L154.6,264.1z"/>
</g>
</svg>
