<?xml version="1.0" encoding="utf-8"?>
<!-- Generator: Adobe Illustrator 25.0.1, SVG Export Plug-In . SVG Version: 6.00 Build 0)  -->
<svg version="1.1" id="Layer_1" xmlns="http://www.w3.org/2000/svg" xmlns:xlink="http://www.w3.org/1999/xlink" x="0px" y="0px"
	 viewBox="0 0 512 512" style="enable-background:new 0 0 512 512;" xml:space="preserve">
<style type="text/css">
	.st0{fill:#FFFFFF;}
</style>
<g id="Layer_22">
	<path class="st0" d="M468.6,8H199.5c-19.6,0-35.4,15.9-35.4,35.4v21.2h-63.7C80.9,64.6,65,80.5,65,100v212.4
		c0,19.6,15.9,35.4,35.4,35.4h99.1v42.5h-14.2c-19.6,0-35.4,15.9-35.4,35.4v14.2c0,3.9,3.2,7.1,7.1,7.1h184.1c3.9,0,7.1-3.2,7.1-7.1
		v-14.2c0-19.6-15.9-35.4-35.4-35.4h-14.2v-42.5h99.1c19.6,0,35.4-15.9,35.4-35.4v-49.6h35.4c19.6,0,35.4-15.9,35.4-35.4V43.4
		C504,23.9,488.1,8,468.6,8z M199.5,22.2h269.1c11.7,0,21.2,9.5,21.2,21.2v7.1H178.3v-7.1C178.3,31.7,187.8,22.2,199.5,22.2z
		 M334.1,425.8v7.1H164.1v-7.1c0-11.7,9.5-21.2,21.2-21.2h127.5C324.6,404.5,334.1,414,334.1,425.8z M284.5,390.4h-70.8v-42.5h70.8
		V390.4z M397.8,333.7H100.4c-11.7,0-21.2-9.5-21.2-21.2v-21.2H419v21.2C419,324.2,409.5,333.7,397.8,333.7z M419,277.1H79.2V100
		c0-11.7,9.5-21.2,21.2-21.2h63.7v148.7c0,19.6,15.9,35.4,35.4,35.4H419V277.1z M468.6,248.7H199.5c-11.7,0-21.2-9.5-21.2-21.2V64.6
		h311.5v162.9C489.8,239.2,480.3,248.7,468.6,248.7z"/>
	<path class="st0" d="M390.7,305.4h14.2v14.2h-14.2V305.4z"/>
	<path class="st0" d="M362.4,305.4h14.2v14.2h-14.2V305.4z"/>
	<path class="st0" d="M334.1,305.4h14.2v14.2h-14.2V305.4z"/>
	<path class="st0" d="M468.6,78.8H199.5c-3.9,0-7.1,3.2-7.1,7.1v141.6c0,3.9,3.2,7.1,7.1,7.1h269.1c3.9,0,7.1-3.2,7.1-7.1V85.9
		C475.7,82,472.5,78.8,468.6,78.8z M249.1,206.3h28.3v-14.2h-28.3v-14.2h14.2v-14.2h-14.2v-14.2h14.2v-14.2h-14.2v-14.2h42.5v99.1
		h-42.5V206.3z M356.1,162.6c-1.6,0.8-3.4,1.2-5.2,1.2h-5.4c-1.8,0-3.6-0.4-5.2-1.2c-3.9-1.9-6.3-5.9-6.3-10.3
		c0-3.3,1.9-6.3,4.8-7.8c5.2-2.6,8.7-7.6,9.3-13.3l9.4,9.4c3.1,3.1,4.8,7.3,4.7,11.7C362.4,156.6,360,160.6,356.1,162.6L356.1,162.6
		z M341.1,177.4c1.4,0.3,2.9,0.4,4.4,0.5h5.4c1.5-0.1,2.9-0.2,4.4-0.5v43h-14.2L341.1,177.4z M404.9,163.8H419v56.6h-14.2V163.8z
		 M407.6,149.6l4.3-13l4.3,13H407.6z M461.5,220.4h-28.3v-63.7c0.1-0.8,0.1-1.5,0-2.3L419,111.9c-1.2-3.7-5.2-5.7-8.9-4.5
		c-2.1,0.7-3.8,2.4-4.5,4.5l-14.2,42.5c-0.3,0.7-0.6,1.5-0.7,2.3v63.7h-21.2v-50.5c4.6-4.7,7.1-11.1,7.1-17.6c0-8.1-3.2-15.9-9-21.7
		l-21.2-21.2c-2-2-5.1-2.6-7.7-1.5c-2.6,1-4.4,3.5-4.5,6.3v15.2c0,1-0.6,1.9-1.5,2.4c-7.8,3.9-12.7,11.8-12.7,20.5
		c0,6.6,2.5,12.9,7.1,17.6v50.5h-21.2V114.2c0-3.9-3.2-7.1-7.1-7.1H242c-3.9,0-7.1,3.2-7.1,7.1v106.2h-28.3V93h254.9V220.4z"/>
</g>
</svg>
