<svg height="512" viewBox="0 0 74 74" width="512" xmlns="http://www.w3.org/2000/svg"><g id="Numbers"><text fill="rgb(0,0,0)" font-family="ArialMT, Arial" font-size="18" transform="translate(31.995 -141.877)">3<tspan x="-5.005" y="124">13</tspan><tspan x="-5.005" y="248">23</tspan><tspan x="-5.005" y="372">33</tspan><tspan x="-5.005" y="496">43</tspan><tspan x="-5.005" y="620">53</tspan><tspan x="-5.005" y="744">63</tspan><tspan x="-5.005" y="868">73</tspan><tspan x="-5.005" y="992">83</tspan><tspan x="-5.005" y="1116">93</tspan><tspan x="-10.011" y="1240">103</tspan><tspan letter-spacing="-.074em" x="-9.343" y="1364">1</tspan><tspan x="-.668" y="1364">13</tspan><tspan x="-10.011" y="1488">123</tspan><tspan x="-10.011" y="1612">133</tspan><tspan x="-10.011" y="1736">143</tspan><tspan x="-10.011" y="1860">153</tspan><tspan x="-10.011" y="1984">163</tspan><tspan x="-10.011" y="2108">173</tspan><tspan x="-10.011" y="2232">183</tspan><tspan x="-10.011" y="2356">193</tspan><tspan x="-10.011" y="2480">203</tspan><tspan x="-10.011" y="2604">213</tspan><tspan x="-10.011" y="2728">223</tspan><tspan x="-10.011" y="2852">233</tspan><tspan x="-10.011" y="2976">243</tspan><tspan x="-10.011" y="3100">253</tspan><tspan x="-10.011" y="3224">263</tspan><tspan x="-10.011" y="3348">273</tspan><tspan x="-10.011" y="3472">283</tspan><tspan x="-10.011" y="3596">293</tspan></text></g><g id="Icons"><path d="m57 33.53a1 1 0 0 1 -1-1v-2.97a1 1 0 0 1 2 0v2.97a1 1 0 0 1 -1 1z"/><path d="m54 72h-34a4 4 0 0 1 -4-4v-62a4 4 0 0 1 4-4h34a4 4 0 0 1 4 4v16.56a1 1 0 1 1 -2 0v-16.56a2 2 0 0 0 -2-2h-34a2 2 0 0 0 -2 2v62a2 2 0 0 0 2 2h34a2 2 0 0 0 2-2v-18.56a1 1 0 0 1 2 0v18.56a4 4 0 0 1 -4 4z"/><path d="m57 43.44a1 1 0 0 1 -1-1v-2.91a1 1 0 0 1 2 0v2.91a1 1 0 0 1 -1 1z"/><path d="m57 13.67h-40a1 1 0 0 1 0-2h40a1 1 0 0 1 0 2z"/><path d="m57 60.156h-40a1 1 0 0 1 0-2h40a1 1 0 0 1 0 2z"/><path d="m41.406 9h-8.812a1 1 0 0 1 0-2h8.812a1 1 0 0 1 0 2z"/><path d="m38.813 68.156h-3.626a3.078 3.078 0 1 1 0-6.156h3.626a3.078 3.078 0 0 1 0 6.156zm-3.626-4.156a1.078 1.078 0 1 0 0 2.156h3.626a1.078 1.078 0 0 0 0-2.156z"/><path d="m38.756 51.17h-3.512a1.442 1.442 0 0 1 -1.417-1.137l-.405-1.83a12.768 12.768 0 0 1 -2.583-1.07l-1.574 1a1.461 1.461 0 0 1 -1.808-.2l-2.485-2.485a1.458 1.458 0 0 1 -.2-1.808l1-1.573a12.768 12.768 0 0 1 -1.07-2.583l-1.829-.4a1.443 1.443 0 0 1 -1.138-1.417v-3.51a1.442 1.442 0 0 1 1.145-1.417l1.83-.405a12.792 12.792 0 0 1 1.07-2.583l-1.005-1.574a1.443 1.443 0 0 1 .2-1.806l2.488-2.487a1.461 1.461 0 0 1 1.808-.2l1.573 1.005a12.708 12.708 0 0 1 2.583-1.069l.4-1.83a1.444 1.444 0 0 1 1.418-1.138h3.512a1.443 1.443 0 0 1 1.417 1.137l.405 1.831a12.708 12.708 0 0 1 2.583 1.069l1.574-1.005a1.459 1.459 0 0 1 1.807.2l2.486 2.486a1.444 1.444 0 0 1 .2 1.808l-1.009 1.573a12.792 12.792 0 0 1 1.07 2.583l1.829.4a1.443 1.443 0 0 1 1.138 1.418v3.517a1.441 1.441 0 0 1 -1.137 1.416l-1.83.405a12.768 12.768 0 0 1 -1.07 2.583l1.005 1.574a1.458 1.458 0 0 1 -.2 1.807l-2.486 2.486a1.459 1.459 0 0 1 -1.808.2l-1.573-1a12.768 12.768 0 0 1 -2.583 1.07l-.4 1.829a1.443 1.443 0 0 1 -1.419 1.13zm-3.072-2h2.632l.441-1.993a1 1 0 0 1 .744-.757 10.763 10.763 0 0 0 3.159-1.309 1 1 0 0 1 1.063.008l1.717 1.1 1.86-1.866-1.1-1.717a1 1 0 0 1 -.008-1.063 10.75 10.75 0 0 0 1.308-3.158 1 1 0 0 1 .757-.745l1.994-.441v-2.629l-1.994-.441a1 1 0 0 1 -.757-.745 10.761 10.761 0 0 0 -1.3-3.161 1 1 0 0 1 .008-1.063l1.1-1.717-1.868-1.862-1.717 1.1a1 1 0 0 1 -1.063.008 10.75 10.75 0 0 0 -3.16-1.312 1 1 0 0 1 -.745-.757l-.441-1.994h-2.63l-.441 1.994a1 1 0 0 1 -.745.757 10.75 10.75 0 0 0 -3.158 1.308 1 1 0 0 1 -1.063-.008l-1.717-1.1-1.86 1.866 1.1 1.717a1 1 0 0 1 .008 1.063 10.761 10.761 0 0 0 -1.308 3.158 1 1 0 0 1 -.757.745l-1.994.441v2.632l1.994.441a1 1 0 0 1 .757.745 10.75 10.75 0 0 0 1.3 3.158 1 1 0 0 1 -.008 1.063l-1.1 1.717 1.862 1.862 1.717-1.1a1 1 0 0 1 1.063-.008 10.763 10.763 0 0 0 3.166 1.313 1 1 0 0 1 .744.757z"/><path d="m37 44.229a8.316 8.316 0 1 1 8.316-8.316 8.325 8.325 0 0 1 -8.316 8.316zm0-14.629a6.316 6.316 0 1 0 6.316 6.316 6.324 6.324 0 0 0 -6.316-6.316z"/></g></svg>