<?xml version="1.0" encoding="utf-8"?>
<!-- Generator: Adobe Illustrator 24.2.0, SVG Export Plug-In . SVG Version: 6.00 Build 0)  -->
<svg version="1.1" id="Layer_1" xmlns="http://www.w3.org/2000/svg" xmlns:xlink="http://www.w3.org/1999/xlink" x="0px" y="0px"
	 viewBox="0 0 110.1 110.1" style="enable-background:new 0 0 110.1 110.1;" xml:space="preserve">
<g>
	<path d="M18.8,103.4l27.1-27.1l9.1,27.1l26.8-75l-75,26.8l27.1,9.1L6.8,91.4L18.8,103.4z M24.1,55l48.4-17.3L55.1,86l-6.8-20.3
		L18.8,95.4l-4-4l29.6-29.6L24.1,55z"/>
	<path d="M87,45.7l4-4l11.3,11.3l-4,4L87,45.7z"/>
	<path d="M53.1,11.8l4-4l11.3,11.3l-4,4L53.1,11.8z"/>
	<path d="M87,19.1L98.3,7.8l4,4L91,23.1L87,19.1z"/>
	<path d="M74.9,6.8h5.7v11.3h-5.7V6.8z"/>
	<path d="M91.9,29.6h11.5v5.7H91.9V29.6z"/>
</g>
</svg>
