<?xml version="1.0" encoding="utf-8"?>
<!-- Generator: Adobe Illustrator 24.2.0, SVG Export Plug-In . SVG Version: 6.00 Build 0)  -->
<svg version="1.1" id="Layer_1" xmlns="http://www.w3.org/2000/svg" xmlns:xlink="http://www.w3.org/1999/xlink" x="0px" y="0px"
	 viewBox="0 0 110.1 110.1" style="enable-background:new 0 0 110.1 110.1;" xml:space="preserve">
<g>
	<path d="M55,3.7C27.7,3.7,5.2,25.2,3.7,52.2h11c1.5-20.9,19-37.5,40.3-37.5c22.3,0,40.4,18.1,40.4,40.4c0,22.3-18.1,40.4-40.4,40.4
		c-18.5,0-34.1-12.5-38.9-29.6H4.8c5,23.1,25.6,40.5,50.2,40.5c28.3,0,51.4-23,51.4-51.4C106.4,26.7,83.3,3.7,55,3.7z"/>
	<polygon points="40.7,35.1 40.7,75 69.4,54 	"/>
</g>
</svg>
