<?xml version="1.0" encoding="utf-8"?>
<!-- Generator: Adobe Illustrator 25.0.1, SVG Export Plug-In . SVG Version: 6.00 Build 0)  -->
<svg version="1.1" id="Layer_1" xmlns="http://www.w3.org/2000/svg" xmlns:xlink="http://www.w3.org/1999/xlink" x="0px" y="0px"
	 viewBox="0 0 122.9 63.6" style="enable-background:new 0 0 122.9 63.6;" xml:space="preserve">
<style type="text/css">
	.st0{fill-rule:evenodd;clip-rule:evenodd;fill:#FFFFFF;}
</style>
<g>
	<path class="st0" d="M93.6,42.3l1.9,0l1.6,0c-1.9-5.7-1.2-11,3.2-15.5c0.8,2.5,2.5,4.5,5.4,6c1.4,1,2.7,2.3,4,3.7
		c0.2-1-0.6-2.1-1.7-3.3c1,0.5,1.9,1.2,2.5,2.5c0.8,1.5,0.7,2.8,0.5,4.5c-0.1,0.8-0.3,1.5-0.6,2.1h2.7c2.8-6,1-14.9-4.7-18.7
		c-1.8-1.1-3-1.1-5.1-1.1c-2.4,0-3.6,0.1-5.6,1.4c-3,2-4.8,5.4-5.6,10.1C92.1,36.3,92,40.4,93.6,42.3L93.6,42.3L93.6,42.3z M0,63.6
		c0.2-6.5,10.1-6.7,16.2-10.5l4.1,10.5H0L0,63.6z M28.4,60h0.8c0.7,0,1.3-0.6,1.3-1.3v-2.1c0-0.7-0.6-1.3-1.3-1.3h-4.7
		c-0.7,0-1.3,0.6-1.3,1.3v2.1c0,0.7,0.6,1.3,1.3,1.3h0.8l-0.7,3.6h4.5L28.4,60L28.4,60L28.4,60z M20.1,48.5c0.1-1.2-3.5-5.3-4.1-7.5
		c-1.4-2.3-1.9-4.6-0.4-7c0.6-1,0.4-3.5,0.4-4.8c0-13,22.8-13,22.8,0c0,1.6-0.4,3.8,0.5,5.1c1.5,2.2,0.7,4.8-0.5,6.8
		c-0.8,2.4-4.6,6.2-4.3,7.5C34.6,55.2,20.1,54.9,20.1,48.5L20.1,48.5L20.1,48.5z M57.6,45.9l5.7,16.8l2.9-9.9l-1.4-1.5
		c-0.6-0.9-0.8-1.7-0.4-2.4c0.8-1.5,2.3-1.2,3.8-1.2c1.5,0,3.4-0.3,3.9,1.6c0.2,0.7,0,1.3-0.5,2l-1.4,1.5l2.9,9.9l5.2-16.8
		c6.7,6,20.2,2.5,21.9,17.6H33.9C35.7,47.6,50.8,52,57.6,45.9L57.6,45.9L57.6,45.9z M53,23.8c0,0.9,0.5,2.2,1.5,3.6l0,0l0,0l3.2,5.1
		c1.3,2,2.6,4.1,4.3,5.6c1.6,1.4,3.5,2.4,6,2.4c2.7,0,4.7-1,6.4-2.5c1.7-1.6,3.1-3.8,4.4-6l3.6-5.9c0.7-1.7,0.9-2.7,0.7-3.2
		c-0.1-0.3-0.6-0.4-1.4-0.3c-0.6,0.2-1.2,0.1-2-0.1L81,17c-11.2,1.2-17.5-9.4-25.5-1.4l1.1,6.6C55.2,22.4,52.9,21.6,53,23.8L53,23.8
		z M83.2,20.7c0.8,0.2,1.3,0.7,1.6,1.3c0.5,1.1,0.3,2.7-0.7,5l0,0c0,0,0,0.1-0.1,0.1l-3.6,6c-1.4,2.3-2.8,4.6-4.7,6.4
		c-2,1.9-4.4,3.1-7.8,3.1c-3.1,0-5.5-1.2-7.4-3c-1.9-1.7-3.3-3.9-4.6-6l-3.2-5.1c-1.2-1.8-1.8-3.4-1.8-4.7c0-0.6,0.1-1.2,0.3-1.7
		c0.3-0.5,0.6-1,1.2-1.3c0.3-0.2,0.5-0.3,0.8-0.4c-0.2-2.7-0.3-6.1-0.1-8.9c0.1-0.7,0.2-1.4,0.4-2.1c0.8-2.9,2.9-5.2,5.4-6.9
		c0.9-0.6,1.9-1,2.9-1.4C67.9-1.2,76,0,80.3,4.7c1.8,1.9,2.9,4.4,3.1,7.8L83.2,20.7L83.2,20.7L83.2,20.7z M100.9,53.2l1.4-5
		l-0.7-0.8c-0.3-0.5-0.4-0.9-0.2-1.2c0.4-0.8,1.2-0.6,1.9-0.6c0.8,0,1.7-0.2,2,0.8c0.1,0.3,0,0.7-0.2,1l-0.7,0.8l1.4,5l-2.4,1.9
		L100.9,53.2L100.9,53.2L100.9,53.2z M113.8,51.5c-1.1-2.2-2.5-4-4.1-5.8c3,1.2,6.1,2.3,8.4,3.8c1.4,0.9,2.2,1.6,2.8,2.7
		c1.3,2.3,1.4,4.5,1.6,7l0.4,4.4h-17.7c-0.5-2-0.7-3.7-1.7-6C106.5,54.6,109.8,52.2,113.8,51.5L113.8,51.5L113.8,51.5z M92.1,47.7
		c1.7-0.7,3.4-1.4,4.9-2c-0.9,0.9-1.7,1.9-2.4,2.9C93.8,48.3,93,48,92.1,47.7L92.1,47.7z"/>
</g>
</svg>
