<svg id="arrow-left" xmlns="http://www.w3.org/2000/svg" width="14.403" height="12.605" viewBox="0 0 14.403 12.605">
  <path id="Path_169" data-name="Path 169" d="M15.938,10.388a.9.9,0,0,1,0,1.275l-4.766,4.763,4.766,4.764a.9.9,0,0,1-1.275,1.275l-5.4-5.4a.9.9,0,0,1,0-1.275l5.4-5.4a.9.9,0,0,1,1.275,0Z" transform="translate(-8.998 -10.123)" fill-rule="evenodd"/>
  <path id="Path_170" data-name="Path 170" d="M10.125,17.775a.9.9,0,0,1,.9-.9h11.7a.9.9,0,0,1,0,1.8h-11.7A.9.9,0,0,1,10.125,17.775Z" transform="translate(-9.224 -11.473)" fill-rule="evenodd"/>
</svg>
