<svg id="arrow-right" xmlns="http://www.w3.org/2000/svg" width="14.404" height="12.605" viewBox="0 0 14.404 12.605">
  <path id="Path_169" data-name="Path 169" d="M9.263,10.388a.9.9,0,0,0,0,1.275l4.766,4.763L9.263,21.19a.9.9,0,0,0,1.275,1.275l5.4-5.4a.9.9,0,0,0,0-1.275l-5.4-5.4a.9.9,0,0,0-1.275,0Z" transform="translate(-1.799 -10.123)" fill-rule="evenodd"/>
  <path id="Path_170" data-name="Path 170" d="M23.627,17.775a.9.9,0,0,0-.9-.9h-11.7a.9.9,0,1,0,0,1.8h11.7A.9.9,0,0,0,23.627,17.775Z" transform="translate(-10.125 -11.473)" fill-rule="evenodd"/>
</svg>
