<?xml version="1.0" encoding="utf-8"?>
<!-- Generator: Adobe Illustrator 25.0.1, SVG Export Plug-In . SVG Version: 6.00 Build 0)  -->
<svg version="1.1" id="Layer_1" xmlns="http://www.w3.org/2000/svg" xmlns:xlink="http://www.w3.org/1999/xlink" x="0px" y="0px"
	 viewBox="0 0 67.5 67.5" style="enable-background:new 0 0 67.5 67.5;" xml:space="preserve">
<path d="M61.9,57.5c-0.5,0-0.9,0.1-1.3,0.3L46.4,43.7c0.3-0.4,0.5-0.8,0.8-1.2l10.5,2.8c0.2,1.6,1.5,2.8,3.1,2.8
	c1.7,0,3.1-1.4,3.1-3.1c0-1.7-1.4-3.1-3.1-3.1c-1.1,0-2.1,0.6-2.6,1.4l-10-2.7c0.3-0.6,0.5-1.2,0.6-1.9l6.1-1.6
	c0.5,1,1.5,1.6,2.7,1.6c1.7,0,3.1-1.4,3.1-3.1c0-1.7-1.4-3.1-3.1-3.1c-1.5,0-2.8,1.1-3.1,2.6l-5.3,1.4c0.1-0.6,0.1-1.2,0.1-1.9
	c0-1.4-0.2-2.8-0.6-4.2h4.7c1.7,0,3.1-1.4,3.1-3.1v-4.2c5.3-0.5,9.4-5,9.4-10.4C66,7,61.4,2.3,55.6,2.3S45.2,7,45.2,12.7
	c0,5.4,4.1,9.8,9.4,10.4v4.2c0,0.6-0.5,1-1,1h-5.5c-2.4-5.5-7.9-9.4-14.3-9.4c-1.2,0-2.4,0.1-3.5,0.4l1-3.6c1.5-0.3,2.6-1.5,2.6-3.1
	c0-1.7-1.4-3.1-3.1-3.1c-1.7,0-3.1,1.4-3.1,3.1c0,1.2,0.7,2.2,1.6,2.7l-1.3,4.7c-0.9,0.4-1.7,0.8-2.5,1.3L23,12.2
	c0.9-0.6,1.4-1.5,1.4-2.6c0-1.7-1.4-3.1-3.1-3.1c-1.7,0-3.1,1.4-3.1,3.1c0,1.6,1.2,2.9,2.8,3.1l2.7,10c-0.4,0.4-0.8,0.7-1.2,1.1
	l-14-14C8.6,9.4,8.8,9,8.8,8.5c0-1.7-1.4-3.1-3.1-3.1S2.5,6.8,2.5,8.5s1.4,3.1,3.1,3.1c0.5,0,0.9-0.1,1.3-0.3l14.1,14.1
	c-0.3,0.4-0.5,0.8-0.8,1.2L9.8,23.8C9.6,22.2,8.3,21,6.7,21c-1.7,0-3.1,1.4-3.1,3.1c0,1.7,1.4,3.1,3.1,3.1c1.1,0,2.1-0.6,2.6-1.4
	l10,2.7c-0.3,0.6-0.5,1.2-0.6,1.8L12.6,32c-0.5-1-1.5-1.6-2.7-1.6c-1.7,0-3.1,1.4-3.1,3.1c0,1.7,1.4,3.1,3.1,3.1
	c1.5,0,2.8-1.1,3.1-2.6l5.3-1.4c-0.1,0.6-0.1,1.3-0.1,1.9c0,1.4,0.2,2.8,0.6,4.2H14c-1.7,0-3.1,1.4-3.1,3.1v4.2
	c-5.3,0.5-9.4,5-9.4,10.4c0,5.7,4.7,10.4,10.4,10.4s10.4-4.7,10.4-10.4c0-5.4-4.1-9.8-9.4-10.4v-4.2c0-0.6,0.5-1,1-1h5.5
	c2.4,5.5,7.9,9.4,14.3,9.4c1.2,0,2.4-0.1,3.5-0.4l-0.9,3.5c-1.5,0.3-2.6,1.5-2.6,3.1c0,1.7,1.4,3.1,3.1,3.1c1.7,0,3.1-1.4,3.1-3.1
	c0-1.2-0.7-2.2-1.6-2.7l1.2-4.6c0.9-0.4,1.7-0.8,2.5-1.3l2.4,9.1c-0.9,0.6-1.4,1.5-1.4,2.6c0,1.7,1.4,3.1,3.1,3.1
	c1.7,0,3.1-1.4,3.1-3.1c0-1.6-1.2-2.9-2.8-3.1l-2.7-10c0.4-0.4,0.8-0.8,1.2-1.2l14,14c-0.2,0.4-0.3,0.9-0.3,1.3
	c0,1.7,1.4,3.1,3.1,3.1s3.1-1.4,3.1-3.1C65,58.9,63.6,57.5,61.9,57.5L61.9,57.5z M60.8,43.9c0.6,0,1,0.5,1,1c0,0.6-0.5,1-1,1
	s-1-0.5-1-1C59.7,44.4,60.2,43.9,60.8,43.9z M57.6,34.5c0.6,0,1,0.5,1,1c0,0.6-0.5,1-1,1s-1-0.5-1-1C56.6,35,57.1,34.5,57.6,34.5z
	 M52.5,11.7c0-1.7,1.4-3.1,3.1-3.1s3.1,1.4,3.1,3.1s-1.4,3.1-3.1,3.1S52.5,13.4,52.5,11.7z M55.6,21c-1.9,0-3.6-0.6-5-1.7
	c1.2-1.6,3-2.5,5-2.5c2,0,3.8,0.9,5,2.5C59.2,20.4,57.5,21,55.6,21L55.6,21z M47.3,12.7c0-4.6,3.7-8.3,8.3-8.3s8.3,3.7,8.3,8.3
	c0,2-0.7,3.8-1.8,5.2c-0.8-1-1.9-1.8-3.1-2.4c1.1-1,1.8-2.3,1.8-3.9c0-2.9-2.3-5.2-5.2-5.2c-2.9,0-5.2,2.3-5.2,5.2
	c0,1.5,0.7,2.9,1.8,3.9c-1.2,0.5-2.2,1.3-3.1,2.4C48,16.5,47.3,14.7,47.3,12.7z M30.7,11.7c0.6,0,1,0.5,1,1s-0.5,1-1,1s-1-0.5-1-1
	S30.1,11.7,30.7,11.7z M20.3,9.6c0-0.6,0.5-1,1-1s1,0.5,1,1c0,0.6-0.5,1-1,1S20.3,10.2,20.3,9.6z M5.6,9.5c-0.6,0-1-0.5-1-1
	s0.5-1,1-1s1,0.5,1,1S6.2,9.5,5.6,9.5z M6.7,25.2c-0.6,0-1-0.5-1-1c0-0.6,0.5-1,1-1s1,0.5,1,1C7.8,24.7,7.3,25.2,6.7,25.2z
	 M9.9,34.6c-0.6,0-1-0.5-1-1s0.5-1,1-1s1,0.5,1,1S10.4,34.6,9.9,34.6z M6.9,63.1c1.2-1.6,3-2.5,5-2.5s3.8,0.9,5,2.5
	c-1.4,1-3.1,1.7-5,1.7S8.3,64.1,6.9,63.1z M8.8,55.4c0-1.7,1.4-3.1,3.1-3.1s3.1,1.4,3.1,3.1c0,1.7-1.4,3.1-3.1,3.1
	S8.8,57.1,8.8,55.4z M20.2,56.4c0,2-0.7,3.8-1.8,5.2c-0.8-1-1.9-1.8-3.1-2.4c1.1-1,1.8-2.3,1.8-3.9c0-2.9-2.3-5.2-5.2-5.2
	s-5.2,2.3-5.2,5.2c0,1.5,0.7,2.9,1.8,3.9c-1.2,0.5-2.2,1.3-3.1,2.4c-1.1-1.4-1.8-3.2-1.8-5.2c0-4.6,3.7-8.3,8.3-8.3
	S20.2,51.8,20.2,56.4z M36.8,57.4c-0.6,0-1-0.5-1-1s0.5-1,1-1s1,0.5,1,1S37.4,57.4,36.8,57.4z M47.2,59.5c0,0.6-0.5,1-1,1
	s-1-0.5-1-1s0.5-1,1-1S47.2,58.9,47.2,59.5z M28.5,30.4c0-2.9,2.3-5.2,5.2-5.2s5.2,2.3,5.2,5.2s-2.3,5.2-5.2,5.2
	C30.9,35.6,28.5,33.3,28.5,30.4L28.5,30.4z M36.6,38.1L33.8,46l-2.8-7.9c0.9-0.3,1.8-0.4,2.8-0.4C34.7,37.7,35.7,37.8,36.6,38.1z
	 M29,39l3.2,9c-2.9-0.3-5.5-1.6-7.5-3.4C25.4,42.2,26.9,40.2,29,39L29,39z M38.5,39c2.1,1.2,3.7,3.2,4.3,5.6c-2,1.8-4.6,3.1-7.5,3.4
	L38.5,39z M33.8,21c7.5,0,13.5,6.1,13.5,13.5c0,3.1-1.1,6-2.9,8.3c-1.2-3-3.6-5.3-6.5-6.5c1.9-1.3,3.2-3.5,3.2-6
	c0-4-3.3-7.3-7.3-7.3s-7.3,3.3-7.3,7.3c0,2.5,1.2,4.7,3.2,6c-2.9,1.2-5.3,3.5-6.5,6.5c-1.8-2.3-2.9-5.2-2.9-8.3
	C20.2,27.1,26.3,21,33.8,21L33.8,21z M61.9,61.6c-0.6,0-1-0.5-1-1s0.5-1,1-1s1,0.5,1,1S62.4,61.6,61.9,61.6z"/>
</svg>
