<?xml version="1.0" encoding="utf-8"?>
<!-- Generator: Adobe Illustrator 25.0.1, SVG Export Plug-In . SVG Version: 6.00 Build 0)  -->
<svg version="1.1" id="Capa_1" xmlns="http://www.w3.org/2000/svg" xmlns:xlink="http://www.w3.org/1999/xlink" x="0px" y="0px"
	 viewBox="0 0 957.6 957.6" style="enable-background:new 0 0 957.6 957.6;" xml:space="preserve">
<style type="text/css">
	.st0{fill:#FFFFFF;}
</style>
<g>
	<path class="st0" d="M833.8,159.6h-19.6v480.7c0,31.9-26,57.9-57.9,57.9H558.1H400.4V716c0,20.4,16.6,37,37,37h198.2h198.2
		c20.4,0,37-16.6,37-37V196.5C870.7,176.1,854.2,159.6,833.8,159.6z"/>
	<path class="st0" d="M558.1,677.2h198.2c20.4,0,37-16.6,37-37V159.6v-38.8c0-20.4-16.6-37-37-37H558.1h-65.9V96
		c0.1,1.3,0.2,2.6,0.2,3.9v80.6v20.7c0,28.7-23.3,52.1-52.1,52.1h-20.7h-80.6c-1,0-2.2-0.1-3.2-0.1H323v387.1c0,20.4,16.6,37,37,37
		h40.5H558.1L558.1,677.2z M565.5,551.6H436.3c-9.6,0-17.5-7.8-17.5-17.5c0-9.6,7.8-17.5,17.5-17.5h129.3c9.6,0,17.5,7.8,17.5,17.5
		C583.1,543.7,575.2,551.6,565.5,551.6z M694.8,462.4H436.3c-9.6,0-17.5-7.8-17.5-17.5c0-9.6,7.8-17.5,17.5-17.5h258.5
		c9.6,0,17.5,7.8,17.5,17.5C712.3,454.6,704.5,462.4,694.8,462.4z M436.3,332.8h258.5c9.6,0,17.5,7.8,17.5,17.5
		c0,9.6-7.8,17.5-17.5,17.5H436.3c-9.6,0-17.5-7.8-17.5-17.5C418.9,340.6,426.7,332.8,436.3,332.8z"/>
	<path class="st0" d="M339.1,232.3h101.3c0.1,0,0.2,0,0.3,0c16.9-0.1,30.6-13.8,30.7-30.7c0-0.1,0-0.2,0-0.3V100
		c0-9.4-7.7-15.6-15.7-15.6c-3.8,0-7.7,1.4-10.9,4.6L328,205.7C318.2,215.5,325.2,232.3,339.1,232.3z"/>
</g>
</svg>
