<svg xmlns="http://www.w3.org/2000/svg" width="53.245" height="52.845" viewBox="0 0 53.245 52.845">
  <g id="Page-1" transform="translate(0 -0.082)">
    <g id="CN-AboutUs_300620" transform="translate(0 0.082)">
      <g id="Block-3-Copy" transform="translate(0 0)">
        <g id="Text" transform="translate(0 0)">
          <g id="Group-30" transform="translate(0 0)">
            <g id="Group-37">
              <g id="Group-26-Copy-7" transform="translate(0 0)">
                <g id="Group-50" transform="translate(0 0)">
                  <g id="company-_1_" data-name="company-(1)" transform="translate(0 0)">
                    <path id="Path" d="M28.757,18.328,48.3,22.211a3.278,3.278,0,0,1,2.64,3.239V48.079a3.323,3.323,0,0,1-3.328,3.328H27.648A1.1,1.1,0,0,0,28.757,50.3V49.188H47.615a1.113,1.113,0,0,0,1.109-1.109V25.45a1.115,1.115,0,0,0-.865-1.087l-19.1-3.772Z" transform="translate(2.302 1.438)" fill="#fff"/>
                    <path id="Path-2" data-name="Path" d="M40.362,28.384a1.109,1.109,0,1,1,0,2.219H35.925a1.109,1.109,0,1,1,0-2.219Z" transform="translate(2.899 2.275)" fill="#fff"/>
                    <path id="Path-3" data-name="Path" d="M40.362,34.528a1.109,1.109,0,1,1,0,2.219H35.925a1.109,1.109,0,1,1,0-2.219Z" transform="translate(2.899 2.787)" fill="#fff"/>
                    <path id="Path-4" data-name="Path" d="M40.362,40.672a1.109,1.109,0,1,1,0,2.219H35.925a1.109,1.109,0,1,1,0-2.219Z" transform="translate(2.899 3.299)" fill="#fff"/>
                    <path id="Path-5" data-name="Path" d="M28.843,50.313a1.109,1.109,0,0,1-2.219,0V19.253a1.18,1.18,0,0,1,.4-.865,1.166,1.166,0,0,1,.932-.222l.887.177V50.313Z" transform="translate(2.217 1.422)" fill="#fff"/>
                    <path id="Path-6" data-name="Path" d="M27.221,46.816v1.109a1.1,1.1,0,0,0,1.109,1.109H19.456a1.1,1.1,0,0,0,1.109-1.109V46.816Z" transform="translate(1.62 3.81)" fill="#fff"/>
                    <path id="Path-7" data-name="Path" d="M21.93,9.952a1.109,1.109,0,0,1,0,2.219H17.493a1.109,1.109,0,1,1,0-2.219Z" transform="translate(1.364 0.74)" fill="#fff"/>
                    <path id="Path-8" data-name="Path" d="M23.04,17.205a1.1,1.1,0,0,1-1.109,1.109H17.493a1.109,1.109,0,1,1,0-2.219H21.93A1.1,1.1,0,0,1,23.04,17.205Z" transform="translate(1.364 1.252)" fill="#fff"/>
                    <path id="Path-9" data-name="Path" d="M21.93,22.24a1.109,1.109,0,0,1,0,2.219H17.493a1.109,1.109,0,1,1,0-2.219Z" transform="translate(1.364 1.764)" fill="#fff"/>
                    <path id="Path-10" data-name="Path" d="M21.93,28.384a1.109,1.109,0,1,1,0,2.219H17.493a1.109,1.109,0,1,1,0-2.219Z" transform="translate(1.364 2.275)" fill="#fff"/>
                    <path id="Path-11" data-name="Path" d="M12.8,29.493A1.1,1.1,0,0,1,11.69,30.6H7.253a1.109,1.109,0,1,1,0-2.219H11.69A1.1,1.1,0,0,1,12.8,29.493Z" transform="translate(0.512 2.275)" fill="#fff"/>
                    <path id="Path-12" data-name="Path" d="M11.69,9.952a1.109,1.109,0,1,1,0,2.219H7.253a1.109,1.109,0,1,1,0-2.219Z" transform="translate(0.512 0.74)" fill="#fff"/>
                    <path id="Path-13" data-name="Path" d="M11.69,16.1a1.109,1.109,0,1,1,0,2.219H7.253a1.109,1.109,0,1,1,0-2.219Z" transform="translate(0.512 1.252)" fill="#fff"/>
                    <path id="Path-14" data-name="Path" d="M11.69,22.24a1.109,1.109,0,1,1,0,2.219H7.253a1.109,1.109,0,1,1,0-2.219Z" transform="translate(0.512 1.764)" fill="#fff"/>
                    <path id="Path-15" data-name="Path" d="M19.285,37.856a1.112,1.112,0,0,0-1.109-1.109H11.52a1.1,1.1,0,0,0-1.109,1.109v9.983H8.192V37.856a3.323,3.323,0,0,1,3.328-3.328h6.656A3.323,3.323,0,0,1,21.5,37.856v9.983H19.285Z" transform="translate(0.682 2.787)" fill="#fff"/>
                    <path id="Path-16" data-name="Path" d="M10.411,46.816H21.5v1.109a1.1,1.1,0,0,1-1.109,1.109H9.3a1.1,1.1,0,0,1-1.109-1.109V46.816Z" transform="translate(0.682 3.81)" fill="#fff"/>
                    <path id="Path-17" data-name="Path" d="M3.882.125l24.382,3.7a3.315,3.315,0,0,1,2.8,3.283V19.848l-.887-.177a1.166,1.166,0,0,0-.932.222,1.18,1.18,0,0,0-.4.865V7.113A1.122,1.122,0,0,0,27.909,6L3.528,2.321a.614.614,0,0,0-.2-.022,1.046,1.046,0,0,0-.71.266,1.061,1.061,0,0,0-.4.843V49.6a1.113,1.113,0,0,0,1.109,1.109H8.874v1.109a1.1,1.1,0,0,0,1.109,1.109H3.328A3.323,3.323,0,0,1,0,49.6V3.408A3.267,3.267,0,0,1,1.176.879,3.33,3.33,0,0,1,3.882.125Z" transform="translate(0 -0.082)" fill="#fff"/>
                  </g>
                </g>
              </g>
            </g>
          </g>
        </g>
      </g>
    </g>
  </g>
</svg>
