<?xml version="1.0" encoding="utf-8"?>
<!-- Generator: Adobe Illustrator 25.0.1, SVG Export Plug-In . SVG Version: 6.00 Build 0)  -->
<svg version="1.1" id="Layer_1" xmlns="http://www.w3.org/2000/svg" xmlns:xlink="http://www.w3.org/1999/xlink" x="0px" y="0px"
	 viewBox="0 0 480 480" style="enable-background:new 0 0 480 480;" xml:space="preserve">
<style type="text/css">
	.st0{fill:#FFFFFF;}
</style>
<path class="st0" d="M185.3,244.5h91.2v14h-91.2V244.5z"/>
<path class="st0" d="M185.3,209.4h77.2v14h-77.2V209.4z"/>
<path class="st0" d="M459,55.1h-77.2V27c0-3.9-3.1-7-7-7H164.3c-3.9,0-7,3.1-7,7v28.1H80.1c-11.6,0-21.1,9.4-21.1,21v210.5
	c0,11.6,9.4,21,21.1,21h154.4v42.1h-63.2c-3.9,0-7,3.1-7,7v35.1h-14v14h238.6v-14h-14v-35.1c0-3.9-3.1-7-7-7h-63.1v-42.1H459
	c11.6,0,21-9.4,21-21V76.1C480,64.5,470.6,55.1,459,55.1z M459,69.1c3.9,0,7,3.1,7,7v175.4h-84.2v-79.1l34-40.5
	c8.5-10.2,8.7-25,0.5-35.4c-8.2-10.4-22.6-13.7-34.5-7.8V69.1H459z M328.4,214.3l-21.5-18L370,121l21.5,18L328.4,214.3z M302,210.4
	l13.3,11.1l-15.9,5.5L302,210.4z M405,122.9l-4.5,5.4l-21.5-18l4.5-5.4c5-5.9,13.8-6.7,19.8-1.7C409.2,108.1,410,117,405,122.9z
	 M171.3,34h196.5v67.8l-76.1,90.7c-0.8,1-1.4,2.1-1.6,3.4l-6.4,40.4c-0.4,2.4,0.5,4.9,2.4,6.5c1.9,1.6,4.5,2.1,6.8,1.3l38.7-13.3
	c1.2-0.4,2.3-1.1,3.1-2.1l33.1-39.5v83.4H171.3V34z M80.1,69.1h77.2v182.4H73V76.1C73,72.3,76.2,69.1,80.1,69.1z M360.7,391.9H178.3
	v-28.1h182.4V391.9z M290.5,349.8h-42.1v-42.1h42.1V349.8z M459,293.6H80.1c-3.9,0-7-3.1-7-7v-21h84.2v14c0,3.9,3.1,7,7,7h210.5
	c3.9,0,7-3.1,7-7v-14H466v21C466,290.5,462.8,293.6,459,293.6z"/>
<path class="st0" d="M437.9,272.6h14v14h-14V272.6z"/>
<path class="st0" d="M185.3,48.1h28.1v14h-28.1V48.1z"/>
<path class="st0" d="M227.4,48.1h119.3v14H227.4V48.1z"/>
<path class="st0" d="M185.3,83.2h161.4v14H185.3V83.2z"/>
<path class="st0" d="M185.3,118.2h14v14h-14V118.2z"/>
<path class="st0" d="M213.4,118.2h14v14h-14V118.2z"/>
<path class="st0" d="M241.4,118.2h77.2v14h-77.2V118.2z"/>
<path class="st0" d="M185.3,153.3h42.1v14h-42.1V153.3z"/>
<path class="st0" d="M241.4,153.3h49.1v14h-49.1V153.3z"/>
</svg>
