<?xml version="1.0" encoding="utf-8"?>
<!-- Generator: Adobe Illustrator 25.0.1, SVG Export Plug-In . SVG Version: 6.00 Build 0)  -->
<svg version="1.1" id="Layer_1" xmlns="http://www.w3.org/2000/svg" xmlns:xlink="http://www.w3.org/1999/xlink" x="0px" y="0px"
	 viewBox="0 0 434.1 542.8" style="enable-background:new 0 0 434.1 542.8;" xml:space="preserve">
<g id="_x30_35---Creative-Writing">
	<path id="Shape" d="M97.6,155.6H38.9c-19.7,0-35.7,16-35.7,35.7v311.8c0,19.7,16,35.7,35.7,35.7h249.5c19.7,0,35.7-16,35.7-35.7
		v-82.6c0-4.9-4-8.9-8.9-8.9s-8.9,4-8.9,8.9v82.6c0,9.8-8,17.8-17.8,17.8H38.9c-9.8,0-17.8-8-17.8-17.8V191.2
		c0-9.8,8-17.8,17.8-17.8h69.1c6.9,8,10.8,18,11.1,28.5v51.7c0,11.3,7.2,21.4,17.8,25.1c0,11.4-1.2,20.6,7.8,29.4
		c7.6,7.7,19.1,9.9,29.2,5.9c9.9-4.1,16.5-13.8,16.5-24.6v-10.5c10.6-3.7,17.7-13.8,17.8-25.1v-53.4c0.3-9.9,4.2-19.5,11-26.8h69.1
		c9.8,0,17.8,8,17.8,17.8c0,4.9,4,8.9,8.9,8.9c18.6,0,7.3-44.5-26.7-44.5h-58.7c12.1-29.7,2.8-63.9-22.8-83.4s-61-19.5-86.5,0
		S85.5,125.8,97.6,155.6L97.6,155.6z M190.4,209.1v17.8h-53.5v-17.8H190.4z M163.6,298.1c-4.9,0-8.9-4-8.9-8.9v-8.9h17.8v8.9
		C172.6,294.2,168.5,298.1,163.6,298.1z M190.4,253.6c0,4.9-4,8.9-8.9,8.9h-35.7c-4.9,0-8.9-4-8.9-8.9v-8.9h53.4V253.6z M128,89
		c20.9-18.8,52.8-18.2,73,1.3s21.9,51.4,3.7,72.9c-6.9,8-11.5,17.7-13.4,28.1h-18.7v-44.5c0-4.9-4-8.9-8.9-8.9c-4.9,0-8.9,4-8.9,8.9
		v44.5h-18.9c-5.6-28.8-25.7-31.5-25.7-62.3C110.2,113.6,116.6,99.1,128,89z"/>
	<path id="Shape_1_" d="M172.6,30.8V12.9c0-4.9-4-8.9-8.9-8.9c-4.9,0-8.9,4-8.9,8.9v17.8c0,4.9,4,8.9,8.9,8.9
		C168.5,39.7,172.6,35.7,172.6,30.8z"/>
	<path id="Shape_2_" d="M261.6,137.7h17.8c4.9,0,8.9-4,8.9-8.9c0-4.9-4-8.9-8.9-8.9h-17.8c-4.9,0-8.9,4-8.9,8.9
		C252.8,133.7,256.7,137.7,261.6,137.7z"/>
	<path id="Shape_3_" d="M65.6,119.9H47.8c-4.9,0-8.9,4-8.9,8.9c0,4.9,4,8.9,8.9,8.9h17.8c4.9,0,8.9-4,8.9-8.9
		C74.6,123.9,70.5,119.9,65.6,119.9z"/>
	<path id="Shape_4_" d="M251.9,204.4l-12.6-12.6c-2.3-2.4-5.5-3.3-8.7-2.5c-3.2,0.8-5.5,3.3-6.4,6.4c-0.8,3.2,0.1,6.4,2.5,8.7
		l12.6,12.6c3.4,3.4,9.2,3.4,12.6,0C255.3,213.6,255.3,207.9,251.9,204.4L251.9,204.4z"/>
	<path id="Shape_5_" d="M88.1,65.8c2.3,2.4,5.5,3.3,8.7,2.5c3.2-0.8,5.5-3.3,6.4-6.4c0.8-3.2-0.1-6.4-2.5-8.7L88.1,40.6
		c-2.3-2.3-5.5-3.2-8.6-2.3s-5.5,3.3-6.3,6.3c-0.8,3.1,0.1,6.4,2.3,8.6L88.1,65.8z"/>
	<path id="Shape_6_" d="M88.1,217l12.6-12.6c2.4-2.3,3.3-5.5,2.5-8.7s-3.3-5.5-6.4-6.4c-3.2-0.8-6.4,0.1-8.7,2.5l-12.6,12.6
		c-2.3,2.3-3.2,5.5-2.3,8.6c0.8,3.1,3.3,5.5,6.3,6.3C82.6,220.2,85.8,219.3,88.1,217L88.1,217z"/>
	<path id="Shape_7_" d="M239.3,40.6l-12.6,12.6c-3.3,3.4-3.3,9.1,0.1,12.5c3.4,3.4,9,3.4,12.5,0.1l12.6-12.6
		c2.3-2.3,3.2-5.5,2.3-8.6c-0.8-3.1-3.3-5.5-6.3-6.3C244.8,37.5,241.5,38.4,239.3,40.6z"/>
	<path id="Shape_8_" d="M47.8,244.6c0,4.9,4,8.9,8.9,8.9h35.7c4.9,0,8.9-4,8.9-8.9c0-4.8-4-8.9-8.9-8.9H56.8
		C51.8,235.7,47.8,239.7,47.8,244.6z"/>
	<path id="Shape_9_" d="M243.8,235.7h-8.9c-4.9,0-8.9,4-8.9,8.9c0,4.8,4,8.9,8.9,8.9h8.9c4.9,0,8.9-4,8.9-8.9
		C252.7,239.8,248.7,235.7,243.8,235.7z"/>
	<path id="Shape_10_" d="M56.8,298.1h35.7c4.9,0,8.9-4,8.9-8.9c0-4.9-4-8.9-8.9-8.9H56.8c-4.9,0-8.9,4-8.9,8.9
		C47.8,294.2,51.8,298.1,56.8,298.1z"/>
	<path id="Shape_11_" d="M56.8,387.2h99c4.9,0,8.9-4,8.9-8.9s-4-8.9-8.9-8.9h-99c-4.9,0-8.9,4-8.9,8.9S51.8,387.2,56.8,387.2z"/>
	<path id="Shape_12_" d="M141.4,422.9c0-4.9-4-8.9-8.9-8.9H56.8c-4.9,0-8.9,4-8.9,8.9s4,8.9,8.9,8.9h75.7
		C137.4,431.7,141.4,427.8,141.4,422.9z"/>
	<path id="Shape_13_" d="M56.8,458.5c-4.9,0-8.9,4-8.9,8.9c0,4.8,4,8.9,8.9,8.9h56.6c4.9,0,8.9-4,8.9-8.9c0-4.8-4-8.9-8.9-8.9H56.8z
		"/>
	<path id="Shape_14_" d="M56.8,342.7h143.5c4.9,0,8.9-4,8.9-8.9c0-4.8-4-8.9-8.9-8.9H56.8c-4.9,0-8.9,4-8.9,8.9
		C47.9,338.7,51.8,342.7,56.8,342.7z"/>
	<path id="Shape_15_" d="M386.4,203.8c-21.3,0-30.6,12.1-44.1,25.6l-6.3-6.3c-10.4-10.4-27.4-10.4-37.8,0l-56.6,56.7
		c-3.4,3.4-3.4,9.2,0,12.6c3.4,3.4,9.2,3.4,12.6,0l56.7-56.7c3.4-3.4,9.2-3.4,12.6,0l6.3,6.3C161.9,409.9,171.4,399.8,170.2,402.6
		c-3.5,7.2,12.7-29.7-37.7,88.1c-1.2,2.8-0.9,5.9,0.8,8.5c1.7,2.6,4.4,4,7.5,4c2.7,0-4.2,2.6,91.7-38.5c3.6-1.6,2.1-1.1,185.5-184.6
		c12.7-12.8,16.4-31.9,9.6-48.5C420.6,215.1,404.3,203.9,386.4,203.8L386.4,203.8z M157.6,477.2l23.8-55.6l31.8,31.8L157.6,477.2z
		 M228.9,443.8l-37.8-37.8l132.3-132.4l37.8,37.8L228.9,443.8z M405.3,267.4l-31.5,31.5L336,261.1l31.5-31.5c10.5-10,27.2-10,37.8,0
		c5,5,7.9,11.8,7.9,18.9C413.2,255.5,410.3,262.3,405.3,267.4L405.3,267.4z"/>
</g>
</svg>
