<?xml version="1.0" encoding="utf-8"?>
<!-- Generator: Adobe Illustrator 25.2.1, SVG Export Plug-In . SVG Version: 6.00 Build 0)  -->
<svg version="1.1" id="Layer_1" xmlns="http://www.w3.org/2000/svg" xmlns:xlink="http://www.w3.org/1999/xlink" x="0px" y="0px"
	 viewBox="0 0 480 480" style="enable-background:new 0 0 480 480;" xml:space="preserve">
<style type="text/css">
	.st0{fill:#FF824C;}
</style>
<path class="st0" d="M471.9,415.9h-16v-16h-16v16h-16v-16h-16v16h-119c-8.5,0-16.4,4.8-20.1,12.4c-1.1,2.2-3.3,3.6-5.8,3.6h-46.1
	c-2.5,0-4.7-1.4-5.8-3.6c-3.8-7.6-11.6-12.5-20.1-12.4H72v-144H56v144H40v-144H24v144H8c-4.4,0-8,3.6-8,8v24c0,17.7,14.3,32,32,32
	h415.9c17.7,0,32-14.3,32-32v-24C479.9,419.5,476.3,415.9,471.9,415.9z M463.9,447.9c0,8.8-7.2,16-16,16H32c-8.8,0-16-7.2-16-16v-16
	h175c2.5,0,4.7,1.4,5.8,3.6c3.8,7.6,11.6,12.5,20.1,12.4H263c8.5,0,16.4-4.8,20.1-12.4c1.1-2.2,3.3-3.6,5.7-3.6h175L463.9,447.9
	L463.9,447.9z"/>
<path class="st0" d="M208,127.9v-16H64c-22.1,0-40,17.9-40,40v8h16v-8c0-13.3,10.7-24,24-24C64,127.9,208,127.9,208,127.9z"/>
<path class="st0" d="M56,159.9h168v-16H72C63.2,143.9,56,151.1,56,159.9z"/>
<path class="st0" d="M453.8,100.6l9.6-30.3c0.7-2.1,0.4-4.5-0.7-6.4s-3-3.3-5.2-3.8l-31-6.8l-6.7-31c-0.5-2.2-1.9-4.1-3.8-5.2
	s-4.3-1.4-6.4-0.7L379.3,26L357.9,2.6c-1.6-1.6-3.7-2.5-5.9-2.5s-4.4,0.9-6,2.5l-21.4,23.5l-30.3-9.6c-2.1-0.7-4.5-0.4-6.4,0.7
	s-3.3,3-3.8,5.2l-6.8,31l-31,6.8c-2.2,0.5-4.1,1.9-5.2,3.8c-1.1,2-1.4,4.3-0.7,6.4l9.6,30.3L226.6,122c-1.7,1.5-2.6,3.7-2.6,5.9
	s0.9,4.4,2.6,5.9l23.5,21.4l-9.6,30.3c-0.7,2.1-0.4,4.5,0.7,6.4c1.1,1.9,3,3.3,5.2,3.8l31,6.8l6.8,31c0.5,2.2,1.9,4.1,3.8,5.2
	c1.9,1.1,4.3,1.4,6.4,0.7l30.3-9.6l21.4,23.5c1.5,1.7,3.7,2.6,5.9,2.6s4.4-0.9,5.9-2.6l21.4-23.5l30.3,9.6c2.1,0.7,4.5,0.4,6.4-0.7
	c1.9-1.1,3.3-3,3.8-5.2l6.8-31l31-6.8c2.2-0.5,4.1-1.9,5.2-3.8c1.1-2,1.4-4.3,0.7-6.4l-9.6-30.3l23.5-21.4c1.7-1.5,2.6-3.7,2.6-5.9
	c0-2.2-0.9-4.4-2.6-5.9L453.8,100.6z M439.3,146.9c-2.3,2.1-3.2,5.4-2.2,8.3l8.5,26.8l-27.5,6c-3,0.7-5.4,3.1-6.1,6.1l-6,27.4
	l-26.8-8.5c-3-0.9-6.2-0.1-8.3,2.2l-19,20.8L333,215.2c-1.5-1.7-3.7-2.6-5.9-2.6c-0.8,0-1.6,0.1-2.4,0.4l-26.8,8.5l-6-27.5
	c-0.7-3-3.1-5.4-6.1-6.1l-27.4-6l8.5-26.8c0.9-3,0.1-6.2-2.2-8.3l-20.8-18.9l20.8-18.9c2.3-2.1,3.2-5.4,2.2-8.3l-8.5-26.8l27.5-6
	c3-0.7,5.4-3.1,6.1-6.1l6-27.4l26.8,8.5c3,0.9,6.2,0.1,8.3-2.2L352,19.9l18.9,20.8c2.1,2.3,5.4,3.2,8.3,2.2l26.8-8.5l6,27.5
	c0.7,3,3.1,5.4,6.1,6.1l27.5,6l-8.5,26.8c-1,3-0.1,6.2,2.2,8.3l20.8,18.9L439.3,146.9z"/>
<path class="st0" d="M306.3,162.3l80-80l11.3,11.3l-80,80L306.3,162.3z"/>
<path class="st0" d="M335.9,103.9c0-13.3-10.7-24-24-24s-24,10.7-24,24s10.7,24,24,24C325.2,127.9,335.9,117.2,335.9,103.9z
	 M304,103.9c0-4.4,3.6-8,8-8s8,3.6,8,8s-3.6,8-8,8C307.5,111.9,304,108.4,304,103.9z"/>
<path class="st0" d="M391.9,127.9c-13.3,0-24,10.7-24,24c0,13.3,10.7,24,24,24s24-10.7,24-24C415.9,138.7,405.2,127.9,391.9,127.9z
	 M391.9,159.9c-4.4,0-8-3.6-8-8s3.6-8,8-8s8,3.6,8,8C399.9,156.4,396.4,159.9,391.9,159.9z"/>
<path class="st0" d="M207.7,214.1c-2.7-0.6-5.5,0.2-7.4,2.1l-78.1,77.3l-19,11.3C90.6,312,84.9,327.2,89.6,341
	c3.7,11.2,13.5,19.2,25.2,20.7l16.7,33.7c1.4,2.7,4.1,4.5,7.2,4.5h31.5c2.7,0,5.2-1.4,6.7-3.6c1.5-2.3,1.7-5.1,0.6-7.6l-16.6-38.2
	l87,1.4h0.1c2.6,0,5-1.2,6.5-3.4s1.9-4.8,1-7.3l-42.1-122.1C212.5,216.6,210.4,214.7,207.7,214.1z M104.8,335.9
	c-2.2-6.6,0.5-14,6.6-17.5l12.5-7.4l14,27.7l-11.8,5.9c-4,2-8.6,2.1-12.7,0.4C109.3,343.3,106.2,340,104.8,335.9z M143.6,383.9
	l-12.1-24.4c0.5-0.2,1-0.3,1.6-0.6l11.5-5.7l13.3,30.7H143.6z M153.6,334.4l-16.7-33l65.6-64.9l34.2,99.3L153.6,334.4z"/>
<path class="st0" d="M249.2,274l26.5-9.2l5.2,15.1l-26.4,9.2L249.2,274z"/>
<path class="st0" d="M228.5,220.8l17.6-18.4l11.5,11.1L240,231.9L228.5,220.8z"/>
<path class="st0" d="M272,327.9h24v16h-24V327.9z"/>
<path class="st0" d="M471.9,271.9h-16v-56h-16v56h-16v-16h-16v16h-88c-4.4,0-8,3.6-8,8v96c0,4.4,3.6,8,8,8h152c4.4,0,8-3.6,8-8v-96
	C479.9,275.5,476.3,271.9,471.9,271.9z M463.9,367.9h-136v-80h136V367.9z"/>
<path class="st0" d="M343.9,303.9h32v16h-32V303.9z"/>
<path class="st0" d="M391.9,303.9h56v16h-56V303.9z"/>
<path class="st0" d="M343.9,335.9h104v16h-104V335.9z"/>
<path class="st0" d="M8,255.9h120c4.4,0,8-3.6,8-8v-64c0-4.4-3.6-8-8-8H8c-4.4,0-8,3.6-8,8v64C0,252.3,3.6,255.9,8,255.9z M16,191.9
	h104v48H16V191.9z"/>
<path class="st0" d="M32,207.9h16v16H32V207.9z"/>
<path class="st0" d="M64,207.9h40v16H64V207.9z"/>
</svg>
