<?xml version="1.0" encoding="utf-8"?>
<!-- Generator: Adobe Illustrator 25.0.1, SVG Export Plug-In . SVG Version: 6.00 Build 0)  -->
<svg version="1.1" id="Capa_1" xmlns="http://www.w3.org/2000/svg" xmlns:xlink="http://www.w3.org/1999/xlink" x="0px" y="0px"
	 viewBox="0 0 512 512" style="enable-background:new 0 0 512 512;" xml:space="preserve">
<style type="text/css">
	.st0{fill:#FFFFFF;}
</style>
<path class="st0" d="M298.4,512h-84.8c-11.4,0-20.9-8.5-22.1-19.9l-3.8-36c-0.3-2.7-2-5-4.5-5.9c-21.5-8-41.3-19.5-59-34.1
	c-2-1.7-4.9-2.1-7.4-1l-33.1,14.7c-10.4,4.6-22.5,0.7-28.2-9.2l-42.4-73.4c-5.7-9.9-3-22.3,6.2-29L48.6,297c2.2-1.6,3.3-4.2,2.9-6.9
	c-1.9-11.2-2.8-22.7-2.8-34.1s0.9-22.9,2.8-34.1c0.4-2.6-0.7-5.3-2.9-6.9l-29.3-21.3c-9.2-6.7-11.9-19.2-6.2-29.1l42.4-73.4
	c5.7-9.9,17.8-13.8,28.2-9.2l33.1,14.7c2.5,1.1,5.4,0.7,7.4-1c7.8-6.5,16.2-12.4,24.8-17.6c3.5-2.1,8.2-1,10.3,2.6s1,8.2-2.6,10.3
	c-8,4.8-15.8,10.3-23,16.3c-6.5,5.3-15.3,6.5-23.1,3.1L77.6,95.8c-3.4-1.5-7.3-0.2-9.2,3l-42.4,73.4c-1.8,3.2-1,7.2,2,9.4l29.3,21.3
	c6.8,5,10.2,13.2,8.9,21.5c-1.7,10.4-2.6,21.1-2.6,31.6c0,10.6,0.9,21.2,2.6,31.6c1.4,8.3-2,16.5-8.9,21.5l-29.3,21.3
	c-3,2.2-3.8,6.2-2,9.4l42.4,73.4c1.8,3.2,5.8,4.5,9.2,3l33.1-14.7c7.7-3.4,16.6-2.3,23.1,3.1c16.4,13.5,34.9,24.2,54.8,31.7
	c7.7,2.9,13.3,10.1,14.2,18.4l3.8,36c0.4,3.7,3.5,6.4,7.2,6.4h84.8c3.7,0,6.8-2.8,7.2-6.4l3.8-36c0.9-8.3,6.4-15.5,14.2-18.4
	c19.9-7.5,38.3-18.1,54.8-31.7c6.5-5.3,15.3-6.5,23.1-3.1l33.1,14.7c3.4,1.5,7.3,0.2,9.2-3l42.4-73.4c1.8-3.2,1-7.2-2-9.4
	l-29.3-21.3c-6.8-5-10.2-13.2-8.9-21.5c1.7-10.4,2.6-21.1,2.6-31.6s-0.9-21.2-2.6-31.6c-1.4-8.3,2-16.5,8.9-21.5l29.3-21.3
	c3-2.2,3.8-6.2,2-9.4l-42.4-73.4c-1.8-3.2-5.8-4.5-9.2-3l-33.1,14.7c-7.7,3.4-16.6,2.3-23.1-3.1c-16.4-13.5-34.9-24.2-54.8-31.7
	c-7.7-2.9-13.3-10.1-14.2-18.4l-3.8-36c-0.4-3.7-3.5-6.4-7.2-6.4h-84.8c-3.7,0-6.8,2.8-7.2,6.4l-3.8,36c-0.9,8.3-6.4,15.5-14.2,18.4
	c-2.2,0.8-4.2,1.6-6,2.4c-3.8,1.6-8.2-0.2-9.8-4c-1.6-3.8,0.2-8.2,4-9.8c2-0.9,4.2-1.7,6.6-2.6c2.5-0.9,4.3-3.3,4.5-5.9l3.8-36
	C192.7,8.5,202.2,0,213.6,0h84.8c11.4,0,20.9,8.5,22.1,19.9l3.8,36c0.3,2.7,2,5,4.5,5.9c21.5,8,41.3,19.5,59,34.1
	c2,1.7,4.9,2.1,7.4,1l33.1-14.7c10.4-4.6,22.5-0.7,28.2,9.2l42.4,73.4c5.7,9.9,3,22.3-6.2,29L463.4,215c-2.2,1.6-3.3,4.2-2.9,6.9
	c1.9,11.2,2.8,22.7,2.8,34.1c0,11.4-0.9,22.9-2.8,34.1c-0.4,2.6,0.7,5.3,2.9,6.9l29.3,21.3c9.2,6.7,11.9,19.2,6.2,29.1l-42.4,73.4
	c-5.7,9.9-17.8,13.8-28.2,9.2l-33.1-14.7c-2.5-1.1-5.4-0.7-7.4,1c-17.7,14.6-37.6,26.1-59,34.1c-2.5,0.9-4.2,3.2-4.5,5.9l-3.8,36
	C319.3,503.5,309.8,512,298.4,512L298.4,512z"/>
<path class="st0" d="M332.2,332.3c-7.6,0-15.1-1.1-22.3-3.3c-4-1.2-6.2-5.4-5-9.4s5.4-6.2,9.4-5c5.8,1.8,11.8,2.6,17.9,2.6
	c16.4,0,31.8-6.4,43.4-17.9c23.9-23.9,23.9-62.9,0-86.8c-23.9-23.9-62.9-23.9-86.8,0l-27.5,27.5c-2.9,2.9-7.7,2.9-10.6,0l-27.5-27.5
	c-23.9-23.9-62.9-23.9-86.8,0c-11.6,11.6-18,27-18,43.4s6.4,31.8,18,43.4c11.6,11.6,27,17.9,43.4,17.9c16.4,0,31.8-6.4,43.4-17.9
	l27.5-27.5c2.9-2.9,7.7-2.9,10.6,0l27.5,27.5c0.9,0.9,1.9,1.8,2.8,2.6c3.1,2.7,3.4,7.5,0.7,10.6c-2.7,3.1-7.5,3.4-10.6,0.7
	c-1.2-1-2.3-2.1-3.5-3.3L256,287.8L233.8,310c-14.4,14.4-33.6,22.3-54,22.3c-20.4,0-39.6-7.9-54-22.3c-14.4-14.4-22.4-33.6-22.4-54
	s7.9-39.6,22.4-54c29.8-29.8,78.2-29.8,108,0l22.2,22.2l22.2-22.2c29.8-29.8,78.2-29.8,108,0c29.8,29.8,29.8,78.2,0,108
	C371.8,324.4,352.6,332.3,332.2,332.3L332.2,332.3z M179.8,302.4c-12.4,0-24-4.8-32.8-13.6c-8.8-8.8-13.6-20.4-13.6-32.8
	s4.8-24,13.6-32.8c8.7-8.7,20.4-13.6,32.8-13.6s24,4.8,32.8,13.6l27.5,27.5c2.9,2.9,2.9,7.7,0,10.6l-27.5,27.5
	C203.9,297.5,192.2,302.4,179.8,302.4L179.8,302.4z M179.8,224.6c-8.4,0-16.3,3.3-22.2,9.2c-5.9,5.9-9.2,13.8-9.2,22.2
	s3.3,16.3,9.2,22.2c5.9,5.9,13.8,9.2,22.2,9.2c8.4,0,16.3-3.3,22.2-9.2l22.2-22.2L202,233.8C196.1,227.9,188.2,224.6,179.8,224.6
	L179.8,224.6z M332.2,302.4c-11.9,0-23.8-4.5-32.8-13.6l-27.5-27.5c-2.9-2.9-2.9-7.7,0-10.6l27.5-27.5c18.1-18.1,47.5-18.1,65.6,0
	c8.8,8.8,13.6,20.4,13.6,32.8c0,12.4-4.8,24-13.6,32.8C355.9,297.8,344.1,302.4,332.2,302.4L332.2,302.4z M287.8,256l22.2,22.2
	c12.2,12.2,32.1,12.2,44.4,0c5.9-5.9,9.2-13.8,9.2-22.2s-3.3-16.3-9.2-22.2c-12.2-12.2-32.1-12.2-44.4,0L287.8,256z M359.7,283.5
	L359.7,283.5L359.7,283.5z"/>
<path class="st0" d="M341.1,171.8c-1.8,0-3.7-0.7-5.1-2c-21.8-20.2-50.2-31.4-80-31.4s-58.2,11.1-80,31.4c-3,2.8-7.8,2.6-10.6-0.4
	s-2.6-7.8,0.4-10.6c24.6-22.8,56.6-35.4,90.2-35.4s65.6,12.6,90.2,35.4c3,2.8,3.2,7.6,0.4,10.6C345.1,171,343.1,171.8,341.1,171.8z"
	/>
<path class="st0" d="M256,388.6c-33.6,0-65.6-12.6-90.2-35.4c-3-2.8-3.2-7.6-0.4-10.6c2.8-3,7.6-3.2,10.6-0.4
	c21.8,20.2,50.2,31.4,80,31.4s58.2-11.1,80-31.4c3-2.8,7.8-2.6,10.6,0.4s2.6,7.8-0.4,10.6C321.6,376,289.6,388.6,256,388.6z"/>
</svg>
