<?xml version="1.0" encoding="utf-8"?>
<!-- Generator: Adobe Illustrator 25.0.1, SVG Export Plug-In . SVG Version: 6.00 Build 0)  -->
<svg version="1.1" id="Capa_1" xmlns="http://www.w3.org/2000/svg" xmlns:xlink="http://www.w3.org/1999/xlink" x="0px" y="0px"
	 viewBox="0 0 512 512" style="enable-background:new 0 0 512 512;" xml:space="preserve">
<style type="text/css">
	.st0{fill:#FFFFFF;}
</style>
<g>
	<path class="st0" d="M136.6,65.1c-3.4,0-6.2,2.8-6.2,6.2c0,3.4,2.8,6.2,6.2,6.2h8.5c3.4,0,6.2-2.8,6.2-6.2c0-3.4-2.8-6.2-6.2-6.2
		H136.6z"/>
	<path class="st0" d="M178.8,65.1c-3.4,0-6.2,2.8-6.2,6.2c0,3.4,2.8,6.2,6.2,6.2h8.5c3.4,0,6.2-2.8,6.2-6.2c0-3.4-2.8-6.2-6.2-6.2
		H178.8z"/>
	<path class="st0" d="M229.5,77.6c3.4,0,6.2-2.8,6.2-6.2c0-3.4-2.8-6.2-6.2-6.2H221c-3.4,0-6.2,2.8-6.2,6.2c0,3.4,2.8,6.2,6.2,6.2
		H229.5z"/>
	<path class="st0" d="M392.8,256.5c2.4,2.4,6.4,2.4,8.8,0c2.4-2.4,2.4-6.4,0-8.8L287.3,133.3c-2.4-2.4-6.4-2.4-8.8,0
		c-2.4,2.4-2.4,6.4,0,8.8l2,2l-13.8,33.5c-2.4-1.9-5.9-1.7-8.2,0.5c-2.4,2.4-2.4,6.4,0,8.8l3,3L250.8,216l-46.6,46.6
		c-6.9,6.9-6.9,18,0,24.9l0.8,0.8l-4.4,4.4l0,0c-2.4-2.4-6.4-2.4-8.8,0c-2.4,2.4-2.4,6.4,0,8.8l0.4,0.4c-7.6,11.4-6.4,27,3.6,37.1
		c5.7,5.7,13.2,8.6,20.7,8.6c5.7,0,11.4-1.7,16.3-4.9l0.4,0.4c1.2,1.2,2.8,1.8,4.4,1.8c1.6,0,3.2-0.6,4.4-1.8c2.4-2.4,2.4-6.4,0-8.8
		l0,0l4.4-4.4l0.8,0.8c3.4,3.4,7.9,5.1,12.4,5.1c4.5,0,9-1.7,12.4-5.1l0.9-0.9l16.4,16.4c2.4,2.4,6.4,2.4,8.8,0
		c2.4-2.4,2.4-6.4,0-8.8l-16.4-16.4l19.7-19.7l12.9,12.9c0.1,0.1,0.1,0.2,0.1,0.4l-3.2,8.8c-1.7,4.6-0.5,9.9,3,13.4l18,18
		c1.6,1.6,1.6,4.2,0,5.8l-2.5,2.5c-1.6,1.6-4.2,1.6-5.8,0l-8.1-8.1c-2.4-2.4-6.4-2.4-8.8,0c-2.4,2.4-2.4,6.4,0,8.8l8.1,8.1
		c6.4,6.4,16.9,6.4,23.3,0l2.5-2.5c6.4-6.4,6.4-16.9,0-23.3l-18-18c-0.1-0.1-0.1-0.2-0.1-0.4l3.2-8.8c1.7-4.6,0.5-9.9-3-13.4
		l-12.9-12.9l8.5-8.5l26.1-10.8l3.1,3.1c2.4,2.4,6.4,2.4,8.8,0c2.2-2.2,2.4-5.7,0.5-8.2l33.5-13.8L392.8,256.5z M246.3,255
		C246.3,255,246.3,255,246.3,255l-10.9,10.9c-1.6,1.6-4.1,1.6-5.6,0l-5.6-5.6l16.5-16.5l5.6,5.6C247.9,250.9,247.9,253.5,246.3,255
		L246.3,255z M204.7,330.3c-3.2-3.2-5-7.4-5-12c0-2.5,0.6-5,1.6-7.2l22.5,22.5C217.6,336.5,209.8,335.4,204.7,330.3z M237.7,321.1
		l-4.4,4.4l-23.9-23.9l4.4-4.4C222.2,305.6,229.4,312.7,237.7,321.1z M256.1,322c-11.8-11.8-36.4-36.4-43.2-43.2c-2-2-2-5.3,0-7.3
		l2.4-2.4l5.6,5.6c6.4,6.4,16.8,6.4,23.2,0l10.9-10.9c6.4-6.4,6.4-16.8,0-23.2l-5.6-5.6l6.6-6.6l50.5,50.5l-37.9,37.8c0,0,0,0,0,0
		c0,0,0,0,0,0l-5.2,5.2C261.4,324,258.2,324,256.1,322L256.1,322z M316.8,271.5c-6.3-6.4-47-47.1-53.4-53.4l7.7-18.6l64.4,64.4
		L316.8,271.5z M347.9,258.7L276.2,187l13.8-33.4l91.3,91.3L347.9,258.7z"/>
	<path class="st0" d="M373.1,153l-16.6,16.6c-2.4,2.4-2.4,6.4,0,8.8c2.4,2.4,6.4,2.4,8.8,0l16.6-16.6c2.4-2.4,2.4-6.4,0-8.8
		C379.5,150.6,375.5,150.6,373.1,153z"/>
	<path class="st0" d="M334.5,151.5V128c0-3.4-2.8-6.2-6.2-6.2c-3.4,0-6.2,2.8-6.2,6.2v23.5c0,3.4,2.8,6.2,6.2,6.2
		C331.8,157.7,334.5,154.9,334.5,151.5z"/>
	<path class="st0" d="M376.8,206.8c0,3.4,2.8,6.2,6.2,6.2h23.5c3.4,0,6.2-2.8,6.2-6.2s-2.8-6.2-6.2-6.2H383
		C379.5,200.6,376.8,203.3,376.8,206.8z"/>
	<path class="st0" d="M189.3,151.5c0-3.4-2.8-6.2-6.2-6.2h-53.1c-3.4,0-6.2,2.8-6.2,6.2s2.8,6.2,6.2,6.2h53.1
		C186.5,157.7,189.3,154.9,189.3,151.5z"/>
	<path class="st0" d="M129.9,176.3c-3.4,0-6.2,2.8-6.2,6.2s2.8,6.2,6.2,6.2h36.6c3.4,0,6.2-2.8,6.2-6.2s-2.8-6.2-6.2-6.2H129.9z"/>
	<path class="st0" d="M465.7,308.5h-88.2c-3.4,0-6.2,2.8-6.2,6.2s2.8,6.2,6.2,6.2h88.2c3.4,0,6.2-2.8,6.2-6.2
		S469.1,308.5,465.7,308.5z"/>
	<path class="st0" d="M465.7,335.8h-55c-3.4,0-6.2,2.8-6.2,6.2c0,3.4,2.8,6.2,6.2,6.2h55c3.4,0,6.2-2.8,6.2-6.2
		C471.9,338.6,469.1,335.8,465.7,335.8z"/>
	<path class="st0" d="M469.5,33.7H221.1c-3.4,0-6.2,2.8-6.2,6.2s2.8,6.2,6.2,6.2h248.4c16.6,0,30.1,13.5,30.1,30.1v20.4H100.4V76.2
		c0-16.6,13.5-30.1,30.1-30.1h65.7c3.4,0,6.2-2.8,6.2-6.2s-2.8-6.2-6.2-6.2h-65.7C107.1,33.7,88,52.7,88,76.2v283.2
		c0,23.4,19.1,42.5,42.5,42.5h339c23.4,0,42.5-19.1,42.5-42.5V344c0-3.4-2.8-6.2-6.2-6.2s-6.2,2.8-6.2,6.2v15.4
		c0,16.6-13.5,30.1-30.1,30.1h-339c-16.6,0-30.1-13.5-30.1-30.1V109h399.2v210.1c0,3.4,2.8,6.2,6.2,6.2c3.4,0,6.2-2.8,6.2-6.2v-243
		C512,52.7,492.9,33.7,469.5,33.7z"/>
</g>
</svg>
