<?xml version="1.0" encoding="utf-8"?>
<!-- Generator: Adobe Illustrator 25.0.1, SVG Export Plug-In . SVG Version: 6.00 Build 0)  -->
<svg version="1.1" id="Capa_1" xmlns="http://www.w3.org/2000/svg" xmlns:xlink="http://www.w3.org/1999/xlink" x="0px" y="0px"
	 viewBox="0 0 512 512" style="enable-background:new 0 0 512 512;" xml:space="preserve">
<style type="text/css">
	.st0{fill:#FFFFFF;}
</style>
<g>
	<path class="st0" d="M489.3,58.5H378.2c-0.1,0-0.2,0-0.3,0c-4.1-3.8-8.4-7.4-13.1-10.6c-2.8-1.9-6.7-1.2-8.6,1.6
		c-1.9,2.8-1.2,6.7,1.6,8.6C385,77,401.3,108,401.3,141.2c0,55.7-45.3,100.9-100.9,100.9c-55.7,0-100.9-45.3-100.9-100.9
		c0-55.7,45.3-100.9,100.9-100.9c11,0,21.9,1.8,32.3,5.3c3.2,1.1,6.7-0.6,7.8-3.9c1.1-3.2-0.6-6.7-3.9-7.8
		c-11.6-3.9-23.8-5.9-36.2-5.9c-62.5,0-113.3,50.8-113.3,113.3s50.8,113.3,113.3,113.3s113.3-50.8,113.3-113.3
		c0-25.8-8.8-50.5-24.5-70.3h100.2c5.7,0,10.3,4.6,10.3,10.3v194.5h-48.9c-3.4,0-6.2,2.8-6.2,6.2c0,3.4,2.8,6.2,6.2,6.2h48.9v32.4
		c0,5.7-4.6,10.3-10.3,10.3H112.9c-5.7,0-10.3-4.6-10.3-10.3V288h317.1c3.4,0,6.2-2.8,6.2-6.2c0-3.4-2.8-6.2-6.2-6.2H102.6V81.2
		c0-5.7,4.6-10.3,10.3-10.3h73.7c3.4,0,6.2-2.8,6.2-6.2s-2.8-6.2-6.2-6.2h-73.7c-12.5,0-22.7,10.2-22.7,22.7v239.3
		c0,12.5,10.2,22.7,22.7,22.7h135.4v48.3h-18.7c-3.4,0-6.2,2.8-6.2,6.2c0,3.4,2.8,6.2,6.2,6.2h141.4c3.4,0,6.2-2.8,6.2-6.2
		c0-3.4-2.8-6.2-6.2-6.2h-18.7v-48.3h136.9c12.5,0,22.7-10.2,22.7-22.7V81.2C512,68.7,501.8,58.5,489.3,58.5z M340.1,391.4h-79.4
		v-48.3h79.4V391.4z"/>
	<path class="st0" d="M256.3,91.8c-1.3-7-7.4-12.1-14.5-12.1h-6.6c-3.4,0-6.2,2.8-6.2,6.2s2.8,6.2,6.2,6.2h6.6c1.2,0,2.2,0.8,2.4,2
		l18.3,96.8c0.6,2.9,3.1,5,6.1,5h4.2c-1.8,2-2.9,4.7-2.9,7.7c0,6.4,5.2,11.5,11.5,11.5s11.5-5.2,11.5-11.5c0-3-1.1-5.6-2.9-7.7h25.4
		c-1.8,2-2.9,4.7-2.9,7.7c0,6.4,5.2,11.5,11.5,11.5c6.4,0,11.5-5.2,11.5-11.5c0-3-1.1-5.6-2.9-7.7h5.6c3.4,0,6.2-2.8,6.2-6.2
		c0-3.4-2.8-6.2-6.2-6.2h-64.4l-2.5-13.4h69c3,0,5.5-2.1,6.1-5l11-57.8c0,0,0-0.1,0-0.1c0.4-2.2-0.2-4.4-1.6-6s-3.5-2.6-5.7-2.6
		h-92.3L256.3,91.8z M265.6,140.6h16.9l1.3,17.3h-14.9L265.6,140.6z M309.7,140.6l-1.3,17.3h-12.3l-1.3-17.3H309.7z M293.9,128.3
		l-1.3-17.3h19.2l-1.3,17.3H293.9z M320.8,157.9l1.3-17.3h16.3l-3.3,17.3H320.8z M340.7,128.3H323l1.3-17.3H344L340.7,128.3z
		 M280.2,111l1.3,17.3h-18.3L260,111H280.2z"/>
	<path class="st0" d="M130.5,231.5H167c3.4,0,6.2-2.8,6.2-6.2c0-3.4-2.8-6.2-6.2-6.2h-36.5c-3.4,0-6.2,2.8-6.2,6.2
		C124.3,228.8,127.1,231.5,130.5,231.5z"/>
	<path class="st0" d="M130.5,259.4h68.2c3.4,0,6.2-2.8,6.2-6.2c0-3.4-2.8-6.2-6.2-6.2h-68.2c-3.4,0-6.2,2.8-6.2,6.2
		C124.3,256.6,127.1,259.4,130.5,259.4z"/>
	<path class="st0" d="M456.7,94.2c-3.4,0-6.2,2.8-6.2,6.2v15.5h-15.5c-3.4,0-6.2,2.8-6.2,6.2s2.8,6.2,6.2,6.2h15.5v15.5
		c0,3.4,2.8,6.2,6.2,6.2s6.2-2.8,6.2-6.2v-15.5h15.5c3.4,0,6.2-2.8,6.2-6.2s-2.8-6.2-6.2-6.2h-15.5v-15.5
		C462.9,96.9,460.2,94.2,456.7,94.2z"/>
</g>
</svg>
