<?xml version="1.0" encoding="utf-8"?>
<!-- Generator: Adobe Illustrator 25.0.1, SVG Export Plug-In . SVG Version: 6.00 Build 0)  -->
<svg version="1.1" id="Layer_1" xmlns="http://www.w3.org/2000/svg" xmlns:xlink="http://www.w3.org/1999/xlink" x="0px" y="0px"
	 viewBox="0 0 512 512" style="enable-background:new 0 0 512 512;" xml:space="preserve">
<path d="M481.3,249.5c-1.8-4.2-6.6-6.2-10.8-4.4c0,0,0,0,0,0V81.7c0-4.6-3.7-8.3-8.3-8.3H99.3V48.7c0-4.6-3.7-8.3-8.3-8.3H74.5
	c-18.2,0-33,14.8-33,33v297c0,18.2,14.8,33,33,33H97l-13.9,5.9c-1.3,0.6-2.5,1.6-3.3,2.8l-0.1-0.1l-28.4,38.9
	c-2.7,3.7-1.9,8.8,1.8,11.5c1.1,0.8,2.4,1.3,3.7,1.5l47.6,6.7v-0.1c0.4,0.1,0.7,0.2,1.1,0.2c1.1,0,2.2-0.2,3.2-0.7l157.3-66.6h196.1
	c4.6,0,8.2-3.7,8.2-8.3v-78.4l25.7-10.9c4.2-1.8,6.2-6.6,4.4-10.8c0,0,0,0,0,0L481.3,249.5z M58,73.4c0-9.1,7.4-16.5,16.5-16.5h8.3
	v280.5h-8.3c-5.8,0-11.5,1.5-16.5,4.4V73.4z M74.5,386.9c-9.1,0-16.5-7.4-16.5-16.5c0-9.1,7.4-16.5,16.5-16.5H91
	c4.6,0,8.3-3.7,8.3-8.2V89.9H454v162.2l-32.4,13.7l-19.5,8.3L135.9,386.9L74.5,386.9L74.5,386.9z M429,316.4L416.2,286l15.2-6.4
	l12.9,30.4L429,316.4z M84.4,433.5l7.9,18.7l-19.6-2.8L84.4,433.5z M97.1,421.2L401,292.5l12.9,30.4L110,451.6L97.1,421.2z
	 M305,386.9l142.3-60.3l6.6-2.8v63.1H305z M459.4,303.6l-12.8-30.4l22.8-9.7l12.9,30.4L459.4,303.6z"/>
<path d="M249.3,161.7c-0.7-0.3-68.6-24.7-110.3,30c-22.9,30.1-17.2,72,2.3,90.9c5.9,5.3,13,9.3,20.6,11.5
	c-0.3,9.2-0.1,18.4,0.6,27.5l16.4-1.3c-0.6-7.7-0.8-15.4-0.6-23.1c1.8,0.1,3.7,0.2,5.5,0.2c2.2,0,4.3-0.1,6.5-0.3
	c15.3-0.8,29.5-8.2,38.8-20.3c13.7-19.2,13.9-39.5,14.1-57.4c0.2-16.2,0.3-31.5,9.9-45.1c2.6-3.7,1.7-8.9-2-11.5
	C250.5,162.3,249.9,162,249.3,161.7L249.3,161.7z M226.7,219.2c-0.2,17-0.4,33-11.1,48c-6.6,8.1-16.4,13-26.8,13.5
	c-3.2,0.3-6.4,0.3-9.6,0c2.2-24.8,8.5-49.1,18.5-72l-15.1-6.6c-10.4,23.8-17.1,49.1-19.6,74.9c-3.8-1.4-7.3-3.6-10.3-6.3
	c-12.8-12.4-19.2-44.6-0.6-69c14.3-19.1,37-30.1,60.8-29.4c7.1,0,14.1,0.8,21.1,2.3C228.3,188.7,225.8,204,226.7,219.2z"/>
<path d="M289,114.7h16.5v16.5H289V114.7z"/>
<path d="M322,114.7h107.2v16.5H322V114.7z"/>
<path d="M272.5,147.7h156.7v16.5H272.5V147.7z"/>
<path d="M272.5,180.6h156.7v16.5H272.5V180.6z"/>
<path d="M272.5,213.6h123.7v16.5H272.5V213.6z"/>
<path d="M8.5,172.4H25v198H8.5V172.4z"/>
<path d="M8.5,139.4H25v16.5H8.5V139.4z"/>
<path d="M470.5,40.4h-57.7v16.5h57.7c9.1,0,16.5,7.4,16.5,16.5v132h16.5v-132C503.5,55.2,488.7,40.4,470.5,40.4z"/>
<path d="M487,221.9h16.5v16.5H487V221.9z"/>
</svg>
