<?xml version="1.0" encoding="utf-8"?>
<!-- Generator: Adobe Illustrator 24.2.0, SVG Export Plug-In . SVG Version: 6.00 Build 0)  -->
<svg version="1.1" id="Layer_1" xmlns="http://www.w3.org/2000/svg" xmlns:xlink="http://www.w3.org/1999/xlink" x="0px" y="0px"
	 viewBox="0 0 110.1 110.1" style="enable-background:new 0 0 110.1 110.1;" xml:space="preserve">
<g>
	<path d="M94.6,56.1c-1.3,0-2.3,0-2.9-0.1c-0.7,0-1.2-0.5-1.5-0.8c-0.1-0.1-0.2-0.2-0.3-0.3l-1.1-0.8l1-0.9c0.1-0.1,0.2-0.2,0.3-0.3
		c0.4-0.4,0.8-0.9,1.6-0.9c0.9,0,1.8-0.1,2.9-0.1c0.5,0,1.1,0,1.6,0c0.2,0,0.4,0,0.6,0V41.9c-0.2,0-0.4,0-0.7,0c-0.6,0-1.1,0-1.7,0
		c-0.9,0-1.6,0-2.2,0c-0.1,0-0.2,0-0.2,0c-1.8,0-2.5-1.1-2.9-2.3c-1.3-3.5-2.8-7-4.4-10.6c-0.5-1.1-0.9-2.4,0.5-3.7
		c1-0.9,2-1.9,3-2.8c0.1-0.1,0.3-0.2,0.4-0.4l-7.4-7.4c-0.1,0.1-0.2,0.2-0.3,0.4c-0.9,1-1.8,2-2.7,3c-0.6,0.7-1.3,1-2,1
		c-0.6,0-1.2-0.2-1.7-0.5c-3.4-1.5-7-3-10.8-4.5c-1.1-0.4-2.2-1.1-2.1-2.9c0-1.3,0-2.7,0-4.1c0-0.2,0-0.5,0-0.7H51.5
		c0,0.2,0,0.4,0,0.7c0,1.3,0,2.7,0,4c0.1,2.1-1.2,2.7-2.3,3.1c-3.3,1.2-6.7,2.7-10.6,4.4c-0.5,0.2-1.1,0.4-1.7,0.4
		c-0.8,0-1.4-0.3-2.1-1c-0.9-1-1.8-2-2.7-2.9c-0.1-0.1-0.3-0.3-0.4-0.4l-7.3,7.3c0.1,0.1,0.2,0.2,0.4,0.3c1,0.9,2,1.9,3,2.9
		c1.4,1.2,1.1,2.5,0.6,3.6c-1.5,3.4-3,7-4.5,10.9c-0.3,0.7-0.8,2-2.6,2l-0.1,0c-0.7,0-1.5,0-2.4,0c-0.6,0-1.1,0-1.7,0
		c-0.3,0-0.5,0-0.8,0v10.1l6.8,0V53c0,0.7,0,1.8,0,1.9l0,1.1H22c-0.7,0-1.3,0-2,0c-0.7,0-1.3,0-2,0c-1.1,0-1.9,0-2.7,0
		c-0.1,0-0.1,0-0.1,0c-1.7,0-2.8-0.9-3-2.6c0-0.2,0-0.3-0.1-0.5C12,52.6,12,52.3,12,51.9c0-1.5,0-3.1,0-4.6c0-2.2,0-4.4,0-6.6
		c0-0.9,0.2-1.6,0.7-2.1c0.4-0.5,1.1-0.7,1.9-0.7c0.1,0,0.1,0,0.2,0c0.4,0,0.8,0,1.4,0c0.4,0,0.8,0,1.1,0c0.4,0,0.8,0,1.2,0
		c0.4,0,0.9,0,1.3,0l0.1,0c0.3,0,0.3,0,0.5-0.5c0.7-1.7,1.4-3.4,2.1-5.1c0.6-1.4,1.2-2.9,1.8-4.3c0-0.1,0-0.4,0-0.5
		c-1.1-1.3-2.4-2.5-3.5-3.6c-0.4-0.4-1-1.1-1-2c0-0.7,0.3-1.3,1-2c2.7-2.7,5.6-5.6,9.1-9.1c0.6-0.6,1.2-0.9,1.9-0.9
		c0.7,0,1.3,0.3,1.9,1c1,1.1,2,2.2,3,3.1c0.2,0.2,0.3,0.4,0.5,0.5c0.7-0.3,1.4-0.5,2.1-0.8c2.8-1.1,5.5-2.1,8.2-3.2
		c0.1-0.1,0.3-0.4,0.3-0.5c0.1-1.6,0.1-3.3,0-4.9c0-0.6,0-1.5,0.7-2.1c0.5-0.5,1.1-0.7,2-0.7l0.1,0c2,0,4.1,0,6.2,0
		c2.1,0,4.2,0,6.4,0l0,0c0.9,0,1.6,0.2,2.1,0.7c0.7,0.7,0.7,1.6,0.7,2.2c0,0.6-0.1,1.1-0.1,1.7c-0.1,1.3-0.2,2.7,0.2,3.4
		c0.3,0.5,1.5,0.8,2.5,1c0.7,0.2,1.5,0.4,2.2,0.7c1.4,0.6,2.8,1.3,4.3,2c0.5,0.2,0.9,0.4,1.4,0.7c0.2-0.2,0.4-0.4,0.6-0.7
		c1-1,2-2.1,2.9-3.2c0.6-0.7,1.3-1,2-1c0.7,0,1.3,0.3,2,1c3.1,3.2,6,6.1,9,9c0.4,0.4,1,1.1,1,2c0,0.7-0.3,1.3-1,1.9
		c-0.4,0.4-0.9,0.8-1.4,1.2c-1,0.8-2.2,1.8-2.3,2.6c-0.1,0.7,0.5,1.7,1.1,2.8c0.4,0.7,0.8,1.3,1.1,2c0.7,1.7,1.2,3.3,1.6,4.7
		c0.2,0.8,0.3,0.8,0.7,0.8c0.1,0,0.1,0,0.2,0c0.5,0,1.1-0.1,1.8-0.1c0.4,0,0.8,0,1.3,0c0.4,0,0.8,0,1.2,0c0.2,0,0.4,0,0.6,0l0.1,0
		c0.8,0,1.4,0.2,1.9,0.7c0.4,0.4,0.7,1.1,0.7,1.9c0,3.4-0.3,9.9-0.4,12c0,0.4,0,0.6,0,0.6c0,2.5-1.7,2.9-2.7,3
		C97.2,56,95.9,56.1,94.6,56.1z"/>
	<path d="M31.7,13.3c-3,3-5.8,5.8-8.8,8.9c1.3,1.2,2.7,2.6,4.2,4c0.8,0.7,0.8,1.3,0.3,2.3c-1.6,3.6-3.1,7.3-4.6,11
		c-0.4,0.9-0.7,1.4-1.7,1.4c-2-0.1-3.9,0-6,0c0,4.1,0,8,0,12.2c0.7,0,1.4,0,2.1,0c1.1,0,3.6,0,4.8,0c0,0.7,0,1.8,0,2
		c-2.2,0-4.5,0-6.7,0c-1.2,0-1.9-0.5-2-1.7c-0.1-0.5-0.2-0.9-0.2-1.4c0-3.8,0-7.5,0-11.3c0-1.2,0.4-1.7,1.7-1.7c1.7,0.1,3.3,0,5,0
		c0.9,0,1.3-0.3,1.6-1.2c1.2-3.2,2.6-6.2,3.8-9.4c0.2-0.5,0.1-1.3-0.2-1.6c-1.1-1.3-2.4-2.5-3.6-3.7c-0.9-0.8-1-1.5,0-2.4
		c3.1-3,6.1-6,9.1-9.1c0.8-0.8,1.5-0.8,2.2,0c1.4,1.5,2.8,3,4,4.2c4-1.5,7.5-2.9,11-4.3c0.4-0.2,0.9-0.9,0.9-1.4
		c0.1-1.7,0.1-3.3,0-5c0-1.2,0.3-1.8,1.6-1.7c4.2,0,8.5,0,12.7,0c1.3,0,1.8,0.6,1.7,1.8c0,2-0.6,4.4,0.3,5.7
		c0.8,1.3,3.4,1.3,5.1,2.1c2,0.9,4,1.9,6.3,3c1.3-1.4,2.7-2.9,4.1-4.4c0.8-0.9,1.5-0.9,2.4,0c3,3,5.9,6,9,9c0.9,0.9,0.9,1.5,0,2.4
		c-1.5,1.4-3.7,2.7-4,4.4c-0.3,1.6,1.5,3.6,2.3,5.4c0.6,1.5,1.2,3,1.6,4.6c0.3,1.2,0.8,1.7,2,1.6c1.6-0.1,3.2,0,4.8,0
		c1,0,1.5,0.4,1.5,1.5c0,4-0.4,12.5-0.4,12.6c0,1.4-0.6,1.9-1.7,1.9c-1.5,0-4.7,0.1-6.2,0c-0.4,0-0.8-0.6-1.2-0.9
		c0.4-0.3,0.8-0.9,1.2-1c2-0.1,4,0,6.2,0c0-4.1,0-8,0-12.2c-1.9,0-3.8-0.1-5.7,0c-1.2,0.1-1.7-0.4-2.1-1.6
		c-1.3-3.6-2.8-7.2-4.4-10.7c-0.5-1-0.6-1.7,0.3-2.5c1.5-1.3,2.8-2.7,4.2-3.9c-3-3-5.8-5.8-8.9-8.9c-1.2,1.3-2.5,2.7-3.8,4.2
		c-0.8,0.9-1.4,0.8-2.5,0.3c-3.6-1.6-7.2-3.1-10.8-4.5c-1-0.4-1.5-0.8-1.4-1.9c0.1-1.9,0-3.9,0-6c-4.1,0-8,0-12.2,0
		c0,1.9-0.1,3.9,0,5.8c0.1,1.2-0.5,1.6-1.6,2.1c-3.6,1.3-7.2,2.8-10.7,4.5c-1.1,0.5-1.7,0.5-2.5-0.3C34.4,16,33.1,14.7,31.7,13.3z"
		/>
	<path d="M77.5,102.4c-0.1,0-0.2,0-0.3,0c-3.8-0.1-6.8-2.7-7.5-6.5c-0.7-3.7,1.1-7.1,4.5-8.6c0.4-0.2,0.8-0.3,1.3-0.5
		c0-0.2,0-0.4,0-0.6c0-1,0.1-1.9-0.1-2.9c-0.1-0.5-0.4-1.2-0.7-1.5c-1.5-1.2-3-2.3-4.5-3.4c-1.6-1.2-3.3-2.4-4.8-3.7
		c-0.9-0.7-1.6-2-1.6-3.1c-0.1-2.8-0.1-5.6-0.1-8.3c0-0.9,0-1.9,0-2.8c0-0.1,0-0.2,0-0.2c0-0.4-0.1-0.9,0.2-1.4
		c0.3-0.5,0.6-0.8,0.9-1.2c0.1-0.1,0.2-0.2,0.3-0.4l1.1-1.4l0.7,1.6c0,0.1,0.1,0.2,0.2,0.4c0.2,0.4,0.5,0.9,0.5,1.5
		c0,1.6,0,3.3,0,4.9c0,2.1,0,4.3,0.1,6.5c0,0.3,0.3,0.8,0.6,1c3.1,2.4,6.3,4.8,9.4,7c1.4,1,1.9,2.1,1.7,3.7c0,0.2,0,0.5,0,0.7
		c0,0.3,0,0.7,0,1.1c-0.2,1.7,0,2.5,1.8,3.1c3.3,1.3,5,5.2,3.9,9C84.1,100.1,81,102.4,77.5,102.4z M77.4,90.5
		c-2.1,0-3.9,1.8-3.9,3.9c0,1.1,0.4,2,1.1,2.8c0.7,0.7,1.7,1.2,2.8,1.2c2.2,0,3.9-1.8,4-3.9C81.4,92.4,79.6,90.6,77.4,90.5
		L77.4,90.5z"/>
	<path d="M76.5,87.5c0-1.5,0.1-2.9-0.1-4.3c-0.1-0.8-0.5-1.7-1.1-2.2c-3.1-2.4-6.3-4.7-9.4-7.1c-0.6-0.5-1.2-1.5-1.2-2.3
		c-0.1-3.7-0.1-7.4-0.1-11.1c0-0.4-0.1-0.8,0.1-1.1c0.3-0.5,0.7-0.9,1.1-1.4c0.2,0.5,0.6,1,0.6,1.5c0.1,3.8,0,7.6,0.1,11.4
		c0,0.6,0.5,1.5,1,1.9c3.1,2.4,6.3,4.8,9.4,7c1,0.7,1.4,1.5,1.3,2.7c-0.1,0.6,0,1.2,0,1.8c-0.3,2,0.1,3.4,2.4,4.3
		c2.9,1.1,4.1,4.7,3.3,7.7c-0.9,3.1-3.6,5.1-6.8,5c-3.3-0.1-5.9-2.4-6.5-5.6c-0.6-3.1,1-6.2,3.9-7.5C75.2,88,75.8,87.8,76.5,87.5z
		 M82.4,94.5c0-2.7-2.3-5-5-5c-2.7,0-5,2.3-5,5c0,2.8,2.2,5,5,5C80.2,99.5,82.4,97.2,82.4,94.5z"/>
	<path d="M14.3,88.9c-2.6,0-5.1-1.3-6.6-3.5c-2.1-3.1-1.6-7.4,1-10.1c1.5-1.5,3.4-2.3,5.4-2.3c1.8,0,3.5,0.6,5.1,1.7
		c0.1,0.1,0.1,0.1,0.2,0.2c0.8-0.5,1.6-1.1,2.3-1.6c3.4-2.3,6.5-4.5,9.8-6.8c0.2-0.1,0.4-0.6,0.4-0.9c0.1-1,0-2.1,0-3.1
		c0-1,0-2.1,0-3.2c0-0.7,0.5-1.2,0.8-1.6c0.1-0.1,0.2-0.2,0.3-0.3l0.9-1.3l0.9,1.3c0.1,0.1,0.1,0.2,0.2,0.3c0.3,0.4,0.7,0.9,0.7,1.6
		c0.1,2.2,0.1,4.9,0,7.6c-0.1,1-0.9,2-1.6,2.6c-4.3,3-8.5,5.9-12.1,8.3c-0.5,0.4-0.5,0.4-0.4,0.8c1.1,4.1-0.7,7.9-4.5,9.5
		C16.4,88.7,15.4,88.9,14.3,88.9z M14.3,77.1c-1.1,0-2,0.4-2.8,1.2C10.8,79,10.4,80,10.4,81c0,2.1,1.8,3.9,3.9,3.9
		c2.2,0,3.9-1.8,3.9-3.9C18.3,78.8,16.5,77.1,14.3,77.1l0-1.1L14.3,77.1z"/>
	<path d="M19.5,76.3c4.3-3,8.6-5.9,12.7-8.8c0.5-0.3,0.9-1.1,0.9-1.7c0.1-2.1,0-4.2,0.1-6.2c0-0.5,0.6-0.9,0.9-1.4
		c0.3,0.4,0.8,0.9,0.8,1.3c0.1,2.5,0.1,5,0,7.5c0,0.6-0.6,1.4-1.2,1.8c-4,2.8-8,5.6-12,8.3c-0.8,0.5-1.1,1-0.8,2
		c1,3.6-0.6,6.9-3.9,8.3c-3,1.3-6.5,0.2-8.4-2.5c-1.8-2.7-1.4-6.4,0.9-8.7c2.5-2.5,6.1-2.6,9.1-0.4C18.9,75.9,19.1,76,19.5,76.3z
		 M14.4,86c2.8,0,5-2.2,5-5c0-2.7-2.2-5-5-5c-2.8,0-5,2.2-5,5C9.3,83.7,11.6,86,14.4,86z"/>
	<path d="M95.7,91.9c-3.4,0-6.4-2.2-7.5-5.4c-0.6-2-0.5-3.9,0.7-6.5l-1.3-1c-3-2.3-6.1-4.5-9.1-6.8c-0.8-0.6-1.2-1.7-1.5-2.6l0-0.1
		v0c0,0,0-0.1,0-0.1l0,0c-0.3-1.1-0.2-3.5-0.2-3.6c0-0.1,0-0.1,0-0.1l0,0c0-1,0-2,0-2.9c0-1,0-2.1,0-3.1c0-0.7,0.5-1.2,0.8-1.6
		c0.1-0.1,0.2-0.2,0.3-0.3l0.9-1.3l0.9,1.3c0.1,0.1,0.1,0.2,0.2,0.3c0.3,0.4,0.7,0.9,0.7,1.6c0.1,2.5,0.1,4.6,0,6.5
		c0,0.2,0,0.4,0,0.6l0,0.1c0,0.1,0,0.2,0,0.3c0,0.2,0,0.3-0.1,0.5c0,0.1,0,0.2,0,0.3l0,0.1c0.2,1.1,1.3,1.9,2.6,2.8l0.3,0.2
		c2.3,1.6,4.8,3.4,7.2,5.4c0.6,0.5,0.9,0.6,1.2,0.6c0.2,0,0.5-0.1,0.9-0.2c1-0.4,2-0.6,3-0.6c3.2,0,6.2,2.1,7.3,5.2
		c0.7,2,0.7,4.2-0.2,6.1c-0.9,1.9-2.5,3.4-4.6,4.1C97.5,91.7,96.6,91.9,95.7,91.9C95.7,91.9,95.7,91.9,95.7,91.9z M95.7,80
		c-2.2,0-3.9,1.8-3.9,3.9c0,2.1,1.8,3.9,3.9,3.9c1,0,2-0.4,2.8-1.2c0.8-0.8,1.2-1.8,1.2-2.8C99.7,81.8,97.9,80,95.7,80l0-1.1
		L95.7,80z"/>
	<path d="M102.2,81.6c-1.3-3.6-5.4-5.5-8.9-3.9c-1.3,0.6-2.1,0.3-3.1-0.5c-2.3-1.8-4.7-3.6-7.2-5.3c-1.5-1.1-3.1-2-3.4-3.8
		c0,0,0,0,0,0c0-0.2-0.1-0.5,0-0.7c0.1-0.1,0.1-0.3,0.1-0.4c0-0.2,0-0.4,0-0.6c0,0,0-0.1,0-0.1c0-0.1,0-0.2,0-0.3
		c0.1-2.2,0.1-4.4,0-6.5c0-0.5-0.5-0.9-0.8-1.3c-0.3,0.5-0.9,0.9-0.9,1.4c-0.1,2,0,4-0.1,6.1c0,0.1,0,0.1,0,0.2
		c0,0.5,0.1,3.3,0.2,3.2c0,0.1,0,0.2,0.1,0.3c0,0,0,0,0,0c0.3,0.9,0.7,1.7,1.1,2c3.7,2.7,7.3,5.5,11.1,8.2c-1.4,2.9-1.6,4.7-1,6.5
		c1.2,3.6,5.1,5.6,8.8,4.3C101.6,89.1,103.5,85.1,102.2,81.6z M95.8,89c-2.7,0-5-2.3-5-5c0-2.7,2.2-5,5-5c2.7,0,5,2.3,5,5
		C100.8,86.6,98.5,89,95.8,89z"/>
	<path d="M55.7,107.7c-3.7,0-6.9-2.5-7.7-6c-0.8-3.8,1-7.5,4.4-9.1c0.4-0.2,0.8-0.3,1.3-0.5V61.8c0-0.1,0-0.2,0-0.4
		c0-0.4-0.1-0.9,0.1-1.4c0.2-0.5,0.5-1,0.8-1.4c0.1-0.1,0.2-0.3,0.3-0.4l1-1.6l0.9,1.6c0.1,0.1,0.2,0.3,0.2,0.4
		c0.3,0.4,0.6,1,0.6,1.6c0.1,5.3,0.1,25.1,0,30.2c0,1.4,0.1,1.7,1.2,2.1c3.4,1.2,5.4,5.1,4.6,8.8C62.6,105.2,59.4,107.7,55.7,107.7
		L55.7,107.7z M55.6,95.9c-2.2,0-3.9,1.8-3.9,4c0,2.1,1.8,3.9,3.9,3.9l0,0c1,0,2-0.5,2.8-1.2c0.7-0.8,1.1-1.7,1.1-2.7
		C59.6,97.7,57.7,95.9,55.6,95.9L55.6,95.9z"/>
	<path d="M54.7,92.9c0-5.5,0-25.6,0-31.1c0-0.5-0.1-1,0-1.4c0.2-0.6,0.6-1.1,1-1.6c0.3,0.5,0.8,1,0.8,1.6c0.1,5.2,0.1,25,0,30.2
		c0,1.6,0.2,2.5,1.9,3.1c3,1.1,4.6,4.5,3.9,7.6c-0.7,3.2-3.4,5.4-6.7,5.4c-3.2,0-6-2.2-6.6-5.2c-0.7-3.3,0.8-6.5,3.8-7.9
		C53.4,93.4,54,93.2,54.7,92.9z M55.7,104.8c2.7,0,5-2.4,4.9-5.1c-0.1-2.7-2.4-5-5.1-4.9c-2.7,0.1-5,2.4-4.9,5.1
		C50.7,102.7,53,104.9,55.7,104.8z"/>
	<path d="M64.6,51.7V29.9l0.9-0.1c1.6-0.3,3.3-0.4,5.1-0.4c2.8,0,4.9,0.7,6.3,1.9c1.4,1.2,2.1,2.9,2.1,5c0,2.1-0.6,3.8-1.8,5
		c-1.5,1.6-4,2.5-6.9,2.5c-0.3,0-0.7,0-1,0v7.9H64.6z M69.3,39.6c0.3,0,0.7,0,1.1,0c1.8,0,4-0.6,4-3.2c0-1.9-1.2-2.9-3.7-2.9
		c-0.5,0-1,0-1.4,0.1V39.6z M59.4,51.7l-0.3-0.5c-0.4-0.6-0.8-2-1.5-5.1c-0.5-2.5-1.4-3-3-3.1h-1.3v8.7h-4.7V30l0.9-0.2
		c1.3-0.3,3.3-0.4,5.2-0.4c3,0,5.1,0.6,6.5,1.9c1.2,1.1,1.9,2.7,1.9,4.6c0,2.2-1,4.1-2.8,5.3c0.9,0.9,1.5,2.1,1.9,3.7
		c0.5,2,1.1,4.5,1.4,5.2l0.9,1.6H59.4z M54.9,38.9c2.2,0,3.4-1,3.4-2.7c0-0.7,0-2.6-3.5-2.7c-0.6,0-1.1,0-1.5,0.1v5.3H54.9z
		 M34,51.7V29.5h13v4.3h-8.2V38h7.8v4.3h-7.8v5.1h8.7v4.3H34z"/>
	<path d="M45.4,41.3h-7.8v7.2h8.7v2.2H35v-20h10.8v2.2h-8.2v6.3h7.8V41.3z M49.7,30.9c1.3-0.3,3.2-0.4,5-0.4c2.8,0,4.5,0.5,5.8,1.6
		c1,0.9,1.6,2.3,1.6,3.8c0,2.6-1.7,4.4-3.8,5.1v0.1c1.5,0.5,2.5,2,2.9,4c0.7,2.8,1.1,4.7,1.5,5.5H60c-0.3-0.6-0.8-2.3-1.3-4.8
		c-0.6-2.8-1.7-3.8-4-3.9h-2.4v8.7h-2.6V30.9z M52.2,40h2.6c2.8,0,4.5-1.5,4.5-3.8c0-2.6-1.9-3.7-4.6-3.7c-1.2,0-2.1,0.1-2.6,0.2V40
		z M65.6,30.9c1.2-0.2,2.9-0.4,5-0.4c2.6,0,4.4,0.6,5.6,1.7c1.1,1,1.8,2.4,1.8,4.2c0,1.8-0.5,3.2-1.5,4.3c-1.4,1.5-3.6,2.2-6.1,2.2
		c-0.8,0-1.5,0-2.1-0.2v8h-2.6V30.9z M68.2,40.5c0.6,0.1,1.3,0.2,2.1,0.2c3.1,0,5-1.5,5-4.3c0-2.6-1.9-3.9-4.7-3.9
		c-1.1,0-2,0.1-2.4,0.2V40.5z"/>
	<path d="M32.6,102.4c-3.6,0-6.7-2.4-7.6-5.9c-1-3.9,1.1-8,4.8-9.2c1.1-0.4,1.1-0.7,1-1.3c-0.7-3.9,0.7-6.7,4.4-8.7
		c2.1-1.1,4.1-2.6,6-4.1c0.5-0.3,0.9-0.7,1.4-1c0.2-0.1,0.4-0.5,0.5-0.8c0-0.1,0.1-0.1,0.1-0.2c-0.1-2.6-0.1-5.2-0.1-7.7
		c0-0.9,0-1.9,0-2.8c0-0.1,0-0.2,0-0.2c0-0.4-0.1-0.9,0.2-1.4c0.3-0.5,0.6-0.8,0.9-1.2c0.1-0.1,0.2-0.2,0.3-0.4l1.1-1.3l0.7,1.6
		c0.1,0.1,0.1,0.2,0.2,0.4c0.2,0.4,0.5,0.9,0.5,1.5c0,1.6,0,3.3,0,4.9c0,2,0,4,0,6c0.1,0.1,0.1,0.3,0.1,0.4c0.1,0.3,0.1,0.6,0.1,0.9
		c0,1.1-0.5,2.1-1.4,2.8c-0.2,0.1-0.3,0.2-0.5,0.3c-1.7,1.1-3.5,2.3-5.1,3.5c-1.5,1.1-3.1,2.2-4.7,3.2c-1,0.6-1.1,1.1-1,1.9
		c0.1,0.6,0.1,1.2,0,1.7c-0.2,1.1,0,1.6,1.3,2.1c2.8,1.1,4.5,3.6,4.6,6.8l0,0c0,4.2-2.8,7.5-6.8,8C33.3,102.3,33,102.4,32.6,102.4
		C32.6,102.4,32.6,102.4,32.6,102.4z M32.6,90.5c-1,0-2,0.4-2.8,1.2c-0.8,0.8-1.2,1.8-1.2,2.8c0,2.1,1.8,3.9,4,3.9
		c1.1,0,2-0.4,2.8-1.2c0.7-0.7,1.1-1.7,1.1-2.8C36.5,92.3,34.7,90.5,32.6,90.5l0-1.1L32.6,90.5z"/>
	<path d="M46,71c0-0.1,0-0.2,0-0.3c-0.1-3.7,0-7.4-0.1-11.2c0-0.5-0.4-1-0.6-1.5c-0.4,0.5-0.8,0.9-1.1,1.4c-0.2,0.3-0.1,0.7-0.1,1.1
		c0,3.6-0.1,7.2,0.1,10.8c0,0.1,0,0.2,0,0.3c0,0.7,0.5,1.6,1,2.2c0.7-0.6,1-1.2,1-2C46.1,71.5,46,71.2,46,71z M46.1,71
		c0-0.1-0.1-0.2-0.1-0.3c-0.2-0.3-0.5-0.5-0.7-0.8c-0.3,0.4-0.6,0.7-0.9,1.1c-0.1,0.1-0.1,0.2-0.2,0.3c-0.3,0.6-0.6,1.3-1.1,1.6
		c-2.4,1.8-4.8,3.7-7.5,5.2c-3.2,1.7-4.5,4-3.9,7.6c0.3,1.4-0.2,2-1.7,2.5c-3.2,1.1-4.9,4.7-4.1,8c0.9,3.4,4,5.5,7.6,5.1
		c3.4-0.4,5.9-3.3,5.9-7c-0.1-2.6-1.3-4.9-3.9-5.9c-1.8-0.7-2.3-1.6-2-3.3c0.1-0.5,0.1-1,0-1.4c-0.2-1.3,0.3-2.2,1.5-2.9
		c3.3-2.2,6.5-4.6,9.9-6.7c0.1-0.1,0.3-0.2,0.4-0.3c0.7-0.6,1-1.2,1-2C46.2,71.5,46.2,71.3,46.1,71z M37.6,94.4c0,2.8-2.2,5-5,5
		c-2.7,0-5-2.2-5.1-5c0-2.7,2.3-5,5-5.1C35.3,89.4,37.6,91.7,37.6,94.4z"/>
</g>
</svg>
