<svg xmlns="http://www.w3.org/2000/svg" width="64.8" height="52.844" viewBox="0 0 64.8 52.844">
  <g id="established" transform="translate(0 -0.128)">
    <g id="CN-AboutUs_300620" transform="translate(-406 -2579)">
      <g id="Block-3-Copy" transform="translate(0 2357)">
        <g id="Text" transform="translate(366 73)">
          <g id="Group-30">
            <g id="Group-37" transform="translate(0 113)">
              <g id="Group-26-Copy-3">
                <g id="Group-50" transform="translate(40 36)">
                  <g id="opening-ceremony">
                    <g id="Group">
                      <path id="Shape" d="M50.737,44.088A3.213,3.213,0,0,0,53.348,45.4a3.5,3.5,0,0,0,1.407-.3,3.21,3.21,0,0,0,1.9-3.575,6.327,6.327,0,0,0-8.416-4.757,1.881,1.881,0,0,0-1.163,1.248,1.844,1.844,0,0,0,.305,1.644Zm-2.512-5.732a.692.692,0,0,1,.428-.458,5.155,5.155,0,0,1,5.863,1.7,5.065,5.065,0,0,1,.956,2.149,2.012,2.012,0,0,1-1.2,2.257,2.09,2.09,0,0,1-2.576-.647h0L48.333,38.94a.653.653,0,0,1-.108-.584Z" fill="#fff"/>
                      <path id="Shape-2" data-name="Shape" d="M57.235,15.674l7.3-5.022a.6.6,0,0,0,.26-.494v-.144a.6.6,0,0,0-.6-.6H47.492c1.984-5.359.6-8.742.527-8.921A.6.6,0,0,0,47,.357L40.121,9.1a21.5,21.5,0,0,1-6.287-1.97A24.23,24.23,0,0,0,23.009,4.564h-2.54L17.161.358a.6.6,0,0,0-1.024.136,9.772,9.772,0,0,0-.513,4.07H.6a.6.6,0,0,0-.6.6v.275a.6.6,0,0,0,.26.494l7.246,4.982a.315.315,0,0,1,0,.52L.265,16.3a.6.6,0,0,0-.265.5v.091a.6.6,0,0,0,.6.6h9.9a.6.6,0,0,0,0-1.2H2.433l5.738-3.856a1.514,1.514,0,0,0,.014-2.505L2.132,5.762H23.008A23.032,23.032,0,0,1,33.295,8.2a22.5,22.5,0,0,0,5.988,1.963l-6.46,8.215A24.22,24.22,0,0,0,22.8,16.286H19.7a.6.6,0,0,0,0,1.2h2.041l5.966,7.4L24.551,28.9l-.1-.084a.6.6,0,0,0-.86.087l-3.829,4.87A10.846,10.846,0,0,0,5.255,36.013,10.56,10.56,0,0,0,3.1,43.957a11.235,11.235,0,0,0,4.31,7.5,7.4,7.4,0,0,0,4.5,1.52,7.56,7.56,0,0,0,1.025-.07,7.406,7.406,0,0,0,4.93-2.879L29.9,34.172a.6.6,0,0,0-.09-.82l-.113-.1L32.078,30.3l2.384,2.956-.113.1a.6.6,0,0,0-.09.82L46.3,50.024a7.466,7.466,0,0,0,10.45,1.427,11.237,11.237,0,0,0,4.311-7.5,10.559,10.559,0,0,0-2.16-7.943,10.845,10.845,0,0,0-14.508-2.246L40.564,28.9a.6.6,0,0,0-.86-.087l-.1.084-3.157-4.014,2.468-3.061a24.089,24.089,0,0,0,4.9.516H64.2a.6.6,0,0,0,.6-.6V21.6a.6.6,0,0,0-.265-.5l-7.3-4.9a.315.315,0,0,1,0-.521ZM16.964,2.049l1.977,2.513H16.849A11.234,11.234,0,0,1,16.964,2.049ZM16.9,49.3a6.259,6.259,0,0,1-8.769,1.2,10.032,10.032,0,0,1-3.846-6.691A9.367,9.367,0,0,1,6.2,36.757a9.634,9.634,0,0,1,13.321-1.69.6.6,0,0,0,.835-.107l3.8-4.832L28.6,33.9ZM43.8,34.961a.6.6,0,0,0,.835.107,9.634,9.634,0,0,1,13.321,1.69,9.366,9.366,0,0,1,1.911,7.048A10.03,10.03,0,0,1,56.024,50.5a6.266,6.266,0,0,1-8.768-1.2l-11.7-15.4,4.447-3.77ZM23.291,17.5a23.713,23.713,0,0,1,6.661,1.065L31.315,20.3l-2.847,3.62Zm23.9-15.45c.328,1.891.429,6.115-3.257,11.64L28.779,32.479l-3.312-2.808Zm-8.5,27.623-3.312,2.808-2.528-3.134,2.827-3.505Zm17.88-12.48,5.873,3.946H43.813a22.656,22.656,0,0,1-4.04-.378L44.9,14.4A25.209,25.209,0,0,0,47,10.614H62.478l-5.923,4.072a1.515,1.515,0,0,0,.013,2.506Z" fill="#fff"/>
                      <path id="Path" d="M16.939,17.486a.6.6,0,1,0,0-1.2H13.6a.6.6,0,1,0,0,1.2Z" fill="#fff"/>
                      <path id="Path-2" data-name="Path" d="M30.314,28.5a1.2,1.2,0,1,0-1.2,1.2A1.2,1.2,0,0,0,30.314,28.5Z" fill="#fff"/>
                      <path id="Shape-3" data-name="Shape" d="M15.92,36.773A6.327,6.327,0,0,0,7.5,41.53a3.21,3.21,0,0,0,1.9,3.575,3.5,3.5,0,0,0,1.407.3,3.214,3.214,0,0,0,2.611-1.314l3.359-4.423a1.844,1.844,0,0,0,.305-1.644,1.886,1.886,0,0,0-1.163-1.249Zm-.1,2.167-3.359,4.422a2.09,2.09,0,0,1-2.576.647,2.012,2.012,0,0,1-1.2-2.257A5.065,5.065,0,0,1,9.639,39.6,5.156,5.156,0,0,1,15.5,37.9a.69.69,0,0,1,.428.458.648.648,0,0,1-.108.584Z" fill="#fff"/>
                    </g>
                  </g>
                </g>
              </g>
            </g>
          </g>
        </g>
      </g>
    </g>
  </g>
</svg>
