<?xml version="1.0" encoding="utf-8"?>
<!-- Generator: Adobe Illustrator 25.0.1, SVG Export Plug-In . SVG Version: 6.00 Build 0)  -->
<svg version="1.1" id="Outline" xmlns="http://www.w3.org/2000/svg" xmlns:xlink="http://www.w3.org/1999/xlink" x="0px" y="0px"
	 viewBox="0 0 512 512" style="enable-background:new 0 0 512 512;" xml:space="preserve">
<g>
	<path d="M240.5,70.2h54.2v61.9c0,4.3,3.5,7.7,7.7,7.7h61.9c4.3,0,7.7-3.5,7.7-7.7V70.2h54.2v77.4h15.5V62.5c0-4.3-3.5-7.7-7.7-7.7
		H31.5c-4.3,0-7.7,3.5-7.7,7.7V465c0,4.3,3.5,7.7,7.7,7.7h240v-15.5h-31V271.5h31V256h-31V70.2z M356.6,124.4h-46.4V70.2h46.4V124.4
		z M108.9,70.2h46.4v54.2h-46.4V70.2z M93.4,70.2v61.9c0,4.3,3.5,7.7,7.7,7.7h61.9c4.3,0,7.7-3.5,7.7-7.7V70.2H225V256H39.2V70.2
		H93.4z M108.9,271.5h46.4v54.2h-46.4V271.5z M225,457.3H39.2V271.5h54.2v61.9c0,4.3,3.5,7.7,7.7,7.7h61.9c4.3,0,7.7-3.5,7.7-7.7
		v-61.9H225V457.3z"/>
	<path d="M194.1,225h15.5v15.5h-15.5V225z"/>
	<path d="M163.1,225h15.5v15.5h-15.5V225z"/>
	<path d="M194.1,426.3h15.5v15.5h-15.5V426.3z"/>
	<path d="M163.1,426.3h15.5v15.5h-15.5V426.3z"/>
	<path d="M93.4,23.8h232.2v15.5H93.4V23.8z"/>
	<path d="M341.2,23.8h15.5v15.5h-15.5V23.8z"/>
	<path d="M457.3,163.1H317.9c-17.1,0-30.9,13.9-31,31v263.2c0,17.1,13.9,30.9,31,31h139.3c17.1,0,30.9-13.9,31-31V194.1
		C488.2,177,474.4,163.1,457.3,163.1z M472.8,457.3c0,8.5-6.9,15.5-15.5,15.5H317.9c-8.5,0-15.5-6.9-15.5-15.5V194.1
		c0-8.5,6.9-15.5,15.5-15.5h139.3c8.5,0,15.5,6.9,15.5,15.5V457.3z"/>
	<path d="M364.4,194.1h15.5v15.5h-15.5V194.1z"/>
	<path d="M395.3,194.1h15.5v15.5h-15.5V194.1z"/>
	<path d="M379.9,441.8h15.5v15.5h-15.5V441.8z"/>
	<path d="M387.6,299.2l-14-14l-10.9,10.9l19.5,19.5c3,3,7.9,3,10.9,0c0,0,0,0,0,0l61.9-61.9l-10.9-10.9L387.6,299.2z"/>
	<path d="M387.6,348.9c29.9,0,54.2-24.3,54.2-54.2h-15.5c0,21.4-17.3,38.7-38.7,38.7c-21.4,0-38.7-17.3-38.7-38.7
		c0-21.4,17.3-38.7,38.7-38.7c6.8,0,13.4,1.8,19.3,5.2l7.8-13.4c-25.9-15-59.1-6.1-74,19.8s-6.1,59.1,19.8,74
		C368.8,346.4,378.1,348.9,387.6,348.9L387.6,348.9z"/>
	<path d="M325.7,372.1h15.5v15.5h-15.5V372.1z"/>
	<path d="M356.6,372.1h92.9v15.5h-92.9V372.1z"/>
	<path d="M325.7,403.1h123.9v15.5H325.7V403.1z"/>
</g>
</svg>
