<?xml version="1.0" encoding="utf-8"?>
<!-- Generator: Adobe Illustrator 25.0.1, SVG Export Plug-In . SVG Version: 6.00 Build 0)  -->
<svg version="1.1" id="Layer_1" xmlns="http://www.w3.org/2000/svg" xmlns:xlink="http://www.w3.org/1999/xlink" x="0px" y="0px"
	 viewBox="0 0 67.5 67.5" style="enable-background:new 0 0 67.5 67.5;" xml:space="preserve">
<g>
	<path d="M62.4,16.8H61c3.5-3.9,3.2-10-0.7-13.5S50.3,0.1,46.8,4c-3.3,3.6-3.3,9.1,0,12.8H33.8V6.2c0-0.6-0.5-1.1-1.1-1.1h-4.2
		c-0.6,0-1.1,0.5-1.1,1.1v10.6h-1.1V1.9c0-0.6-0.5-1.1-1.1-1.1H21c-0.6,0-1.1,0.5-1.1,1.1v14.9h-1.1V9.3c0-0.6-0.5-1.1-1.1-1.1h-4.2
		c-0.6,0-1.1,0.5-1.1,1.1v7.4H5.1c-2.3,0-4.2,1.9-4.2,4.2v31.8c0,2.3,1.9,4.2,4.2,4.2H27l-1.4,4.2h-3.5c-0.6,0-1.1,0.5-1.1,1.1v2.1
		H10.4c-0.6,0-1.1,0.5-1.1,1.1s0.5,1.1,1.1,1.1h46.7c0.6,0,1.1-0.5,1.1-1.1s-0.5-1.1-1.1-1.1H46.5v-2.1c0-0.6-0.5-1.1-1.1-1.1h-3.5
		l-1.4-4.2h21.9c2.3,0,4.2-1.9,4.2-4.2V21C66.7,18.7,64.8,16.8,62.4,16.8z M55,3c3.3,0.5,5.8,3,6.3,6.3H55V3z M54.4,11.5h6.9
		c-0.6,4.1-4.3,6.9-8.4,6.3c-1.2-0.2-2.4-0.7-3.4-1.4L54.4,11.5z M46.5,10.4c0-3.7,2.7-6.8,6.4-7.4V10L48,14.9
		C47,13.6,46.5,12,46.5,10.4z M29.5,7.2h2.1v20.2h-2.1V7.2z M26.3,18.9h1.1v8.5h-1.1V18.9z M22.1,3h2.1v24.4h-2.1V3z M18.9,18.9H20
		v8.5h-1.1V18.9z M14.6,10.4h2.1v17h-2.1V10.4z M44.4,63.5v1.1H23.1v-1.1H44.4z M27.8,61.4l1.4-4.2h9.1l1.4,4.2H27.8z M64.5,52.9
		c0,1.2-1,2.1-2.1,2.1H5.1C3.9,55,3,54,3,52.9v-2.1h61.6V52.9z M64.5,48.6H3V21c0-1.2,1-2.1,2.1-2.1h7.4v8.5h-1.1V21
		c0-0.6-0.5-1.1-1.1-1.1H6.2c-0.6,0-1.1,0.5-1.1,1.1v7.4c0,0.6,0.5,1.1,1.1,1.1h34c0.6,0,1.1-0.5,1.1-1.1V21c0-0.6-0.5-1.1-1.1-1.1
		h-4.2c-0.6,0-1.1,0.5-1.1,1.1v6.4h-1.1v-8.5h15.8c2.7,1.4,6,1.4,8.7,0h4.1c1.2,0,2.1,1,2.1,2.1V48.6z M9.3,22.1v5.3H7.2v-5.3H9.3z
		 M36.9,27.4v-5.3h2.1v5.3H36.9z"/>
	<path d="M12.5,51.8H6.2c-0.6,0-1.1,0.5-1.1,1.1c0,0.6,0.5,1.1,1.1,1.1h6.4c0.6,0,1.1-0.5,1.1-1.1C13.6,52.3,13.1,51.8,12.5,51.8z"
		/>
	<path d="M16.8,51.8h-1.1c-0.6,0-1.1,0.5-1.1,1.1c0,0.6,0.5,1.1,1.1,1.1h1.1c0.6,0,1.1-0.5,1.1-1.1C17.8,52.3,17.4,51.8,16.8,51.8z"
		/>
	<path d="M45.4,27.4c0.3,0,0.6-0.1,0.8-0.3l3.9-3.9h9.1c0.6,0,1.1-0.5,1.1-1.1c0-0.6-0.5-1.1-1.1-1.1h-9.6c-0.3,0-0.6,0.1-0.8,0.3
		l-4.2,4.2c-0.4,0.4-0.4,1.1,0,1.5C44.9,27.3,45.1,27.4,45.4,27.4z"/>
	<path d="M59.2,39.1c-1.1,0-2.2,0.6-2.8,1.6l-11.1-6.5c-0.4-1.7-2-2.8-3.8-2.5c-1.3,0.3-2.3,1.3-2.5,2.5l-11.2,8.4
		c-1-1.5-2.9-1.9-4.4-0.9c-0.5,0.3-0.8,0.7-1.1,1.2l-11.1-4.6C11,36.6,9.2,35.6,7.5,36s-2.8,2.1-2.4,3.8c0.4,1.7,2.1,2.8,3.8,2.4
		c0.9-0.2,1.7-0.8,2.1-1.7l11.1,4.6c0.4,1.7,2.1,2.8,3.8,2.4c1.2-0.3,2.2-1.3,2.4-2.5l11.2-8.4c1,1.5,2.9,1.9,4.4,0.9
		c0.4-0.3,0.8-0.6,1-1.1l11.1,6.5c0.4,1.7,2,2.8,3.8,2.5s2.8-2,2.5-3.8C62,40.1,60.7,39.1,59.2,39.1z M9.3,39.1
		c0,0.6-0.5,1.1-1.1,1.1c-0.6,0-1.1-0.5-1.1-1.1c0-0.6,0.5-1.1,1.1-1.1C8.9,38,9.3,38.5,9.3,39.1L9.3,39.1z M25.3,45.4
		c-0.6,0-1.1-0.5-1.1-1.1v0c0-0.6,0.5-1.1,1.1-1.1s1.1,0.5,1.1,1.1C26.3,45,25.8,45.4,25.3,45.4z M42.2,35.9c-0.6,0-1.1-0.5-1.1-1.1
		c0-0.6,0.5-1.1,1.1-1.1s1.1,0.5,1.1,1.1C43.3,35.4,42.8,35.9,42.2,35.9z M59.2,43.3c-0.6,0-1.1-0.5-1.1-1.1s0.5-1.1,1.1-1.1
		s1.1,0.5,1.1,1.1C60.3,42.8,59.8,43.3,59.2,43.3z"/>
	<path d="M50.7,45.4h-7.4c-0.6,0-1.1,0.5-1.1,1.1c0,0.6,0.5,1.1,1.1,1.1h7.4c0.6,0,1.1-0.5,1.1-1.1C51.8,45.9,51.3,45.4,50.7,45.4z"
		/>
	<path d="M50.7,42.2h-3.2c-0.6,0-1.1,0.5-1.1,1.1c0,0.6,0.5,1.1,1.1,1.1h3.2c0.6,0,1.1-0.5,1.1-1.1C51.8,42.7,51.3,42.2,50.7,42.2z"
		/>
	<path d="M6.2,32.7h11.7c0.6,0,1.1-0.5,1.1-1.1c0-0.6-0.5-1.1-1.1-1.1H6.2c-0.6,0-1.1,0.5-1.1,1.1C5.1,32.2,5.6,32.7,6.2,32.7z"/>
	<path d="M21,32.7h1.1c0.6,0,1.1-0.5,1.1-1.1c0-0.6-0.5-1.1-1.1-1.1H21c-0.6,0-1.1,0.5-1.1,1.1C20,32.2,20.4,32.7,21,32.7z"/>
</g>
</svg>
