<svg xmlns="http://www.w3.org/2000/svg" width="56.5" height="57.186" viewBox="0 0 56.5 57.186">
  <g id="ne" transform="translate(0 -0.385)">
    <g id="CN-AboutUs_300620" transform="translate(0 0.385)">
      <g id="Block-3-Copy">
        <g id="Text" transform="translate(0 0)">
          <g id="Group-30" transform="translate(0 0)">
            <g id="Group-37" transform="translate(0 0)">
              <g id="Group-26-Copy-4" transform="translate(0 0)">
                <g id="Group-50" transform="translate(0 0)">
                  <g id="operation" transform="translate(0 0)">
                    <rect id="Rectangle" width="1.687" height="9.251" transform="translate(32.888 47.935)" fill="#fff"/>
                    <rect id="Rectangle-2" data-name="Rectangle" width="1.687" height="9.251" transform="translate(21.925 47.935)" fill="#fff"/>
                    <path id="Shape" d="M26.286,25.058a4.783,4.783,0,0,0-4.638,4.906v1.962a4.778,4.778,0,0,0,4.638,4.906,4.778,4.778,0,0,0,4.638-4.906V29.964A4.783,4.783,0,0,0,26.286,25.058Zm2.783,6.868a2.787,2.787,0,1,1-5.566,0V29.964a2.787,2.787,0,1,1,5.566,0Z" transform="translate(1.964 1.853)" fill="#fff"/>
                    <path id="Path" d="M49.908,39.263H40.492a6.652,6.652,0,0,0-2.478.482,6.6,6.6,0,0,0-5.055-2.351H23.542a6.6,6.6,0,0,0-5.055,2.351,6.652,6.652,0,0,0-2.478-.482H6.592A6.575,6.575,0,0,0,0,45.8v8.41H1.883V45.8a4.7,4.7,0,0,1,4.708-4.672h3.767V54.214h1.883V41.132h3.767a4.741,4.741,0,0,1,1.469.243,6.451,6.451,0,0,0-.527,2.56V54.214h1.883V43.935a4.7,4.7,0,0,1,4.708-4.672h3.767V54.214h1.883V39.263h3.767a4.7,4.7,0,0,1,4.708,4.672V54.214H39.55V43.935a6.451,6.451,0,0,0-.527-2.56,4.741,4.741,0,0,1,1.469-.243h3.767V54.214h1.883V41.132h3.767A4.7,4.7,0,0,1,54.617,45.8v8.41H56.5V45.8A6.575,6.575,0,0,0,49.908,39.263Z" transform="translate(0 2.972)" fill="#fff"/>
                    <rect id="Rectangle-3" data-name="Rectangle" width="1.687" height="7.569" transform="translate(5.06 49.617)" fill="#fff"/>
                    <path id="Shape-2" data-name="Shape" d="M10.823,26.6a4.778,4.778,0,0,0-4.638,4.906v1.962a4.778,4.778,0,0,0,4.638,4.906,4.778,4.778,0,0,0,4.638-4.906V31.506A4.778,4.778,0,0,0,10.823,26.6Zm2.783,6.868a2.867,2.867,0,0,1-2.783,2.943A2.867,2.867,0,0,1,8.04,33.468V31.506a2.867,2.867,0,0,1,2.783-2.943,2.867,2.867,0,0,1,2.783,2.943Z" transform="translate(0.561 1.993)" fill="#fff"/>
                    <rect id="Rectangle-4" data-name="Rectangle" width="1.687" height="7.569" transform="translate(49.754 49.617)" fill="#fff"/>
                    <path id="Shape-3" data-name="Shape" d="M41.749,26.6a4.778,4.778,0,0,0-4.638,4.906v1.962a4.645,4.645,0,1,0,9.276,0V31.506A4.778,4.778,0,0,0,41.749,26.6Zm2.783,6.868a2.787,2.787,0,1,1-5.566,0V31.506a2.787,2.787,0,1,1,5.566,0Z" transform="translate(3.367 1.993)" fill="#fff"/>
                    <path id="Path-2" data-name="Path" d="M50.353,24.413a23.039,23.039,0,0,0-3.146-7.747l4.349-4.437L44.9,5.432,40.549,9.871A22.071,22.071,0,0,0,32.958,6.66V.386H23.542V6.661a22.215,22.215,0,0,0-7.591,3.21L11.6,5.432l-6.659,6.8,4.349,4.437a23.037,23.037,0,0,0-3.146,7.747H0v9.611H4.708V32.1H1.883V26.335H7.715l.137-.795A21.1,21.1,0,0,1,11.279,17.1l.454-.661-4.125-4.21,4-4.078,4.123,4.211.648-.462a20.335,20.335,0,0,1,8.271-3.5l.781-.14V2.308h5.65V8.26l.779.14a20.222,20.222,0,0,1,8.271,3.5l.648.463L44.9,8.15l4,4.078-4.125,4.208.454.661a21.1,21.1,0,0,1,3.427,8.441l.137.795h5.832V32.1H51.792v1.922H56.5V24.413Z" transform="translate(0 -0.386)" fill="#fff"/>
                    <path id="Path-3" data-name="Path" d="M25.822,18.968a7.6,7.6,0,0,0-6.494,6.383l1.89.266a5.774,5.774,0,0,1,11.4,0l1.889-.266A7.649,7.649,0,0,0,25.822,18.968Z" transform="translate(1.754 1.293)" fill="#fff"/>
                    <path id="Path-4" data-name="Path" d="M25.075,13.638a14.214,14.214,0,0,0-11.932,12.2L15,26.107a12.146,12.146,0,0,1,24.114,0h0l1.856-.272A14.109,14.109,0,0,0,25.075,13.638Z" transform="translate(1.193 0.804)" fill="#fff"/>
                  </g>
                </g>
              </g>
            </g>
          </g>
        </g>
      </g>
    </g>
  </g>
</svg>
