<?xml version="1.0" encoding="utf-8"?>
<!-- Generator: Adobe Illustrator 25.0.1, SVG Export Plug-In . SVG Version: 6.00 Build 0)  -->
<svg version="1.1" id="Capa_1" xmlns="http://www.w3.org/2000/svg" xmlns:xlink="http://www.w3.org/1999/xlink" x="0px" y="0px"
	 viewBox="0 0 512 512" style="enable-background:new 0 0 512 512;" xml:space="preserve">
<g>
	<path d="M477.4,71H346.7c-0.1,0-0.3,0-0.4,0c-4.8-4.5-9.9-8.7-15.4-12.5c-3.3-2.3-7.8-1.5-10.1,1.8c-2.3,3.3-1.5,7.8,1.8,10.1
		c32.1,22.2,51.2,58.7,51.2,97.7c0,65.5-53.2,118.7-118.7,118.7c-65.5,0-118.7-53.2-118.7-118.7c0-65.5,53.2-118.7,118.7-118.7
		c13,0,25.8,2.1,38,6.2c3.8,1.3,7.9-0.8,9.2-4.6c1.3-3.8-0.8-7.9-4.6-9.2c-13.7-4.6-28-7-42.6-7c-73.5,0-133.2,59.8-133.2,133.2
		s59.8,133.2,133.2,133.2s133.2-59.8,133.2-133.2c0-30.4-10.4-59.4-28.8-82.7h117.8c6.7,0,12.1,5.4,12.1,12.1v228.7H432
		c-4,0-7.3,3.3-7.3,7.3c0,4,3.3,7.3,7.3,7.3h57.5V379c0,6.7-5.4,12.1-12.1,12.1H34.6c-6.7,0-12.1-5.4-12.1-12.1v-38.2h372.9
		c4,0,7.3-3.3,7.3-7.3c0-4-3.3-7.3-7.3-7.3H22.5V97.7c0-6.7,5.4-12.1,12.1-12.1h86.6c4,0,7.3-3.3,7.3-7.3s-3.3-7.3-7.3-7.3H34.6
		C20,71,8,83,8,97.7V379c0,14.7,12,26.6,26.6,26.6h159.3v56.8H172c-4,0-7.3,3.3-7.3,7.3c0,4,3.3,7.3,7.3,7.3h166.3
		c4,0,7.3-3.3,7.3-7.3c0-4-3.3-7.3-7.3-7.3h-21.9v-56.8h161c14.7,0,26.6-12,26.6-26.6V97.7C504,83,492,71,477.4,71z M301.8,462.5
		h-93.4v-56.8h93.4V462.5z"/>
	<path d="M203.3,110.2c-1.6-8.2-8.7-14.2-17.1-14.2h-7.8c-4,0-7.3,3.3-7.3,7.3s3.3,7.3,7.3,7.3h7.8c1.4,0,2.6,1,2.8,2.3l21.5,113.9
		c0.6,3.4,3.6,5.9,7.1,5.9h4.9c-2.1,2.4-3.5,5.6-3.5,9c0,7.5,6.1,13.6,13.6,13.6s13.6-6.1,13.6-13.6c0-3.5-1.3-6.6-3.5-9h29.9
		c-2.1,2.4-3.5,5.6-3.5,9c0,7.5,6.1,13.6,13.6,13.6c7.5,0,13.6-6.1,13.6-13.6c0-3.5-1.3-6.6-3.5-9h6.5c4,0,7.3-3.3,7.3-7.3
		s-3.3-7.3-7.3-7.3h-75.7l-3-15.7H302c3.5,0,6.5-2.5,7.1-5.9l12.9-68c0,0,0-0.1,0-0.1c0.4-2.5-0.3-5.1-1.9-7.1
		c-1.7-2-4.1-3.1-6.7-3.1H204.9L203.3,110.2z M214.2,167.6H234l1.5,20.3H218L214.2,167.6z M266.1,167.6l-1.5,20.3h-14.5l-1.5-20.3
		H266.1z M247.5,153.1l-1.5-20.3h22.6l-1.5,20.3H247.5z M279.1,187.9l1.5-20.3h19.2l-3.9,20.3H279.1z M302.6,153.1h-20.9l1.5-20.3
		h23.2L302.6,153.1z M231.5,132.7l1.5,20.3h-21.5l-3.8-20.3H231.5z"/>
	<path d="M55.3,274.5h43c4,0,7.3-3.3,7.3-7.3c0-4-3.3-7.3-7.3-7.3h-43c-4,0-7.3,3.3-7.3,7.3C48.1,271.3,51.3,274.5,55.3,274.5z"/>
	<path d="M55.3,307.3h80.2c4,0,7.3-3.3,7.3-7.3c0-4-3.3-7.3-7.3-7.3H55.3c-4,0-7.3,3.3-7.3,7.3C48.1,304,51.3,307.3,55.3,307.3z"/>
	<path d="M439,113c-4,0-7.3,3.3-7.3,7.3v18.2h-18.2c-4,0-7.3,3.3-7.3,7.3s3.3,7.3,7.3,7.3h18.2v18.2c0,4,3.3,7.3,7.3,7.3
		c4,0,7.3-3.3,7.3-7.3V153h18.2c4,0,7.3-3.3,7.3-7.3s-3.3-7.3-7.3-7.3h-18.2v-18.2C446.3,116.2,443,113,439,113z"/>
</g>
</svg>
