<?xml version="1.0" encoding="utf-8"?>
<!-- Generator: Adobe Illustrator 25.2.1, SVG Export Plug-In . SVG Version: 6.00 Build 0)  -->
<svg version="1.1" id="Layer_1" xmlns="http://www.w3.org/2000/svg" xmlns:xlink="http://www.w3.org/1999/xlink" x="0px" y="0px"
	 viewBox="0 0 8 8" style="enable-background:new 0 0 8 8;" xml:space="preserve">
<style type="text/css">
	.st0{fill:#DB4E4E;}
	.st1{fill:#FFFFFF;}
</style>
<circle class="st0" cx="4" cy="4" r="4"/>
<path class="st1" d="M3.3,5.7L2.2,4.6c0,0,0-0.1,0-0.1c0,0,0,0,0,0l0.6-0.6c0,0,0.1,0,0.2,0l0.4,0.4c0,0,0.1,0,0.2,0l1.7-1.7
	c0,0,0.1,0,0.2,0l0.6,0.6c0,0,0,0.1,0,0.2L3.4,5.7C3.4,5.8,3.4,5.8,3.3,5.7C3.3,5.7,3.3,5.7,3.3,5.7z"/>
</svg>
