<?xml version="1.0" encoding="utf-8"?>
<!-- Generator: Adobe Illustrator 25.0.1, SVG Export Plug-In . SVG Version: 6.00 Build 0)  -->
<svg version="1.1" id="Layer_1" xmlns="http://www.w3.org/2000/svg" xmlns:xlink="http://www.w3.org/1999/xlink" x="0px" y="0px"
	 viewBox="0 0 256 135" style="enable-background:new 0 0 256 135;" xml:space="preserve">
<style type="text/css">
	.st0{clip-path:url(#SVGID_2_);}
	.st1{fill:none;stroke:#000004;stroke-width:6;stroke-miterlimit:10;}
	.st2{fill:#000004;}
</style>
<g>
	<defs>
		<rect id="SVGID_1_" x="-24.7" y="-82.7" width="300" height="300"/>
	</defs>
	<clipPath id="SVGID_2_">
		<use xlink:href="#SVGID_1_"  style="overflow:visible;"/>
	</clipPath>
	<g class="st0">
		<ellipse class="st1" cx="128" cy="67.3" rx="136.7" ry="71.8"/>
		<g>
			<path class="st2" d="M71.2,46.9c6,0,9.9,1.1,12,3.3c2,2.2,2.5,6,1.4,11.3c-1.1,5.6-3.2,9.6-6.3,12c-3.1,2.3-7.8,3.5-14.1,3.5
				h-9.5l5.9-30.1H71.2z M33,107.5h15.7l3.7-19.1h13.5c6,0,10.8-0.6,14.6-1.9c3.8-1.3,7.3-3.3,10.5-6.3c2.7-2.5,4.8-5.1,6.4-8
				s2.8-6.1,3.4-9.6c1.7-8.5,0.4-15.2-3.7-20c-4.2-4.8-10.8-7.2-19.9-7.2H47L33,107.5z"/>
			<path class="st2" d="M112.3,16.4h15.6l-3.7,19.1H138c8.8,0,14.7,1.5,18,4.6c3.3,3.1,4.3,8,3,14.8l-6.5,33.5h-15.8l6.2-31.9
				c0.7-3.6,0.4-6.1-0.7-7.4c-1.2-1.3-3.8-2-7.8-2h-12.5l-8,41.3H98.3L112.3,16.4z"/>
			<path class="st2" d="M193.7,46.9c6,0,9.9,1.1,12,3.3c2,2.2,2.5,6,1.4,11.3c-1.1,5.6-3.2,9.6-6.3,12c-3.1,2.3-7.8,3.5-14.1,3.5
				h-9.5l5.9-30.1H193.7z M155.4,107.5h15.7l3.7-19.1h13.5c6,0,10.8-0.6,14.6-1.9c3.8-1.3,7.3-3.3,10.5-6.3c2.7-2.5,4.8-5.1,6.4-8
				s2.8-6.1,3.4-9.6c1.7-8.5,0.4-15.2-3.7-20s-10.8-7.2-19.9-7.2h-30.2L155.4,107.5z"/>
		</g>
	</g>
</g>
</svg>
