<?xml version="1.0" encoding="utf-8"?>
<!-- Generator: Adobe Illustrator 25.0.1, SVG Export Plug-In . SVG Version: 6.00 Build 0)  -->
<svg version="1.1" id="Layer_1" xmlns="http://www.w3.org/2000/svg" xmlns:xlink="http://www.w3.org/1999/xlink" x="0px" y="0px"
	 viewBox="0 0 512 512" style="enable-background:new 0 0 512 512;" xml:space="preserve">
<path d="M491.3,162.4H413c-8.4,0-15.7,6.3-15.7,14.7v16.6h-86.1c-8.4,0-15.7,6.3-15.7,14.7v165.4h-274c-0.3,0-1-0.7-1-1v-31.3H280
	v-14.7H20.7V75.4c0-0.3,0.7,0,1,0h422.7c0.3,0,0-0.3,0,0v70.4H459V75.4c0-8.4-6.3-14.7-14.7-14.7H21.7C13.3,60.7,6,67,6,75.4v297.5
	c0,8.4,7.3,15.7,15.7,15.7H186v47.9h-31.3v14.7h156.6v-14.7H279v-47.9h16.6v15.7c0,8.4,7.3,15.7,15.7,15.7h133.1
	c8.4,0,14.7-7.3,14.7-15.7v-54.8h32.3c8.4,0,14.7-7.3,14.7-15.7V177.1C506,168.8,499.7,162.4,491.3,162.4z M264.3,436.4h-63.6v-47.9
	h63.6V436.4z M413,177.1h78.3c0.3,0,0-0.3,0,0v16.6h-79.3v-16.6C412.1,176.9,412.8,177.1,413,177.1z M412.1,208.4h79.3v94.9h-79.3
	V208.4z M444.4,405.1H311.3c-0.3,0-1-0.7-1-1v-15.7h134v15.7C444.4,404.4,444.6,405.1,444.4,405.1z M444.4,373.8h-134V208.4
	c0-0.3,0.7,0,1,0h86.1v125.2c0,8.4,7.3,15.7,15.7,15.7h31.3V373.8z M491.3,334.7H413c-0.3,0-1-0.7-1-1V318h79.3v15.7
	C491.3,334,491.6,334.7,491.3,334.7z"/>
<path d="M193.9,295.5h15.7v14.7h-15.7V295.5z"/>
<path d="M225.2,295.5h15.7v14.7h-15.7V295.5z"/>
<path d="M256.5,295.5h15.7v14.7h-15.7V295.5z"/>
<path d="M52,130.2v-23.5h24.5V92H37.3v38.2H52z"/>
<path d="M319.1,247.6h14.7v-15.7h16.6v-14.7h-31.3V247.6z"/>
<path d="M420.9,217.2v30.3h14.7v-15.7h16.6v-14.7H420.9z"/>
</svg>
