<?xml version="1.0" encoding="utf-8"?>
<!-- Generator: Adobe Illustrator 25.0.1, SVG Export Plug-In . SVG Version: 6.00 Build 0)  -->
<svg version="1.1" id="Layer_1" xmlns="http://www.w3.org/2000/svg" xmlns:xlink="http://www.w3.org/1999/xlink" x="0px" y="0px"
	 viewBox="0 0 512 512" style="enable-background:new 0 0 512 512;" xml:space="preserve">
<style type="text/css">
	.st0{fill:#FFFFFF;}
</style>
<g>
	<path class="st0" d="M181.4,89.4h199.7c18,0,32.7,14.7,32.7,32.8v87.3c0,3.5,2.9,6.4,6.4,6.4s6.4-2.9,6.4-6.4v-87.3
		c0-25.1-20.4-45.6-45.4-45.6H181.4c-3.5,0-6.4,2.9-6.4,6.4C175,86.6,177.9,89.4,181.4,89.4L181.4,89.4z"/>
	<path class="st0" d="M336.9,286.6H216.4c-1.9,0-3.7,0.8-4.9,2.3l-36.2,42.6l-36.2-42.6c-1.2-1.4-3-2.3-4.9-2.3h-12.9
		c-18,0-32.7-14.7-32.7-32.8V122.2c0-18.1,14.6-32.8,32.7-32.8h30.4c3.5,0,6.4-2.9,6.4-6.4c0-3.5-2.9-6.4-6.4-6.4h-30.4
		C96.4,76.6,76,97.1,76,122.2v131.6c0,25.1,20.4,45.6,45.4,45.6h9.9l39.1,46.1c1.2,1.4,3,2.3,4.9,2.3c1.9,0,3.7-0.8,4.9-2.3
		l39.1-46.1h117.5c3.5,0,6.4-2.9,6.4-6.4S340.4,286.6,336.9,286.6z"/>
	<path class="st0" d="M264.5,380.9h-58.1c-3.5,0-6.4,2.9-6.4,6.4s2.9,6.4,6.4,6.4h58.1c8.1,0,14.7,6.6,14.7,14.8
		s-6.6,14.8-14.7,14.8h-161c-8.1,0-14.7-6.6-14.7-14.8s6.6-14.8,14.7-14.8h5.7c2,0,4-1,5.2-2.6l11.1-15.3l11.1,15.3
		c1.2,1.7,3.1,2.6,5.2,2.6h35.2c3.5,0,6.4-2.9,6.4-6.4s-2.9-6.4-6.4-6.4h-31.9l-14.4-19.8c-1.2-1.7-3.1-2.6-5.2-2.6s-4,1-5.2,2.6
		l-14.4,19.8h-2.4c-15.2,0-27.5,12.4-27.5,27.5c0,15.2,12.3,27.5,27.5,27.5h161c15.2,0,27.5-12.4,27.5-27.5
		C292,393.3,279.6,380.9,264.5,380.9z"/>
	<path class="st0" d="M323.5,55.1h24c3.5,0,6.4-2.9,6.4-6.4c0-3.5-2.9-6.4-6.4-6.4h-24c-8.1,0-14.7-6.6-14.7-14.8
		s6.6-14.8,14.7-14.8h161c8.1,0,14.7,6.6,14.7,14.8s-6.6,14.8-14.7,14.8h-5.7c-2,0-4,1-5.2,2.6l-11.1,15.3l-11.1-15.3
		c-1.2-1.7-3.1-2.6-5.2-2.6h-69.2c-3.5,0-6.4,2.9-6.4,6.4c0,3.5,2.9,6.4,6.4,6.4h66l14.4,19.8c1.2,1.7,3.1,2.6,5.2,2.6s4-1,5.2-2.6
		l14.4-19.8h2.4c15.2,0,27.5-12.4,27.5-27.5C512,12.4,499.7,0,484.5,0h-161C308.4,0,296,12.4,296,27.5
		C296,42.7,308.4,55.1,323.5,55.1L323.5,55.1z"/>
	<path class="st0" d="M169.5,216.2c-3.5,0-6.4,2.9-6.4,6.4c0,3.5,2.9,6.4,6.4,6.4h34.1c3.5,0,6.4-2.9,6.4-6.4v-34.1
		c0-3.5-2.9-6.4-6.4-6.4h-27.7v-21.3h27.7c3.5,0,6.4-2.9,6.4-6.4c0-3.5-2.9-6.4-6.4-6.4h-34.1c-3.5,0-6.4,2.9-6.4,6.4v34.1
		c0,3.5,2.9,6.4,6.4,6.4h27.7v21.3H169.5z"/>
	<path class="st0" d="M267.5,160.9c3.5,0,6.4-2.9,6.4-6.4c0-3.5-2.9-6.4-6.4-6.4h-34.1c-3.5,0-6.4,2.9-6.4,6.4v68.1
		c0,3.5,2.9,6.4,6.4,6.4h34.1c3.5,0,6.4-2.9,6.4-6.4c0-3.5-2.9-6.4-6.4-6.4h-27.7V195h27.7c3.5,0,6.4-2.9,6.4-6.4
		c0-3.5-2.9-6.4-6.4-6.4h-27.7v-21.3H267.5z"/>
	<path class="st0" d="M297.3,148.1c-3.5,0-6.4,2.9-6.4,6.4v68.1c0,3.5,2.9,6.4,6.4,6.4h34.1c3.5,0,6.4-2.9,6.4-6.4v-68.1
		c0-3.5-2.9-6.4-6.4-6.4H297.3z M325,216.2h-21.3v-55.4H325V216.2z"/>
	<path class="st0" d="M512,294c0-3.1-2.3-5.8-5.4-6.3l-8.8-1.4l-4.2-10.1l5.2-7.2c1.8-2.5,1.6-6-0.7-8.3l-18-18
		c-2.2-2.2-5.7-2.5-8.3-0.6l-7.2,5.2l-10.1-4.2l-1.4-8.8c-0.5-3.1-3.2-5.4-6.3-5.4h0l-25.5,0c-3.1,0-5.8,2.3-6.3,5.4l-1.4,8.8
		l-10.1,4.2l-7.2-5.2c-2.5-1.8-6.1-1.6-8.3,0.7l-18,18c-2.2,2.2-2.5,5.7-0.6,8.3l5.2,7.2l-4.2,10.2l-8.8,1.4
		c-3.1,0.5-5.4,3.2-5.4,6.3l0,25.5c0,3.1,2.3,5.8,5.4,6.3l8.8,1.4l4.2,10.1l-5.2,7.2c-1.8,2.5-1.6,6,0.7,8.3l18,18
		c2.2,2.2,5.7,2.5,8.3,0.6l7.2-5.2l10.1,4.2l1.4,8.8c0.5,3.1,3.2,5.4,6.3,5.4h0l25.5,0c3.1,0,5.8-2.3,6.3-5.4l1.4-8.8l10.1-4.2
		l7.2,5.2c2.5,1.8,6.1,1.6,8.3-0.7l18-18c2.2-2.2,2.5-5.7,0.6-8.3l-5.2-7.2l4.2-10.2l8.8-1.4c3.1-0.5,5.4-3.2,5.4-6.3L512,294z
		 M492.3,315.2c-2.2,0.3-4,1.8-4.9,3.9l-6.9,16.8c-0.8,2.1-0.6,4.4,0.7,6.2l4.1,5.7L475,358l-5.7-4.1c-1.8-1.3-4.1-1.6-6.2-0.7
		l-16.7,6.9c-2.1,0.9-3.5,2.7-3.9,4.9l-1.1,7l-14.6,0l-1.1-7c-0.3-2.2-1.8-4-3.9-4.9l-16.8-6.9c-0.8-0.3-1.6-0.5-2.4-0.5
		c-1.3,0-2.6,0.4-3.8,1.2l-5.7,4.1l-10.3-10.3l4.1-5.7c1.3-1.8,1.6-4.1,0.7-6.2l-6.9-16.8c-0.9-2.1-2.7-3.5-4.9-3.9l-7-1.1l0-14.6
		l7-1.1c2.2-0.3,4-1.8,4.9-3.9l6.9-16.8c0.8-2.1,0.6-4.4-0.7-6.2l-4.1-5.7l10.3-10.3l5.7,4.1c1.8,1.3,4.1,1.6,6.2,0.7l16.7-6.9
		c2.1-0.9,3.5-2.7,3.9-4.9l1.1-7l14.6,0l1.1,7c0.3,2.2,1.8,4,3.9,4.9l16.8,6.9c2.1,0.8,4.4,0.6,6.2-0.7l5.7-4.1l10.3,10.3l-4.1,5.7
		c-1.3,1.8-1.6,4.1-0.7,6.2l6.9,16.8c0.9,2.1,2.7,3.5,4.9,3.9l7,1.1l0,14.6L492.3,315.2z"/>
	<path class="st0" d="M461.2,300.4c-3.5,0-6.4,2.9-6.4,6.4c0,11.4-9.3,20.7-20.7,20.7s-20.7-9.3-20.7-20.7
		c0-11.4,9.3-20.7,20.7-20.7c3,0,5.9,0.6,8.6,1.9c3.2,1.5,7,0,8.5-3.2c1.5-3.2,0-7-3.2-8.5c-4.4-2-9-3-13.9-3
		c-18.5,0-33.5,15-33.5,33.5s15,33.5,33.5,33.5c18.5,0,33.5-15,33.5-33.5C467.6,303.3,464.7,300.4,461.2,300.4L461.2,300.4z"/>
</g>
</svg>
