<?xml version="1.0" encoding="utf-8"?>
<!-- Generator: Adobe Illustrator 25.0.1, SVG Export Plug-In . SVG Version: 6.00 Build 0)  -->
<svg version="1.1" id="Capa_1" xmlns="http://www.w3.org/2000/svg" xmlns:xlink="http://www.w3.org/1999/xlink" x="0px" y="0px"
	 viewBox="0 0 231.2 231.2" style="enable-background:new 0 0 231.2 231.2;" xml:space="preserve">
<style type="text/css">
	.st0{fill:#FFFFFF;}
</style>
<path class="st0" d="M230.7,71.1c-0.3-2.2-2.9-3.9-5.1-3.9c-7.3,0-13.8-4.3-16.6-11c-2.8-6.8-1-14.8,4.5-19.8c1.7-1.6,1.9-4.2,0.5-6
	c-3.8-4.8-8-9.1-12.7-12.8c-1.8-1.5-4.5-1.3-6.1,0.5c-4.8,5.3-13.3,7.2-20,4.5c-6.9-2.9-11.2-9.9-10.8-17.4c0.1-2.4-1.6-4.4-3.9-4.7
	c-6-0.7-12-0.7-18,0c-2.3,0.3-4,2.3-4,4.6c0.3,7.4-4.1,14.3-11,17.1c-6.5,2.7-15.1,0.7-19.8-4.5c-1.6-1.7-4.2-1.9-6-0.5
	c-4.8,3.8-9.2,8.1-12.9,12.8c-1.5,1.8-1.3,4.5,0.5,6.1c5.6,5,7.4,13.1,4.5,20c-2.8,6.6-9.6,10.8-17.4,10.8c-2.5-0.1-4.3,1.6-4.6,3.9
	c-0.7,6-0.7,12.1,0,18.2c0.3,2.3,3,3.9,5.2,3.9c7-0.2,13.7,4.1,16.5,11c2.8,6.8,1,14.8-4.5,19.8c-1.7,1.6-1.9,4.2-0.5,6
	c3.7,4.7,8,9,12.7,12.8c1.8,1.5,4.5,1.3,6.1-0.5c4.8-5.3,13.4-7.3,20-4.5c6.9,2.9,11.3,9.9,10.8,17.4c-0.1,2.4,1.6,4.4,3.9,4.7
	c3.1,0.4,6.1,0.5,9.2,0.5c2.9,0,5.9-0.2,8.8-0.5c2.3-0.3,4-2.3,4-4.6c-0.3-7.4,4.1-14.3,11-17.1c6.6-2.7,15.1-0.7,19.8,4.5
	c1.6,1.7,4.2,1.9,6,0.5c4.8-3.8,9.1-8.1,12.9-12.8c1.5-1.8,1.3-4.5-0.5-6.1c-5.6-5-7.4-13.1-4.5-20c2.7-6.5,9.3-10.8,16.4-10.8l1,0
	c2.3,0.2,4.4-1.6,4.7-3.9C231.4,83.3,231.4,77.2,230.7,71.1z M151.2,126.2c-25.5,0-46.1-20.7-46.1-46.1s20.7-46.1,46.1-46.1
	s46.1,20.7,46.1,46.1c0,8.6-2.4,16.7-6.5,23.7l-20.2-20.2c1.5-3.4,2.2-7.2,2.2-11c0-7.6-2.9-14.7-8.3-20c-5.3-5.3-12.4-8.3-20-8.3
	c-2.5,0-5,0.3-7.5,1c-1.1,0.3-1.9,1.2-2.2,2.2c-0.3,1.1,0,2.2,0.9,3.1c0,0,10,10.1,13.3,13.4c0.3,0.3,0.3,1.2,0.3,1.5l0,0.2
	c-0.3,3.7-1,8.1-1.5,9.8c-0.1,0.1-0.1,0.1-0.2,0.2c-0.1,0.1-0.1,0.2-0.2,0.2c-1.7,0.6-6.2,1.2-9.9,1.5l0,0l-0.2,0c0,0-0.1,0-0.2,0
	c-0.4,0-1-0.1-1.5-0.7c-3.5-3.5-13.1-13-13.1-13c-0.9-0.9-1.7-1-2.3-1c-1.4,0-2.6,1-3,2.4c-2.6,9.8,0.2,20.3,7.3,27.4
	c5.3,5.3,12.4,8.3,20,8.3c3.9,0,7.6-0.8,11-2.2l20.4,20.4C168.9,123.5,160.3,126.2,151.2,126.2z"/>
</svg>
