<?xml version="1.0" encoding="utf-8"?>
<!-- Generator: Adobe Illustrator 25.0.1, SVG Export Plug-In . SVG Version: 6.00 Build 0)  -->
<svg version="1.1" id="Layer_1" xmlns="http://www.w3.org/2000/svg" xmlns:xlink="http://www.w3.org/1999/xlink" x="0px" y="0px"
	 viewBox="0 0 88.8 90.3" style="enable-background:new 0 0 88.8 90.3;" xml:space="preserve">
<g>
	<path d="M51.8,78.5h-3V64c0-0.8-0.7-1.5-1.5-1.5s-1.5,0.7-1.5,1.5v14.5H7.4V48.9h12.3c0.8,0,1.5-0.7,1.5-1.5s-0.7-1.5-1.5-1.5H5.9
		c-0.8,0-1.5,0.7-1.5,1.5v31.1h-3c-0.8,0-1.5,0.7-1.5,1.5v3c0,4.1,3.3,7.4,7.4,7.4h38.5c4.1,0,7.4-3.3,7.4-7.4v-3
		C53.3,79.1,52.6,78.5,51.8,78.5z M50.3,82.9c0,2.5-2,4.4-4.4,4.4h-3v-1.5c0-0.8-0.7-1.5-1.5-1.5s-1.5,0.7-1.5,1.5v1.5H13.3v-1.5
		c0-0.8-0.7-1.5-1.5-1.5s-1.5,0.7-1.5,1.5v1.5h-3c-2.5,0-4.4-2-4.4-4.4v-1.5h47.4C50.3,81.4,50.3,82.9,50.3,82.9z"/>
	<path d="M77,10.4h3c0.8,0,1.5-0.7,1.5-1.5S80.8,7.4,80,7.4h-3c-2.5,0-4.4,2-4.4,4.4v1.5h-1.5c-0.8,0-1.5,0.7-1.5,1.5
		s0.7,1.5,1.5,1.5h1.5v4.4c0,0.8,0.7,1.5,1.5,1.5s1.5-0.7,1.5-1.5v-4.4H77c0.8,0,1.5-0.7,1.5-1.5s-0.7-1.5-1.5-1.5h-1.5v-1.5
		C75.5,11,76.2,10.4,77,10.4z"/>
	<path d="M84.4,1.5H66.6c-2.5,0-4.4,2-4.4,4.4v3c0,0.8,0.7,1.5,1.5,1.5c0.8,0,1.5-0.7,1.5-1.5v-3c0-0.8,0.7-1.5,1.5-1.5h17.8
		c0.8,0,1.5,0.7,1.5,1.5v17.8c0,0.8-0.7,1.5-1.5,1.5H66.6c-0.8,0-1.5-0.7-1.5-1.5v-8.9c0-0.8-0.7-1.5-1.5-1.5
		c-0.8,0-1.5,0.7-1.5,1.5v8.9c0,2.5,2,4.4,4.4,4.4h17.8c2.5,0,4.4-2,4.4-4.4V5.9C88.8,3.5,86.8,1.5,84.4,1.5z"/>
	<path d="M69.6,60.7c0,3.3,2.7,5.9,5.9,5.9c3.3,0,5.9-2.7,5.9-5.9s-2.7-5.9-5.9-5.9C72.2,54.8,69.6,57.4,69.6,60.7z M78.5,60.7
		c0,1.6-1.3,3-3,3c-1.6,0-3-1.3-3-3c0-1.6,1.3-3,3-3C77.1,57.7,78.5,59.1,78.5,60.7z"/>
	<path d="M84.4,47.4H66.6c-2.5,0-4.4,2-4.4,4.4v17.8c0,2.5,2,4.4,4.4,4.4h17.8c2.5,0,4.4-2,4.4-4.4v-3c0-0.8-0.7-1.5-1.5-1.5
		s-1.5,0.7-1.5,1.5v3c0,0.8-0.7,1.5-1.5,1.5H66.6c-0.8,0-1.5-0.7-1.5-1.5V51.8c0-0.8,0.7-1.5,1.5-1.5h17.8c0.8,0,1.5,0.7,1.5,1.5
		v8.9c0,0.8,0.7,1.5,1.5,1.5s1.5-0.7,1.5-1.5v-8.9C88.8,49.4,86.8,47.4,84.4,47.4z"/>
	<path d="M33.3,19c0.2,0.1,0.5,0.2,0.8,0.2c0.2,0,0.5-0.1,0.7-0.2l8.9-4.4c0.7-0.4,1-1.3,0.6-2c-0.1-0.3-0.4-0.5-0.6-0.6l-8.9-4.4
		c-0.7-0.4-1.6-0.1-2,0.7c-0.1,0.2-0.2,0.4-0.2,0.7v8.9C32.6,18.3,32.8,18.8,33.3,19z M35.5,11.3l4.1,2l-4.1,2V11.3z"/>
	<path d="M37,26.6c7.4,0,13.3-6,13.3-13.3S44.4,0,37,0S23.7,6,23.7,13.3S29.7,26.6,37,26.6z M37,3c5.7,0,10.4,4.6,10.4,10.4
		S42.7,23.7,37,23.7S26.6,19,26.6,13.3S31.3,3,37,3z"/>
	<path d="M51.8,32.6c0.5,0,0.9-0.2,1.2-0.6l4.4-5.9c0.5-0.7,0.4-1.6-0.3-2.1s-1.6-0.4-2.1,0.3l-4.4,5.9c-0.5,0.7-0.4,1.6,0.3,2.1
		C51.2,32.5,51.5,32.6,51.8,32.6z"/>
	<path d="M55.1,37.9c0.3,0.4,0.7,0.6,1.2,0.6c0.3,0,0.6-0.1,0.9-0.3l5.9-4.4c0.7-0.5,0.8-1.4,0.3-2.1c-0.5-0.7-1.4-0.8-2.1-0.3
		l-5.9,4.4C54.7,36.3,54.6,37.2,55.1,37.9L55.1,37.9z"/>
	<path d="M69.6,41.2c-0.1-0.8-0.9-1.3-1.7-1.2c0,0,0,0-0.1,0l-7.4,1.5c-0.8,0.1-1.4,0.8-1.3,1.6c0.1,0.8,0.8,1.4,1.6,1.3H61l7.4-1.5
		C69.2,42.8,69.7,42,69.6,41.2L69.6,41.2z"/>
	<path d="M1.5,41.5h17.8c0.8,0,1.5-0.7,1.5-1.5V16.3c0-0.8-0.7-1.5-1.5-1.5H1.5c-0.8,0-1.5,0.7-1.5,1.5V40C0,40.8,0.7,41.5,1.5,41.5
		z M3,17.8h14.8v20.7H3V17.8z"/>
	<path d="M13.3,20.7h-3c-0.8,0-1.5,0.7-1.5,1.5s0.7,1.5,1.5,1.5h3c0.8,0,1.5-0.7,1.5-1.5S14.1,20.7,13.3,20.7z"/>
	<path d="M13.3,26.6H7.4c-0.8,0-1.5,0.7-1.5,1.5s0.7,1.5,1.5,1.5h5.9c0.8,0,1.5-0.7,1.5-1.5S14.1,26.6,13.3,26.6z"/>
	<path d="M13.3,32.6H7.4c-0.8,0-1.5,0.7-1.5,1.5s0.7,1.5,1.5,1.5h5.9c0.8,0,1.5-0.7,1.5-1.5S14.1,32.6,13.3,32.6z"/>
	<path d="M50.5,41c-0.4-0.7-1.3-1-2-0.5c-0.7,0.4-1,1.3-0.5,2l6.5,11.3l-23.7,8.9c0,0,0,0-0.1,0h-0.1l-3.8,2.2l-2.6,1.5
		c-0.7,0.4-1.5,0.5-2.3,0.3s-1.4-0.7-1.8-1.4l-3-5.1c-0.7-1.4-0.2-3.1,1.1-3.9l5.1-3l3.7,6.4c0.3,0.5,0.8,0.7,1.3,0.7
		c0.8,0,1.5-0.7,1.5-1.5c0-0.3-0.1-0.5-0.2-0.7l-3.8-6.6l18.6-15.3l0.6,1.1c0.4,0.7,1.3,1,2,0.5c0.7-0.4,1-1.3,0.5-2L46,33.3
		c-0.2-0.4-0.6-0.6-1-0.7c-0.4-0.1-0.9,0-1.2,0.3L23.2,50l-6.3,3.6c-2.3,1.4-3.4,4.1-2.7,6.7l-1.5,0.8c-2.1,1.2-2.9,3.9-1.6,6.1
		c0.6,1,1.6,1.8,2.7,2.1c0.4,0.1,0.8,0.1,1.2,0.1c0.8,0,1.5-0.2,2.2-0.6l1.5-0.8c0.7,0.7,1.6,1.3,2.6,1.5c0.5,0.1,1,0.2,1.6,0.2
		c1,0,2.1-0.3,3-0.8l1.3-0.7l3,5.1c1.2,2.1,3.9,2.8,6.1,1.6c2.1-1.2,2.9-3.9,1.6-6.1l0,0l-2.7-4.7l22.2-8.3c0.4-0.2,0.7-0.5,0.9-0.9
		c0.1-0.4,0.1-0.9-0.1-1.2L50.5,41z M15.5,66.3c-0.3,0.2-0.7,0.3-1.1,0.1c-0.4-0.1-0.7-0.3-0.9-0.7c-0.2-0.3-0.3-0.7-0.1-1.1
		c0.1-0.4,0.4-0.7,0.7-0.9l1.3-0.7l1.5,2.6L15.5,66.3z M35,70.5c0.2,0.3,0.3,0.7,0.1,1.1c-0.1,0.4-0.4,0.7-0.7,0.9
		c-0.7,0.4-1.6,0.2-2-0.5l-3-5.1l2.5-1.4H32L35,70.5z"/>
</g>
</svg>
