<?xml version="1.0" encoding="utf-8"?>
<!-- Generator: Adobe Illustrator 24.2.0, SVG Export Plug-In . SVG Version: 6.00 Build 0)  -->
<svg version="1.1" id="Layer_1" xmlns="http://www.w3.org/2000/svg" xmlns:xlink="http://www.w3.org/1999/xlink" x="0px" y="0px"
	 viewBox="0 0 110.1 110.1" style="enable-background:new 0 0 110.1 110.1;" xml:space="preserve">
<g id="XMLID_193_">
	<path id="XMLID_194_" d="M108.3,42.6c-0.4-1.1-1.3-1.8-2.4-2l-33.3-4.7l-15-30.1c-0.5-1-1.5-1.6-2.7-1.6l0,0
		c-1.1,0-2.1,0.6-2.7,1.7L37.5,36l-33.3,5c-1.1,0.2-2,0.9-2.4,2s0,2.3,0.8,3l24.2,23.4l-5.6,33.2c-0.2,1.1,0.3,2.2,1.2,2.9
		c0.5,0.4,1.1,0.6,1.7,0.6c0.5,0,0.9-0.1,1.4-0.4l29.7-15.8L85,105.5c0.4,0.2,0.9,0.3,1.4,0.3l0,0c1.6,0,3-1.3,3-3
		c0-0.2,0-0.5-0.1-0.7l-5.8-33l24-23.6C108.4,44.9,108.7,43.7,108.3,42.6z M78.3,66.1c-0.7,0.7-1,1.7-0.8,2.6l5,28.8L56.6,84
		c-0.9-0.5-1.9-0.4-2.8,0L28,97.7l4.8-28.8c0.2-1-0.2-1.9-0.9-2.6L11,45.9l28.9-4.3c1-0.2,1.8-0.7,2.2-1.6L55,13.7l13,26.2
		c0.4,0.9,1.3,1.5,2.2,1.6l28.9,4.1L78.3,66.1z"/>
</g>
</svg>
