<?xml version="1.0" encoding="utf-8"?>
<!-- Generator: Adobe Illustrator 25.2.1, SVG Export Plug-In . SVG Version: 6.00 Build 0)  -->
<svg version="1.1" id="Capa_1" xmlns="http://www.w3.org/2000/svg" xmlns:xlink="http://www.w3.org/1999/xlink" x="0px" y="0px"
	 viewBox="0 0 512 512" style="enable-background:new 0 0 512 512;" xml:space="preserve">
<style type="text/css">
	.st0{fill:#DC3545;}
</style>
<g>
	<path class="st0" d="M328.5,173.5c0-4.1-3.4-7.5-7.5-7.5h-93.9c-4.1,0-7.5,3.4-7.5,7.5s3.4,7.5,7.5,7.5H321
		C325.1,181,328.5,177.7,328.5,173.5z"/>
	<path class="st0" d="M109,303.8c0,11,8.9,19.9,19.9,19.9h44.5c11,0,19.9-8.9,19.9-19.9v-44.3l7-7c2.9-2.9,2.9-7.7,0-10.6
		c-2.9-2.9-7.7-2.9-10.6,0l-2.8,2.8c-3.5-3.3-8.3-5.3-13.5-5.3h-44.5c-11,0-19.9,8.9-19.9,19.9L109,303.8L109,303.8z M124,259.3
		c0-2.7,2.2-4.9,4.9-4.9h44.5c1.1,0,2,0.3,2.8,0.9l-23.1,23.1l-5.3-5.3c-2.9-2.9-7.7-2.9-10.6,0c-2.9,2.9-2.9,7.7,0,10.6l10.6,10.6
		c1.5,1.5,3.4,2.2,5.3,2.2s3.8-0.7,5.3-2.2l19.8-19.8v29.3c0,2.7-2.2,4.9-4.9,4.9h-44.5c-2.7,0-4.9-2.2-4.9-4.9L124,259.3L124,259.3
		z"/>
	<path class="st0" d="M227.1,274.1c-4.1,0-7.5,3.4-7.5,7.5s3.4,7.5,7.5,7.5h34.3c4.1,0,7.5-3.4,7.5-7.5s-3.4-7.5-7.5-7.5H227.1z"/>
	<path class="st0" d="M109,411.9c0,11,8.9,19.9,19.9,19.9h44.5c11,0,19.9-8.9,19.9-19.9v-44.5c0-11-8.9-19.9-19.9-19.9h-44.5
		c-11,0-19.9,8.9-19.9,19.9V411.9z M124,367.4c0-2.7,2.2-4.9,4.9-4.9h44.5c2.7,0,4.9,2.2,4.9,4.9v44.5c0,2.7-2.2,4.9-4.9,4.9h-44.5
		c-2.7,0-4.9-2.2-4.9-4.9V367.4z"/>
	<path class="st0" d="M473.4,175.4c0-7.2-2.9-16.2-9.4-22.8c-12-12.7-35.3-12.6-47.5,2V63.5c0-17-13.9-30.9-30.9-30.9h-71.4V17.9
		c0-9.9-8-17.9-17.9-17.9H158.7c-9.9,0-17.9,8-17.9,17.9v14.7H69.4c-17,0-30.9,13.9-30.9,30.9v417.6c0,17,13.9,30.9,30.9,30.9h316.2
		c17,0,30.9-13.9,30.9-30.9V281.6c0-4.1-3.4-7.5-7.5-7.5s-7.5,3.4-7.5,7.5v199.5c0,8.8-7.1,15.9-15.9,15.9H69.4
		c-8.8,0-15.9-7.1-15.9-15.9V63.5c0-8.8,7.1-15.9,15.9-15.9h44.1v15.6c-0.4,18.3,17.8,34.9,37.2,31.2L220,82.1c5-0.9,10-0.9,15,0
		l69.3,12.3c17.4,3.9,37.9-11.7,37.2-31.2V47.6h30.1v151.9L246.3,324.9c-7.2,6.8-13.1,14.9-16.4,26.2l-10.1,36.5
		c-0.3,3.2-0.1,10.6,9.2,9.2l36.5-10.1c9.1-2.3,19.3-8.8,26.2-16.4l79.9-79.9v174.7c0,1-0.8,1.9-1.9,1.9H85.3c-1,0-1.9-0.8-1.9-1.9
		V75.5c0-4.1-3.4-7.5-7.5-7.5s-7.5,3.4-7.5,7.5v389.7c0,9.3,7.6,16.9,16.9,16.9h284.4c9.3,0,16.9-7.6,16.9-16.9V275.5l77.4-77.4h0
		C469.2,193.3,473.5,183.9,473.4,175.4L473.4,175.4z M155.8,17.9c0-1.6,1.3-2.9,2.9-2.9h137.7c1.6,0,2.9,1.3,2.9,2.9v14.7H155.8
		L155.8,17.9z M326.5,63.3c0.2,9-8.8,18.4-19.6,16.4l-69.3-12.3c-3.4-0.6-6.7-0.9-10.1-0.9c-3.4,0-6.8,0.3-10.1,0.9l-69.2,12.3
		c-8.8,1.7-19.6-5.5-19.6-16.4V47.6h197.9L326.5,63.3z M453.4,187.6l-22.2,22.2L407,185.5l22.2-22.2c5.9-5.9,17-7.2,24.3,0
		C458.8,168.8,461,180.1,453.4,187.6L453.4,187.6z M286.5,354.5l-24.3-24.3l134.1-134.1l24.3,24.3L286.5,354.5z M386.7,47.7
		c8.3,0.5,14.9,7.4,14.9,15.8v106.2l-14.9,14.9V47.7z M244.4,355.1c0.5-1.2,1.6-7.1,7.4-14.1l24,24c-5.6,6.4-29.3,11.3-37.9,13.9
		L244.4,355.1z"/>
	<path class="st0" d="M200.2,133.3c-2.9-2.9-7.7-2.9-10.6,0l-3.1,3.1c-3.5-3.1-8.1-5-13.1-5h-44.5c-11,0-19.9,8.9-19.9,19.9v44.5
		c0,11,8.9,19.9,19.9,19.9h44.5c11,0,19.9-8.9,19.9-19.9v-44.5c0-0.1,0-0.2,0-0.4l7-7C203.1,141,203.1,136.2,200.2,133.3
		L200.2,133.3z M178.2,195.8c0,2.7-2.2,4.9-4.9,4.9h-44.5c-2.7,0-4.9-2.2-4.9-4.9v-44.5c0-2.7,2.2-4.9,4.9-4.9h44.5
		c0.9,0,1.7,0.3,2.5,0.7l-22.7,22.7l-5.3-5.3c-2.9-2.9-7.7-2.9-10.6,0c-2.9,2.9-2.9,7.7,0,10.6l10.6,10.6c1.5,1.5,3.4,2.2,5.3,2.2
		s3.8-0.7,5.3-2.2l19.8-19.8V195.8z"/>
</g>
</svg>
