<?xml version="1.0" encoding="utf-8"?>
<!-- Generator: Adobe Illustrator 25.0.1, SVG Export Plug-In . SVG Version: 6.00 Build 0)  -->
<svg version="1.1" id="_x33_0" xmlns="http://www.w3.org/2000/svg" xmlns:xlink="http://www.w3.org/1999/xlink" x="0px" y="0px"
	 viewBox="0 0 512 512" style="enable-background:new 0 0 512 512;" xml:space="preserve">
<g>
	<path d="M295,109.2V61h-15.6v48.2c-9.1,3.2-15.6,11.8-15.6,22c0,10.2,6.5,18.7,15.6,22v48.2H295v-48.2c9.1-3.2,15.6-11.8,15.6-22
		C310.6,121,304.1,112.5,295,109.2z M287.2,139c-4.3,0-7.8-3.5-7.8-7.8c0-4.3,3.5-7.8,7.8-7.8c4.3,0,7.8,3.5,7.8,7.8
		C295,135.5,291.5,139,287.2,139z"/>
	<path d="M451,78V61h-15.6v17c-9.1,3.2-15.6,11.8-15.6,22s6.5,18.7,15.6,22v79.4H451V122c9.1-3.2,15.6-11.8,15.6-22
		S460.1,81.3,451,78z M443.2,107.8c-4.3,0-7.8-3.5-7.8-7.8s3.5-7.8,7.8-7.8s7.8,3.5,7.8,7.8S447.5,107.8,443.2,107.8z"/>
	<path d="M474.4,14.2H256c-12.9,0-23.4,10.5-23.4,23.4v39h-195c-12.9,0-23.4,10.5-23.4,23.4v374.4c0,12.9,10.5,23.4,23.4,23.4h421.2
		v-99.3c15.3-26.3,23.4-56.2,23.4-86.6v-49.6c9.1-3.2,15.6-11.8,15.6-22V37.6C497.8,24.7,487.3,14.2,474.4,14.2L474.4,14.2z
		 M288,357.4h-86.6v-15.6h82.1C284.7,347.1,286.2,352.3,288,357.4z M279.4,295H61v-78h171.6v23.4c0,12.9,10.5,23.4,23.4,23.4h23.4
		V295z M37.6,92.2h195v78H29.8V100C29.8,95.7,33.3,92.2,37.6,92.2z M29.8,474.4V185.8h202.8v15.6H45.4v109.2h234.1
		c0.1,5.2,0.5,10.4,1.2,15.6h-94.9V373h108.8c4.4,9.2,9.7,18,16,26.1v83.1h-273C33.3,482.2,29.8,478.7,29.8,474.4z M326.2,482.2v-78
		h117v78H326.2z M466.6,311.9c0,26.9-7,53.3-20.2,76.7H322.4c-17.6-23.3-27.4-51.9-27.4-81.1v-74.9c8.6,0,15.6,7,15.6,15.6V295
		c0,12.9,10.5,23.4,23.4,23.4c12.9,0,23.4-10.5,23.4-23.4V178c0-4.3,3.5-7.8,7.8-7.8c4.3,0,7.8,3.5,7.8,7.8v124.8h15.6v-78
		c0-4.3,3.5-7.8,7.8-7.8c4.3,0,7.8,3.5,7.8,7.8v78h15.6v-62.4c0-4.3,3.5-7.8,7.8-7.8c4.3,0,7.8,3.5,7.8,7.8v62.4H451V256
		c0-4.3,3.5-7.8,7.8-7.8s7.8,3.5,7.8,7.8V311.9z M326.2,263.8h15.6V295c0,4.3-3.5,7.8-7.8,7.8c-4.3,0-7.8-3.5-7.8-7.8V263.8z
		 M357.4,84.4c0-4.3,3.5-7.8,7.8-7.8c4.3,0,7.8,3.5,7.8,7.8c0,4.3-3.5,7.8-7.8,7.8C360.9,92.2,357.4,88.7,357.4,84.4z M482.2,240.4
		c0,2.2-0.9,4.1-2.4,5.6c-3.8-7.9-11.7-13.4-21-13.4c-3.1,0-6,0.6-8.7,1.7c-2.7-9.9-11.7-17.3-22.5-17.3c-3.1,0-6,0.6-8.7,1.7
		c-2.7-9.9-11.7-17.3-22.5-17.3c-2.7,0-5.4,0.6-7.8,1.4V178c0-10.2-6.5-18.7-15.6-22v-49.7c9.1-3.2,15.6-11.8,15.6-22
		c0-12.9-10.5-23.4-23.4-23.4c-12.9,0-23.4,10.5-23.4,23.4c0,10.2,6.5,18.7,15.6,22V156c-9.1,3.2-15.6,11.8-15.6,22v70.2h-15.6
		c0-17.2-14-31.2-31.2-31.2c-8.6,0-15.6,7-15.6,15.6v15.6H256c-4.3,0-7.8-3.5-7.8-7.8V37.6c0-4.3,3.5-7.8,7.8-7.8h218.4
		c4.3,0,7.8,3.5,7.8,7.8V240.4z"/>
	<path d="M100,341.8c-30.1,0-54.6,24.5-54.6,54.6c0,30.1,24.5,54.6,54.6,54.6s54.6-24.5,54.6-54.6
		C154.6,366.3,130.1,341.8,100,341.8z M138.2,388.6h-30.4v-30.4C123.1,361.3,135.1,373.3,138.2,388.6z M92.2,358.2v35l-24.7,24.7
		c-4.1-6.2-6.5-13.5-6.5-21.5C61,377.6,74.4,361.8,92.2,358.2L92.2,358.2z M100,435.4c-7.9,0-15.3-2.4-21.5-6.5l24.7-24.7h35
		C134.6,422,118.8,435.4,100,435.4z"/>
	<path d="M185.8,388.6H217v15.6h-31.2V388.6z"/>
	<path d="M232.6,388.6H295v15.6h-62.4V388.6z"/>
	<path d="M185.8,451H217v15.6h-31.2V451z"/>
	<path d="M232.6,451H295v15.6h-62.4V451z"/>
	<path d="M185.8,419.8H295v15.6H185.8V419.8z"/>
	<path d="M92.2,107.8H45.4v46.8h46.8V107.8z M76.6,139H61v-15.6h15.6V139z"/>
	<path d="M154.6,107.8h-46.8v46.8h46.8V107.8z M139,139h-15.6v-15.6H139V139z"/>
	<path d="M217,107.8h-46.8v46.8H217V107.8z M201.4,139h-15.6v-15.6h15.6V139z"/>
</g>
</svg>
