<?xml version="1.0" encoding="utf-8"?>
<!-- Generator: Adobe Illustrator 25.0.1, SVG Export Plug-In . SVG Version: 6.00 Build 0)  -->
<svg version="1.1" id="Layer_1" xmlns="http://www.w3.org/2000/svg" xmlns:xlink="http://www.w3.org/1999/xlink" x="0px" y="0px"
	 viewBox="0 0 496 496" style="enable-background:new 0 0 496 496;" xml:space="preserve">
<path d="M379.6,47.4v-0.7c0-21.3-17.4-38.7-38.7-38.7H108.6C87.3,8,69.9,25.4,69.9,46.7v40.5C30,131.3,8,188.3,8,248
	c0,18.3,2.2,36.5,6.3,54.2H8v38.7c0,21.3,17.4,38.7,38.7,38.7h0.7C92,447.5,166.6,488,248,488c132.3,0,240-107.7,240-240
	C488,166.6,447.5,92,379.6,47.4z M364.1,46.7v100.6h-46.5V46.7c0-12.8,10.4-23.2,23.2-23.2S364.1,33.9,364.1,46.7z M108.6,23.5
	h201.5c-4.9,6.5-7.9,14.5-7.9,23.2v134.3c-4.9-1.7-10-2.7-15.5-2.7c-25.6,0-46.5,20.8-46.5,46.5c0,0.9,0.1,1.8,0.1,2.7
	c-18.4,6.4-31.1,23.8-31.1,43.8c0,3.7,0.5,7.3,1.3,10.7c-6.5,5.4-11.3,12.4-14,20.2H85.4V46.7C85.4,33.9,95.8,23.5,108.6,23.5z
	 M407,242.7c11.3,4.7,19.1,15.8,19.1,28.5c0,17.1-13.9,31-31,31v15.5c16.1,0,30.2-8.2,38.6-20.6c4.8,5.4,7.7,12.3,7.9,19.7
	c0.3,10.1-5.3,20-15,26.5c-9.5,6.4-17.1,5.7-22.6,4.5l-7.9-1.8l-1.4,8c-1.8,10.1-8.5,18.6-18,22.8l-4.6,2v16.2h-23.2v-61.9h7.7
	c12.8,0,23.2-10.4,23.2-23.2s-10.4-23.2-23.2-23.2s-23.2,10.4-23.2,23.2v7.7h-15.5v-7.7c0-12.8-10.4-23.2-23.2-23.2
	s-23.2,10.4-23.2,23.2s10.4,23.2,23.2,23.2h7.7v61.9H279v-16.2l-4.6-2c-9.5-4.2-16.3-12.7-18-22.8l-1.4-8l-7.9,1.8
	c-5.6,1.2-13.2,1.8-22.6-4.5c-9.7-6.5-15.3-16.4-15-26.5c0.2-7.4,3.1-14.3,7.9-19.7c8.3,12.4,22.5,20.6,38.6,20.6v-15.5
	c-17.1,0-31-13.9-31-31c0-12.7,7.7-23.8,19.1-28.5c7,16.7,23.6,28.5,42.9,28.5v-15.5c-17.1,0-31-13.9-31-31s13.9-31,31-31
	s31,13.9,31,31h15.5c0-17.1,13.9-31,31-31s31,13.9,31,31s-13.9,31-31,31v15.5C383.4,271.2,400,259.4,407,242.7z M281.8,441.5h79.8
	c-18.4,10.8-38.5,19.1-59.7,24.4C292.4,460.4,285.4,451.7,281.8,441.5z M263.5,426.1c-4.3,0-7.7-3.5-7.7-7.7c0-4.3,3.5-7.7,7.7-7.7
	h123.9c4,0,7.2,3.1,7.6,7c-3.4,2.9-6.8,5.8-10.4,8.5H263.5z M302.2,317.7h-7.7c-4.3,0-7.7-3.5-7.7-7.7c0-4.3,3.5-7.7,7.7-7.7
	c4.3,0,7.7,3.5,7.7,7.7V317.7z M333.2,395.1h-15.5v-61.9h15.5V395.1z M348.6,317.7v-7.7c0-4.3,3.5-7.7,7.7-7.7
	c4.3,0,7.7,3.5,7.7,7.7c0,4.3-3.5,7.7-7.7,7.7H348.6z M23.5,248c0-49.8,16.4-97.7,46.5-136.8v190.9H30.2
	C25.8,284.5,23.5,266.4,23.5,248z M23.5,340.9v-23.2h170.4c0.1,15,8.1,29.3,21.9,38.5c8.7,5.8,17.6,8.4,27.2,7.8c0,0,0,0.1,0,0.1
	H46.7C33.9,364.1,23.5,353.7,23.5,340.9z M66.1,379.6h186.3c3.2,3.5,6.9,6.7,11.1,9.1v6.4c-12.8,0-23.2,10.4-23.2,23.2
	s10.4,23.2,23.2,23.2h2.1c2.8,10.8,8.5,20.6,16.4,28.4c-11.1,1.7-22.4,2.6-33.9,2.6C175.3,472.5,108.3,438,66.1,379.6z M407.1,406.2
	c-4.1-6.7-11.4-11.1-19.7-11.1v-6.4c9.6-5.6,16.9-14.3,20.5-24.7c9.6,0.6,18.5-2,27.2-7.8c14.1-9.5,22.3-24.4,21.9-39.8
	c-0.4-13.5-6.5-25.9-16.8-34.4c0.8-3.5,1.3-7,1.3-10.7c0-20-12.7-37.4-31.1-43.8c0-0.9,0.1-1.8,0.1-2.7c0-25.6-20.8-46.5-46.5-46.5
	c-16.1,0-30.4,8.3-38.7,20.8c-2.2-3.3-4.8-6.3-7.7-8.9v-27.4h61.9V66.1c58.4,42.2,92.9,109.2,92.9,181.9
	C472.5,309.7,447.5,365.6,407.1,406.2z"/>
<path d="M286.7,39H100.9v108.4h185.8V39z M271.2,131.9H116.4V54.5h154.8V131.9z"/>
<path d="M100.9,162.8h92.9v15.5h-92.9V162.8z"/>
<path d="M100.9,193.8h92.9v15.5h-92.9V193.8z"/>
<path d="M100.9,224.8h92.9v15.5h-92.9V224.8z"/>
<path d="M178.3,255.7h15.5v15.5h-15.5V255.7z"/>
<path d="M100.9,255.7h61.9v15.5h-61.9V255.7z"/>
</svg>
