<?xml version="1.0" encoding="utf-8"?>
<!-- Generator: Adobe Illustrator 25.0.1, SVG Export Plug-In . SVG Version: 6.00 Build 0)  -->
<svg version="1.1" id="Layer_1" xmlns="http://www.w3.org/2000/svg" xmlns:xlink="http://www.w3.org/1999/xlink" x="0px" y="0px"
	 viewBox="0 0 70 70" style="enable-background:new 0 0 70 70;" xml:space="preserve">
<g id="web-optimization" transform="translate(0 0)">
	<path id="Path_938" d="M68.9,28l-7.1-0.9c-0.6-1.9-1.3-3.8-2.3-5.5l4.4-5.7c0.4-0.5,0.3-1.1-0.1-1.5l-8.2-8.2
		C55.2,5.7,54.5,5.7,54,6l-5.7,4.4c-1.8-1-3.6-1.7-5.5-2.3L42,1c-0.1-0.6-0.6-1-1.2-1H29.1c-0.6,0-1.1,0.4-1.2,1l-0.9,7.1
		c-1.9,0.6-3.8,1.3-5.5,2.3L15.9,6c-0.5-0.4-1.1-0.3-1.5,0.1l-8.2,8.2c-0.4,0.4-0.5,1.1-0.1,1.5l4.4,5.7c-1,1.8-1.7,3.6-2.3,5.5
		L1,28c-0.6,0.1-1,0.6-1,1.2v11.7c0,0.6,0.4,1.1,1,1.2l7.1,0.9c0.3,1,0.7,2.1,1.1,3.1l2.1-0.9c-0.5-1.1-0.9-2.3-1.2-3.5
		c-0.1-0.5-0.5-0.8-1-0.9l-6.8-0.9v-9.6l6.8-0.9c0.5-0.1,0.9-0.4,1-0.9c0.6-2.2,1.5-4.4,2.7-6.4c0.2-0.4,0.2-0.9-0.1-1.3l-4.2-5.5
		l6.8-6.8l5.5,4.2c0.4,0.3,0.9,0.3,1.3,0.1c2-1.2,4.2-2.1,6.4-2.7c0.5-0.1,0.8-0.5,0.9-1l0.9-6.8h9.6l0.9,6.9c0.1,0.5,0.4,0.9,0.9,1
		c2.2,0.6,4.4,1.5,6.4,2.7c0.4,0.2,0.9,0.2,1.3-0.1l5.5-4.2l6.8,6.8l-4.2,5.5c-0.3,0.4-0.3,0.9-0.1,1.3c1.2,2,2.1,4.2,2.7,6.4
		c0.1,0.5,0.5,0.8,1,0.9l6.8,0.9v9.6l-6.8,0.9c-0.5,0.1-0.9,0.4-1,0.9c-0.3,1.2-0.7,2.4-1.2,3.5l2.1,0.9c0.4-1,0.8-2,1.1-3.1
		l7.1-0.9c0.6-0.1,1-0.6,1-1.2V29.1C69.9,28.6,69.5,28.1,68.9,28L68.9,28z"/>
	<path id="Path_939" d="M33.8,7h2.3v2.3h-2.3V7z"/>
	<path id="Path_940" d="M14.4,16l1.6-1.6l1.6,1.6L16,17.7L14.4,16z"/>
	<path id="Path_941" d="M7,33.8h2.3v2.3H7V33.8z"/>
	<path id="Path_942" d="M60.6,33.8H63v2.3h-2.3V33.8z"/>
	<path id="Path_943" d="M52.3,16l1.6-1.6l1.6,1.6l-1.6,1.6L52.3,16z"/>
	<path id="Path_944" d="M17.8,25.1l2,1.2c4.8-8.4,15.5-11.2,23.9-6.4c2.7,1.5,4.9,3.7,6.4,6.4l2-1.2c-5.5-9.5-17.6-12.7-27.1-7.3
		C22.1,19.6,19.5,22.1,17.8,25.1z"/>
	<path id="Path_945" d="M53.6,28H16.3c-1.9,0-3.5,1.6-3.5,3.5v35c0,1.9,1.6,3.5,3.5,3.5h37.3c1.9,0,3.5-1.6,3.5-3.5v-35
		C57.1,29.5,55.6,28,53.6,28C53.6,28,53.6,28,53.6,28z M16.3,30.3h37.3c0.6,0,1.2,0.5,1.2,1.2l0,0V35H15.2v-3.5
		C15.2,30.8,15.7,30.3,16.3,30.3C16.3,30.3,16.3,30.3,16.3,30.3z M53.6,67.6H16.3c-0.6,0-1.2-0.5-1.2-1.2l0,0V37.3h39.6v29.1
		C54.8,67.1,54.3,67.6,53.6,67.6C53.6,67.6,53.6,67.6,53.6,67.6L53.6,67.6z"/>
	<path id="Path_946" d="M18.7,56h14v2.3h-14V56z"/>
	<path id="Path_947" d="M18.7,60.6h14V63h-14V60.6z"/>
	<path id="Path_948" d="M37.3,56h14v2.3h-14V56z"/>
	<path id="Path_949" d="M37.3,60.6h14V63h-14V60.6z"/>
	<path id="Path_950" d="M17.5,31.5h2.3v2.3h-2.3V31.5z"/>
	<path id="Path_951" d="M22.2,31.5h2.3v2.3h-2.3V31.5z"/>
	<path id="Path_952" d="M26.8,31.5h2.3v2.3h-2.3V31.5z"/>
	<path id="Path_953" d="M26.8,46.6h2.3V49h-2.3V46.6z"/>
	<path id="Path_954" d="M31.5,46.6h2.3V49h-2.3V46.6z"/>
	<path id="Path_955" d="M36.1,46.6h2.3V49h-2.3V46.6z"/>
	<path id="Path_956" d="M40.8,46.6h2.3V49h-2.3V46.6z"/>
	<path id="Path_957" d="M50.1,42H19.8c-0.6,0-1.2,0.5-1.2,1.2v9.3c0,0.6,0.5,1.2,1.2,1.2h30.3c0.6,0,1.2-0.5,1.2-1.2v-9.3
		C51.3,42.5,50.8,42,50.1,42z M49,51.3H21v-7h28V51.3z"/>
</g>
</svg>
