<?xml version="1.0" encoding="utf-8"?>
<!-- Generator: Adobe Illustrator 25.0.1, SVG Export Plug-In . SVG Version: 6.00 Build 0)  -->
<svg version="1.1" id="interface" xmlns="http://www.w3.org/2000/svg" xmlns:xlink="http://www.w3.org/1999/xlink" x="0px" y="0px"
	 viewBox="0 0 73.1 64" style="enable-background:new 0 0 73.1 64;" xml:space="preserve">
<path id="Path_958" d="M72.1,34.1c0.6,0,1.1-0.5,1.1-1.1V2.5C73.1,1.1,72,0,70.6,0H58.7c-0.6,0-1.1,0.5-1.1,1.1s0.5,1.1,1.1,1.1
	h11.9c0.2,0,0.4,0.2,0.4,0.4c0,0,0,0,0,0v6.6H23V2.1H54c0.6,0,1.1-0.5,1.1-1.1S54.6,0,54,0H2.5C1.1,0,0,1.1,0,2.5v59
	C0,62.9,1.1,64,2.5,64h13.2c0.6,0,1.1-0.5,1.1-1.1c0-0.6-0.5-1.1-1.1-1.1H2.5c-0.2,0-0.4-0.2-0.4-0.4V11.2h23.5v50.6h-5.3
	c-0.6,0-1.1,0.5-1.1,1.1c0,0.6,0.5,1.1,1.1,1.1h50.3c1.4,0,2.5-1.1,2.5-2.5V37.6c0-0.6-0.5-1.1-1.1-1.1c-0.6,0-1.1,0.5-1.1,1.1v23.9
	c0,0.2-0.2,0.4-0.4,0.4l0,0h-8.2V28.8H71V33C71,33.6,71.5,34,72.1,34.1L72.1,34.1z M2.1,2.5c0-0.2,0.2-0.4,0.4-0.4h0h18.3v6.9H2.1
	V2.5z M27.8,28.8h14.9v33.1H27.8L27.8,28.8z M60.2,44.2H46.3l13.9-13.7V44.2z M44.8,42.8v-14H59L44.8,42.8z M44.8,61.9V46.4h15.5
	v15.5L44.8,61.9z M27.8,26.6V11.2H71v15.4L27.8,26.6z"/>
<path id="Path_959" d="M7.7,4.5L7.7,4.5C7.1,4.5,6.6,5,6.6,5.6s0.5,1.1,1.1,1.1h0c0.6,0,1.1-0.5,1.1-1.1C8.8,5,8.3,4.5,7.7,4.5
	L7.7,4.5z"/>
<path id="Path_960" d="M11.6,4.5L11.6,4.5c-0.6,0-1.1,0.5-1.1,1.1c0,0.6,0.5,1.1,1.1,1.1h0c0.6,0,1.1-0.5,1.1-1.1
	C12.7,5,12.2,4.5,11.6,4.5z"/>
<path id="Path_961" d="M15.6,4.6L15.6,4.6c-0.6,0-1.1,0.5-1.1,1.1c0,0.6,0.5,1.1,1.1,1.1h0c0.6,0,1.1-0.5,1.1-1.1
	C16.6,5,16.2,4.6,15.6,4.6z"/>
<path id="Path_962" d="M31.4,31.2L31.4,31.2c-0.6,0-1.1,0.5-1.1,1.1s0.5,1.1,1.1,1.1h0c0.6,0,1.1-0.5,1.1-1.1S32,31.2,31.4,31.2z"/>
<path id="Path_963" d="M35.3,31.2L35.3,31.2c-0.6,0-1.1,0.5-1.1,1.1s0.5,1.1,1.1,1.1h0c0.6,0,1.1-0.5,1.1-1.1S35.9,31.2,35.3,31.2z"
	/>
<path id="Path_964" d="M39.2,33.4L39.2,33.4c0.6,0,1.1-0.5,1.1-1.1s-0.5-1.1-1.1-1.1h0c-0.6,0-1.1,0.5-1.1,1.1S38.6,33.4,39.2,33.4z
	"/>
<path id="Path_965" d="M31.4,36.3L31.4,36.3c-0.6,0-1.1,0.5-1.1,1.1s0.5,1.1,1.1,1.1h0c0.6,0,1.1-0.5,1.1-1.1S32,36.3,31.4,36.3
	L31.4,36.3z"/>
<path id="Path_966" d="M35.3,36.3L35.3,36.3c-0.6,0-1.1,0.5-1.1,1.1c0,0.6,0.5,1.1,1.1,1.1l0,0h0c0.6,0,1.1-0.5,1.1-1.1
	S35.9,36.3,35.3,36.3z"/>
<path id="Path_967" d="M39.2,36.3L39.2,36.3c-0.6,0-1.1,0.5-1.1,1.1s0.5,1.1,1.1,1.1l0,0h0c0.6,0,1.1-0.5,1.1-1.1
	S39.8,36.3,39.2,36.3z"/>
<path id="Path_968" d="M31.4,41.3L31.4,41.3c-0.6,0-1.1,0.5-1.1,1.1s0.5,1.1,1.1,1.1h0c0.6,0,1.1-0.5,1.1-1.1S32,41.3,31.4,41.3
	L31.4,41.3z"/>
<path id="Path_969" d="M35.3,41.4L35.3,41.4c-0.6,0-1.1,0.5-1.1,1.1c0,0.6,0.5,1.1,1.1,1.1h0c0.6,0,1.1-0.5,1.1-1.1
	S35.9,41.4,35.3,41.4z"/>
<path id="Path_970" d="M39.2,41.4L39.2,41.4c-0.6,0-1.1,0.5-1.1,1.1s0.5,1.1,1.1,1.1h0c0.6,0,1.1-0.5,1.1-1.1S39.8,41.4,39.2,41.4z"
	/>
<path id="Path_971" d="M31.4,46.4L31.4,46.4c-0.6,0-1.1,0.5-1.1,1.1s0.5,1.1,1.1,1.1h0c0.6,0,1.1-0.5,1.1-1.1
	C32.4,46.9,32,46.4,31.4,46.4L31.4,46.4z"/>
<path id="Path_972" d="M35.3,46.4L35.3,46.4c-0.6,0-1.1,0.5-1.1,1.1s0.5,1.1,1.1,1.1h0c0.6,0,1.1-0.5,1.1-1.1S35.9,46.4,35.3,46.4z"
	/>
<path id="Path_973" d="M39.2,46.4L39.2,46.4c-0.6,0-1.1,0.5-1.1,1.1s0.5,1.1,1.1,1.1h0c0.6,0,1.1-0.5,1.1-1.1S39.8,46.4,39.2,46.4z"
	/>
<path id="Path_974" d="M31.4,51.5L31.4,51.5c-0.6,0-1.1,0.5-1.1,1.1s0.5,1.1,1.1,1.1h0c0.6,0,1.1-0.5,1.1-1.1S32,51.5,31.4,51.5z"/>
<path id="Path_975" d="M35.3,51.5L35.3,51.5c-0.6,0-1.1,0.5-1.1,1.1s0.5,1.1,1.1,1.1h0c0.6,0,1.1-0.5,1.1-1.1
	C36.4,52,35.9,51.5,35.3,51.5z"/>
<path id="Path_976" d="M39.2,51.5L39.2,51.5c-0.6,0-1.1,0.5-1.1,1.1s0.5,1.1,1.1,1.1h0c0.6,0,1.1-0.5,1.1-1.1S39.8,51.5,39.2,51.5z"
	/>
<path id="Path_977" d="M31.4,56.6L31.4,56.6c-0.6,0-1.1,0.5-1.1,1.1s0.5,1.1,1.1,1.1h0c0.6,0,1.1-0.5,1.1-1.1S32,56.6,31.4,56.6z"/>
<path id="Path_978" d="M35.3,56.6L35.3,56.6c-0.6,0-1.1,0.5-1.1,1.1c0,0.6,0.5,1.1,1.1,1.1h0c0.6,0,1.1-0.5,1.1-1.1
	C36.4,57.1,35.9,56.6,35.3,56.6z"/>
<path id="Path_979" d="M39.2,56.6L39.2,56.6c-0.6,0-1.1,0.5-1.1,1.1s0.5,1.1,1.1,1.1l0,0h0c0.6,0,1.1-0.5,1.1-1.1
	S39.8,56.6,39.2,56.6z"/>
<path id="Path_980" d="M7.9,23.1h12.1c1.4,0,2.5-1.1,2.5-2.5v-2.3c0-1.4-1.1-2.5-2.5-2.5H7.9c-1.4,0-2.5,1.1-2.5,2.5v2.3
	C5.4,22,6.5,23.1,7.9,23.1z M7.5,18.3c0-0.2,0.2-0.4,0.4-0.4l0,0h12.1c0.2,0,0.4,0.2,0.4,0.4l0,0v2.3c0,0.2-0.2,0.4-0.4,0.4l0,0H7.9
	c-0.2,0-0.4-0.2-0.4-0.4l0,0L7.5,18.3z"/>
<path id="Path_981" d="M22.4,31.7v-2.3c0-1.4-1.1-2.5-2.5-2.5H7.9c-1.4,0-2.5,1.1-2.5,2.5v2.3c0,1.4,1.1,2.5,2.5,2.5h12.1
	C21.3,34.2,22.4,33.1,22.4,31.7z M7.5,31.7v-2.3c0-0.2,0.2-0.4,0.4-0.4h12.1c0.2,0,0.4,0.2,0.4,0.4v2.3c0,0.2-0.2,0.4-0.4,0.4H7.9
	C7.7,32.1,7.5,31.9,7.5,31.7L7.5,31.7z"/>
<path id="Path_982" d="M13.9,40.2H6.4c-0.6,0-1.1,0.5-1.1,1.1s0.5,1.1,1.1,1.1h7.5c0.6,0,1.1-0.5,1.1-1.1S14.5,40.2,13.9,40.2z"/>
<path id="Path_983" d="M13.9,44.8H6.4c-0.6,0-1.1,0.5-1.1,1.1s0.5,1.1,1.1,1.1h7.5c0.6,0,1.1-0.5,1.1-1.1S14.5,44.8,13.9,44.8z"/>
<path id="Path_984" d="M13.9,49.4H6.4c-0.6,0-1.1,0.5-1.1,1.1s0.5,1.1,1.1,1.1h7.5c0.6,0,1.1-0.5,1.1-1.1S14.5,49.4,13.9,49.4z"/>
<path id="Path_985" d="M13.9,53.9H6.4c-0.6,0-1.1,0.5-1.1,1.1s0.5,1.1,1.1,1.1h7.5c0.6,0,1.1-0.5,1.1-1.1S14.5,53.9,13.9,53.9z"/>
</svg>
