<?xml version="1.0" encoding="utf-8"?>
<!-- Generator: Adobe Illustrator 25.0.1, SVG Export Plug-In . SVG Version: 6.00 Build 0)  -->
<svg version="1.1" id="_x31__x2C_5" xmlns="http://www.w3.org/2000/svg" xmlns:xlink="http://www.w3.org/1999/xlink" x="0px"
	 y="0px" viewBox="0 0 512 512" style="enable-background:new 0 0 512 512;" xml:space="preserve">
<path d="M106.7,271.4c-5.7,0-10.3-4.6-10.3-10.3v-92.7c0-5.7,4.6-10.3,10.3-10.3h298.7c5.7,0,10.3,4.6,10.3,10.3v46.3
	c0,5.7-4.6,10.3-10.3,10.3c-5.7,0-10.3-4.6-10.3-10.3v-36.1H116.9v72.1h238.1c5.7,0,10.3,4.6,10.3,10.3c0,5.7-4.6,10.3-10.3,10.3
	H106.7z"/>
<path d="M107.7,333c-5.7,0-10.3-4.6-10.3-10.3c0-5.7,4.6-10.3,10.3-10.3h185.8c5.7,0,10.3,4.6,10.3,10.3c0,5.7-4.6,10.3-10.3,10.3
	H107.7z"/>
<path d="M107.7,394.8c-5.7,0-10.3-4.6-10.3-10.3c0-5.7,4.6-10.3,10.3-10.3h124.4c5.7,0,10.3,4.6,10.3,10.3c0,5.7-4.6,10.3-10.3,10.3
	H107.7z"/>
<path d="M266.9,498c-2.7,0-5.4-1.1-7.2-3c-2.4-2.4-3.4-5.8-2.9-9.1l10.9-61.9c0.4-2,1.4-4,2.9-5.5l152.9-152.9
	c5.8-5.8,11.8-9.4,17.9-10.6c1.7-0.3,3.3-0.5,5-0.5c6.3,0,12.2,2.6,17.1,7.5l25.5,25.5c12,12,12,31.6,0,43.7L336,484.1
	c-1.5,1.5-3.4,2.5-5.5,2.8l-61.9,10.9C268.1,497.9,267.4,498,266.9,498z M441.2,277.3c-0.7,0.6-1.9,1.5-3.2,2.8L287.3,430.8
	l-7.8,44.2l44.2-7.8l150.6-150.7c4-4,4-10.6,0-14.6l-30.3-30.3L441.2,277.3C441.2,277.2,441.2,277.2,441.2,277.3z"/>
<path d="M65.5,456.8c-28.4,0-51.5-23.1-51.5-51.5V65.5C14,37.1,37.1,14,65.5,14h381.1c28.4,0,51.5,23.1,51.5,51.5v150.2
	c0,5.7-4.6,10.3-10.3,10.3c-5.7,0-10.3-4.6-10.3-10.3v-109H34.6v298.7c0,17,13.9,30.9,30.9,30.9h145.8c5.7,0,10.3,4.6,10.3,10.3
	c0,5.7-4.6,10.3-10.3,10.3H65.5z M65.5,34.6c-17,0-30.9,13.9-30.9,30.9v20.6h442.9V65.5c0-17-13.9-30.9-30.9-30.9H65.5z"/>
</svg>
