<?xml version="1.0" encoding="utf-8"?>
<!-- Generator: Adobe Illustrator 25.2.1, SVG Export Plug-In . SVG Version: 6.00 Build 0)  -->
<svg version="1.1" id="Line_expand" xmlns="http://www.w3.org/2000/svg" xmlns:xlink="http://www.w3.org/1999/xlink" x="0px"
	 y="0px" viewBox="0 0 512 512" style="enable-background:new 0 0 512 512;" xml:space="preserve">
<style type="text/css">
	.st0{fill:#71D803;}
</style>
<g>
	<rect x="200" y="224" class="st0" width="16" height="48"/>
	<rect x="224" y="232" class="st0" width="16" height="40"/>
	<rect x="248" y="216" class="st0" width="16" height="56"/>
	<rect x="320" y="248" class="st0" width="16" height="24"/>
	<rect x="176" y="240" class="st0" width="16" height="32"/>
	<rect x="272" y="224" class="st0" width="16" height="48"/>
	<rect x="296" y="232" class="st0" width="16" height="40"/>
	<path class="st0" d="M408,336c39.7,0,72,32.3,72,72h16c-0.1-48.6-39.4-87.9-88-88v-30c0-9.9-8.1-18-18-18h-30v-32h30
		c9.9,0,18-8.1,18-18v-30c48.6,0,88-39.4,88-88c0-48.6-39.4-88-88-88c-45.5,0-83.5,34.7-87.6,80H296v-8c0-4.4-3.6-8-8-8h-64
		c-4.4,0-8,3.6-8,8v8h-24.4c-4.4-48.4-47.3-84.1-95.7-79.6c-32,2.9-59.8,23-72.6,52.4L38,75.2c15.9-36.5,58.3-53.1,94.8-37.3
		s53.1,58.3,37.3,94.8c-4.1,9.4-10.2,17.9-17.9,24.8V142c0-14.4-8.2-27.6-21-34c3.3-4.7,5-10.3,5-16V76c0-15.5-12.5-28-28-28h-8
		c-15.5,0-28,12.5-28,28v16c0,5.7,1.8,11.3,5,16c-12.9,6.4-21,19.6-21,34v15.7C40.8,144.1,32,124.5,32,104c0-4.8,0.5-9.7,1.4-14.4
		l-15.7-3.2c-9.7,47.7,21.1,94.2,68.8,103.8c3.1,0.6,6.3,1.1,9.4,1.4V222c0,9.9,8.1,18,18,18h38v32h-38c-9.9,0-18,8.1-18,18v30.4
		c-48.4,4.4-84.1,47.2-79.6,95.6s47.2,84.1,95.6,79.6c42.3-3.9,75.8-37.4,79.6-79.6H216v8c0,4.4,3.6,8,8,8h64c4.4,0,8-3.6,8-8v-8
		h24.4c4.4,48.4,47.2,84.1,95.7,79.6c38.7-3.5,70.5-32,78.2-70l-15.7-3.2c-3.1,15.1-10.9,28.8-22.4,39.1V446c0-14.4-8.2-27.6-21-34
		c3.3-4.7,5-10.3,5-16v-16c0-15.5-12.5-28-28-28h-8c-15.5,0-28,12.5-28,28v16c0,5.7,1.8,11.3,5,16c-12.9,6.4-21,19.6-21,34v15.7
		c-29.7-26.4-32.4-71.9-6-101.6C367.9,344.8,387.4,336,408,336z M392.1,380c0-6.6,5.4-12,12-12h8c6.6,0,12,5.4,12,12v16
		c0,6.6-5.4,12-12,12h-8c-6.6,0-12-5.4-12-12V380z M376.1,446c0-12.1,9.9-22,22-22h20c12.1,0,22,9.9,22,22v26.4
		c-20.1,10.1-43.8,10.2-64,0.2V446z M272.4,341.5c-0.3,0.8-0.4,1.7-0.4,2.5v8h-32v-8c0-0.9-0.1-1.7-0.4-2.5l-4.5-13.5h41.8
		L272.4,341.5z M170,312c-1.1,0-2-0.9-2-2v-6h176v6c0,1.1-0.9,2-2,2H170z M344,288H168v-86c0-1.1,0.9-2,2-2h172c1.1,0,2,0.9,2,2V288
		z M376.1,168.6V142c0-12.1,9.9-22,22-22h20c12.1,0,22,9.9,22,22v26.4C420,178.5,396.3,178.5,376.1,168.6z M424.1,92
		c0,6.6-5.4,12-12,12h-8c-6.6,0-12-5.4-12-12V76c0-6.6,5.4-12,12-12h8c6.6,0,12,5.4,12,12V92z M408,32c39.7,0,72,32.2,72,71.9
		c0,20.4-8.7,39.9-23.9,53.6V142c0-14.4-8.2-27.6-21-34c3.3-4.7,5-10.3,5-16V76c0-15.5-12.5-28-28-28h-8c-15.5,0-28,12.5-28,28v16
		c0,5.7,1.8,11.3,5,16c-12.9,6.4-21,19.6-21,34v15.7c-29.7-26.4-32.4-71.9-6-101.6C367.9,40.8,387.4,32,408,32z M232,96h48v16h-48
		V96z M88.1,76c0-6.6,5.4-12,12-12h8c6.6,0,12,5.4,12,12v16c0,6.6-5.4,12-12,12h-8c-6.6,0-12-5.4-12-12V76z M72.1,142
		c0-12.1,9.9-22,22-22h20c12.1,0,22,9.9,22,22v26.4c-20.1,10.1-43.8,10.1-64,0.1L72.1,142z M114,224c-1.1,0-2-0.9-2-2v-30.4
		c42.3-3.9,75.7-37.4,79.6-79.6H216v8c0,4.4,3.6,8,8,8h64c4.4,0,8-3.6,8-8v-8h24.4c3.6,39.2,32.9,71.3,71.6,78.5V222
		c0,1.1-0.9,2-2,2h-30v-22c0-9.9-8.1-18-18-18H170c-9.9,0-18,8.1-18,18v22H114z M72.1,472.6V446c0-12.1,9.9-22,22-22h20
		c12.1,0,22,9.9,22,22v26.4C116,482.5,92.3,482.5,72.1,472.6z M120.1,396c0,6.6-5.4,12-12,12h-8c-6.6,0-12-5.4-12-12v-16
		c0-6.6,5.4-12,12-12h8c6.6,0,12,5.4,12,12V396z M152.1,461.5V446c0-14.4-8.2-27.6-21-34c3.3-4.7,5-10.3,5-16v-16
		c0-15.5-12.5-28-28-28h-8c-15.5,0-28,12.5-28,28v16c0,5.7,1.8,11.3,5,16c-12.9,6.4-21,19.6-21,34v15.7
		c-29.7-26.4-32.4-71.9-5.9-101.7s71.9-32.4,101.7-5.9c29.7,26.4,32.4,71.9,5.9,101.7C156,457.8,154.1,459.7,152.1,461.5z M280,416
		h-48v-16h48V416z M320.4,400H296v-8c0-4.4-3.6-8-8-8h-64c-4.4,0-8,3.6-8,8v8h-24.4c-3.9-42.3-37.4-75.7-79.6-79.6V290
		c0-1.1,0.9-2,2-2h38v22c0,9.9,8.1,18,18,18h48.2l5.8,17.3v6.7h-16v16h96v-16h-16v-6.7l5.8-17.3H342c9.9,0,18-8.1,18-18v-22h30
		c1.1,0,2,0.9,2,2v31.5C353.3,328.7,324,360.8,320.4,400z"/>
</g>
</svg>
