<?xml version="1.0" encoding="utf-8"?>
<!-- Generator: Adobe Illustrator 25.2.1, SVG Export Plug-In . SVG Version: 6.00 Build 0)  -->
<svg version="1.1" id="Capa_1" xmlns="http://www.w3.org/2000/svg" xmlns:xlink="http://www.w3.org/1999/xlink" x="0px" y="0px"
	 viewBox="0 0 480 480" style="enable-background:new 0 0 480 480;" xml:space="preserve">
<style type="text/css">
	.st0{fill:#0078EF;}
</style>
<g>
	<g>
		<path class="st0" d="M424,56h-96.8c-22-48.1-78.9-69.3-127-47.3c-20.9,9.6-37.7,26.4-47.3,47.3H56C29.5,56,8,77.5,8,104v248
			c0,26.5,21.5,48,48,48h124.9l-10.7,32H80c-13.3,0-24,10.7-24,24s10.7,24,24,24h320c13.3,0,24-10.7,24-24s-10.7-24-24-24h-90.2
			l-10.7-32H424c26.5,0,48-21.5,48-48V104C472,77.5,450.5,56,424,56z M240,16c44.2,0,80,35.8,80,80s-35.8,80-80,80s-80-35.8-80-80
			C160.1,51.9,195.8,16.1,240,16z M400,448c4.4,0,8,3.6,8,8s-3.6,8-8,8H80c-4.4,0-8-3.6-8-8s3.6-8,8-8H400z M187.1,432l10.7-32h84.4
			l10.7,32H187.1z M456,352c0,17.7-14.3,32-32,32H56c-17.7,0-32-14.3-32-32v-16h432V352z M456,320H24V104c0-17.7,14.3-32,32-32h91.2
			c-7,26.3-2.3,54.3,12.8,77v53.3l-33.9,11.3c-5.9-16.6-24.1-25.2-40.6-19.3s-25.2,24.1-19.3,40.6s24.1,25.2,40.6,19.3
			c10.7-3.8,18.6-13,20.6-24.2l43.1-14.4c3.3-1.1,5.5-4.1,5.5-7.6v-40.6c11.4,10.3,25.1,17.6,40,21.5v46.9l-14.4,9.6
			c-15.1-10.3-35.6-6.4-45.8,8.7c-10.3,15.1-6.4,35.6,8.7,45.8c15.1,10.3,35.6,6.4,45.8-8.7c6.8-10,7.6-23,2-33.7l16.1-10.8
			c2.2-1.5,3.6-4,3.6-6.7v-48.4c2.6,0.2,5.3,0.4,8,0.4s5.4-0.2,8-0.4V224c0,2.7,1.3,5.2,3.6,6.7l16.1,10.8
			c-2.4,4.5-3.7,9.5-3.7,14.6c-0.1,17.7,14.3,32.1,32,32.2c17.7,0.1,32.1-14.3,32.2-32s-14.3-32.1-32-32.2c-6.3,0-12.5,1.8-17.8,5.3
			l-14.4-9.6v-30.9c14.9-3.8,28.6-11.2,40-21.5V200c0,3,1.7,5.8,4.4,7.2l44.1,22c2.9,17.4,19.4,29.1,36.8,26.2s29.1-19.4,26.2-36.8
			s-19.4-29.1-36.8-26.2c-11,1.9-20.3,9.4-24.4,19.8L320,195.1V149c15.1-22.6,19.8-50.6,12.8-77H424c17.7,0,32,14.3,32,32L456,320
			L456,320z M112,224c0,8.8-7.2,16-16,16s-16-7.2-16-16s7.2-16,16-16S112,215.2,112,224z M200,272c0,8.8-7.2,16-16,16s-16-7.2-16-16
			s7.2-16,16-16S200,263.2,200,272z M280,256c0-8.8,7.2-16,16-16s16,7.2,16,16s-7.2,16-16,16S280,264.9,280,256z M368,224
			c0-8.8,7.2-16,16-16s16,7.2,16,16s-7.2,16-16,16S368,232.9,368,224z"/>
	</g>
</g>
<g>
	<g>
		<rect x="232" y="352" class="st0" width="16" height="16"/>
	</g>
</g>
<g>
	<g>
		<path class="st0" d="M245.7,34.4c-3.1-3.1-8.2-3.1-11.3,0l-32,32l11.3,11.3L232,59.3V112h16V59.3l18.3,18.3l11.3-11.3L245.7,34.4z
			"/>
	</g>
</g>
<g>
	<g>
		<path class="st0" d="M272,112v16h-64v-16h-16v24c0,4.4,3.6,8,8,8h80c4.4,0,8-3.6,8-8v-24H272z"/>
	</g>
</g>
<g>
	<g>
		<rect x="48" y="128" class="st0" width="72" height="16"/>
	</g>
</g>
<g>
	<g>
		<rect x="48" y="160" class="st0" width="48" height="16"/>
	</g>
</g>
<g>
	<g>
		<rect x="80" y="96" class="st0" width="40" height="16"/>
	</g>
</g>
<g>
	<g>
		<rect x="48" y="96" class="st0" width="16" height="16"/>
	</g>
</g>
<g>
	<g>
		<rect x="48" y="280" class="st0" width="16" height="16"/>
	</g>
</g>
<g>
	<g>
		<rect x="80" y="280" class="st0" width="16" height="16"/>
	</g>
</g>
<g>
	<g>
		<rect x="112" y="280" class="st0" width="16" height="16"/>
	</g>
</g>
<g>
	<g>
		<rect x="416" y="280" class="st0" width="16" height="16"/>
	</g>
</g>
<g>
	<g>
		<rect x="384" y="280" class="st0" width="16" height="16"/>
	</g>
</g>
<g>
	<g>
		<rect x="352" y="280" class="st0" width="16" height="16"/>
	</g>
</g>
<g>
	<g>
		<rect x="360" y="128" class="st0" width="72" height="16"/>
	</g>
</g>
<g>
	<g>
		<rect x="360" y="160" class="st0" width="48" height="16"/>
	</g>
</g>
<g>
	<g>
		<rect x="392" y="96" class="st0" width="40" height="16"/>
	</g>
</g>
<g>
	<g>
		<rect x="360" y="96" class="st0" width="16" height="16"/>
	</g>
</g>
</svg>
