<?xml version="1.0" encoding="utf-8"?>
<!-- Generator: Adobe Illustrator 25.0.1, SVG Export Plug-In . SVG Version: 6.00 Build 0)  -->
<svg version="1.1" id="Layer_1" xmlns="http://www.w3.org/2000/svg" xmlns:xlink="http://www.w3.org/1999/xlink" x="0px" y="0px"
	 viewBox="0 0 153.1 94.2" style="enable-background:new 0 0 153.1 94.2;" xml:space="preserve">
<style type="text/css">
	.st0{fill:none;stroke:#000000;stroke-width:3;stroke-miterlimit:10;}
</style>
<path id="woo" class="st0" d="M15.4,17.8c-7.7,0-13.9,6.2-13.9,13.9c0,0,0,0,0,0v46.6c0,7.7,6.3,14,14,14c0,0,0,0,0,0h57.9
	l26.4,14.7l-6-14.7h43.8c7.7,0,14-6.3,14-14c0,0,0,0,0,0V31.8c0-7.7-6.3-14-14-14c0,0,0,0,0,0L15.4,17.8z M65.9,26
	c1.2,0,2.4,0.5,3.3,1.3c1.1,0.8,1.8,2.1,1.9,3.5c0.1,1-0.1,2-0.6,2.9c-2.4,4.4-4.4,11.8-5.9,22.1c-1.5,10-2.1,17.8-1.7,23.4
	c0.1,1.4-0.1,2.8-0.7,4c-0.6,1.3-1.9,2.1-3.3,2.2c-1.9,0-3.7-0.8-4.9-2.3c-5.7-5.8-10.2-14.5-13.6-26.1c-3,5.9-5.9,11.8-8.8,17.7
	c-3.6,6.9-6.7,10.5-9.3,10.7c-1.7,0.1-3.1-1.3-4.3-4.2C15,73.2,11.6,57.6,8,34.6c-0.2-1.4,0.1-2.9,1-4.1c0.9-1.2,2.4-1.9,3.9-1.9
	c3.1-0.2,4.9,1.2,5.3,4.4c1.9,12.8,4,23.7,6.2,32.6L37.8,40c1.2-2.3,2.8-3.6,4.6-3.7c2.7-0.2,4.4,1.5,5,5.2c1.3,7.2,3.2,14.2,5.8,21
	c1.6-15.6,4.3-26.8,8.1-33.7c0.7-1.6,2.3-2.6,4.1-2.7C65.6,26,65.8,26,65.9,26L65.9,26z M89.3,32.7c1.1,0,2.2,0.1,3.3,0.4
	c4.2,0.8,7.8,3.4,9.8,7.1c2.1,3.7,3.1,7.9,2.9,12.1c0.1,6.1-1.6,12.1-4.8,17.4c-3.7,6.1-8.5,9.2-14.4,9.2c-1.1,0-2.2-0.1-3.3-0.4
	c-4.2-0.8-7.8-3.4-9.8-7.1c-2-3.7-3.1-7.9-2.9-12.1c-0.1-6.1,1.6-12.1,4.8-17.3C78.6,35.7,83.4,32.7,89.3,32.7L89.3,32.7z
	 M127.7,32.7c1.1,0,2.2,0.1,3.3,0.4c4.2,0.8,7.8,3.4,9.8,7.1c2.1,3.7,3.1,7.9,2.9,12.1c0.1,6.1-1.6,12.1-4.8,17.4
	c-3.7,6.1-8.5,9.2-14.4,9.2c-1.1,0-2.2-0.1-3.3-0.4c-4.2-0.8-7.8-3.4-9.8-7.1c-2-3.7-3.1-7.9-2.9-12.1c-0.1-6.1,1.6-12.1,4.8-17.3
	C117.1,35.7,121.9,32.7,127.7,32.7L127.7,32.7z M89.6,43c-1.9,0-3.8,1.3-5.6,3.9c-1.6,2.2-2.7,4.7-3.3,7.3c-0.3,1.5-0.5,3-0.4,4.5
	c0,1.9,0.4,3.8,1.1,5.6c0.9,2.4,2.1,3.7,3.6,4c1.5,0.3,3.2-0.4,5-2c2.3-2,3.8-5,4.7-9.1c0.3-1.5,0.5-3,0.4-4.5
	c0-1.9-0.4-3.8-1.1-5.6c-0.9-2.4-2.2-3.7-3.6-4C90.1,43,89.8,43,89.6,43L89.6,43z M128,43c-1.9,0-3.8,1.3-5.6,3.9
	c-1.6,2.2-2.7,4.7-3.3,7.3c-0.3,1.5-0.4,3-0.4,4.5c0,1.9,0.4,3.8,1.1,5.6c0.9,2.4,2.2,3.7,3.6,4c1.5,0.3,3.2-0.4,5-2
	c2.3-2,3.8-5,4.7-9.1c0.3-1.5,0.4-3,0.4-4.5c0-1.9-0.4-3.8-1.1-5.6c-0.9-2.4-2.2-3.7-3.6-4C128.6,43,128.3,43,128,43L128,43z"/>
</svg>
