<?xml version="1.0" encoding="utf-8"?>
<!-- Generator: Adobe Illustrator 25.0.1, SVG Export Plug-In . SVG Version: 6.00 Build 0)  -->
<svg version="1.1" id="Outline" xmlns="http://www.w3.org/2000/svg" xmlns:xlink="http://www.w3.org/1999/xlink" x="0px" y="0px"
	 viewBox="0 0 400 386.7" style="enable-background:new 0 0 400 386.7;" xml:space="preserve">
<path d="M380,0H20C9,0,0,9,0,20v346.7c0,11,9,20,20,20h360c11,0,20-9,20-20V20C400,9,391,0,380,0z M20,13.3h360c3.7,0,6.7,3,6.7,6.7
	v33.3H13.3V20C13.3,16.3,16.3,13.3,20,13.3z M380,373.3H20c-3.7,0-6.7-3-6.7-6.7v-300h373.3v300C386.7,370.3,383.7,373.3,380,373.3z
	"/>
<path d="M260,93.3H46.7c-3.7,0-6.7,3-6.7,6.7v133.3c0,3.7,3,6.7,6.7,6.7H260c3.7,0,6.7-3,6.7-6.7V100
	C266.7,96.3,263.7,93.3,260,93.3z M253.3,226.7h-200v-120h200V226.7z"/>
<circle cx="86.7" cy="33.3" r="6.7"/>
<circle cx="60" cy="33.3" r="6.7"/>
<circle cx="33.3" cy="33.3" r="6.7"/>
<path d="M353.3,93.3h-66.7c-3.7,0-6.7,3-6.7,6.7v53.3c0,3.7,3,6.7,6.7,6.7h66.7c3.7,0,6.7-3,6.7-6.7V100
	C360,96.3,357,93.3,353.3,93.3z M346.7,146.7h-53.3v-40h53.3V146.7z"/>
<path d="M136.5,192.3c2,1.2,4.4,1.3,6.5,0.3l40-20c3.3-1.6,4.6-5.7,3-8.9c-0.6-1.3-1.7-2.3-3-3l-40-20c-3.3-1.6-7.3-0.3-8.9,3
	c-0.5,0.9-0.7,1.9-0.7,3v40C133.3,189,134.5,191.1,136.5,192.3z M146.7,157.5l18.4,9.2l-18.4,9.2V157.5z"/>
<path d="M100,253.3H46.7c-3.7,0-6.7,3-6.7,6.7s3,6.7,6.7,6.7H100c3.7,0,6.7-3,6.7-6.7S103.7,253.3,100,253.3z"/>
<path d="M173.3,286.7c0-3.7-3-6.7-6.7-6.7H73.3c-3.7,0-6.7,3-6.7,6.7c0,3.7,3,6.7,6.7,6.7h93.3C170.3,293.3,173.3,290.3,173.3,286.7
	z"/>
<path d="M73.3,306.7c-3.7,0-6.7,3-6.7,6.7c0,3.7,3,6.7,6.7,6.7h73.3c3.7,0,6.7-3,6.7-6.7c0-3.7-3-6.7-6.7-6.7H73.3z"/>
<circle cx="46.7" cy="286.7" r="6.7"/>
<circle cx="46.7" cy="313.3" r="6.7"/>
<path d="M206.7,333.3H73.3c-3.7,0-6.7,3-6.7,6.7s3,6.7,6.7,6.7h133.3c3.7,0,6.7-3,6.7-6.7S210.3,333.3,206.7,333.3z"/>
<circle cx="46.7" cy="340" r="6.7"/>
<path d="M313.3,120v13.3l13.3-6.7L313.3,120z"/>
<path d="M353.3,173.3h-66.7c-3.7,0-6.7,3-6.7,6.7v53.3c0,3.7,3,6.7,6.7,6.7h66.7c3.7,0,6.7-3,6.7-6.7V180
	C360,176.3,357,173.3,353.3,173.3z M346.7,226.7h-53.3v-40h53.3V226.7z"/>
<path d="M313.3,200v13.3l13.3-6.7L313.3,200z"/>
<path d="M353.3,253.3h-66.7c-3.7,0-6.7,3-6.7,6.7v53.3c0,3.7,3,6.7,6.7,6.7h66.7c3.7,0,6.7-3,6.7-6.7V260
	C360,256.3,357,253.3,353.3,253.3z M346.7,306.7h-53.3v-40h53.3V306.7z"/>
<path d="M313.3,280v13.3l13.3-6.7L313.3,280z"/>
<circle cx="293.3" cy="340" r="6.7"/>
<circle cx="320" cy="340" r="6.7"/>
<circle cx="346.7" cy="340" r="6.7"/>
</svg>
