<?xml version="1.0" encoding="utf-8"?>
<!-- Generator: Adobe Illustrator 22.0.1, SVG Export Plug-In . SVG Version: 6.00 Build 0)  -->
<svg version="1.1" id="Layer_1" xmlns="http://www.w3.org/2000/svg" xmlns:xlink="http://www.w3.org/1999/xlink" x="0px" y="0px"
	 viewBox="0 0 71 48" style="enable-background:new 0 0 71 48;" xml:space="preserve">
<style type="text/css">
	.st0{fill:#57A863;}
	.st1{fill:#FFFFFF;}
	.st2{fill:#E4EAF2;}
</style>
<title>Pakistan@2x</title>
<desc>Created with Sketch.</desc>
<g id="Flags" transform="translate(-662.000000, -253.000000)">
	<g id="Pakistan" transform="translate(70.000000, 70.000000)">
		<g transform="translate(592.000000, 183.000000)">
			<path id="Shape" class="st0" d="M64.3,0.9H18.6v47h45.6c3.5,0,6.4-2.8,6.4-6.4V7.2c0-1.7-0.7-3.3-1.9-4.5
				C67.6,1.5,66,0.8,64.3,0.9z"/>
			<path id="Shape_1_" class="st1" d="M48,27.6c-0.5,0.4-0.8,0.2-0.7-0.5l0.6-2.3c0.1-0.7-0.1-1.4-0.6-1.9l-1.8-1.5
				c-0.5-0.4-0.4-0.8,0.3-0.8l2.5-0.1c0.7,0,1.3-0.5,1.5-1.2l0.8-2.6c0.2-0.6,0.5-0.6,0.8,0l0.9,2.5c0.3,0.6,0.9,1.1,1.6,1.1h2.5
				c0.7,0,0.8,0.4,0.3,0.8l-1.9,1.6c-0.5,0.5-0.7,1.2-0.6,1.9l0.6,2.1c0.2,0.6-0.1,0.9-0.7,0.5l-2-1.2c-0.6-0.3-1.4-0.3-2,0.1
				L48,27.6z M56.5,30.1c-0.4,0.4-0.8,0.8-1.3,1.2c-4.6,3.6-11.2,2.8-14.9-1.6c-0.7-0.8-1.2-1.8-1.6-2.8c-0.4-1-0.7-2-0.8-3.1
				c-0.4-5.7,4-10.7,9.7-11.1c0.6,0,1.2,0,1.8,0h0.1c0.1,0,0.2,0,0.3-0.2c0.1-0.1,0.1-0.2,0-0.3c-0.1-0.1-0.2-0.2-0.3-0.2
				c-1.7-0.6-3.4-0.8-5.2-0.6c-3.5,0.2-6.7,1.8-9,4.4s-3.5,6-3.2,9.5v0.1c0.1,1.3,0.4,2.6,0.9,3.8c0.5,1.2,1.2,2.3,2,3.3
				c4.7,5.6,12.9,6.5,18.7,2c1.4-1.1,2.5-2.4,3.4-3.9c0.1-0.1,0.1-0.3,0-0.4C57,30,56.9,30,56.8,30C56.7,30,56.6,30,56.5,30.1
				L56.5,30.1z"/>
			<path id="Shape_2_" class="st2" d="M7,0.9c-3.5,0-6.4,2.8-6.4,6.4v34.3c0,3.5,2.8,6.4,6.4,6.4h11.6v-47L7,0.9z"/>
		</g>
	</g>
</g>
</svg>
