<svg height="480pt" viewBox="0 0 480 480" width="480pt" xmlns="http://www.w3.org/2000/svg"><path d="m240 48c-70.65625.082031-127.917969 57.34375-128 128 0 50.351562 44.671875 118.632812 71.367188 159.414062l1.9375 2.960938c5.296874 8.105469 7.101562 45.511719 6.695312 69.488281v48.136719c0 13.253906 10.746094 24 24 24h48c13.253906 0 24-10.746094 24-24v-48.136719c-.40625-24 1.390625-61.375 6.695312-69.488281l1.9375-2.960938c26.695313-40.78125 71.367188-109.0625 71.367188-159.414062-.082031-70.65625-57.34375-127.917969-128-128zm32 368v16h-64v-16zm0 40c0 4.417969-3.582031 8-8 8h-48c-4.417969 0-8-3.582031-8-8v-8h64zm11.238281-129.335938-1.933593 2.960938c-8.273438 12.640625-9.335938 51.824219-9.359376 70.398438h-23.945312v-136.023438h38.128906c8.4375.007812 16.4375-3.75 21.816406-10.246094 5.246094-6.292968 7.398438-14.605468 5.855469-22.648437-3.503906-20.988281-13.089843-40.480469-27.578125-56.066407-.175781-.222656-.375-.4375-.574218-.648437-6.945313-7.050781-15.304688-12.554687-24.527344-16.152344 3.171875-2.3125 5.972656-5.101562 8.304687-8.261719 5.320313-7.226562 8.167969-15.976562 8.117188-24.953124.007812-2.265626-.183594-4.527344-.574219-6.757813-1.898438-18.945313-17.816406-33.386719-36.855469-33.441406-19.039062-.050781-35.035156 14.296875-37.042969 33.230469-.414062 2.300781-.617187 4.632812-.613281 6.96875-.117187 13.054687 5.976563 25.386718 16.414063 33.222656-9.21875 3.597656-17.574219 9.101562-24.519532 16.152344-.199218.203124-.382812.417968-.566406.632812-14.539062 15.65625-24.144531 35.242188-27.625 56.320312-1.472656 7.972657.691406 16.183594 5.894532 22.402344 5.378906 6.496094 13.378906 10.253906 21.816406 10.246094h38.128906v136h-23.945312c0-18.550781-1.085938-57.734375-9.359376-70.398438l-1.933593-2.960937c-24.035157-36.703125-68.761719-105.039063-68.761719-150.640625 0-61.855469 50.144531-112 112-112s112 50.144531 112 112c0 45.601562-44.726562 113.9375-68.761719 150.664062zm-43.238281-177.40625c-12.613281-.800781-22.226562-11.613281-21.542969-24.234374-.003906-1.441407.128907-2.878907.390625-4.296876.671875-11.238281 10.007813-19.988281 21.265625-19.933593 11.257813.054687 20.511719 8.898437 21.070313 20.144531.246094 1.347656.367187 2.714844.359375 4.085938.039062 5.558593-1.714844 10.980468-5 15.464843-3.785157 5.410157-9.941407 8.671875-16.542969 8.769531zm33.832031 36c.160157.191407.335938.382813.511719.558594 12.574219 13.445313 20.851562 30.335938 23.769531 48.511719.613281 3.296875-.292969 6.691406-2.472656 9.238281-2.355469 2.820313-5.839844 4.445313-9.511719 4.433594h-92.257812c-3.679688.003906-7.164063-1.636719-9.511719-4.472656-2.21875-2.628906-3.101563-6.136719-2.398437-9.503906 2.9375-18.082032 11.195312-34.878907 23.71875-48.246094.175781-.175782.34375-.363282.503906-.554688 8.753906-9.363281 21-14.683594 33.824218-14.683594 12.820313 0 25.066407 5.3125 33.824219 14.675782zm0 0"/><path d="m232 0h16v32h-16zm0 0"/><path d="m0 136h16v16h-16zm0 0"/><path d="m32 136h16v16h-16zm0 0"/><path d="m16 120h16v16h-16zm0 0"/><path d="m16 152h16v16h-16zm0 0"/><path d="m432 136h16v16h-16zm0 0"/><path d="m464 136h16v16h-16zm0 0"/><path d="m448 120h16v16h-16zm0 0"/><path d="m448 152h16v16h-16zm0 0"/><path d="m368 16h16v16h-16zm0 0"/><path d="m400 16h16v16h-16zm0 0"/><path d="m384 0h16v16h-16zm0 0"/><path d="m384 32h16v16h-16zm0 0"/><path d="m96 16h16v16h-16zm0 0"/><path d="m64 16h16v16h-16zm0 0"/><path d="m80 0h16v16h-16zm0 0"/><path d="m80 32h16v16h-16zm0 0"/><path d="m141.074219 28.652344 13.855469-8.003906 16 27.714843-13.855469 8zm0 0"/><path d="m76.652344 98.9375 7.996094-13.859375 27.714843 16-7.996093 13.855469zm0 0"/><path d="m56 176h32v16h-32zm0 0"/><path d="m76.65625 269.070312 27.710938-16 8.003906 13.855469-27.714844 16zm0 0"/><path d="m309.066406 48.363281 16-27.714843 13.855469 8-15.996094 27.710937zm0 0"/><path d="m367.640625 101.066406 27.714844-16 8 13.859375-27.714844 15.996094zm0 0"/><path d="m392 176h32v16h-32zm0 0"/><path d="m367.636719 266.933594 8-13.855469 27.714843 16-8 13.855469zm0 0"/><path d="m469.65625 368.40625-15.894531-2.007812 9.832031-12.636719c3.644531-4.707031 3.230469-11.390625-.96875-15.609375l-16.800781-16.800782c-4.214844-4.207031-10.898438-4.621093-15.601563-.96875l-12.621094 9.855469-1.992187-15.894531c-.746094-5.914062-5.777344-10.347656-11.738281-10.34375h-23.742188c-5.953125.003906-10.976562 4.4375-11.722656 10.34375l-2.007812 15.894531-12.636719-9.832031c-4.707031-3.640625-11.390625-3.226562-15.609375.96875l-16.800782 16.800781c-4.199218 4.214844-4.613281 10.898438-.96875 15.601563l9.855469 12.621094-15.894531 1.992187c-5.914062.746094-10.347656 5.777344-10.34375 11.738281v23.742188c.003906 5.953125 4.4375 10.976562 10.34375 11.722656l15.894531 1.992188-9.832031 12.636718c-3.644531 4.707032-3.230469 11.390625.96875 15.609375l16.800781 16.800781c4.214844 4.203126 10.898438 4.617188 15.601563.96875l12.621094-9.839843 1.992187 15.894531c.746094 5.914062 5.777344 10.347656 11.738281 10.34375h23.742188c5.953125-.003906 10.976562-4.4375 11.722656-10.34375l2.007812-15.894531 12.636719 9.832031c4.707031 3.652344 11.394531 3.238281 15.609375-.96875l16.800782-16.800781c4.199218-4.214844 4.613281-10.898438.96875-15.601563l-9.855469-12.621094 15.894531-1.992187c5.914062-.746094 10.347656-5.777344 10.34375-11.738281v-23.742188c-.003906-5.953125-4.4375-10.976562-10.34375-11.722656zm-5.65625 31.769531-18.96875 2.398438c-3.035156.382812-5.585938 2.460937-6.574219 5.355469-.679687 1.949218-1.480469 3.851562-2.402343 5.703124-1.34375 2.746094-1.003907 6.019532.875 8.429688l11.734374 15.105469-11.550781 11.550781-15.105469-11.734375c-2.402343-1.878906-5.660156-2.230469-8.40625-.90625-1.851562.921875-3.753906 1.722656-5.707031 2.402344-2.894531.988281-4.96875 3.539062-5.351562 6.574219l-2.367188 18.945312h-16.351562l-2.398438-18.96875c-.382812-3.035156-2.460937-5.585938-5.355469-6.574219-1.949218-.679687-3.851562-1.480469-5.703124-2.402343-2.746094-1.34375-6.019532-1.003907-8.429688.875l-15.105469 11.734374-11.550781-11.550781 11.734375-15.105469c1.878906-2.402343 2.230469-5.660156.90625-8.40625-.921875-1.851562-1.722656-3.753906-2.402344-5.707031-.988281-2.894531-3.539062-4.96875-6.574219-5.351562l-18.945312-2.367188v-16.351562l18.96875-2.398438c3.035156-.382812 5.585938-2.460937 6.574219-5.355469.679687-1.949218 1.480469-3.851562 2.402343-5.703124 1.34375-2.746094 1.003907-6.019532-.875-8.429688l-11.734374-15.105469 11.550781-11.550781 15.105469 11.734375c2.414062 1.878906 5.683593 2.21875 8.433593.871094 1.847657-.917969 3.753907-1.71875 5.703125-2.398438 2.894532-.988281 4.972656-3.542969 5.351563-6.578125l2.398437-18.964844h16.351563l2.402343 18.964844c.378907 3.035156 2.457032 5.589844 5.351563 6.578125 1.949219.679688 3.855469 1.480469 5.703125 2.398438 2.746094 1.347656 6.019531 1.007812 8.433594-.871094l15.101562-11.734375 11.554688 11.550781-11.738282 15.105469c-1.917968 2.402344-2.292968 5.691406-.960937 8.460938.921875 1.851562 1.722656 3.753906 2.402344 5.707031.988281 2.894531 3.539062 4.96875 6.574219 5.351562l18.96875 2.398438zm0 0"/><path d="m392 352c-22.089844 0-40 17.910156-40 40s17.910156 40 40 40 40-17.910156 40-40c-.027344-22.082031-17.917969-39.972656-40-40zm0 64c-13.253906 0-24-10.746094-24-24s10.746094-24 24-24 24 10.746094 24 24-10.746094 24-24 24zm0 0"/><path d="m165.65625 368.40625-15.894531-2.007812 9.832031-12.636719c3.644531-4.707031 3.230469-11.390625-.96875-15.609375l-16.800781-16.800782c-4.214844-4.207031-10.898438-4.621093-15.601563-.96875l-12.621094 9.855469-1.992187-15.894531c-.746094-5.914062-5.777344-10.347656-11.738281-10.34375h-23.742188c-5.953125.003906-10.976562 4.4375-11.722656 10.34375l-2.007812 15.894531-12.636719-9.832031c-4.707031-3.640625-11.390625-3.226562-15.609375.96875l-16.800782 16.800781c-4.199218 4.214844-4.613281 10.898438-.96875 15.601563l9.855469 12.621094-15.894531 1.992187c-5.914062.746094-10.34765625 5.777344-10.34375 11.738281v23.742188c.00390625 5.953125 4.4375 10.976562 10.34375 11.722656l15.894531 2.007812-9.832031 12.636719c-3.644531 4.707031-3.230469 11.390625.96875 15.609375l16.800781 16.800782c4.214844 4.203124 10.898438 4.617187 15.601563.96875l12.621094-9.855469 1.992187 15.894531c.746094 5.914062 5.777344 10.347656 11.738281 10.34375h23.742188c5.953125-.003906 10.976562-4.4375 11.722656-10.34375l2.007812-15.894531 12.636719 9.832031c4.707031 3.652344 11.394531 3.238281 15.609375-.96875l16.800782-16.800781c4.199218-4.214844 4.613281-10.898438.96875-15.601563l-9.855469-12.621094 15.894531-1.992187c5.914062-.746094 10.347656-5.777344 10.34375-11.738281v-23.742188c-.003906-5.953125-4.4375-10.976562-10.34375-11.722656zm-5.65625 31.769531-18.96875 2.398438c-3.035156.382812-5.585938 2.460937-6.574219 5.355469-.679687 1.949218-1.480469 3.851562-2.402343 5.703124-1.34375 2.746094-1.003907 6.019532.875 8.429688l11.734374 15.105469-11.550781 11.550781-15.105469-11.734375c-2.402343-1.878906-5.660156-2.230469-8.40625-.90625-1.851562.921875-3.753906 1.722656-5.707031 2.402344-2.894531.988281-4.96875 3.539062-5.351562 6.574219l-2.367188 18.945312h-16.351562l-2.398438-18.96875c-.382812-3.035156-2.460937-5.585938-5.355469-6.574219-1.949218-.679687-3.855468-1.480469-5.703124-2.402343-2.742188-1.34375-6.015626-1.011719-8.429688.867187l-15.074219 11.765625-11.550781-11.550781 11.734375-15.105469c1.878906-2.414062 2.21875-5.683594.875-8.429688-.921875-1.851562-1.722656-3.753906-2.402344-5.707031-.988281-2.894531-3.539062-4.96875-6.574219-5.351562l-18.945312-2.367188v-16.351562l18.96875-2.398438c3.035156-.382812 5.585938-2.460937 6.574219-5.355469.679687-1.949218 1.480469-3.855468 2.402343-5.703124 1.34375-2.742188 1.011719-6.015626-.867187-8.429688l-11.765625-15.074219 11.550781-11.550781 15.105469 11.734375c2.414062 1.878906 5.683594 2.21875 8.429688.875 1.851562-.921875 3.753906-1.722656 5.707031-2.402344 2.894531-.988281 4.96875-3.539062 5.351562-6.574219l2.398438-18.96875h16.351562l2.402344 18.96875c.378906 3.035157 2.457031 5.585938 5.351563 6.574219 1.949218.679688 3.855468 1.480469 5.703124 2.402344 2.746094 1.34375 6.015626 1.011719 8.433594-.867187l15.101563-11.734376 11.554687 11.550782-11.738281 15.105468c-1.875 2.414063-2.210937 5.6875-.863281 8.429688.917968 1.851562 1.722656 3.753906 2.398437 5.707031.988281 2.894531 3.542969 4.96875 6.578125 5.351563l18.96875 2.398437zm0 0"/><path d="m88 352c-22.089844 0-40 17.910156-40 40s17.910156 40 40 40 40-17.910156 40-40c-.027344-22.082031-17.917969-39.972656-40-40zm0 64c-13.253906 0-24-10.746094-24-24s10.746094-24 24-24 24 10.746094 24 24-10.746094 24-24 24zm0 0"/></svg>