<svg xmlns="http://www.w3.org/2000/svg" xmlns:xlink="http://www.w3.org/1999/xlink" width="60" height="57" viewBox="0 0 60 57">
  <defs>
    <clipPath id="clip-path">
      <rect id="Rectangle_207" data-name="Rectangle 207" width="60" height="57" transform="translate(463 997)" fill="#919191"/>
    </clipPath>
  </defs>
  <g id="Mask_Group_31" data-name="Mask Group 31" transform="translate(-463 -997)" clip-path="url(#clip-path)">
    <g id="download" transform="translate(462.6 995.1)">
      <path id="Path_1095" data-name="Path 1095" d="M54.15,1.9H37.05A4.756,4.756,0,0,0,32.3,6.65v15.2H28.5V20.9H26.6v.95H23.75A4.756,4.756,0,0,0,19,26.6h-.842v1.9H19v3.8H5.7V58.9H55.1V32.3H45.6V28.5h8.55a4.756,4.756,0,0,0,4.75-4.75V6.65A4.756,4.756,0,0,0,54.15,1.9ZM23.75,23.75h17.1A2.85,2.85,0,0,1,43.7,26.6v7.207l-4.75-4.75-9.5,9.5-4.75-4.75-3.8,3.8V26.6a2.85,2.85,0,0,1,2.85-2.85Zm9.5,18.05h-.557l-1.9-1.9,8.157-8.157,4.75,4.75V43.7a2.85,2.85,0,0,1-2.85,2.85H38A4.756,4.756,0,0,0,33.25,41.8ZM26.6,49.4a.95.95,0,1,1,0-1.9h1.9v-.95a2.85,2.85,0,0,1,2.85-2.85h1.9a2.85,2.85,0,0,1,2.85,2.85v5.7a.95.95,0,0,1-.95.95h-5.7a.95.95,0,0,1-.95-.95V49.4Zm-2.109-2.85H23.75A2.85,2.85,0,0,1,20.9,43.7V40.293l3.8-3.8,5.472,5.473A4.75,4.75,0,0,0,26.695,45.6H26.6a2.836,2.836,0,0,0-2.109.95ZM7.6,34.2H19V38H7.6ZM53.2,57H7.6V39.9H19v3.8a4.756,4.756,0,0,0,4.75,4.75A2.85,2.85,0,0,0,26.6,51.3v.95a2.85,2.85,0,0,0,2.85,2.85h5.7A2.85,2.85,0,0,0,38,52.25v-3.8h2.85A4.756,4.756,0,0,0,45.6,43.7V39.9h7.6Zm0-22.8V38H45.6V34.2ZM57,23.75a2.85,2.85,0,0,1-2.85,2.85H45.6a4.7,4.7,0,0,0-.4-1.9H48.45V22.8h-1.9V7.6H51.3V9.5h1.9V5.7H38V9.5h1.9V7.6h4.75V22.8h-.979a4.7,4.7,0,0,0-2.821-.95H34.2V6.65A2.85,2.85,0,0,1,37.05,3.8h17.1A2.85,2.85,0,0,1,57,6.65Z"/>
      <path id="Path_1096" data-name="Path 1096" d="M8.825,35.425a1,1,0,0,0-.275.674.981.981,0,0,0,.276.675,1,1,0,0,0,.674.276,1.287,1.287,0,0,0,.19-.019.6.6,0,0,0,.171-.057.528.528,0,0,0,.162-.085c.057-.038.1-.076.152-.114a.981.981,0,0,0,.276-.674.95.95,0,0,0-1.624-.674Z"/>
      <path id="Path_1097" data-name="Path 1097" d="M11.989,35.226a1.1,1.1,0,0,0-.313.2,1,1,0,0,0-.276.674.981.981,0,0,0,.276.675,1.1,1.1,0,0,0,.313.2.8.8,0,0,0,.361.076,1,1,0,0,0,.675-.276A.981.981,0,0,0,13.3,36.1a1,1,0,0,0-.276-.675.95.95,0,0,0-1.036-.2Z"/>
      <path id="Path_1098" data-name="Path 1098" d="M15.874,35.425a.95.95,0,0,0-1.624.674.981.981,0,0,0,.275.674.963.963,0,0,0,1.349,0,1.5,1.5,0,0,0,.114-.142.719.719,0,0,0,.085-.171.6.6,0,0,0,.057-.171,1.287,1.287,0,0,0,.019-.19,1,1,0,0,0-.276-.674Z"/>
      <path id="Path_1099" data-name="Path 1099" d="M25.65,31.35A2.85,2.85,0,1,0,22.8,28.5,2.85,2.85,0,0,0,25.65,31.35Zm0-3.8a.95.95,0,1,1-.95.95A.95.95,0,0,1,25.65,27.55Z"/>
      <path id="Path_1100" data-name="Path 1100" d="M23.75,1.9H20.868V3.8h2.926Z"/>
      <path id="Path_1101" data-name="Path 1101" d="M25.734,4.6A2.84,2.84,0,0,1,26.6,6.528l1.9-.08a4.729,4.729,0,0,0-1.444-3.209Z"/>
      <rect id="Rectangle_214" data-name="Rectangle 214" width="2.882" height="1.9" transform="translate(12.393 26.6)"/>
      <path id="Path_1102" data-name="Path 1102" d="M3.8,6.639,1.9,6.65V9.521H3.8Z"/>
      <rect id="Rectangle_215" data-name="Rectangle 215" width="2.882" height="1.9" transform="translate(15.102 1.9)"/>
      <rect id="Rectangle_216" data-name="Rectangle 216" width="2.882" height="1.9" transform="translate(9.338 1.9)"/>
      <rect id="Rectangle_217" data-name="Rectangle 217" width="1.9" height="2.882" transform="translate(26.6 9.371)"/>
      <rect id="Rectangle_218" data-name="Rectangle 218" width="1.9" height="2.882" transform="translate(26.6 15.135)"/>
      <path id="Path_1103" data-name="Path 1103" d="M6.407,1.907a4.723,4.723,0,0,0-3.2,1.467l1.376,1.31A2.836,2.836,0,0,1,6.5,3.8Z"/>
      <path id="Path_1104" data-name="Path 1104" d="M6.628,26.6l.022,1.9H9.51V26.6l-2.8,0Z"/>
      <path id="Path_1105" data-name="Path 1105" d="M1.906,23.979a4.727,4.727,0,0,0,1.458,3.2l1.315-1.372A2.833,2.833,0,0,1,3.8,23.889Z"/>
      <rect id="Rectangle_219" data-name="Rectangle 219" width="1.9" height="2.882" transform="translate(1.9 18.169)"/>
      <rect id="Rectangle_220" data-name="Rectangle 220" width="1.9" height="2.883" transform="translate(1.9 12.404)"/>
    </g>
  </g>
</svg>
